<?xml version="1.0" encoding="UTF-8"?><svg xmlns="http://www.w3.org/2000/svg" xmlns:xlink="http://www.w3.org/1999/xlink" fill-opacity="1" color-rendering="auto" color-interpolation="auto" stroke="black" text-rendering="auto" stroke-linecap="square" width="409" stroke-miterlimit="10" stroke-opacity="1" shape-rendering="auto" fill="black" stroke-dasharray="none" font-weight="normal" stroke-width="1" height="549" font-family="'Dialog'" font-style="normal" stroke-linejoin="miter" font-size="12" stroke-dashoffset="0" image-rendering="auto">
  <!--Generated by ySVG 2.5-->
  <defs id="genericDefs"/>
  <g>
    <g fill="white" text-rendering="geometricPrecision" shape-rendering="geometricPrecision" transform="translate(-425,-54)" stroke="white">
      <rect x="425" width="409" height="549" y="54" clip-path="url(#clipPath2)" stroke="none"/>
    </g>
    <g fill="rgb(255,255,153)" text-rendering="geometricPrecision" shape-rendering="geometricPrecision" transform="matrix(1,0,0,1,-425,-54)" stroke="rgb(255,255,153)">
      <rect x="440" width="379" height="73" y="415" clip-path="url(#clipPath2)" stroke="none"/>
    </g>
    <g text-rendering="geometricPrecision" stroke-miterlimit="1.45" shape-rendering="geometricPrecision" font-family="sans-serif" transform="matrix(1,0,0,1,-425,-54)" stroke-linecap="butt">
      <text x="613.8262" xml:space="preserve" y="456.2139" clip-path="url(#clipPath2)" stroke="none">PHP5</text>
      <rect fill="none" x="440" width="379" height="73" y="415" clip-path="url(#clipPath2)"/>
    </g>
    <g fill="rgb(255,204,0)" text-rendering="geometricPrecision" shape-rendering="geometricPrecision" transform="matrix(1,0,0,1,-425,-54)" stroke="rgb(255,204,0)">
      <rect x="440" width="379" height="73" y="318" clip-path="url(#clipPath2)" stroke="none"/>
    </g>
    <g text-rendering="geometricPrecision" stroke-miterlimit="1.45" shape-rendering="geometricPrecision" font-family="sans-serif" transform="matrix(1,0,0,1,-425,-54)" stroke-linecap="butt">
      <text x="619.4951" xml:space="preserve" y="359.2139" clip-path="url(#clipPath2)" stroke="none">Yii2</text>
      <rect fill="none" x="440" width="379" height="73" y="318" clip-path="url(#clipPath2)"/>
    </g>
    <g fill="rgb(51,204,204)" text-rendering="geometricPrecision" shape-rendering="geometricPrecision" transform="matrix(1,0,0,1,-425,-54)" stroke="rgb(51,204,204)">
      <rect x="440" width="379" height="128" y="166" clip-path="url(#clipPath2)" stroke="none"/>
    </g>
    <g text-rendering="geometricPrecision" stroke-miterlimit="1.45" shape-rendering="geometricPrecision" font-family="sans-serif" transform="matrix(1,0,0,1,-425,-54)" stroke-linecap="butt">
      <text x="605.8252" xml:space="preserve" y="184.0645" clip-path="url(#clipPath2)" stroke="none">HumHub</text>
      <rect fill="none" x="440" width="379" height="128" y="166" clip-path="url(#clipPath2)"/>
    </g>
    <g fill="rgb(0,204,255)" text-rendering="geometricPrecision" shape-rendering="geometricPrecision" transform="matrix(1,0,0,1,-425,-54)" stroke="rgb(0,204,255)">
      <rect x="456" y="218" clip-path="url(#clipPath2)" width="65" rx="4" ry="4" height="65" stroke="none"/>
    </g>
    <g text-rendering="geometricPrecision" stroke-miterlimit="1.45" shape-rendering="geometricPrecision" font-family="sans-serif" transform="matrix(1,0,0,1,-425,-54)" stroke-linecap="butt">
      <text x="463.1523" xml:space="preserve" y="255.2139" clip-path="url(#clipPath2)" stroke="none">Module A</text>
      <rect x="456" y="218" clip-path="url(#clipPath2)" fill="none" width="65" rx="4" ry="4" height="65"/>
    </g>
    <g fill="rgb(0,204,255)" text-rendering="geometricPrecision" shape-rendering="geometricPrecision" transform="matrix(1,0,0,1,-425,-54)" stroke="rgb(0,204,255)">
      <rect x="551" y="218" clip-path="url(#clipPath2)" width="65" rx="4" ry="4" height="65" stroke="none"/>
    </g>
    <g text-rendering="geometricPrecision" stroke-miterlimit="1.45" shape-rendering="geometricPrecision" font-family="sans-serif" transform="matrix(1,0,0,1,-425,-54)" stroke-linecap="butt">
      <text x="558.1523" xml:space="preserve" y="255.2139" clip-path="url(#clipPath2)" stroke="none">Module B</text>
      <rect x="551" y="218" clip-path="url(#clipPath2)" fill="none" width="65" rx="4" ry="4" height="65"/>
    </g>
    <g fill="rgb(0,204,255)" text-rendering="geometricPrecision" shape-rendering="geometricPrecision" transform="matrix(1,0,0,1,-425,-54)" stroke="rgb(0,204,255)">
      <rect x="646" y="218" clip-path="url(#clipPath2)" width="65" rx="4" ry="4" height="65" stroke="none"/>
    </g>
    <g text-rendering="geometricPrecision" stroke-miterlimit="1.45" shape-rendering="geometricPrecision" font-family="sans-serif" transform="matrix(1,0,0,1,-425,-54)" stroke-linecap="butt">
      <text x="652.8213" xml:space="preserve" y="255.2139" clip-path="url(#clipPath2)" stroke="none">Module C</text>
      <rect x="646" y="218" clip-path="url(#clipPath2)" fill="none" width="65" rx="4" ry="4" height="65"/>
    </g>
    <g fill="rgb(0,204,255)" text-rendering="geometricPrecision" shape-rendering="geometricPrecision" transform="matrix(1,0,0,1,-425,-54)" stroke="rgb(0,204,255)">
      <rect x="741" y="218" clip-path="url(#clipPath2)" width="65" rx="4" ry="4" height="65" stroke="none"/>
    </g>
    <g text-rendering="geometricPrecision" stroke-miterlimit="1.45" shape-rendering="geometricPrecision" font-family="sans-serif" transform="matrix(1,0,0,1,-425,-54)" stroke-linecap="butt">
      <text x="747.8213" xml:space="preserve" y="255.2139" clip-path="url(#clipPath2)" stroke="none">Module D</text>
      <rect x="741" y="218" clip-path="url(#clipPath2)" fill="none" width="65" rx="4" ry="4" height="65"/>
    </g>
    <g fill="rgb(153,204,0)" text-rendering="geometricPrecision" shape-rendering="geometricPrecision" transform="matrix(1,0,0,1,-425,-54)" stroke="rgb(153,204,0)">
      <rect x="440" width="379" height="73" y="69" clip-path="url(#clipPath2)" stroke="none"/>
    </g>
    <g text-rendering="geometricPrecision" stroke-miterlimit="1.45" shape-rendering="geometricPrecision" font-family="sans-serif" transform="matrix(1,0,0,1,-425,-54)" stroke-linecap="butt">
      <text x="557.1426" xml:space="preserve" y="110.2139" clip-path="url(#clipPath2)" stroke="none">HTML5 (Bootstrap, Jquery)</text>
      <rect fill="none" x="440" width="379" height="73" y="69" clip-path="url(#clipPath2)"/>
    </g>
    <g shape-rendering="geometricPrecision" text-rendering="geometricPrecision" transform="matrix(1,0,0,1,184.1385,463.113)">
      <g clip-path="url(#clipPath3)">
        <svg xml:space="preserve" opacity="1" writing-mode="lr-tb" stop-color="rgb(0, 0, 0)" shape-rendering="auto" glyph-orientation-horizontal="0deg" color-profile="auto" lighting-color="rgb(255, 255, 255)" color="rgb(0, 0, 0)" font-weight="400" alignment-baseline="auto" font-style="normal" version="1.1" color-interpolation-filters="linearrgb" text-anchor="start" stroke-linecap="butt" color-interpolation="srgb" font-variant="normal" word-spacing="normal" fill-opacity="1" text-rendering="auto" clip-path="none" text-decoration="none" letter-spacing="normal" viewBox="-0.875 -0.887 41 48" glyph-orientation-vertical="auto" display="inline" font-size-adjust="none" overflow="hidden" fill="rgb(0, 0, 0)" font-stretch="normal" stroke-dasharray="none" stroke-miterlimit="4" stop-opacity="1" color-rendering="auto" font-size="12" pointer-events="visiblepainted" mask="none" direction="ltr" baseline-shift="baseline" enable-background="new -0.875 -0.887 41 48" fill-rule="nonzero" image-rendering="auto" stroke-dashoffset="0" width="41px" marker-end="none" clip="auto" cursor="auto" stroke="none" filter="none" visibility="visible" kerning="auto" stroke-width="1" font-family="&quot;Arial&quot;,&quot;Helvetica&quot;,sans-serif" flood-opacity="1" clip-rule="nonzero" src="none" height="48px" unicode-bidi="normal" stroke-linejoin="miter" stroke-opacity="1" flood-color="rgb(0, 0, 0)" dominant-baseline="auto" marker-start="none" x="0px" marker-mid="none" y="0px">
<defs>
<clipPath clipPathUnits="userSpaceOnUse" id="clipPath1">
              <path d="M0 0 L409 0 L409 549 L0 549 L0 0 Z"/>
            </clipPath>
            <clipPath clipPathUnits="userSpaceOnUse" id="clipPath2">
              <path d="M425 54 L834 54 L834 603 L425 603 L425 54 Z"/>
            </clipPath>
            <clipPath clipPathUnits="userSpaceOnUse" id="clipPath3">
              <path d="M-184.1385 -463.113 L224.8615 -463.113 L224.8615 85.887 L-184.1385 85.887 L-184.1385 -463.113 Z"/>
            </clipPath>
          </defs>
<linearGradient gradientTransform="matrix(1 0 0 -1 -642.8008 -939.4756)" x1="642.8008" x2="682.0508" gradientUnits="userSpaceOnUse" y1="-979.1445" y2="-979.1445" id="svg1.SVGID_1_">
	<stop offset="0" style="stop-color:#3C89C9"/>
	<stop offset="0.1482" style="stop-color:#60A6DD"/>
	<stop offset="0.3113" style="stop-color:#81C1F0"/>
	<stop offset="0.4476" style="stop-color:#95D1FB"/>
	<stop offset="0.5394" style="stop-color:#9CD7FF"/>
	<stop offset="0.636" style="stop-color:#98D4FD"/>
	<stop offset="0.7293" style="stop-color:#8DCAF6"/>
	<stop offset="0.8214" style="stop-color:#79BBEB"/>
	<stop offset="0.912" style="stop-color:#5EA5DC"/>
	<stop offset="1" style="stop-color:#3C89C9"/>
</linearGradient>
<path fill="url(#svg1.SVGID_1_)" d="M19.625,36.763C8.787,36.763,0,34.888,0,32.575v10c0,2.313,8.787,4.188,19.625,4.188  c10.839,0,19.625-1.875,19.625-4.188v-10C39.25,34.888,30.464,36.763,19.625,36.763z"/>
<linearGradient gradientTransform="matrix(1 0 0 -1 -642.8008 -939.4756)" x1="642.8008" x2="682.0508" gradientUnits="userSpaceOnUse" y1="-973.1445" y2="-973.1445" id="svg1.SVGID_2_">
	<stop offset="0" style="stop-color:#9CD7FF"/>
	<stop offset="0.0039" style="stop-color:#9DD7FF"/>
	<stop offset="0.2273" style="stop-color:#BDE5FF"/>
	<stop offset="0.4138" style="stop-color:#D1EEFF"/>
	<stop offset="0.5394" style="stop-color:#D9F1FF"/>
	<stop offset="0.6155" style="stop-color:#D5EFFE"/>
	<stop offset="0.6891" style="stop-color:#C9E7FA"/>
	<stop offset="0.7617" style="stop-color:#B6DAF3"/>
	<stop offset="0.8337" style="stop-color:#9AC8EA"/>
	<stop offset="0.9052" style="stop-color:#77B0DD"/>
	<stop offset="0.9754" style="stop-color:#4D94CF"/>
	<stop offset="1" style="stop-color:#3C89C9"/>
</linearGradient>
<path fill="url(#svg1.SVGID_2_)" d="M19.625,36.763c10.839,0,19.625-1.875,19.625-4.188l-1.229-2c0,2.168-8.235,3.927-18.396,3.927  c-9.481,0-17.396-1.959-18.396-3.927l-1.229,2C0,34.888,8.787,36.763,19.625,36.763z"/>
<path fill="#3C89C9" d="M19.625,26.468c10.16,0,19.625,2.775,19.625,2.775c-0.375,2.721-5.367,5.438-19.554,5.438  c-12.125,0-18.467-2.484-19.541-4.918C-0.127,29.125,9.465,26.468,19.625,26.468z"/>
<linearGradient gradientTransform="matrix(1 0 0 -1 -642.8008 -939.4756)" x1="642.8008" x2="682.0508" gradientUnits="userSpaceOnUse" y1="-965.6948" y2="-965.6948" id="svg1.SVGID_3_">
	<stop offset="0" style="stop-color:#3C89C9"/>
	<stop offset="0.1482" style="stop-color:#60A6DD"/>
	<stop offset="0.3113" style="stop-color:#81C1F0"/>
	<stop offset="0.4476" style="stop-color:#95D1FB"/>
	<stop offset="0.5394" style="stop-color:#9CD7FF"/>
	<stop offset="0.636" style="stop-color:#98D4FD"/>
	<stop offset="0.7293" style="stop-color:#8DCAF6"/>
	<stop offset="0.8214" style="stop-color:#79BBEB"/>
	<stop offset="0.912" style="stop-color:#5EA5DC"/>
	<stop offset="1" style="stop-color:#3C89C9"/>
</linearGradient>
<path fill="url(#svg1.SVGID_3_)" d="M19.625,23.313C8.787,23.313,0,21.438,0,19.125v10c0,2.313,8.787,4.188,19.625,4.188  c10.839,0,19.625-1.875,19.625-4.188v-10C39.25,21.438,30.464,23.313,19.625,23.313z"/>
<linearGradient gradientTransform="matrix(1 0 0 -1 -642.8008 -939.4756)" x1="642.8008" x2="682.0508" gradientUnits="userSpaceOnUse" y1="-959.6948" y2="-959.6948" id="svg1.SVGID_4_">
	<stop offset="0" style="stop-color:#9CD7FF"/>
	<stop offset="0.0039" style="stop-color:#9DD7FF"/>
	<stop offset="0.2273" style="stop-color:#BDE5FF"/>
	<stop offset="0.4138" style="stop-color:#D1EEFF"/>
	<stop offset="0.5394" style="stop-color:#D9F1FF"/>
	<stop offset="0.6155" style="stop-color:#D5EFFE"/>
	<stop offset="0.6891" style="stop-color:#C9E7FA"/>
	<stop offset="0.7617" style="stop-color:#B6DAF3"/>
	<stop offset="0.8337" style="stop-color:#9AC8EA"/>
	<stop offset="0.9052" style="stop-color:#77B0DD"/>
	<stop offset="0.9754" style="stop-color:#4D94CF"/>
	<stop offset="1" style="stop-color:#3C89C9"/>
</linearGradient>
<path fill="url(#svg1.SVGID_4_)" d="M19.625,23.313c10.839,0,19.625-1.875,19.625-4.188l-1.229-2c0,2.168-8.235,3.926-18.396,3.926  c-9.481,0-17.396-1.959-18.396-3.926l-1.229,2C0,21.438,8.787,23.313,19.625,23.313z"/>
<path fill="#3C89C9" d="M19.476,13.019c10.161,0,19.625,2.775,19.625,2.775c-0.375,2.721-5.367,5.438-19.555,5.438  c-12.125,0-18.467-2.485-19.541-4.918C-0.277,15.674,9.316,13.019,19.476,13.019z"/>
<linearGradient gradientTransform="matrix(1 0 0 -1 -642.8008 -939.4756)" x1="642.8008" x2="682.0508" gradientUnits="userSpaceOnUse" y1="-952.4946" y2="-952.4946" id="svg1.SVGID_5_">
	<stop offset="0" style="stop-color:#3C89C9"/>
	<stop offset="0.1482" style="stop-color:#60A6DD"/>
	<stop offset="0.3113" style="stop-color:#81C1F0"/>
	<stop offset="0.4476" style="stop-color:#95D1FB"/>
	<stop offset="0.5394" style="stop-color:#9CD7FF"/>
	<stop offset="0.636" style="stop-color:#98D4FD"/>
	<stop offset="0.7293" style="stop-color:#8DCAF6"/>
	<stop offset="0.8214" style="stop-color:#79BBEB"/>
	<stop offset="0.912" style="stop-color:#5EA5DC"/>
	<stop offset="1" style="stop-color:#3C89C9"/>
</linearGradient>
<path fill="url(#svg1.SVGID_5_)" d="M19.625,10.113C8.787,10.113,0,8.238,0,5.925v10c0,2.313,8.787,4.188,19.625,4.188  c10.839,0,19.625-1.875,19.625-4.188v-10C39.25,8.238,30.464,10.113,19.625,10.113z"/>
<linearGradient gradientTransform="matrix(1 0 0 -1 -642.8008 -939.4756)" x1="642.8008" x2="682.0508" gradientUnits="userSpaceOnUse" y1="-946.4946" y2="-946.4946" id="svg1.SVGID_6_">
	<stop offset="0" style="stop-color:#9CD7FF"/>
	<stop offset="0.0039" style="stop-color:#9DD7FF"/>
	<stop offset="0.2273" style="stop-color:#BDE5FF"/>
	<stop offset="0.4138" style="stop-color:#D1EEFF"/>
	<stop offset="0.5394" style="stop-color:#D9F1FF"/>
	<stop offset="0.6155" style="stop-color:#D5EFFE"/>
	<stop offset="0.6891" style="stop-color:#C9E7FA"/>
	<stop offset="0.7617" style="stop-color:#B6DAF3"/>
	<stop offset="0.8337" style="stop-color:#9AC8EA"/>
	<stop offset="0.9052" style="stop-color:#77B0DD"/>
	<stop offset="0.9754" style="stop-color:#4D94CF"/>
	<stop offset="1" style="stop-color:#3C89C9"/>
</linearGradient>
<path fill="url(#svg1.SVGID_6_)" d="M19.625,10.113c10.839,0,19.625-1.875,19.625-4.188l-1.229-2c0,2.168-8.235,3.926-18.396,3.926  c-9.481,0-17.396-1.959-18.396-3.926L0,5.925C0,8.238,8.787,10.113,19.625,10.113z"/>
<linearGradient gradientTransform="matrix(1 0 0 -1 -642.8008 -939.4756)" x1="644.0293" x2="680.8223" gradientUnits="userSpaceOnUse" y1="-943.4014" y2="-943.4014" id="svg1.SVGID_7_">
	<stop offset="0" style="stop-color:#9CD7FF"/>
	<stop offset="1" style="stop-color:#3C89C9"/>
</linearGradient>
<ellipse rx="18.396" fill="url(#svg1.SVGID_7_)" ry="3.926" cx="19.625" cy="3.926"/>
<path fill="#FFFFFF" d="M31.04,45.982c0,0-4.354,0.664-7.29,0.781  c-3.125,0.125-8.952,0-8.952,0l-2.384-10.292l0.044-2.108l-1.251-1.154L9.789,23.024l-0.082-0.119L9.5,20.529l-1.65-1.254  L5.329,8.793c0,0,4.213,0.903,7.234,1.07s8.375,0.25,8.375,0.25l3,9.875l-0.25,1.313l1.063,2.168l2.312,9.645l-0.521,1.416  l1.46,1.834L31.04,45.982z" enable-background="new    " opacity="0.24"/>
</svg>
      </g>
    </g>
    <g text-rendering="geometricPrecision" stroke-miterlimit="1.45" shape-rendering="geometricPrecision" font-family="sans-serif" transform="matrix(1,0,0,1,-425,-54)" stroke-linecap="butt">
      <text x="621.165" xml:space="preserve" y="582.9525" clip-path="url(#clipPath2)" stroke="none">DB</text>
      <path fill="none" d="M629.5 415 L629.5 391" clip-path="url(#clipPath2)"/>
      <path fill="none" d="M629.5 318 L629.5 294" clip-path="url(#clipPath2)"/>
      <path fill="none" d="M629.5 166 L629.5 142" clip-path="url(#clipPath2)"/>
      <path fill="none" d="M629.5 518.0357 L629.5 488" clip-path="url(#clipPath2)"/>
    </g>
  </g>
</svg>
