<svg xmlns="http://www.w3.org/2000/svg" viewBox="0 0 502.648 502.648" width="512" height="512"><circle cx="250.399" cy="91.549" r="58.694" fill="#4a90e2"/><path d="M455.861 253.028l-54.703-11.411c-18.637-3.904-37.037 4.638-46.765 19.824-9.448-4.853-19.608-9.038-30.415-12.511v-32.529c.022-24.612-20.126-44.738-44.651-44.738h-55.933c-24.655 0-44.716 20.126-44.716 44.738v32.701a197.813 197.813 0 0 0-30.264 12.468c-9.728-15.251-28.15-23.857-46.809-19.953l-54.747 11.411c-24.03 5.026-39.626 28.862-34.6 52.978l13.741 65.64c4.983 24.051 28.84 39.647 52.892 34.621l17.321-3.624c8.671 12.813 20.665 24.569 36.023 34.621 31.989 20.967 74.247 32.529 119.092 32.529 68.617 0 127.721-27.589 154.943-67.215l17.602 3.689c24.03 5.004 47.887-10.57 52.87-34.621l13.762-65.64c5.004-24.116-10.592-47.952-34.643-52.978zM251.305 447.381c-40.51 0-78.475-10.203-106.797-28.862-9.707-6.342-17.753-13.395-24.202-20.945l13.266-2.783c24.073-5.004 39.669-28.84 34.643-52.913l-12.317-59.018a168.52 168.52 0 0 1 22.757-10.138v10.764c0 24.569 20.104 44.695 44.716 44.695h55.933c24.548 0 44.652-20.147 44.652-44.695v-11.325c8.175 2.912 15.854 6.256 22.973 10.052l-12.49 59.687c-4.983 24.073 10.591 47.909 34.664 52.913l13.395 2.804c-24.978 29.574-74.397 49.764-131.193 49.764z" fill="#4a90e2"/><circle cx="443.954" cy="168.708" r="58.694" fill="#4a90e2"/><path d="M70.736 226.172c31.752-6.644 52.029-37.77 45.471-69.501-6.687-31.709-37.749-52.072-69.523-45.428-31.709 6.622-52.072 37.727-45.428 69.458 6.623 31.752 37.728 52.094 69.48 45.471z" fill="#4a90e2"/></svg>