<svg xmlns="http://www.w3.org/2000/svg" height="512" width="512"><path d="M467 331c-11.191 0-21.316 4.254-29.195 11.04l-84.325-47.606C358.203 282.5 361 269.594 361 256c0-26.41-10.137-50.29-26.297-68.762l85.145-99.36C424.875 89.825 430.289 91 436 91c24.812 0 45-20.188 45-45S460.812 0 436 0s-45 21.187-45 46c0 8.145 2.344 15.684 6.14 22.281l-85.066 99.27C295.812 157.203 276.656 151 256 151c-16.148 0-31.277 3.969-44.957 10.512l-39.129-58.684C177.543 95.312 181 86.09 181 76c0-24.813-20.188-45-45-45S91 51.187 91 76s20.187 45 45 45c3.805 0 7.437-.617 10.969-1.508l39.152 58.723C164.731 197.449 151 225.035 151 256c0 9.387 1.637 18.324 3.96 26.988L77.938 315.57C69.711 306.672 58.047 301 45 301c-24.813 0-45 20.187-45 45s20.187 45 45 45 45-20.188 45-45c0-.977-.227-1.887-.285-2.848l77.02-32.582c18.452 30.07 51.335 50.356 89.105 50.414l9.336 66.364C250.879 434.895 241 449.738 241 467c0 24.812 20.187 45 45 45s45-20.188 45-45c0-21.781-15.563-39.98-36.148-44.105l-9.372-66.63c21.235-6.269 39.547-18.91 52.875-35.925l84.45 47.683c-.47 2.598-.805 5.247-.805 7.977 0 24.812 20.187 45 45 45s45-20.188 45-45-20.188-45-45-45zm0 0" fill="#4a90e2"/></svg>