<svg xmlns="http://www.w3.org/2000/svg" viewBox="0 0 415.859 415.859" width="512" height="512"><path d="M297.71 47.473c-11.149-10.5-25.426-15.543-39.813-15.543-16.195 0-32.539 6.39-44.73 18.586l-5.238 5.238-5.238-5.24C190.5 38.323 174.156 31.93 157.961 31.93c-14.39 0-28.66 5.043-39.813 15.543-24.527 23.094-24.965 61.711-1.313 85.363l91.095 91.094 91.094-91.094c23.652-23.653 23.214-62.27-1.314-85.363zM176 383.93l-.07-90.258c0-43.59-22.328-69.146-51.902-78.772-8.254-2.498-15.649-9.061-22.527-15.942-12.496-13.014-25.855-30.813-43.16-30.592l-.016-.066c-5.645.074-11.289 2.114-16.183 7.008-11.477 11.477-6.84 29.012 3.058 38.91l32.152 32.149a16.001 16.001 0 0 1 0 22.627l-43.465-43.463c-7.554-7.553-12.687-17.764-14.086-28.012-1.742-12.767 2.172-24.672 11.023-33.523 6.629-6.629 14.762-10.371 23.633-11.317l-6.492-26.221C47.473 29.15.004 41.038.004 63.929L0 234.758c0 10.61 4.11 20.61 11.578 28.156C91.062 343.134 80 317.29 80 383.93h96zM415.855 63.93c0-22.89-47.469-34.779-47.961 62.53l-6.492 26.221c8.871.946 17.004 4.687 23.633 11.317 8.851 8.851 12.766 20.756 11.023 33.523-1.398 10.248-6.531 20.459-14.086 28.012l-43.465 43.463c-3-3.002-4.687-7.07-4.687-11.314 0-4.242 1.687-8.313 4.687-11.313l32.152-32.149c9.898-9.898 14.535-27.434 3.058-38.91-4.894-4.894-10.539-6.934-16.183-7.008l-.016.066c-17.305-.221-30.664 17.578-43.16 30.592-6.879 6.881-14.274 13.443-22.527 15.942-29.574 9.625-51.902 35.182-51.902 78.771l-.07 90.258h96c0-66.638-11.062-40.795 68.422-121.016 7.469-7.547 11.578-17.547 11.578-28.156l-.004-170.829z" fill="#4a90e2"/></svg>