<?xml version="1.0" encoding="UTF-8" standalone="no"?>
<svg width="36px" height="1044px" viewBox="0 0 36 1044" version="1.1" xmlns="http://www.w3.org/2000/svg" xmlns:xlink="http://www.w3.org/1999/xlink" xmlns:sketch="http://www.bohemiancoding.com/sketch/ns">
    <!-- Generator: Sketch 3.3.2 (12043) - http://www.bohemiancoding.com/sketch -->
    <title>px-video-sprite</title>
    <desc>Created with Sketch.</desc>
    <defs></defs>
    <g id="Page-1" stroke="none" stroke-width="1" fill="none" fill-rule="evenodd" sketch:type="MSPage">
        <g id="vector-sprite-(by-Laura)" sketch:type="MSArtboardGroup">
            <path d="M12,11 L12,25 L25,18 L12,11 Z" id="play---light" fill="#666666" sketch:type="MSShapeGroup"></path>
            <path d="M12,47 L12,61 L25,54 L12,47 Z" id="play---dark" fill="#444444" sketch:type="MSShapeGroup"></path>
            <path d="M18,160.214286 L18,157 L11,161.5 L18,166 L18,162.785714 L23,166 L23,157 L18,160.214286 Z" id="rewind---light" fill="#666666" sketch:type="MSShapeGroup"></path>
            <path d="M18,196.214286 L18,193 L11,197.5 L18,202 L18,198.785714 L23,202 L23,193 L18,196.214286 Z" id="rewind---dark" fill="#444444" sketch:type="MSShapeGroup"></path>
            <path d="M20,232.214286 L20,229 L13,233.5 L20,238 L20,234.785714 L25,238 L25,229 L20,232.214286 Z" id="forward---light" fill="#666666" sketch:type="MSShapeGroup" transform="translate(19.000000, 233.500000) scale(-1, 1) translate(-19.000000, -233.500000) "></path>
            <path d="M20,268.214286 L20,265 L13,269.5 L20,274 L20,270.785714 L25,274 L25,265 L20,268.214286 Z" id="forward---dark" fill="#444444" sketch:type="MSShapeGroup" transform="translate(19.000000, 269.500000) scale(-1, 1) translate(-19.000000, -269.500000) "></path>
            <path d="M11,83.4982674 C11,83.2230819 11.2148438,83 11.4976988,83 L15.5023012,83 C15.7771727,83 16,83.2199066 16,83.4982674 L16,96.5017326 C16,96.7769181 15.7851562,97 15.5023012,97 L11.4976988,97 C11.2228273,97 11,96.7800934 11,96.5017326 L11,83.4982674 Z M19,83.4982674 C19,83.2230819 19.2148438,83 19.4976988,83 L23.5023012,83 C23.7771727,83 24,83.2199066 24,83.4982674 L24,96.5017326 C24,96.7769181 23.7851562,97 23.5023012,97 L19.4976988,97 C19.2228273,97 19,96.7800934 19,96.5017326 L19,83.4982674 Z" id="pause---light" fill="#666666" sketch:type="MSShapeGroup"></path>
            <path d="M11,119.498267 C11,119.223082 11.2148438,119 11.4976988,119 L15.5023012,119 C15.7771727,119 16,119.219907 16,119.498267 L16,132.501733 C16,132.776918 15.7851562,133 15.5023012,133 L11.4976988,133 C11.2228273,133 11,132.780093 11,132.501733 L11,119.498267 Z M19,119.498267 C19,119.223082 19.2148438,119 19.4976988,119 L23.5023012,119 C23.7771727,119 24,119.219907 24,119.498267 L24,132.501733 C24,132.776918 23.7851562,133 23.5023012,133 L19.4976988,133 C19.2228273,133 19,132.780093 19,132.501733 L19,119.498267 Z" id="pause---dark" fill="#444444" sketch:type="MSShapeGroup"></path>
            <path d="M14.8788722,340.579989 C14.529028,340.180304 13.7630993,339.305255 13.7630993,339.305255 C15.4484869,336.790203 17.9867342,337.004546 17.9867342,337.004546 C21.1630396,337.004546 23.011872,339.500201 22.9999426,341.985538 C22.9879638,344.481173 20.9903924,346.966531 18.0009091,346.966531 C15.2817522,346.966531 14.006078,344.871931 14.006078,344.871931 L15.5482843,344.02802 C15.5482843,344.02802 16.3548248,345.183319 17.9867342,345.183319 C22.3229096,345.183319 22.329138,338.903202 17.9867342,338.73248 C17.9816127,338.732279 16.1077241,338.732475 15.1984535,340.413156 C15.1865801,340.435103 15.0721341,340.724596 15.0516928,340.77028 L16.4383545,342.297119 L12.0793458,342.976807 L12.4146975,337.866712 L14.8788722,340.579989 Z" id="repeat---dark" fill="#444444" sketch:type="MSShapeGroup"></path>
            <path d="M13.7995145,303.251529 C15.4847868,300.793268 17.9867342,301.004546 17.9867342,301.004546 C21.1630396,301.004546 23.011872,303.500201 22.9999426,305.985538 C22.9879638,308.481173 20.9903924,310.966531 18.0009091,310.966531 C15.2817522,310.966531 14.006078,308.871931 14.006078,308.871931 L15.5482843,308.02802 C15.5482843,308.02802 16.3548248,309.183319 17.9867342,309.183319 C22.3229096,309.183319 22.329138,302.903202 17.9867342,302.73248 C17.9815912,302.732278 16.0919986,302.732476 15.1870825,304.434356 C15.1825343,304.44291 15.1570316,304.516075 15.1329553,304.58497 L16.8779967,306.330011 L12.0739746,306.958984 L12.4146975,301.866712 L13.7995145,303.251529 Z" id="repeat---light" fill="#666666" sketch:type="MSShapeGroup"></path>
            <path d="M14,382.501231 C14,382.224409 14.2329025,382 14.5034227,382 L20.4965773,382 C20.77461,382 21,382.229751 21,382.501231 L21,392.498769 C21,392.775591 20.837471,393.161293 20.6396722,393.35592 C20.6396722,393.35592 18,396 17.555542,396 C17.111084,396 14.3487713,393.332515 14.3487713,393.332515 C14.1561502,393.148872 14,392.770249 14,392.498769 L14,382.501231 Z" id="pointer---light" fill="#666666" sketch:type="MSShapeGroup"></path>
            <path d="M14,418.501231 C14,418.224409 14.2329025,418 14.5034227,418 L20.4965773,418 C20.77461,418 21,418.229751 21,418.501231 L21,428.498769 C21,428.775591 20.837471,429.161293 20.6396722,429.35592 C20.6396722,429.35592 18,432 17.555542,432 C17.111084,432 14.3487713,429.332515 14.3487713,429.332515 C14.1561502,429.148872 14,428.770249 14,428.498769 L14,418.501231 Z" id="pointer---dark" fill="#666666" sketch:type="MSShapeGroup"></path>
            <path d="M24.4142136,666 L26.8822641,663.53195 C27.0816659,663.332548 27.0828664,663.011799 26.8857749,662.814707 L26.1852929,662.114225 C25.9797727,661.908705 25.667081,661.918705 25.4680505,662.117736 L23,664.585786 L20.5319495,662.117736 C20.3325477,661.918334 20.0117986,661.917134 19.8147071,662.114225 L19.1142251,662.814707 C18.9087049,663.020227 18.9187054,663.332919 19.1177359,663.53195 L21.5857864,666 L19.1177359,668.46805 C18.9183341,668.667452 18.9171336,668.988201 19.1142251,669.185293 L19.8147071,669.885775 C20.0202273,670.091295 20.332919,670.081295 20.5319495,669.882264 L23,667.414214 L25.4680505,669.882264 C25.6674523,670.081666 25.9882014,670.082866 26.1852929,669.885775 L26.8857749,669.185293 C27.0912951,668.979773 27.0812946,668.667081 26.8822641,668.46805 L24.4142136,666 L24.4142136,666 Z M9.25,663.142354 C8.56,663.142354 8,663.702354 8,664.392354 L8,667.761475 C8,668.451475 8.56,669.011475 9.25,669.011475 L13.5,669.011475 L17,673.033203 L17,659 L13.5,663.142354 L9.25,663.142354 Z" id="mute---light" fill="#666666" sketch:type="MSShapeGroup"></path>
            <path d="M24.4142136,702 L26.8822641,699.53195 C27.0816659,699.332548 27.0828664,699.011799 26.8857749,698.814707 L26.1852929,698.114225 C25.9797727,697.908705 25.667081,697.918705 25.4680505,698.117736 L23,700.585786 L20.5319495,698.117736 C20.3325477,697.918334 20.0117986,697.917134 19.8147071,698.114225 L19.1142251,698.814707 C18.9087049,699.020227 18.9187054,699.332919 19.1177359,699.53195 L21.5857864,702 L19.1177359,704.46805 C18.9183341,704.667452 18.9171336,704.988201 19.1142251,705.185293 L19.8147071,705.885775 C20.0202273,706.091295 20.332919,706.081295 20.5319495,705.882264 L23,703.414214 L25.4680505,705.882264 C25.6674523,706.081666 25.9882014,706.082866 26.1852929,705.885775 L26.8857749,705.185293 C27.0912951,704.979773 27.0812946,704.667081 26.8822641,704.46805 L24.4142136,702 L24.4142136,702 Z M9.25,699.142354 C8.56,699.142354 8,699.702354 8,700.392354 L8,703.761475 C8,704.451475 8.56,705.011475 9.25,705.011475 L13.5,705.011475 L17,709.033203 L17,695 L13.5,699.142354 L9.25,699.142354 Z" id="mute---dark" fill="#444444" sketch:type="MSShapeGroup"></path>
            <path d="M9.25,447.13625 C8.56,447.13625 8,447.69625 8,448.38625 L8,451.755372 C8,452.445372 8.56,453.005372 9.25,453.005372 L13.5,453.005372 L17,457.0271 L17,442.993896 L13.5,447.13625 L9.25,447.13625 Z M21.2519839,450.016602 C21.2519839,448.834686 20.5783592,447.822479 19.6067964,447.326643 L19.0773926,448.402264 C19.6608051,448.700007 20.0649799,449.307573 20.0649799,450.016602 C20.0649799,450.72563 19.6608051,451.333196 19.0773926,451.630939 L19.6067964,452.706561 C20.5783592,452.211328 21.2519839,451.198517 21.2519839,450.016602 L21.2519839,450.016602 Z M21.7321271,443 L21.2015363,444.079849 C23.341111,445.170569 24.812996,447.416026 24.812996,450.016602 C24.812996,452.617177 23.341111,454.862635 21.2015363,455.953354 L21.7321271,457.033203 C24.2598521,455.74439 26,453.090064 26,450.016602 C26,446.943139 24.2598521,444.289417 21.7321271,443 L21.7321271,443 Z M23.625992,450.016602 C23.625992,447.888913 22.4217764,446.05172 20.6709455,445.159094 L20.1350132,446.250417 C21.4959133,446.944347 22.438988,448.362404 22.438988,450.016602 C22.438988,451.6708 21.4959133,453.088856 20.1350132,453.782786 L20.6709455,454.874109 C22.4217764,453.982087 23.625992,452.144894 23.625992,450.016602 L23.625992,450.016602 Z" id="volume-full---light" fill="#666666" sketch:type="MSShapeGroup"></path>
            <path d="M9.25,483.13625 C8.56,483.13625 8,483.69625 8,484.38625 L8,487.755372 C8,488.445372 8.56,489.005372 9.25,489.005372 L13.5,489.005372 L17,493.0271 L17,478.993896 L13.5,483.13625 L9.25,483.13625 Z M21.2519839,486.016602 C21.2519839,484.834686 20.5783592,483.822479 19.6067964,483.326643 L19.0773926,484.402264 C19.6608051,484.700007 20.0649799,485.307573 20.0649799,486.016602 C20.0649799,486.72563 19.6608051,487.333196 19.0773926,487.630939 L19.6067964,488.706561 C20.5783592,488.211328 21.2519839,487.198517 21.2519839,486.016602 L21.2519839,486.016602 Z M21.7321271,479 L21.2015363,480.079849 C23.341111,481.170569 24.812996,483.416026 24.812996,486.016602 C24.812996,488.617177 23.341111,490.862635 21.2015363,491.953354 L21.7321271,493.033203 C24.2598521,491.74439 26,489.090064 26,486.016602 C26,482.943139 24.2598521,480.289417 21.7321271,479 L21.7321271,479 Z M23.625992,486.016602 C23.625992,483.888913 22.4217764,482.05172 20.6709455,481.159094 L20.1350132,482.250417 C21.4959133,482.944347 22.438988,484.362404 22.438988,486.016602 C22.438988,487.6708 21.4959133,489.088856 20.1350132,489.782786 L20.6709455,490.874109 C22.4217764,489.982087 23.625992,488.144894 23.625992,486.016602 L23.625992,486.016602 Z" id="volume-full---dark" fill="#444444" sketch:type="MSShapeGroup"></path>
            <path d="M9.25,519.13625 C8.56,519.13625 8,519.69625 8,520.38625 L8,523.755372 C8,524.445372 8.56,525.005372 9.25,525.005372 L13.5,525.005372 L17,529.0271 L17,514.993896 L13.5,519.13625 L9.25,519.13625 Z M21.4035818,522.011475 C21.4035818,520.791859 20.6643542,519.747365 19.5981731,519.235712 L19.0172119,520.345643 C19.6574416,520.652884 20.1009781,521.27983 20.1009781,522.011475 C20.1009781,522.743119 19.6574416,523.370065 19.0172119,523.677306 L19.5981731,524.787237 C20.6643542,524.276208 21.4035818,523.23109 21.4035818,522.011475 L21.4035818,522.011475 Z M24.0087891,522.011475 C24.0087891,519.815918 22.6872977,517.920123 20.7659573,516.999023 L20.1778318,518.125158 C21.6712668,518.841222 22.7061854,520.304512 22.7061854,522.011475 C22.7061854,523.718438 21.6712668,525.181727 20.1778318,525.897791 L20.7659573,527.023926 C22.6872977,526.10345 24.0087891,524.207655 24.0087891,522.011475 L24.0087891,522.011475 Z" id="volume-mid---light" fill="#666666" sketch:type="MSShapeGroup"></path>
            <path d="M9.25,555.13625 C8.56,555.13625 8,555.69625 8,556.38625 L8,559.755372 C8,560.445372 8.56,561.005372 9.25,561.005372 L13.5,561.005372 L17,565.0271 L17,550.993896 L13.5,555.13625 L9.25,555.13625 Z M21.4035818,558.011475 C21.4035818,556.791859 20.6643542,555.747365 19.5981731,555.235712 L19.0172119,556.345643 C19.6574416,556.652884 20.1009781,557.27983 20.1009781,558.011475 C20.1009781,558.743119 19.6574416,559.370065 19.0172119,559.677306 L19.5981731,560.787237 C20.6643542,560.276208 21.4035818,559.23109 21.4035818,558.011475 L21.4035818,558.011475 Z M24.0087891,558.011475 C24.0087891,555.815918 22.6872977,553.920123 20.7659573,552.999023 L20.1778318,554.125158 C21.6712668,554.841222 22.7061854,556.304512 22.7061854,558.011475 C22.7061854,559.718438 21.6712668,561.181727 20.1778318,561.897791 L20.7659573,563.023926 C22.6872977,562.10345 24.0087891,560.207655 24.0087891,558.011475 L24.0087891,558.011475 Z" id="volume-mid---dark" fill="#444444" sketch:type="MSShapeGroup"></path>
            <path d="M9.25,627.13625 C8.56,627.13625 8,627.69625 8,628.38625 L8,631.755372 C8,632.445372 8.56,633.005372 9.25,633.005372 L13.5,633.005372 L17,637.0271 L17,622.993896 L13.5,627.13625 L9.25,627.13625 Z M21,630.011475 C21,628.791859 20.3857903,627.747365 19.4999212,627.235712 L19.0172119,628.345643 C19.5491663,628.652884 19.9176921,629.27983 19.9176921,630.011475 C19.9176921,630.743119 19.5491663,631.370065 19.0172119,631.677306 L19.4999212,632.787237 C20.3857903,632.276208 21,631.23109 21,630.011475 L21,630.011475 Z" id="volume-low---dark" fill="#444444" sketch:type="MSShapeGroup"></path>
            <path d="M9.25,591.13625 C8.56,591.13625 8,591.69625 8,592.38625 L8,595.755372 C8,596.445372 8.56,597.005372 9.25,597.005372 L13.5,597.005372 L17,601.0271 L17,586.993896 L13.5,591.13625 L9.25,591.13625 Z M21,594.011475 C21,592.791859 20.3857903,591.747365 19.4999212,591.235712 L19.0172119,592.345643 C19.5491663,592.652884 19.9176921,593.27983 19.9176921,594.011475 C19.9176921,594.743119 19.5491663,595.370065 19.0172119,595.677306 L19.4999212,596.787237 C20.3857903,596.276208 21,595.23109 21,594.011475 L21,594.011475 Z" id="volume-low---light" fill="#666666" sketch:type="MSShapeGroup"></path>
            <rect id="stopper---light" fill="#666666" sketch:type="MSShapeGroup" x="15" y="734" width="5" height="8" rx="0.5"></rect>
            <rect id="stopper---dark" fill="#444444" sketch:type="MSShapeGroup" x="15" y="770" width="5" height="8" rx="0.5"></rect>
            <path d="M10,807.995826 C10,805.788992 11.7888304,804 13.9962027,804 L22.0037973,804 C24.2108391,804 26,805.796521 26,807.995826 L26,812.004174 C26,814.211008 24.2111696,816 22.0037973,816 L13.9962027,816 C11.7891609,816 10,814.203479 10,812.004174 L10,807.995826 Z M11.9901733,810.005005 C11.9901733,806.623535 16.6294556,805.807068 17.8296507,809.013977 C17.8329163,809.022703 16.4950694,809.438808 16.4888916,809.426453 C15.5649414,807.578613 13.3978882,808.480789 13.3978882,810.005005 C13.3978882,811.017029 14.34021,811.607361 15.0359497,811.607361 C16.0014648,811.607361 16.4400005,810.681824 16.4400005,810.681824 C16.4400005,810.681824 17.8296509,811.017029 17.8296509,811.017029 C17.8296507,811.132446 16.9962766,813.009705 15.0359497,813.009705 C13.1976929,813.009705 11.9901733,811.505127 11.9901733,810.005005 Z M17.9901733,810.005005 C17.9901733,806.623535 22.6294556,805.807068 23.8296507,809.013977 C23.8329163,809.022703 22.4950694,809.438808 22.4888916,809.426453 C21.5649414,807.578613 19.3978882,808.480789 19.3978882,810.005005 C19.3978882,811.017029 20.34021,811.607361 21.0359497,811.607361 C22.0014648,811.607361 22.4400005,810.681824 22.4400005,810.681824 C22.4400005,810.681824 23.8296509,811.017029 23.8296509,811.017029 C23.8296507,811.132446 22.9962766,813.009705 21.0359497,813.009705 C19.1976929,813.009705 17.9901733,811.505127 17.9901733,810.005005 Z" id="closed-captions---light" fill="#666666" sketch:type="MSShapeGroup"></path>
            <path d="M10,843.995826 C10,841.788992 11.7888304,840 13.9962027,840 L22.0037973,840 C24.2108391,840 26,841.796521 26,843.995826 L26,848.004174 C26,850.211008 24.2111696,852 22.0037973,852 L13.9962027,852 C11.7891609,852 10,850.203479 10,848.004174 L10,843.995826 Z M11.9901733,846.005005 C11.9901733,842.623535 16.6294556,841.807068 17.8296507,845.013977 C17.8329163,845.022703 16.4950694,845.438808 16.4888916,845.426453 C15.5649414,843.578613 13.3978882,844.480789 13.3978882,846.005005 C13.3978882,847.017029 14.34021,847.607361 15.0359497,847.607361 C16.0014648,847.607361 16.4400005,846.681824 16.4400005,846.681824 C16.4400005,846.681824 17.8296509,847.017029 17.8296509,847.017029 C17.8296507,847.132446 16.9962766,849.009705 15.0359497,849.009705 C13.1976929,849.009705 11.9901733,847.505127 11.9901733,846.005005 Z M17.9901733,846.005005 C17.9901733,842.623535 22.6294556,841.807068 23.8296507,845.013977 C23.8329163,845.022703 22.4950694,845.438808 22.4888916,845.426453 C21.5649414,843.578613 19.3978882,844.480789 19.3978882,846.005005 C19.3978882,847.017029 20.34021,847.607361 21.0359497,847.607361 C22.0014648,847.607361 22.4400005,846.681824 22.4400005,846.681824 C22.4400005,846.681824 23.8296509,847.017029 23.8296509,847.017029 C23.8296507,847.132446 22.9962766,849.009705 21.0359497,849.009705 C19.1976929,849.009705 17.9901733,847.505127 17.9901733,846.005005 Z" id="closed-captions---dark" fill="#444444" sketch:type="MSShapeGroup"></path>
            <path d="M10,879.995826 C10,877.788992 11.7888304,876 13.9962027,876 L22.0037973,876 C24.2108391,876 26,877.796521 26,879.995826 L26,884.004174 C26,886.211008 24.2111696,888 22.0037973,888 L13.9962027,888 C11.7891609,888 10,886.203479 10,884.004174 L10,879.995826 Z M11.9901733,882.005005 C11.9901733,878.623535 16.6294556,877.807068 17.8296507,881.013977 C17.8329163,881.022703 16.4950694,881.438808 16.4888916,881.426453 C15.5649414,879.578613 13.3978882,880.480789 13.3978882,882.005005 C13.3978882,883.017029 14.34021,883.607361 15.0359497,883.607361 C16.0014648,883.607361 16.4400005,882.681824 16.4400005,882.681824 C16.4400005,882.681824 17.8296509,883.017029 17.8296509,883.017029 C17.8296507,883.132446 16.9962766,885.009705 15.0359497,885.009705 C13.1976929,885.009705 11.9901733,883.505127 11.9901733,882.005005 Z M17.9901733,882.005005 C17.9901733,878.623535 22.6294556,877.807068 23.8296507,881.013977 C23.8329163,881.022703 22.4950694,881.438808 22.4888916,881.426453 C21.5649414,879.578613 19.3978882,880.480789 19.3978882,882.005005 C19.3978882,883.017029 20.34021,883.607361 21.0359497,883.607361 C22.0014648,883.607361 22.4400005,882.681824 22.4400005,882.681824 C22.4400005,882.681824 23.8296509,883.017029 23.8296509,883.017029 C23.8296507,883.132446 22.9962766,885.009705 21.0359497,885.009705 C19.1976929,885.009705 17.9901733,883.505127 17.9901733,882.005005 Z" id="closed-captions---colour" fill="#009CDE" sketch:type="MSShapeGroup"></path>
            <path d="M15,912 L10,912 L10,917 L12.5,917 L12.5,914.5 L15,914.5 L15,912 Z M26,917 L26,912 L21,912 L21,914.5 L23.5,914.5 L23.5,917 L26,917 Z M15,924 L10,924 L10,919 L12.5,919 L12.5,921.5 L15,921.5 L15,924 Z M26,919 L26,924 L21,924 L21,921.5 L23.5,921.5 L23.5,919 L26,919 Z" id="fullscreen-light" fill="#666666" sketch:type="MSShapeGroup"></path>
            <path d="M15,948 L10,948 L10,953 L12.5,953 L12.5,950.5 L15,950.5 L15,948 Z M26,953 L26,948 L21,948 L21,950.5 L23.5,950.5 L23.5,953 L26,953 Z M15,960 L10,960 L10,955 L12.5,955 L12.5,957.5 L15,957.5 L15,960 Z M26,955 L26,960 L21,960 L21,957.5 L23.5,957.5 L23.5,955 L26,955 Z" id="fullscreen-dark" fill="#444444" sketch:type="MSShapeGroup"></path>
            <path d="M21,984 L21,989 L26,989 L26,987 L23,987 L23,984 L21,984 Z M10,989 L15,989 L15,984 L13,984 L13,987 L10,987 L10,989 Z M15,996 L15,991 L10,991 L10,993 L13,993 L13,996 L15,996 Z M26,991 L21,991 L21,996 L23,996 L23,993 L26,993 L26,991 Z" id="in-window---light" fill="#666666" sketch:type="MSShapeGroup"></path>
            <path d="M21,1020 L21,1025 L26,1025 L26,1023 L23,1023 L23,1020 L21,1020 Z M10,1025 L15,1025 L15,1020 L13,1020 L13,1023 L10,1023 L10,1025 Z M15,1032 L15,1027 L10,1027 L10,1029 L13,1029 L13,1032 L15,1032 Z M26,1027 L21,1027 L21,1032 L23,1032 L23,1029 L26,1029 L26,1027 Z" id="in-window---dark" fill="#444444" sketch:type="MSShapeGroup"></path>
        </g>
    </g>
</svg>