<?xml version="1.0" standalone="no"?>
<!DOCTYPE svg PUBLIC "-//W3C//DTD SVG 1.1//EN" "http://www.w3.org/Graphics/SVG/1.1/DTD/svg11.dtd" >
<svg xmlns="http://www.w3.org/2000/svg">
<metadata></metadata>
<defs>
<font id="encode_sans_compressedblack" horiz-adv-x="1138" >
<font-face units-per-em="2048" ascent="1638" descent="-410" />
<missing-glyph horiz-adv-x="335" />
<glyph unicode="&#xfb01;" horiz-adv-x="1351" d="M23 782v324h149v47q0 143 32 240.5t106.5 159t196.5 89t302 31.5l25 -291q-82 -4 -135.5 -15t-84 -33.5t-43 -58.5t-12.5 -89v-80h227v-324h-227v-782h-389v782h-147zM862 1430q0 109 48 155.5t161 46.5q111 0 161 -47t50 -155q0 -109 -49 -157t-162 -48q-111 0 -160 47 t-49 158zM877 0v1106h389v-1106h-389z" />
<glyph unicode="&#xfb02;" horiz-adv-x="1351" d="M23 782v324h149v47q0 143 32 240.5t106.5 159t196.5 89t302 31.5l25 -291q-82 -4 -135.5 -15t-84 -33.5t-43 -58.5t-12.5 -89v-80h227v-324h-227v-782h-389v782h-147zM877 0v1655h389v-1655h-389z" />
<glyph unicode="&#xfb03;" horiz-adv-x="2084" d="M23 782v324h149v47q0 143 32 240.5t106.5 159t196.5 89t302 31.5l25 -291q-82 -4 -135.5 -15t-84 -33.5t-43 -58.5t-12.5 -89v-80h346v47q0 143 32 240.5t106.5 159t196.5 89t302 31.5l25 -291q-82 -4 -135.5 -15t-84 -33.5t-43 -58.5t-12.5 -89v-80h228v-324h-228v-782 h-389v782h-344v-782h-389v782h-147zM1595 1430q0 109 48.5 155.5t160.5 46.5q111 0 161 -47t50 -155q0 -109 -49 -157t-162 -48q-111 0 -160 47t-49 158zM1610 0v1106h389v-1106h-389z" />
<glyph unicode="&#xfb04;" horiz-adv-x="2084" d="M23 782v324h149v47q0 143 32 240.5t106.5 159t196.5 89t302 31.5l25 -291q-82 -4 -135.5 -15t-84 -33.5t-43 -58.5t-12.5 -89v-80h346v47q0 143 32 240.5t106.5 159t196.5 89t302 31.5l25 -291q-82 -4 -135.5 -15t-84 -33.5t-43 -58.5t-12.5 -89v-80h228v-324h-228v-782 h-389v782h-344v-782h-389v782h-147zM1610 0v1655h389v-1655h-389z" />
<glyph horiz-adv-x="0" />
<glyph unicode="&#xd;" horiz-adv-x="530" />
<glyph horiz-adv-x="0" />
<glyph horiz-adv-x="0" />
<glyph unicode=" "  horiz-adv-x="335" />
<glyph unicode="&#x09;" horiz-adv-x="335" />
<glyph unicode="&#xa0;" horiz-adv-x="335" />
<glyph unicode="!" horiz-adv-x="585" d="M76 184q0 98 56 151.5t161 53.5q104 0 160.5 -53t56.5 -152q0 -98 -56.5 -151t-160.5 -53t-160.5 53t-56.5 151zM86 1495v21h416v-21l-86 -907v-21h-242v21z" />
<glyph unicode="&#x22;" horiz-adv-x="872" d="M82 983v672h303v-8l-96 -664h-207zM530 983v672h304v-8l-97 -664h-207z" />
<glyph unicode="#" horiz-adv-x="1081" d="M66 397v236h133l20 254h-153v233h172l32 396h260l-32 -396h145l33 396h260l-33 -396h113v-233h-131l-21 -254h152v-236h-172l-31 -397h-260l31 397h-146l-30 -397h-261l31 397h-112zM459 633h145l21 254h-146z" />
<glyph unicode="$" horiz-adv-x="1089" d="M61 57v334q37 -18 86.5 -33.5t100.5 -27t102 -18.5t94 -7q201 0 201 141q0 39 -18.5 64t-51 41t-74.5 27.5t-89 23.5q-59 16 -121 45t-111 82t-79.5 141t-30.5 226q0 162 87 268t246 145v273h322v-258q59 -6 121.5 -18.5t126.5 -32.5v-318q-39 12 -85 22.5t-93 17.5 t-90 12t-74 5q-162 0 -162 -116q0 -45 23.5 -74t61.5 -49.5t87 -36.5t102 -37q55 -23 109.5 -53.5t96.5 -80.5t68.5 -124t26.5 -180q0 -174 -83.5 -292t-233.5 -165v-270h-321v248q-80 8 -164 25.5t-181 49.5z" />
<glyph unicode="%" horiz-adv-x="2017" d="M45 1044q0 240 100.5 365t292.5 125q193 0 293 -125t100 -365t-100 -363.5t-293 -123.5t-293 125t-100 362zM332 1044q0 -133 23.5 -187t82.5 -54t83 53t24 188q0 137 -23.5 190.5t-83.5 53.5q-59 0 -82.5 -54t-23.5 -190zM590 0l532 1516h310l-533 -1516h-309zM1186 467 q0 240 100 364.5t293 124.5t293 -124.5t100 -364.5t-100 -363.5t-293 -123.5t-293 124.5t-100 362.5zM1473 467q0 -133 23.5 -187.5t82.5 -54.5t83 53.5t24 188.5q0 137 -24 190.5t-83 53.5t-82.5 -54.5t-23.5 -189.5z" />
<glyph unicode="&#x26;" horiz-adv-x="1388" d="M59 420q0 145 76 247.5t205 133.5q-92 100 -131 185t-39 173q0 182 132 280.5t376 98.5q92 0 183 -14.5t190 -44.5v-9l-37 -303h-8q-68 27 -150 42.5t-145 15.5q-86 0 -124 -30t-38 -95q0 -63 75.5 -144.5t235.5 -185.5l64 -43v121l333 24v-170q0 -49 -4 -95t-12 -89 l168 -108v-9l-141 -333h-8l-162 120q-84 -100 -205 -153t-275 -53q-127 0 -230 30.5t-176 88t-113 138t-40 181.5zM446 446q0 -72 55.5 -117.5t143.5 -45.5q133 0 205 92l-119 90q-53 39 -99 74.5t-87 70.5q-98 -35 -99 -164z" />
<glyph unicode="'" horiz-adv-x="423" d="M82 983v672h303v-8l-96 -664h-207z" />
<glyph unicode="(" horiz-adv-x="686" d="M43 725q0 281 78 551t235 502h338v-9q-158 -231 -250 -498t-92 -546t92.5 -546t249.5 -498v-9h-338q-158 231 -235.5 501.5t-77.5 551.5z" />
<glyph unicode=")" horiz-adv-x="686" d="M-8 -319q158 231 249 498t91 546t-91 546t-249 498v9h338q158 -231 235.5 -501.5t77.5 -551.5t-78 -551t-235 -502h-338v9z" />
<glyph unicode="*" horiz-adv-x="1009" d="M43 1290l74 230l141 -45l188 -127l-61 221v147h242v-147l-64 -219l189 125l141 45l74 -230l-140 -47l-223 -8l176 -137l88 -121l-196 -141l-88 118l-80 217l-78 -217l-88 -118l-197 141l88 121l177 137l-224 8z" />
<glyph unicode="+" horiz-adv-x="1062" d="M47 621v274h348v317h275v-317h348v-274h-348v-318h-275v318h-348z" />
<glyph unicode="," horiz-adv-x="548" d="M18 -297l86 676h392l-189 -696z" />
<glyph unicode="-" horiz-adv-x="856" d="M82 432v283h692v-283h-692z" />
<glyph unicode="." horiz-adv-x="526" d="M53 186q0 109 48.5 156t160.5 47q111 0 161 -47t50 -156t-49 -156.5t-162 -47.5q-111 0 -160 47t-49 157z" />
<glyph unicode="/" horiz-adv-x="733" d="M37 -246l328 1762h331l-327 -1762h-332z" />
<glyph unicode="0" horiz-adv-x="1277" d="M59 756q0 381 147.5 580.5t432.5 199.5t432.5 -198.5t147.5 -581.5q0 -381 -147.5 -578.5t-432.5 -197.5t-432.5 197.5t-147.5 578.5zM459 756q0 -123 9 -209t30.5 -140.5t55.5 -78t85 -23.5t86 23.5t55.5 76t29.5 138.5t9 213t-9 214t-29.5 140t-55.5 76.5t-86 23.5 t-85 -24.5t-55.5 -77.5t-30.5 -140t-9 -212z" />
<glyph unicode="1" horiz-adv-x="874" d="M0 1192l10 53l432 271h301v-1516h-399v1094h-8l-232 -80h-49z" />
<glyph unicode="2" horiz-adv-x="1077" d="M55 0v285q0 90 18.5 161.5t59.5 132t109.5 113.5t167.5 107q117 63 161.5 118.5t44.5 135.5q0 86 -52 121.5t-177 35.5q-61 0 -134 -11t-138 -30l-31 312q121 29 232.5 42t203.5 13q496 0 496 -430q0 -162 -78 -284t-248 -226q-80 -49 -128 -81t-73.5 -53.5t-34 -37.5 t-8.5 -39v-53h555v-332h-946z" />
<glyph unicode="3" horiz-adv-x="1009" d="M66 8v295h8q39 -16 98 -24.5t125 -8.5q145 0 201.5 40t56.5 143q0 51 -11.5 84.5t-41 55t-79.5 31t-128 9.5h-76v270h74q70 0 113 7.5t67.5 25.5t32.5 51t8 86q0 94 -42 131t-146 37q-49 0 -108.5 -7t-143.5 -24h-8v295q125 33 292 33q291 0 423 -89t132 -286 q0 -313 -260 -379v-8q143 -29 222 -122t79 -234q0 -209 -152 -322.5t-437 -117.5q-72 0 -143.5 6t-155.5 22z" />
<glyph unicode="4" horiz-adv-x="1179" d="M10 532v11l473 993h9l389 -20l18 -9l-493 -919v-8h229l80 354h295v-354h143v-287h-143v-293h-400v293h-565z" />
<glyph unicode="5" horiz-adv-x="1021" d="M72 8v322h80q104 -25 192 -25q244 0 244 162q0 55 -16.5 92t-56.5 58.5t-107.5 30.5t-171.5 9h-148l-8 9l53 850h741v-328h-438l-16 -256q297 -4 432 -115.5t135 -349.5q0 -231 -160.5 -360.5t-449.5 -129.5q-59 0 -132 7.5t-173 23.5z" />
<glyph unicode="6" horiz-adv-x="1206" d="M59 688q0 848 732 848q68 0 141.5 -10t157.5 -31l-48 -305q-76 16 -133 23.5t-104 7.5q-166 0 -249 -75t-107 -255q49 41 117.5 64.5t150.5 23.5q102 0 186 -33t143.5 -92t91 -145t31.5 -191q0 -125 -37.5 -225t-109.5 -170t-173.5 -106.5t-230.5 -36.5 q-268 0 -413.5 183t-145.5 525zM438 621q6 -168 49 -242t131 -74q86 0 124 48t38 153q0 102 -38 146t-124 44q-53 0 -102 -21.5t-78 -53.5z" />
<glyph unicode="7" horiz-adv-x="974" d="M25 1188v280l57 48h836l45 -228v-55l-402 -1227l-69 -49l-330 43v43l403 1145h-540z" />
<glyph unicode="8" horiz-adv-x="1171" d="M57 373q0 129 50.5 224t158.5 161q-74 53 -123 137t-49 229q0 92 35 168t99.5 129.5t155.5 83t202 29.5t201 -29.5t154.5 -83t100 -129t35.5 -168.5q0 -109 -33.5 -180.5t-128.5 -132.5q41 -25 78 -56.5t63.5 -75.5t42 -102.5t15.5 -134.5q0 -211 -139 -329.5 t-389 -118.5t-389.5 99.5t-139.5 279.5zM420 430q0 -190 166 -190q166 -1 166 161q0 49 -17.5 84t-46.5 61.5t-67.5 46t-83.5 38.5q-53 -41 -85 -90t-32 -111zM442 1098q0 -80 56.5 -118t142.5 -67q47 41 67.5 90.5t20.5 118.5q0 154 -143 154q-70 0 -107 -46t-37 -132z" />
<glyph unicode="9" horiz-adv-x="1206" d="M37 997q0 125 38 225.5t109.5 170t173 106.5t230.5 37q268 0 413.5 -183.5t145.5 -525.5q0 -848 -731 -847q-68 0 -141.5 10t-157.5 30l47 306q76 -16 133 -23.5t104 -7.5q82 0 143.5 17.5t104.5 56.5t69.5 102.5t39.5 153.5q-49 -41 -118 -64.5t-151 -23.5 q-102 0 -186 32.5t-143.5 92t-91 145.5t-31.5 190zM426 1010q0 -102 38 -146.5t124 -44.5q53 0 102 21.5t78 54.5q-6 168 -49 241.5t-131 73.5q-86 0 -124 -48t-38 -152z" />
<glyph unicode=":" horiz-adv-x="567" d="M74 186q0 109 48 156t161 47q111 0 161 -47t50 -156t-49 -156.5t-162 -47.5q-111 0 -160 47t-49 157zM74 924q0 109 48 155.5t161 46.5q111 0 161 -47t50 -155q0 -109 -49 -157t-162 -48q-111 0 -160 47t-49 158z" />
<glyph unicode=";" horiz-adv-x="575" d="M23 -297l86 676h391l-189 -696zM88 924q0 109 48 155.5t161 46.5q111 0 161 -47t50 -155q0 -109 -49 -157t-162 -48q-111 0 -160 47t-49 158z" />
<glyph unicode="&#x3c;" horiz-adv-x="1132" d="M47 608v271l989 424v-302l-602 -258l602 -258v-301z" />
<glyph unicode="=" horiz-adv-x="1087" d="M88 342v283h909v-283h-909zM88 799v282h909v-282h-909z" />
<glyph unicode="&#x3e;" horiz-adv-x="1132" d="M96 184v301l602 258l-602 258v302l989 -424v-271z" />
<glyph unicode="?" horiz-adv-x="884" d="M53 1489q143 39 312 39q229 0 353 -104.5t124 -299.5q0 -162 -91.5 -267t-263.5 -136l-18 -186v-29h-238v26l-36 359q143 29 201.5 74t58.5 122q0 139 -172 140q-25 0 -55.5 -2t-60.5 -7.5t-57.5 -10.5t-46.5 -11zM137 184q0 98 56.5 151.5t160.5 53.5t160.5 -53 t56.5 -152q0 -98 -56.5 -151t-160.5 -53t-160.5 53t-56.5 151z" />
<glyph unicode="@" horiz-adv-x="1679" d="M53 537q0 211 61.5 369.5t170 265t260 160.5t329.5 54q199 0 340.5 -54t229.5 -152.5t129 -238.5t41 -312q0 -121 -24.5 -219.5t-73 -169t-121 -108.5t-170.5 -38q-37 0 -72 6t-62.5 24.5t-47 51.5t-27.5 86h-8q-55 -88 -128 -122t-157 -34q-78 0 -134.5 29t-93 79 t-54 116.5t-17.5 142.5q0 117 34 216t96 170t152.5 111t202.5 40q127 0 348 -90l-73 -416q-4 -29 -10.5 -62.5t-6.5 -64.5q0 -39 14.5 -65.5t55.5 -26.5q66 0 101.5 93t35.5 251q0 123 -26.5 222t-86 170t-154.5 109.5t-233 38.5q-129 0 -235.5 -39.5t-183 -119.5 t-119.5 -199t-43 -274q0 -176 47 -294t122 -190.5t170 -103.5t193 -31q82 0 187.5 25.5t216.5 62.5l74 -190q-123 -41 -246 -70t-232 -29q-141 0 -280 41t-248 136.5t-176.5 253t-67.5 389.5zM657 473q0 -63 24.5 -114.5t90.5 -51.5q27 0 54.5 10.5t54 37t47 71.5t33.5 113 l43 258q-27 10 -49.5 11t-45.5 1q-119 0 -185.5 -93t-66.5 -243z" />
<glyph unicode="A" horiz-adv-x="1318" d="M-8 0v14l362 1502h611l362 -1502v-14h-375l-78 326h-432l-75 -326h-375zM516 643h285l-80 361l-49 221h-25l-49 -221z" />
<glyph unicode="B" horiz-adv-x="1239" d="M102 10v1495q260 31 433 31q326 0 474 -104.5t148 -331.5q0 -254 -217 -316v-8q254 -57 254 -356q0 -440 -692 -440q-98 0 -199.5 7t-200.5 23zM467 291q18 -4 40.5 -6t63.5 -2q104 0 158.5 41t54.5 118q0 96 -47 134t-170 38h-100v-323zM467 901h98q102 0 142.5 37 t40.5 135q0 160 -168 160q-23 0 -50.5 -3t-62.5 -7v-322z" />
<glyph unicode="C" horiz-adv-x="1040" d="M53 758q0 395 161 585.5t460 190.5q152 0 317 -37v-313q-70 12 -136.5 18t-119.5 6q-76 0 -128 -17t-83.5 -67.5t-46 -138.5t-14.5 -229t14.5 -229.5t46 -136.5t83.5 -65.5t128 -17.5q72 0 134.5 7.5t121.5 23.5v-305q-23 -10 -56.5 -19.5t-76.5 -16.5t-90 -11t-92 -4 q-305 0 -464 189t-159 587z" />
<glyph unicode="D" horiz-adv-x="1339" d="M102 0v1516q139 8 232.5 13t171.5 5q215 0 363.5 -41t241.5 -133t134 -240.5t41 -363.5t-42 -363.5t-135 -241t-242.5 -134.5t-364.5 -42q-78 0 -171 6.5t-229 18.5zM494 305q55 -6 87.5 -8t61.5 -2q72 0 118 18.5t71.5 69.5t35 141t9.5 234q0 141 -12.5 230t-44.5 140.5 t-89 71t-147 19.5q-35 0 -54.5 -2.5t-35.5 -6.5v-905z" />
<glyph unicode="E" d="M102 0v1516h965v-332h-565v-260h502v-332h-502v-260h583v-332h-983z" />
<glyph unicode="F" horiz-adv-x="1087" d="M102 0v1516h945v-332h-545v-301h481v-332h-481v-551h-400z" />
<glyph unicode="G" horiz-adv-x="1220" d="M51 758q0 387 181.5 581.5t541.5 194.5q82 0 167 -11.5t181 -35.5v-313q-104 18 -177 27t-132 9q-100 0 -167.5 -22.5t-108.5 -74.5t-58.5 -140t-17.5 -217q0 -133 12 -220t43 -138.5t84 -71t133 -19.5h60v463h356v-752q-162 -20 -271.5 -28t-203.5 -8q-623 0 -623 776z " />
<glyph unicode="H" horiz-adv-x="1413" d="M102 0v1516h400v-576h409v576h400v-1516h-400v608h-409v-608h-400z" />
<glyph unicode="I" horiz-adv-x="604" d="M102 0v1516h400v-1516h-400z" />
<glyph unicode="J" horiz-adv-x="606" d="M-45 -328q43 100 72.5 187.5t47 172.5t24.5 175t7 199v1110h402v-1147q0 -109 -15.5 -204t-51 -190.5t-94 -196t-142.5 -216.5z" />
<glyph unicode="K" horiz-adv-x="1312" d="M102 0v1516h400v-576h141l211 576h438l-280 -680l-131 -58v-14l133 -57l321 -707h-442l-268 608h-123v-608h-400z" />
<glyph unicode="L" horiz-adv-x="983" d="M102 0v1516h400v-1184h456v-332h-856z" />
<glyph unicode="M" horiz-adv-x="1845" d="M102 0v1516h576l192 -658l43 -266h17l43 266l194 658h576v-1516h-373v1044h-12l-66 -268l-209 -694h-329l-205 694l-70 268h-12v-1044h-365z" />
<glyph unicode="N" horiz-adv-x="1411" d="M102 0v1516h328l432 -660l76 -158h23v818h348v-1516h-326l-438 670l-72 153h-22v-823h-349z" />
<glyph unicode="O" horiz-adv-x="1409" d="M53 756q0 395 160 587.5t489 192.5q336 0 495 -190.5t159 -589.5q0 -397 -160 -586.5t-494 -189.5q-330 0 -489.5 191t-159.5 585zM463 756q0 -127 12 -213t40 -139.5t73.5 -76t113.5 -22.5q70 0 116 22.5t75 75t41 138.5t12 215q0 131 -11 219t-40 140t-76 73.5 t-117 21.5q-68 0 -113.5 -22.5t-73.5 -75.5t-40 -140t-12 -216z" />
<glyph unicode="P" horiz-adv-x="1249" d="M102 0v1505q98 16 202 23.5t208 7.5q188 0 322.5 -31.5t220.5 -98.5t126 -170t40 -249q0 -141 -39 -242.5t-121 -167t-211 -96t-307 -30.5h-41v-451h-400zM502 770q14 -2 41 -3t43 -1q66 0 109.5 10t69.5 36t36 68t10 107q0 63 -10 107.5t-37 70t-73 36.5t-118 11 q-18 0 -41.5 -2t-29.5 -4v-436z" />
<glyph unicode="Q" horiz-adv-x="1402" d="M51 756q0 399 158 589.5t491 190.5q334 0 493 -191.5t159 -588.5q0 -256 -113 -413t-348 -234v-31q57 -18 109.5 -31.5t110.5 -23t129 -14.5t167 -9l-252 -305q-315 88 -527 185t-340 220t-182.5 282t-54.5 374zM451 756q0 -135 11 -223.5t39.5 -141.5t76.5 -74.5 t122 -21.5t122 21.5t78 74.5t41 141.5t11 223.5q0 137 -11 226t-41 142.5t-78 75t-122 21.5t-122 -21.5t-76.5 -75t-39.5 -143.5t-11 -225z" />
<glyph unicode="R" horiz-adv-x="1271" d="M102 0v1505q88 16 192.5 23.5t217.5 7.5q186 0 320.5 -29.5t220.5 -94t127 -165t41 -239.5q0 -317 -238 -435l289 -573h-412l-227 502h-131v-502h-400zM502 811q14 -2 41 -3t43 -1q66 0 109.5 9t69.5 32.5t36 61.5t10 98q0 59 -11.5 99t-38 63.5t-72.5 32.5t-116 9 q-10 0 -35.5 -2t-35.5 -4v-395z" />
<glyph unicode="S" horiz-adv-x="1073" d="M57 57v334q37 -18 86.5 -33.5t100.5 -27t102 -18.5t94 -7q201 0 201 141q0 39 -18.5 64t-51 41t-74.5 27.5t-89 23.5q-59 16 -121 45t-111 82t-79.5 141t-30.5 226q0 207 138 321.5t388 114.5q92 0 185 -14.5t192 -44.5v-318q-39 12 -85 22.5t-93.5 17.5t-90.5 12t-73 5 q-162 0 -162 -116q0 -45 23.5 -74t61.5 -49.5t87 -36.5t102 -37q55 -23 109.5 -53.5t96.5 -80.5t68.5 -124t26.5 -180q0 -113 -36.5 -203t-104.5 -152.5t-164 -96.5t-217 -34q-109 0 -219.5 19.5t-241.5 62.5z" />
<glyph unicode="T" d="M35 1176v340h1069v-340h-336v-1176h-399v1176h-334z" />
<glyph unicode="U" horiz-adv-x="1378" d="M92 578v935h400v-909q0 -162 44 -226.5t154 -64.5q55 0 93 14.5t61.5 48.5t33 90t9.5 138v909h399v-935q0 -152 -30.5 -263.5t-101.5 -186.5t-184.5 -111.5t-279.5 -36.5t-280.5 37.5t-185 112.5t-101.5 186.5t-31 261.5z" />
<glyph unicode="V" horiz-adv-x="1306" d="M-10 1516h389l207 -842l53 -332h33l57 332l203 842h381l-381 -1516h-553z" />
<glyph unicode="W" horiz-adv-x="1955" d="M0 1516h440l123 -865l12 -170h25l21 170l174 865h381l172 -865l20 -170h25l12 170l123 865h428l-334 -1516h-463l-149 678l-19 272h-24l-19 -272l-149 -678h-465z" />
<glyph unicode="X" horiz-adv-x="1329" d="M-37 0l447 784l-396 732h447l211 -433l6 -32h6l6 32l203 433h422l-400 -703l453 -813h-438l-273 504l-6 33h-8l-6 -33l-250 -504h-424z" />
<glyph unicode="Y" horiz-adv-x="1392" d="M-27 1516h453l238 -529l24 -100h21l26 100l240 529h442l-520 -996v-520h-401v520z" />
<glyph unicode="Z" horiz-adv-x="1150" d="M47 0v369l586 790v23h-551v334h987v-371l-586 -791v-20h623v-334h-1059z" />
<glyph unicode="[" horiz-adv-x="724" d="M119 -328v2106h573v-248h-276v-1610h276v-248h-573z" />
<glyph unicode="\" horiz-adv-x="733" d="M37 1516h332l327 -1762h-331z" />
<glyph unicode="]" horiz-adv-x="724" d="M33 -80h274v1610h-274v248h573v-2106h-573v248z" />
<glyph unicode="^" horiz-adv-x="905" d="M45 985l231 631h353l231 -631h-272l-131 404h-8l-132 -404h-272z" />
<glyph unicode="_" horiz-adv-x="1126" d="M63 -123h1000v-280h-1000v280z" />
<glyph unicode="`" horiz-adv-x="587" d="M4 1655h399l132 -385l-277 -21z" />
<glyph unicode="a" horiz-adv-x="1081" d="M29 332q0 326 401 350l182 10q-2 47 -9 76t-24.5 44t-47 20.5t-78.5 5.5q-23 0 -64 -3.5t-88 -7.5t-90 -9t-68 -9l-22 276q98 16 197.5 26.5t195.5 10.5q258 0 372.5 -84t114.5 -270v-768h-321l-27 133h-20q-47 -66 -123 -104.5t-162 -38.5q-72 0 -130 25.5t-100 70.5 t-65.5 107.5t-23.5 138.5zM414 367q0 -47 21.5 -73t62.5 -26q23 0 54.5 12.5t59.5 32.5v154l-96 -10q-55 -6 -78.5 -27.5t-23.5 -62.5z" />
<glyph unicode="b" horiz-adv-x="1144" d="M84 74v1581h389v-660q94 129 270 129q352 0 353 -528q0 -141 -30 -254t-95.5 -191.5t-169 -121.5t-250.5 -47q-104 0 -221 23.5t-246 68.5zM473 256q10 -10 34.5 -16.5t53.5 -6.5q43 0 69.5 12.5t42 46.5t20.5 95.5t5 159.5t-4 157.5t-15 93t-32.5 45t-54.5 11.5 q-37 0 -59.5 -17.5t-36 -63.5t-18.5 -125t-5 -204v-188z" />
<glyph unicode="c" horiz-adv-x="890" d="M47 553q0 299 141.5 435t427.5 136q61 0 119 -9t99 -25v-299q-96 22 -166 22h-6q-121 0 -169.5 -57.5t-48.5 -198.5q0 -143 48.5 -204.5t164.5 -61.5q49 0 92.5 5t84.5 17v-297q-41 -16 -99 -25t-119 -9q-287 0 -428 136t-141 435z" />
<glyph unicode="d" horiz-adv-x="1146" d="M49 510q0 311 134 462.5t411 151.5q14 0 30.5 -1t47.5 -3v535h389v-1655h-359l-20 111h-10q-99 -129 -271 -129q-352 0 -352 528zM446 559q0 -96 4.5 -155.5t16.5 -93.5t32.5 -46t53.5 -12q37 0 59.5 17.5t36 63.5t18.5 125t5 204v188q-12 10 -36 16t-52 6q-43 0 -70 -12 t-42 -46t-20.5 -95.5t-5.5 -159.5z" />
<glyph unicode="e" horiz-adv-x="1052" d="M47 545q0 579 520 579h2q227 0 331 -129t104 -411q0 -63 -2.5 -94t-8.5 -66h-557q4 -49 13.5 -80t27 -47t46 -21.5t69.5 -5.5q57 0 155.5 15.5t210.5 40.5l11 -281q-41 -14 -90.5 -25.5t-102.5 -19.5t-107.5 -13t-101.5 -5q-520 0 -520 563zM436 655h228 q-4 102 -27 143.5t-80 41.5q-59 0 -87 -39t-34 -146z" />
<glyph unicode="f" horiz-adv-x="800" d="M23 782v324h149v47q0 143 32 240.5t106.5 159t196.5 89t302 31.5l25 -291q-82 -4 -135.5 -15t-84 -33.5t-43 -58.5t-12.5 -89v-80h227v-324h-227v-782h-389v782h-147z" />
<glyph unicode="g" horiz-adv-x="1146" d="M51 510q0 614 545 614q98 0 211 -17t256 -54v-891q0 -303 -148.5 -458t-437.5 -155q-162 0 -356 48l24 280q186 -37 295 -37q135 0 189.5 57.5t54.5 198.5v64h-10q-94 -119 -260 -119q-184 0 -273.5 114.5t-89.5 354.5zM449 559q0 -82 4 -134t15 -81t31.5 -40t55.5 -11 q37 0 59.5 16.5t36 58.5t18.5 113.5t5 180.5v188q-12 10 -36 16t-52 6q-43 0 -70 -12t-42 -46t-20 -95.5t-5 -159.5z" />
<glyph unicode="h" d="M86 0v1655h389v-647q61 37 104.5 60.5t80 35.5t69.5 17t72 5q115 0 185.5 -81.5t70.5 -215.5v-829h-389v686q0 104 -76 105q-41 0 -117 -41v-750h-389z" />
<glyph unicode="i" horiz-adv-x="561" d="M72 1430q0 109 48 155.5t161 46.5q111 0 161 -47t50 -155q0 -109 -49 -157t-162 -48q-111 0 -160 47t-49 158zM86 0v1106h389v-1106h-389z" />
<glyph unicode="j" horiz-adv-x="563" d="M18 -377q14 55 27.5 127t23 152t14.5 165t5 164v875h389v-963q0 -66 -15.5 -143.5t-41 -158.5t-61 -156.5t-76.5 -135.5zM74 1430q0 109 48 155.5t161 46.5q111 0 161 -47t50 -155q0 -109 -49 -157t-162 -48q-111 0 -160 47t-49 158z" />
<glyph unicode="k" horiz-adv-x="1128" d="M86 0v1655h389v-944h51l183 395h417l-290 -510l-58 -21v-8l58 -20l327 -547h-422l-215 430h-51v-430h-389z" />
<glyph unicode="l" horiz-adv-x="561" d="M86 0v1655h389v-1655h-389z" />
<glyph unicode="m" horiz-adv-x="1689" d="M86 0v1106h317l21 -119h8q66 43 113 70.5t85 43t72.5 20.5t77.5 5q72 0 129.5 -35.5t91.5 -103.5h15q57 43 101 69.5t82 42t74 21.5t79 6q115 0 185.5 -81.5t70.5 -215.5v-829h-379v686q0 104 -86 105q-41 0 -107 -41v-750h-379v686q0 104 -86 105q-41 0 -106 -41v-750 h-379z" />
<glyph unicode="n" d="M86 0v1106h328l20 -119h8q70 43 119 70.5t88 43t74 20.5t78 5q115 0 185.5 -81.5t70.5 -215.5v-829h-389v686q0 57 -21.5 81t-54.5 24q-27 0 -56.5 -12.5t-60.5 -28.5v-750h-389z" />
<glyph unicode="o" horiz-adv-x="1122" d="M47 553q0 285 129 429t385 144t385 -144t129 -429t-129 -430.5t-385 -145.5t-385 145.5t-129 430.5zM436 553q0 -92 4 -147.5t17.5 -86t38 -40t65.5 -9.5t65.5 9.5t38 40t17.5 86t4 147.5t-4 147.5t-17.5 85t-38 39t-65.5 9.5t-65.5 -9.5t-38 -39t-17.5 -85t-4 -147.5z " />
<glyph unicode="p" horiz-adv-x="1146" d="M86 -451v1557h354l17 -111h8q47 61 119.5 95t160.5 34q352 0 353 -528q0 -614 -535 -614q-16 0 -36.5 1t-51.5 3v-437h-389zM475 256q22 -23 88 -23q43 0 69.5 12.5t42 46.5t20.5 95.5t5 159.5t-4 157.5t-15 93t-32.5 45t-54.5 11.5q-37 0 -59.5 -17.5t-36 -63.5 t-18.5 -125t-5 -204v-188z" />
<glyph unicode="q" horiz-adv-x="1144" d="M49 508q0 319 137.5 467.5t431.5 148.5q88 0 203 -14t238 -41v-1520h-389v557q-91 -124 -264 -124h-3q-354 0 -354 526zM436 575q0 -104 4 -167.5t16.5 -98.5t36 -47t64.5 -12q39 0 61.5 18.5t34 64.5t14.5 126t3 200v193q-6 10 -29 15t-55 5q-51 0 -81 -10t-45.5 -42 t-19.5 -90t-4 -155z" />
<glyph unicode="r" horiz-adv-x="811" d="M86 0v1106h328l20 -172h17q2 12 31.5 37.5t70.5 54.5t87 55.5t83 42.5h70v-358h-158q-18 -2 -43 -11.5t-48.5 -21.5t-43 -26.5t-25.5 -24.5v-682h-389z" />
<glyph unicode="s" horiz-adv-x="917" d="M63 43v281q66 -29 160 -46.5t178 -17.5q109 0 109 62q0 57 -104 69q-49 6 -108.5 16.5t-112 45t-87.5 103.5t-35 192q0 182 102.5 279t297.5 97q78 0 173 -12t179 -33v-280q-51 12 -89 19t-68.5 11.5t-56.5 6.5t-52 2q-127 0 -127 -72q0 -61 88 -70q51 -6 114.5 -17 t120 -46t95.5 -101.5t39 -181.5q0 -180 -121 -274t-350 -94q-86 0 -176.5 16t-168.5 45z" />
<glyph unicode="t" horiz-adv-x="790" d="M18 782v324h172l52 332l313 37v-369h190v-324h-188v-372q0 -80 23.5 -110t72.5 -30q41 0 97 15v-277q-86 -22 -199 -22q-188 0 -285.5 83t-97.5 240v473h-150z" />
<glyph unicode="u" horiz-adv-x="1136" d="M80 276v830h389v-696q0 -104 86 -105q39 0 107 41v760h389v-1106h-328l-21 111h-8q-61 -41 -104 -66t-78 -40t-66.5 -20t-68.5 -5q-133 0 -215 81.5t-82 214.5z" />
<glyph unicode="v" horiz-adv-x="1120" d="M0 1085v21h399l131 -612l19 -162h20l21 162l131 612h399v-21l-338 -1085h-444z" />
<glyph unicode="w" horiz-adv-x="1558" d="M29 1098v8h350l63 -604l13 -113h26l15 113l96 604h375l96 -604l14 -113h27l12 113l64 604h350v-8l-197 -1098h-438l-92 565l-10 113h-27l-10 -113l-92 -565h-439z" />
<glyph unicode="x" horiz-adv-x="1118" d="M6 0v31l275 547l-269 507v21h410l108 -277l23 -71h20l21 71l102 277h412v-21l-270 -540l272 -514v-31h-401l-121 315l-21 82h-24l-21 -82l-112 -315h-404z" />
<glyph unicode="y" horiz-adv-x="1144" d="M-6 1077v29h395l146 -571l22 -156h25l24 156l146 571h395v-29l-502 -1528l-389 80v17l113 354z" />
<glyph unicode="z" horiz-adv-x="923" d="M55 0v270l367 521v16h-356v299h786v-272l-363 -519v-16h383v-299h-817z" />
<glyph unicode="{" horiz-adv-x="665" d="M37 584v286q72 0 98.5 44t26.5 135v469q0 141 55 200.5t178 59.5q18 0 54 -1t73 -3t66.5 -3.5t40.5 -3.5v-237h-68q-49 0 -70.5 -20.5t-21.5 -65.5v-475q0 -96 -47 -163t-125 -81q78 -10 125 -75.5t47 -162.5v-481q0 -45 21.5 -65.5t70.5 -20.5h68v-237q-10 -2 -40 -4.5 t-67 -3.5t-72.5 -2t-54.5 -1q-123 0 -178 59.5t-55 200.5v476q0 90 -26.5 133t-98.5 43z" />
<glyph unicode="|" horiz-adv-x="600" d="M119 -451v2106h362v-2106h-362z" />
<glyph unicode="}" horiz-adv-x="665" d="M37 -80h67q49 0 71 20.5t22 65.5v481q0 96 47 162t125 76q-78 14 -125 80.5t-47 163.5v475q0 45 -21.5 65.5t-71.5 20.5h-67v237q8 2 38.5 3.5t67.5 3.5t73 3t54 1q123 0 178.5 -59.5t55.5 -200.5v-469q0 -90 26.5 -134.5t98.5 -44.5v-286q-72 0 -98.5 -43t-26.5 -133 v-476q0 -141 -55.5 -200.5t-178.5 -59.5q-18 0 -54 1t-73 2t-67.5 3.5t-38.5 4.5v237z" />
<glyph unicode="~" horiz-adv-x="1241" d="M45 541q63 90 111.5 148.5t89.5 93t80 48t84 13.5q59 0 109 -23.5t96.5 -51.5t89.5 -51.5t90 -23.5q96 0 178 158l225 -137q-31 -45 -67.5 -98.5t-80.5 -99.5t-98.5 -76.5t-117.5 -30.5q-59 0 -109.5 23.5t-96.5 52t-90 52t-89 23.5q-94 0 -179 -158z" />
<glyph unicode="&#xa1;" horiz-adv-x="559" d="M61 922q0 98 57 151t161 53t160.5 -53t56.5 -151t-56.5 -151.5t-160.5 -53.5t-161 53t-57 152zM72 -389l88 907v21h241v-21l86 -907v-21h-415v21z" />
<glyph unicode="&#xa2;" horiz-adv-x="909" d="M45 553q0 256 102.5 390t311.5 169v240h237v-232q39 -4 74 -12t61 -18v-299q-100 23 -172 22q-121 0 -169 -57.5t-48 -198.5q0 -143 48.5 -204.5t164.5 -61.5q49 0 92.5 5t83.5 17v-297q-27 -12 -61.5 -19t-73.5 -11v-232h-237v240q-209 35 -311.5 169t-102.5 390z" />
<glyph unicode="&#xa3;" horiz-adv-x="1249" d="M61 0v336h220v280h-220v297h220v179q0 229 115.5 336.5t369.5 107.5q90 0 193.5 -13.5t236.5 -37.5l-10 -311q-37 8 -82 14t-91 11t-89 8t-76 3q-94 0 -131 -26.5t-37 -102.5v-168h336v-297h-336v-284h487v-332h-1106z" />
<glyph unicode="&#xa4;" horiz-adv-x="1218" d="M51 334l115 108l119 90q-66 94 -66 226q0 129 66 223l-119 92l-115 109l133 135l109 -115l96 -127q45 27 99.5 41t117.5 14q125 0 221 -57l99 129l108 115l133 -135l-114 -109l-123 -96q31 -45 48 -99.5t17 -119.5q0 -129 -63 -223l121 -93l114 -108l-133 -135l-108 114 l-97 127q-96 -57 -221 -57q-66 0 -120 14.5t-99 40.5l-96 -125l-109 -114zM451 758q0 -90 43 -137.5t114 -47.5q72 0 114 46.5t42 138.5q0 86 -41 134t-115 48q-72 0 -114.5 -47t-42.5 -135z" />
<glyph unicode="&#xa5;" horiz-adv-x="1515" d="M37 1516h452l238 -529l25 -100h20l27 100l239 529h443l-387 -742h215v-270h-348v-131h348v-271h-348v-102h-402v102h-362v271h362v131h-362v270h229z" />
<glyph unicode="&#xa6;" horiz-adv-x="600" d="M119 420h362v-871h-362v871zM119 784v871h362v-871h-362z" />
<glyph unicode="&#xa7;" horiz-adv-x="962" d="M80 43v281q66 -29 160 -46.5t178 -17.5q109 0 108 62q0 57 -104 69q-49 6 -108.5 16.5t-111.5 45t-87 103.5t-35 192q0 131 55 221q-25 35 -40 88t-15 127q0 182 102.5 279.5t296.5 97.5q78 0 173.5 -12.5t178.5 -32.5v-281q-51 12 -88.5 19.5t-68.5 11.5t-56.5 6 t-52.5 2q-127 0 -127 -72q0 -61 88 -69q51 -6 115 -17.5t120 -46.5t95 -101.5t39 -181.5q0 -133 -70 -221q31 -35 50.5 -87t19.5 -128q0 -180 -121 -274t-350 -94q-86 0 -176 16t-168 45zM418 766q0 -31 6 -48.5t29 -27.5q22 -10 73 -14q20 35 21 82q0 43 -31 61 q-18 12 -49 19q-49 -35 -49 -72z" />
<glyph unicode="&#xa8;" horiz-adv-x="1028" d="M74 1430q0 96 44 139t144 43q98 0 144.5 -42t46.5 -140t-46.5 -141.5t-144.5 -43.5q-100 0 -144 43t-44 142zM573 1430q0 96 44.5 139t144.5 43q98 0 143 -42t45 -140t-45 -141.5t-143 -43.5q-100 0 -144.5 43t-44.5 142z" />
<glyph unicode="&#xa9;" horiz-adv-x="1626" d="M55 758q0 174 54.5 317.5t152.5 245.5t238.5 158.5t312.5 56.5t312.5 -56.5t238.5 -158.5t152.5 -245.5t54.5 -317.5t-54.5 -317.5t-152.5 -246t-238.5 -158.5t-312.5 -56t-312.5 56t-238.5 158.5t-152.5 246t-54.5 317.5zM270 758q0 -131 37 -237.5t105.5 -182.5 t170 -117t230.5 -41t229.5 41t169 117t105.5 182.5t37 237.5t-37 237.5t-105.5 182t-169 116.5t-229.5 41t-230.5 -41t-170 -116.5t-105.5 -182t-37 -237.5zM455 756q0 420 389 420q49 0 101 -6.5t89 -16.5v-211q-55 10 -95 14.5t-65 4.5q-51 0 -82.5 -11.5t-49 -36 t-23.5 -63.5t-6 -92q0 -109 29.5 -158t127.5 -49q23 0 66 4t98 14v-211q-37 -10 -89 -16t-101 -6q-389 0 -389 420z" />
<glyph unicode="&#xaa;" horiz-adv-x="864" d="M41 963q0 227 272 235l170 6q0 39 -4 60.5t-13 33t-27.5 13.5t-49.5 2q-59 0 -133 -5t-133 -16l-19 203q76 16 153 24.5t159 8.5q197 0 283.5 -60.5t86.5 -193.5v-553h-262l-12 96h-8q-29 -47 -94.5 -75.5t-133.5 -28.5q-109 0 -172 67.5t-63 182.5zM348 985 q1 -72 58 -72q18 0 40.5 11.5t36.5 27.5v103l-92 -8q-25 -4 -34 -17.5t-9 -44.5z" />
<glyph unicode="&#xab;" horiz-adv-x="1245" d="M41 549v8l192 487h390l-193 -487v-8l193 -488h-390zM618 549v8l193 487h389l-192 -487v-8l192 -488h-389z" />
<glyph unicode="&#xac;" horiz-adv-x="1546" d="M61 596v311h1393v-714h-381v403h-1012z" />
<glyph unicode="&#xad;" horiz-adv-x="856" d="M82 432v283h692v-283h-692z" />
<glyph unicode="&#xae;" horiz-adv-x="1376" d="M61 918q0 139 45.5 253.5t127 196.5t197.5 127t257 45t257 -45t198 -127t127 -196.5t45 -253.5t-45 -254t-127 -197t-198 -127t-257 -45t-257 45t-197.5 127t-127 196.5t-45.5 254.5zM233 918q0 -104 31 -190.5t89.5 -147t142 -93t192.5 -32.5q106 0 191.5 32.5t143.5 93 t89 146.5t31 191q0 104 -31 190t-89 146.5t-143 93t-192 32.5q-109 0 -192.5 -32.5t-142 -93t-89.5 -146.5t-31 -190zM467 621v624q53 4 103.5 7t99.5 3q270 0 270 -204q0 -68 -27.5 -115t-83.5 -66v-4l123 -245h-166l-92 202h-63v-202h-164zM631 946h39q63 0 82.5 23.5 t19.5 77.5q0 41 -17.5 66.5t-68.5 25.5h-55v-193z" />
<glyph unicode="&#xaf;" horiz-adv-x="899" d="M88 1264v233h703v-233h-703z" />
<glyph unicode="&#xb0;" horiz-adv-x="851" d="M37 1147q0 84 28.5 155.5t80 124t123 81t157.5 28.5t157.5 -28.5t123 -81t80 -124t28.5 -155.5t-28.5 -155.5t-80 -123t-123 -80t-157.5 -28.5t-157.5 28.5t-123 80t-80 123t-28.5 155.5zM242 1147q0 -88 46 -138.5t138 -50.5t137 50.5t45 138.5t-45 139t-137 51 t-138 -51t-46 -139z" />
<glyph unicode="&#xb1;" horiz-adv-x="1087" d="M78 731v275h328v317h274v-317h328v-275h-328v-297h-274v297h-328zM80 70v274h930v-274h-930z" />
<glyph unicode="&#xb2;" horiz-adv-x="854" d="M43 614v222q0 63 14.5 114t48 96.5t88 87.5t134.5 89q78 45 109.5 80.5t31.5 82.5q0 86 -156 87q-55 0 -114.5 -8.5t-108.5 -16.5l-27 258q92 20 182.5 31.5t162.5 11.5q399 0 399 -326q0 -125 -54.5 -209t-154.5 -141q-100 -59 -153.5 -102t-53.5 -64v-22h406v-271h-754 z" />
<glyph unicode="&#xb3;" horiz-adv-x="794" d="M55 623v278h21q35 -10 80 -17t88 -7q100 0 141 20.5t41 67.5q0 53 -38 71.5t-146 18.5h-70v245h68q86 0 120.5 19.5t34.5 66.5q0 86 -133 87q-80 0 -188 -21h-19v270q106 27 236 27q227 0 329.5 -67.5t102.5 -217.5q0 -211 -162 -272q92 -29 142.5 -96.5t50.5 -163.5 q0 -160 -120 -246t-339 -86q-68 0 -124 5t-116 18z" />
<glyph unicode="&#xb4;" horiz-adv-x="573" d="M39 1270l131 385h399l-252 -406z" />
<glyph unicode="&#xb5;" horiz-adv-x="1210" d="M117 -451v1557h389v-700q0 -47 22.5 -74t63.5 -27q39 0 106 41v760h389v-1106h-327l-21 111h-8q-80 -53 -131 -81t-94 -38v-443h-389z" />
<glyph unicode="&#xb6;" horiz-adv-x="1169" d="M45 1034q0 137 29.5 231.5t86 152t136.5 83t178 25.5q45 0 104.5 -5t112.5 -16v-1505h-166v545q-16 -2 -22 -2h-21q-100 0 -181 25.5t-138.5 83t-88 151.5t-30.5 231zM805 0v1505h225v-1505h-225z" />
<glyph unicode="&#xb7;" horiz-adv-x="534" d="M57 758q0 109 48.5 157t160.5 48q111 0 161 -47.5t50 -157.5q0 -111 -50 -158t-161 -47q-113 0 -161 48t-48 157z" />
<glyph unicode="&#xb8;" horiz-adv-x="536" d="M49 -205q41 -8 78 -10t43 -2q35 0 48 16.5t13 36.5q0 43 -35.5 113.5t-93.5 148.5h232q41 -53 68.5 -95t45 -81t25.5 -75.5t8 -79.5q0 -98 -63.5 -158t-186.5 -60q-33 0 -80 5.5t-102 19.5v221z" />
<glyph unicode="&#xb9;" horiz-adv-x="702" d="M2 1485l10 49l336 199h254v-1119h-338v775l-168 -48h-47z" />
<glyph unicode="&#xba;" horiz-adv-x="890" d="M43 1118q0 209 104.5 310.5t296.5 101.5q197 0 300.5 -101.5t103.5 -310.5t-103.5 -310t-300.5 -101q-193 0 -297 101t-104 310zM348 1118q0 -61 1 -99t9.5 -59.5t27.5 -28.5t58 -7t59.5 7t29 28.5t9.5 59.5t1 99t-1 98t-9.5 58.5t-29 29t-59.5 7.5t-58 -7.5t-27.5 -29 t-9.5 -58t-1 -98.5z" />
<glyph unicode="&#xbb;" horiz-adv-x="1245" d="M45 61l193 488v8l-193 487h389l193 -487v-8l-193 -488h-389zM623 61l192 488v8l-192 487h389l192 -487v-8l-192 -488h-389z" />
<glyph unicode="&#xbc;" horiz-adv-x="2191" d="M37 1280l10 49l336 199h254v-1118h-338v774l-168 -47h-47zM608 0l533 1516h309l-532 -1516h-310zM1270 410l323 680l25 22l295 -16l20 -33l-350 -614h150l96 253h205v-253h106v-238h-106v-211h-338v211h-398z" />
<glyph unicode="&#xbd;" horiz-adv-x="2199" d="M37 1280l10 49l336 199h254v-1118h-338v774l-168 -47h-47zM608 0l533 1516h309l-532 -1516h-310zM1366 0v221q0 61 14.5 112.5t47 96.5t88 88t135.5 90q78 45 109.5 81t31.5 83q0 86 -156 86q-61 0 -124.5 -7t-98.5 -17l-27 258q104 23 191.5 33t153.5 10q399 0 399 -326 q0 -231 -209 -350q-100 -59 -153.5 -102.5t-53.5 -63.5v-23h406v-270h-754z" />
<glyph unicode="&#xbe;" horiz-adv-x="2101" d="M76 418v278h20q35 -10 80 -17t88 -7q100 0 141 20.5t41 67.5q0 53 -37.5 71.5t-146.5 18.5h-69v246h67q86 0 121 19.5t35 66.5q0 86 -133 86q-80 0 -189 -21h-18v271q106 27 235 26q227 0 329.5 -67.5t102.5 -216.5q0 -211 -161 -273q92 -29 142 -96.5t50 -163.5 q0 -160 -120 -246t-339 -86q-68 0 -124 5.5t-115 17.5zM639 0l532 1516h310l-533 -1516h-309zM1188 410l323 680l25 22l295 -16l20 -33l-350 -614h150l96 253h205v-253h106v-238h-106v-211h-338v211h-397z" />
<glyph unicode="&#xbf;" horiz-adv-x="876" d="M39 -20q0 162 91 267t263 136l19 186v29h237v-27l37 -358q-143 -29 -201.5 -74t-58.5 -123q0 -139 172 -139q25 0 55.5 2t60 7t57.5 10.5t46 11.5l10 -293q-143 -39 -311 -39q-229 0 -353 104.5t-124 299.5zM309 920q0 98 56.5 151t160.5 53t160.5 -53t56.5 -151 t-56 -151.5t-161 -53.5q-104 0 -160.5 53t-56.5 152z" />
<glyph unicode="&#xc0;" horiz-adv-x="1318" d="M-8 0v14l362 1502h611l362 -1502v-14h-375l-78 326h-432l-75 -326h-375zM266 2023h398l131 -385l-277 -20zM516 643h285l-80 361l-49 221h-25l-49 -221z" />
<glyph unicode="&#xc1;" horiz-adv-x="1318" d="M-8 0v14l362 1502h611l362 -1502v-14h-375l-78 326h-432l-75 -326h-375zM510 1638l131 385h397l-252 -405zM516 643h285l-80 361l-49 221h-25l-49 -221z" />
<glyph unicode="&#xc2;" horiz-adv-x="1318" d="M-8 0v14l362 1502h611l362 -1502v-14h-375l-78 326h-432l-75 -326h-375zM313 1610v254l353 145l348 -145v-254l-350 145zM516 643h285l-80 361l-49 221h-25l-49 -221z" />
<glyph unicode="&#xc3;" horiz-adv-x="1318" d="M-8 0v14l362 1502h611l362 -1502v-14h-375l-78 326h-432l-75 -326h-375zM276 1706q66 137 147 203.5t159 66.5q39 0 78.5 -12t79.5 -26.5t80 -27t81 -12.5t78 16.5t84 61.5l47 -43q-66 -139 -145.5 -204.5t-159.5 -65.5q-41 0 -81 12.5t-80 25.5t-80 25.5t-79 12.5 q-41 0 -78.5 -15.5t-84.5 -60.5zM516 643h285l-80 361l-49 221h-25l-49 -221z" />
<glyph unicode="&#xc4;" horiz-adv-x="1318" d="M-8 0v14l362 1502h611l362 -1502v-14h-375l-78 326h-432l-75 -326h-375zM182 1839q0 109 48.5 156t160.5 47q111 0 161 -47t50 -156q0 -111 -50 -158t-161 -47q-113 0 -161 48.5t-48 156.5zM516 643h285l-80 361l-49 221h-25l-49 -221zM723 1839q0 109 48 156t161 47 q111 0 161 -47t50 -156q0 -111 -50 -158t-161 -47q-113 0 -161 48.5t-48 156.5z" />
<glyph unicode="&#xc5;" horiz-adv-x="1318" d="M-8 0v14l362 1502h611l362 -1502v-14h-375l-78 326h-432l-75 -326h-375zM403 1806q0 104 71 171t181 67q55 0 101.5 -17.5t80 -49t52 -75.5t18.5 -96q0 -51 -18.5 -94t-52 -74.5t-80 -49t-101.5 -17.5q-111 0 -181.5 66.5t-70.5 168.5zM516 643h285l-80 361l-49 221h-25 l-49 -221zM543 1806q0 -59 23 -83.5t89 -24.5q63 0 88 24.5t25 83.5t-24.5 86t-88.5 27q-66 0 -89 -26.5t-23 -86.5z" />
<glyph unicode="&#xc6;" horiz-adv-x="1742" d="M-10 0v12l430 1504h1241v-332h-481l18 -260h447v-332h-422l18 -260h438v-332h-823l-14 319h-357l-86 -319h-409zM578 651h251l-22 563h-76z" />
<glyph unicode="&#xc7;" horiz-adv-x="1040" d="M53 758q0 395 161 585.5t460 190.5q152 0 317 -37v-313q-70 12 -136.5 18t-119.5 6q-76 0 -128 -17t-83.5 -67.5t-46 -138.5t-14.5 -229t14.5 -229.5t46 -136.5t83.5 -65.5t128 -17.5q72 0 134.5 7.5t121.5 23.5v-305q-37 -18 -108.5 -31.5t-149.5 -17.5 q35 -57 50.5 -107.5t15.5 -109.5q0 -98 -63.5 -158t-186.5 -60q-33 0 -80 5.5t-102 19.5v221q41 -8 77.5 -10t42.5 -2q35 0 48.5 16.5t13.5 36.5q0 31 -17.5 74t-48.5 92q-213 53 -321.5 239.5t-108.5 516.5z" />
<glyph unicode="&#xc8;" d="M102 0v1516h965v-332h-565v-260h502v-332h-502v-260h583v-332h-983zM201 2023h397l131 -385l-276 -20z" />
<glyph unicode="&#xc9;" d="M102 0v1516h965v-332h-565v-260h502v-332h-502v-260h583v-332h-983zM444 1638l131 385h398l-252 -405z" />
<glyph unicode="&#xca;" d="M102 0v1516h965v-332h-565v-260h502v-332h-502v-260h583v-332h-983zM248 1610v254l352 145l348 -145v-254l-350 145z" />
<glyph unicode="&#xcb;" d="M102 0v1516h965v-332h-565v-260h502v-332h-502v-260h583v-332h-983zM117 1839q0 109 48 156t161 47q111 0 161 -47t50 -156q0 -111 -50 -158t-161 -47q-113 0 -161 48.5t-48 156.5zM657 1839q0 109 48.5 156t160.5 47q111 0 161 -47t50 -156q0 -111 -50 -158t-161 -47 q-113 0 -161 48.5t-48 156.5z" />
<glyph unicode="&#xcc;" horiz-adv-x="604" d="M-94 2023h397l131 -385l-276 -20zM102 0v1516h400v-1516h-400z" />
<glyph unicode="&#xcd;" horiz-adv-x="604" d="M102 0v1516h400v-1516h-400zM150 1638l131 385h397l-252 -405z" />
<glyph unicode="&#xce;" horiz-adv-x="604" d="M-47 1610v254l352 145l348 -145v-254l-350 145zM102 0v1516h400v-1516h-400z" />
<glyph unicode="&#xcf;" horiz-adv-x="604" d="M-178 1839q0 109 48 156t161 47q111 0 161 -47t50 -156q0 -111 -50 -158t-161 -47q-113 0 -161 48.5t-48 156.5zM102 0v1516h400v-1516h-400zM362 1839q0 109 48.5 156t160.5 47q111 0 161 -47t50 -156q0 -111 -50 -158t-161 -47q-113 0 -161 48.5t-48 156.5z" />
<glyph unicode="&#xd0;" horiz-adv-x="1394" d="M-4 616v297h162v603q139 8 232 13t171 5q215 0 363.5 -41t242 -133t134 -240.5t40.5 -363.5t-42 -363.5t-135 -241t-242.5 -134.5t-364.5 -42q-78 0 -171 6.5t-228 18.5v616h-162zM549 305q55 -6 87.5 -8t61.5 -2q72 0 118 18.5t71.5 69.5t35 141t9.5 234 q0 141 -12.5 230t-44 140.5t-89 71t-147.5 19.5q-35 0 -54.5 -2.5t-35.5 -6.5v-297h145v-297h-145v-311z" />
<glyph unicode="&#xd1;" horiz-adv-x="1411" d="M102 0v1516h328l432 -660l76 -158h23v818h348v-1516h-326l-438 670l-72 153h-22v-823h-349zM293 1706q66 137 146.5 203.5t158.5 66.5q39 0 79 -12t80 -26.5t80 -27t81 -12.5t77.5 16.5t83.5 61.5l47 -43q-66 -139 -145.5 -204.5t-159.5 -65.5q-41 0 -81 12.5t-79.5 25.5 t-79.5 25.5t-79 12.5q-41 0 -79 -15.5t-85 -60.5z" />
<glyph unicode="&#xd2;" horiz-adv-x="1409" d="M53 756q0 395 160 587.5t489 192.5q336 0 495 -190.5t159 -589.5q0 -397 -160 -586.5t-494 -189.5q-330 0 -489.5 191t-159.5 585zM307 2023h398l131 -385l-277 -20zM463 756q0 -127 12 -213t40 -139.5t73.5 -76t113.5 -22.5q70 0 116 22.5t75 75t41 138.5t12 215 q0 131 -11 219t-40 140t-76 73.5t-117 21.5q-68 0 -113.5 -22.5t-73.5 -75.5t-40 -140t-12 -216z" />
<glyph unicode="&#xd3;" horiz-adv-x="1409" d="M53 756q0 395 160 587.5t489 192.5q336 0 495 -190.5t159 -589.5q0 -397 -160 -586.5t-494 -189.5q-330 0 -489.5 191t-159.5 585zM463 756q0 -127 12 -213t40 -139.5t73.5 -76t113.5 -22.5q70 0 116 22.5t75 75t41 138.5t12 215q0 131 -11 219t-40 140t-76 73.5 t-117 21.5q-68 0 -113.5 -22.5t-73.5 -75.5t-40 -140t-12 -216zM551 1638l131 385h397l-252 -405z" />
<glyph unicode="&#xd4;" horiz-adv-x="1409" d="M53 756q0 395 160 587.5t489 192.5q336 0 495 -190.5t159 -589.5q0 -397 -160 -586.5t-494 -189.5q-330 0 -489.5 191t-159.5 585zM354 1610v254l353 145l348 -145v-254l-350 145zM463 756q0 -127 12 -213t40 -139.5t73.5 -76t113.5 -22.5q70 0 116 22.5t75 75t41 138.5 t12 215q0 131 -11 219t-40 140t-76 73.5t-117 21.5q-68 0 -113.5 -22.5t-73.5 -75.5t-40 -140t-12 -216z" />
<glyph unicode="&#xd5;" horiz-adv-x="1409" d="M53 756q0 395 160 587.5t489 192.5q336 0 495 -190.5t159 -589.5q0 -397 -160 -586.5t-494 -189.5q-330 0 -489.5 191t-159.5 585zM317 1706q66 137 147 203.5t159 66.5q39 0 78.5 -12t79.5 -26.5t80 -27t81 -12.5t78 16.5t84 61.5l47 -43q-66 -139 -145.5 -204.5 t-159.5 -65.5q-41 0 -81 12.5t-80 25.5t-80 25.5t-79 12.5q-41 0 -78.5 -15.5t-85.5 -60.5zM463 756q0 -127 12 -213t40 -139.5t73.5 -76t113.5 -22.5q70 0 116 22.5t75 75t41 138.5t12 215q0 131 -11 219t-40 140t-76 73.5t-117 21.5q-68 0 -113.5 -22.5t-73.5 -75.5 t-40 -140t-12 -216z" />
<glyph unicode="&#xd6;" horiz-adv-x="1409" d="M53 756q0 395 160 587.5t489 192.5q336 0 495 -190.5t159 -589.5q0 -397 -160 -586.5t-494 -189.5q-330 0 -489.5 191t-159.5 585zM223 1839q0 109 48 156t161 47q111 0 161 -47t50 -156q0 -111 -50 -158t-161 -47q-113 0 -161 48.5t-48 156.5zM463 756q0 -127 12 -213 t40 -139.5t73.5 -76t113.5 -22.5q70 0 116 22.5t75 75t41 138.5t12 215q0 131 -11 219t-40 140t-76 73.5t-117 21.5q-68 0 -113.5 -22.5t-73.5 -75.5t-40 -140t-12 -216zM764 1839q0 109 48 156t161 47q111 0 161 -47t50 -156q0 -111 -50 -158t-161 -47q-113 0 -161 48.5 t-48 156.5z" />
<glyph unicode="&#xd7;" horiz-adv-x="1036" d="M47 481l277 277l-277 276l195 195l276 -277l275 277l196 -195l-276 -276l276 -277l-194 -194l-277 276l-276 -276z" />
<glyph unicode="&#xd8;" horiz-adv-x="1413" d="M-2 0l174 231q-117 186 -117 525q0 395 160 587.5t490 192.5q225 0 374 -90l54 70h286l-176 -236q115 -193 115 -524q0 -397 -160 -586.5t-493 -189.5q-225 0 -369 88l-51 -68h-287zM465 756q0 -35 1 -67t3 -60l395 528q-29 29 -67.5 41t-91.5 12q-68 0 -114 -22.5 t-74 -75.5t-40 -140t-12 -216zM551 356q29 -29 66 -40t88 -11q70 0 115.5 22.5t74.5 75t41 138.5t12 215q0 35 -1 65.5t-3 59.5z" />
<glyph unicode="&#xd9;" horiz-adv-x="1378" d="M92 578v935h400v-909q0 -162 44 -226.5t154 -64.5q55 0 93 14.5t61.5 48.5t33 90t9.5 138v909h399v-935q0 -152 -30.5 -263.5t-101.5 -186.5t-184.5 -111.5t-279.5 -36.5t-280.5 37.5t-185 112.5t-101.5 186.5t-31 261.5zM276 2023h398l131 -385l-277 -20z" />
<glyph unicode="&#xda;" horiz-adv-x="1378" d="M92 578v935h400v-909q0 -162 44 -226.5t154 -64.5q55 0 93 14.5t61.5 48.5t33 90t9.5 138v909h399v-935q0 -152 -30.5 -263.5t-101.5 -186.5t-184.5 -111.5t-279.5 -36.5t-280.5 37.5t-185 112.5t-101.5 186.5t-31 261.5zM520 1638l131 385h398l-252 -405z" />
<glyph unicode="&#xdb;" horiz-adv-x="1378" d="M92 578v935h400v-909q0 -162 44 -226.5t154 -64.5q55 0 93 14.5t61.5 48.5t33 90t9.5 138v909h399v-935q0 -152 -30.5 -263.5t-101.5 -186.5t-184.5 -111.5t-279.5 -36.5t-280.5 37.5t-185 112.5t-101.5 186.5t-31 261.5zM324 1610v254l352 145l348 -145v-254l-350 145z " />
<glyph unicode="&#xdc;" horiz-adv-x="1378" d="M92 578v935h400v-909q0 -162 44 -226.5t154 -64.5q55 0 93 14.5t61.5 48.5t33 90t9.5 138v909h399v-935q0 -152 -30.5 -263.5t-101.5 -186.5t-184.5 -111.5t-279.5 -36.5t-280.5 37.5t-185 112.5t-101.5 186.5t-31 261.5zM193 1839q0 109 48 156t160 47q111 0 161 -47 t50 -156q0 -111 -50 -158t-161 -47q-113 0 -160.5 48.5t-47.5 156.5zM733 1839q0 109 48 156t161 47q111 0 161 -47t50 -156q0 -111 -50 -158t-161 -47q-113 0 -161 48.5t-48 156.5z" />
<glyph unicode="&#xdd;" horiz-adv-x="1392" d="M-27 1516h453l238 -529l24 -100h21l26 100l240 529h442l-520 -996v-520h-401v520zM545 1638l131 385h397l-252 -405z" />
<glyph unicode="&#xde;" horiz-adv-x="1251" d="M102 0v1516h400v-222h10q188 0 322.5 -31.5t220.5 -98t126 -170t40 -249.5q0 -141 -39 -242.5t-121 -167t-211 -96t-307 -30.5h-41v-209h-400zM502 524h84q66 0 109.5 10.5t69.5 36t36 67.5t10 107q0 63 -10 107.5t-37 70t-73 37t-118 11.5h-71v-447z" />
<glyph unicode="&#xdf;" horiz-adv-x="1413" d="M86 0v1145q0 270 138 394t440 124q301 0 439 -124t138 -394v-307h-162q-143 -6 -143 -72q0 -61 88 -70q51 -6 114.5 -17t120 -46t95.5 -101.5t39 -181.5q0 -180 -121 -274t-350 -94q-86 0 -176.5 16t-167.5 45v281q66 -29 159.5 -46.5t177.5 -17.5q109 0 109 62 q0 57 -104 69q-49 6 -108.5 16.5t-112 45t-87 103.5t-34.5 192q0 133 72.5 225t201.5 129v43q0 123 -42 172t-146 49q-106 0 -147.5 -49t-41.5 -172v-1145h-389z" />
<glyph unicode="&#xe0;" horiz-adv-x="1081" d="M29 332q0 326 401 350l182 10q-2 47 -9 76t-24.5 44t-47 20.5t-78.5 5.5q-23 0 -64 -3.5t-88 -7.5t-90 -9t-68 -9l-22 276q98 16 197.5 26.5t195.5 10.5q258 0 372.5 -84t114.5 -270v-768h-321l-27 133h-20q-47 -66 -123 -104.5t-162 -38.5q-72 0 -130 25.5t-100 70.5 t-65.5 107.5t-23.5 138.5zM139 1655h400l131 -385l-277 -21zM414 367q0 -47 21.5 -73t62.5 -26q23 0 54.5 12.5t59.5 32.5v154l-96 -10q-55 -6 -78.5 -27.5t-23.5 -62.5z" />
<glyph unicode="&#xe1;" horiz-adv-x="1081" d="M29 332q0 326 401 350l182 10q-2 47 -9 76t-24.5 44t-47 20.5t-78.5 5.5q-23 0 -64 -3.5t-88 -7.5t-90 -9t-68 -9l-22 276q98 16 197.5 26.5t195.5 10.5q258 0 372.5 -84t114.5 -270v-768h-321l-27 133h-20q-47 -66 -123 -104.5t-162 -38.5q-72 0 -130 25.5t-100 70.5 t-65.5 107.5t-23.5 138.5zM406 1270l131 385h399l-252 -406zM414 367q0 -47 21.5 -73t62.5 -26q23 0 54.5 12.5t59.5 32.5v154l-96 -10q-55 -6 -78.5 -27.5t-23.5 -62.5z" />
<glyph unicode="&#xe2;" horiz-adv-x="1081" d="M29 332q0 326 401 350l182 10q-2 47 -9 76t-24.5 44t-47 20.5t-78.5 5.5q-23 0 -64 -3.5t-88 -7.5t-90 -9t-68 -9l-22 276q98 16 197.5 26.5t195.5 10.5q258 0 372.5 -84t114.5 -270v-768h-321l-27 133h-20q-47 -66 -123 -104.5t-162 -38.5q-72 0 -130 25.5t-100 70.5 t-65.5 107.5t-23.5 138.5zM219 1241v254l352 145l349 -145v-254l-351 145zM414 367q0 -47 21.5 -73t62.5 -26q23 0 54.5 12.5t59.5 32.5v154l-96 -10q-55 -6 -78.5 -27.5t-23.5 -62.5z" />
<glyph unicode="&#xe3;" horiz-adv-x="1081" d="M29 332q0 326 401 350l182 10q-2 47 -9 76t-24.5 44t-47 20.5t-78.5 5.5q-23 0 -64 -3.5t-88 -7.5t-90 -9t-68 -9l-22 276q98 16 197.5 26.5t195.5 10.5q258 0 372.5 -84t114.5 -270v-768h-321l-27 133h-20q-47 -66 -123 -104.5t-162 -38.5q-72 0 -130 25.5t-100 70.5 t-65.5 107.5t-23.5 138.5zM152 1348q66 123 146.5 181t158.5 58q39 0 78.5 -18.5t79.5 -41t80 -41t81 -18.5q35 0 68 18.5t71 69.5l70 -83q-66 -129 -145.5 -184.5t-159.5 -55.5q-41 0 -81 18.5t-80 40t-80 40t-79 18.5q-35 0 -67.5 -17.5t-71.5 -66.5zM414 367 q0 -47 21.5 -73t62.5 -26q23 0 54.5 12.5t59.5 32.5v154l-96 -10q-55 -6 -78.5 -27.5t-23.5 -62.5z" />
<glyph unicode="&#xe4;" horiz-adv-x="1081" d="M29 332q0 326 401 350l182 10q-2 47 -9 76t-24.5 44t-47 20.5t-78.5 5.5q-23 0 -64 -3.5t-88 -7.5t-90 -9t-68 -9l-22 276q98 16 197.5 26.5t195.5 10.5q258 0 372.5 -84t114.5 -270v-768h-321l-27 133h-20q-47 -66 -123 -104.5t-162 -38.5q-72 0 -130 25.5t-100 70.5 t-65.5 107.5t-23.5 138.5zM109 1430q0 96 44 139t144 43q98 0 144 -42t46 -140t-46 -141.5t-144 -43.5q-100 0 -144 43t-44 142zM414 367q0 -47 21.5 -73t62.5 -26q23 0 54.5 12.5t59.5 32.5v154l-96 -10q-55 -6 -78.5 -27.5t-23.5 -62.5zM608 1430q0 96 44 139t145 43 q98 0 143 -42t45 -140t-45 -141.5t-143 -43.5q-100 0 -144.5 43t-44.5 142z" />
<glyph unicode="&#xe5;" horiz-adv-x="1081" d="M29 332q0 326 401 350l182 10q-2 47 -9 76t-24.5 44t-47 20.5t-78.5 5.5q-23 0 -64 -3.5t-88 -7.5t-90 -9t-68 -9l-22 276q98 16 197.5 26.5t195.5 10.5q258 0 372.5 -84t114.5 -270v-768h-321l-27 133h-20q-47 -66 -123 -104.5t-162 -38.5q-72 0 -130 25.5t-100 70.5 t-65.5 107.5t-23.5 138.5zM279 1440q0 106 71.5 170.5t190.5 64.5t191.5 -64.5t72.5 -170.5q0 -104 -73.5 -170t-190.5 -66t-189.5 65.5t-72.5 170.5zM414 367q0 -47 21.5 -73t62.5 -26q23 0 54.5 12.5t59.5 32.5v154l-96 -10q-55 -6 -78.5 -27.5t-23.5 -62.5zM440 1440 q0 -47 28 -76t73 -29q47 0 74.5 29t27.5 76t-27.5 75.5t-74.5 28.5t-74 -28.5t-27 -75.5z" />
<glyph unicode="&#xe6;" horiz-adv-x="1622" d="M29 332q0 328 401 350l182 10v27q-2 37 -9 60.5t-24.5 35.5t-48 17.5t-77.5 5.5q-27 0 -71 -3.5t-90 -7.5t-87 -9t-62 -9l-22 276q236 37 393 37q199 0 281 -102h20q117 104 324 104q227 0 330.5 -129t103.5 -411q0 -63 -2 -94t-8 -66h-557q2 -47 10 -77t25.5 -47 t46 -23.5t73.5 -6.5q53 0 149.5 14.5t217.5 41.5l10 -281q-41 -14 -90 -25.5t-102.5 -19.5t-107.5 -13t-101 -5q-131 0 -219.5 40.5t-147.5 133.5h-20q-98 -82 -201 -124t-201 -42q-72 0 -130 25.5t-100 70.5t-65.5 107.5t-23.5 138.5zM414 367q0 -47 21.5 -73t62.5 -26 q23 0 54.5 12.5t59.5 32.5v154l-96 -10q-55 -6 -78.5 -27.5t-23.5 -62.5zM1006 655h227q-4 102 -26.5 143.5t-80.5 41.5q-61 0 -87.5 -40t-32.5 -145z" />
<glyph unicode="&#xe7;" horiz-adv-x="890" d="M47 553q0 299 141.5 435t427.5 136q61 0 119 -9t99 -25v-299q-100 23 -172 22q-121 0 -169.5 -57.5t-48.5 -198.5q0 -143 48.5 -204.5t164.5 -61.5q49 0 92.5 5t84.5 17v-297q-39 -16 -91.5 -24t-111.5 -10q35 -57 50 -106.5t15 -108.5q0 -98 -63.5 -158t-186.5 -60 q-33 0 -80 5.5t-102 19.5v221q41 -8 78 -10t43 -2q35 0 48 16.5t13 36.5q0 31 -19 77t-52 99q-166 49 -247 181.5t-81 359.5z" />
<glyph unicode="&#xe8;" horiz-adv-x="1052" d="M47 545q0 580 522 579q227 0 331 -129t104 -411q0 -63 -2.5 -94t-8.5 -66h-557q4 -49 13.5 -80t27 -47t46 -21.5t69.5 -5.5q57 0 155.5 15.5t210.5 40.5l11 -281q-41 -14 -90.5 -25.5t-102.5 -19.5t-107.5 -13t-101.5 -5q-520 0 -520 563zM129 1655h399l131 -385 l-276 -21zM436 655h228q-4 102 -27 143.5t-80 41.5q-59 0 -87 -39t-34 -146z" />
<glyph unicode="&#xe9;" horiz-adv-x="1052" d="M47 545q0 580 522 579q227 0 331 -129t104 -411q0 -63 -2.5 -94t-8.5 -66h-557q4 -49 13.5 -80t27 -47t46 -21.5t69.5 -5.5q57 0 155.5 15.5t210.5 40.5l11 -281q-41 -14 -90.5 -25.5t-102.5 -19.5t-107.5 -13t-101.5 -5q-520 0 -520 563zM395 1270l131 385h400 l-252 -406zM436 655h228q-4 102 -27 143.5t-80 41.5q-59 0 -87 -39t-34 -146z" />
<glyph unicode="&#xea;" horiz-adv-x="1052" d="M47 545q0 580 522 579q227 0 331 -129t104 -411q0 -63 -2.5 -94t-8.5 -66h-557q4 -49 13.5 -80t27 -47t46 -21.5t69.5 -5.5q57 0 155.5 15.5t210.5 40.5l11 -281q-41 -14 -90.5 -25.5t-102.5 -19.5t-107.5 -13t-101.5 -5q-520 0 -520 563zM209 1241v254l352 145l348 -145 v-254l-350 145zM436 655h228q-4 102 -27 143.5t-80 41.5q-59 0 -87 -39t-34 -146z" />
<glyph unicode="&#xeb;" horiz-adv-x="1052" d="M47 545q0 580 522 579q227 0 331 -129t104 -411q0 -63 -2.5 -94t-8.5 -66h-557q4 -49 13.5 -80t27 -47t46 -21.5t69.5 -5.5q57 0 155.5 15.5t210.5 40.5l11 -281q-41 -14 -90.5 -25.5t-102.5 -19.5t-107.5 -13t-101.5 -5q-520 0 -520 563zM98 1430q0 96 44 139t145 43 q98 0 144 -42t46 -140t-46 -141.5t-144 -43.5q-100 0 -144.5 43t-44.5 142zM436 655h228q-4 102 -27 143.5t-80 41.5q-59 0 -87 -39t-34 -146zM598 1430q0 96 44 139t144 43q98 0 143.5 -42t45.5 -140t-45.5 -141.5t-143.5 -43.5q-100 0 -144 43t-44 142z" />
<glyph unicode="&#xec;" horiz-adv-x="563" d="M-113 1655h400l131 -385l-277 -21zM88 0v1106h389v-1106h-389z" />
<glyph unicode="&#xed;" horiz-adv-x="563" d="M86 0v1106h389v-1106h-389zM152 1270l131 385h399l-252 -406z" />
<glyph unicode="&#xee;" horiz-adv-x="565" d="M-33 1241v254l352 145l349 -145v-254l-351 145zM88 0v1106h389v-1106h-389z" />
<glyph unicode="&#xef;" horiz-adv-x="565" d="M-143 1430q0 96 44 139t144 43q98 0 144.5 -42t46.5 -140t-46.5 -141.5t-144.5 -43.5q-100 0 -144 43t-44 142zM88 0v1106h389v-1106h-389zM356 1430q0 96 44 139t145 43q98 0 143 -42t45 -140t-45 -141.5t-143 -43.5q-100 0 -144.5 43t-44.5 142z" />
<glyph unicode="&#xf0;" d="M47 553q0 285 129 429t385 144q25 0 52.5 -4t50.5 -18q-23 70 -56 143l-274 -28v231l155 16q-70 106 -153 189h399q33 -37 60.5 -75t54.5 -77l280 29v-232l-167 -18q59 -147 85.5 -324.5t26.5 -404.5q0 -285 -129 -430.5t-385 -145.5t-385 145.5t-129 430.5zM436 553 q0 -94 4 -149.5t17.5 -85t38 -39t65.5 -9.5q39 0 63.5 10.5t39 41t18.5 86t4 145.5q0 92 -5 148.5t-19.5 85t-39 38t-61.5 9.5q-41 0 -65.5 -9.5t-38 -38t-17.5 -85t-4 -148.5z" />
<glyph unicode="&#xf1;" d="M86 0v1106h328l20 -119h8q70 43 119 70.5t88 43t74 20.5t78 5q115 0 185.5 -81.5t70.5 -215.5v-829h-389v686q0 57 -21.5 81t-54.5 24q-27 0 -56.5 -12.5t-60.5 -28.5v-750h-389zM184 1348q66 123 147 181t158 58q39 0 79 -18.5t80 -41t80 -41t81 -18.5q35 0 67.5 18.5 t71.5 69.5l70 -83q-66 -129 -145.5 -184.5t-159.5 -55.5q-41 0 -81 18.5t-80 40t-80 40t-79 18.5q-35 0 -67.5 -17.5t-71.5 -66.5z" />
<glyph unicode="&#xf2;" horiz-adv-x="1122" d="M47 553q0 285 129 429t385 144t385 -144t129 -429t-129 -430.5t-385 -145.5t-385 145.5t-129 430.5zM164 1655h399l131 -385l-276 -21zM436 553q0 -92 4 -147.5t17.5 -86t38 -40t65.5 -9.5t65.5 9.5t38 40t17.5 86t4 147.5t-4 147.5t-17.5 85t-38 39t-65.5 9.5 t-65.5 -9.5t-38 -39t-17.5 -85t-4 -147.5z" />
<glyph unicode="&#xf3;" horiz-adv-x="1122" d="M47 553q0 285 129 429t385 144t385 -144t129 -429t-129 -430.5t-385 -145.5t-385 145.5t-129 430.5zM430 1270l131 385h400l-252 -406zM436 553q0 -92 4 -147.5t17.5 -86t38 -40t65.5 -9.5t65.5 9.5t38 40t17.5 86t4 147.5t-4 147.5t-17.5 85t-38 39t-65.5 9.5 t-65.5 -9.5t-38 -39t-17.5 -85t-4 -147.5z" />
<glyph unicode="&#xf4;" horiz-adv-x="1122" d="M47 553q0 285 129 429t385 144t385 -144t129 -429t-129 -430.5t-385 -145.5t-385 145.5t-129 430.5zM244 1241v254l352 145l348 -145v-254l-350 145zM436 553q0 -92 4 -147.5t17.5 -86t38 -40t65.5 -9.5t65.5 9.5t38 40t17.5 86t4 147.5t-4 147.5t-17.5 85t-38 39 t-65.5 9.5t-65.5 -9.5t-38 -39t-17.5 -85t-4 -147.5z" />
<glyph unicode="&#xf5;" horiz-adv-x="1122" d="M47 553q0 285 129 429t385 144t385 -144t129 -429t-129 -430.5t-385 -145.5t-385 145.5t-129 430.5zM176 1348q66 123 146.5 181t158.5 58q39 0 79 -18.5t80 -41t80 -41t81 -18.5q35 0 67.5 18.5t71.5 69.5l70 -83q-66 -129 -146 -184.5t-159 -55.5q-41 0 -81 18.5 t-80 40t-80 40t-79 18.5q-35 0 -67.5 -17.5t-71.5 -66.5zM436 553q0 -92 4 -147.5t17.5 -86t38 -40t65.5 -9.5t65.5 9.5t38 40t17.5 86t4 147.5t-4 147.5t-17.5 85t-38 39t-65.5 9.5t-65.5 -9.5t-38 -39t-17.5 -85t-4 -147.5z" />
<glyph unicode="&#xf6;" horiz-adv-x="1122" d="M47 553q0 285 129 429t385 144t385 -144t129 -429t-129 -430.5t-385 -145.5t-385 145.5t-129 430.5zM133 1430q0 96 44 139t145 43q98 0 144 -42t46 -140t-46 -141.5t-144 -43.5q-100 0 -144.5 43t-44.5 142zM436 553q0 -92 4 -147.5t17.5 -86t38 -40t65.5 -9.5t65.5 9.5 t38 40t17.5 86t4 147.5t-4 147.5t-17.5 85t-38 39t-65.5 9.5t-65.5 -9.5t-38 -39t-17.5 -85t-4 -147.5zM633 1430q0 96 44 139t144 43q98 0 143.5 -42t45.5 -140t-45.5 -141.5t-143.5 -43.5q-100 0 -144 43t-44 142z" />
<glyph unicode="&#xf7;" horiz-adv-x="1069" d="M49 621v274h971v-274h-971zM367 362q0 86 48 127t124 41q74 0 122 -40.5t48 -127.5q0 -90 -48 -133t-122 -43q-76 0 -124 43t-48 133zM367 1153q0 90 48 133t124 43q74 0 122 -43t48 -133q0 -86 -48 -127t-122 -41q-76 0 -124 41t-48 127z" />
<glyph unicode="&#xf8;" horiz-adv-x="1136" d="M-18 0l157 184q-84 139 -84 369q0 285 129 429t385 144q186 0 310 -82l51 62h223l-158 -184q88 -141 88 -369q0 -285 -129 -430.5t-385 -145.5q-193 0 -311 82l-51 -59h-225zM444 539l222 258q-14 23 -38 30t-59 7q-41 0 -65.5 -9.5t-37.5 -39t-17.5 -85t-4.5 -147.5v-14 zM471 309q14 -25 36.5 -32t61.5 -7q41 0 65.5 9.5t38 40t17.5 86t4 147.5v16z" />
<glyph unicode="&#xf9;" horiz-adv-x="1136" d="M80 276v830h389v-696q0 -104 86 -105q39 0 107 41v760h389v-1106h-328l-21 111h-8q-61 -41 -104 -66t-78 -40t-66.5 -20t-68.5 -5q-133 0 -215 81.5t-82 214.5zM162 1655h399l131 -385l-276 -21z" />
<glyph unicode="&#xfa;" horiz-adv-x="1136" d="M80 276v830h389v-696q0 -104 86 -105q39 0 107 41v760h389v-1106h-328l-21 111h-8q-61 -41 -104 -66t-78 -40t-66.5 -20t-68.5 -5q-133 0 -215 81.5t-82 214.5zM428 1270l131 385h399l-251 -406z" />
<glyph unicode="&#xfb;" horiz-adv-x="1136" d="M80 276v830h389v-696q0 -104 86 -105q39 0 107 41v760h389v-1106h-328l-21 111h-8q-61 -41 -104 -66t-78 -40t-66.5 -20t-68.5 -5q-133 0 -215 81.5t-82 214.5zM242 1241v254l352 145l348 -145v-254l-350 145z" />
<glyph unicode="&#xfc;" horiz-adv-x="1136" d="M80 276v830h389v-696q0 -104 86 -105q39 0 107 41v760h389v-1106h-328l-21 111h-8q-61 -41 -104 -66t-78 -40t-66.5 -20t-68.5 -5q-133 0 -215 81.5t-82 214.5zM131 1430q0 96 44 139t144 43q98 0 144.5 -42t46.5 -140t-46.5 -141.5t-144.5 -43.5q-100 0 -144 43t-44 142 zM631 1430q0 96 44 139t144 43q98 0 143.5 -42t45.5 -140t-45.5 -141.5t-143.5 -43.5q-100 0 -144 43t-44 142z" />
<glyph unicode="&#xfd;" horiz-adv-x="1144" d="M-6 1077v29h395l146 -571l22 -156h25l24 156l146 571h395v-29l-502 -1528l-389 80v17l113 354zM434 1270l131 385h400l-252 -406z" />
<glyph unicode="&#xfe;" horiz-adv-x="1146" d="M86 -451v2106h389v-647q57 61 128 88.5t142 27.5q352 0 353 -528q0 -614 -535 -614q-16 0 -36.5 1t-51.5 3v-437h-389zM475 256q22 -23 88 -23q43 0 69.5 12.5t42 46.5t20.5 95.5t5 159.5t-4 157.5t-15 93t-32.5 45t-54.5 11.5q-37 0 -59.5 -17.5t-36 -63.5t-18.5 -125 t-5 -204v-188z" />
<glyph unicode="&#xff;" horiz-adv-x="1144" d="M-6 1077v29h395l146 -571l22 -156h25l24 156l146 571h395v-29l-502 -1528l-389 80v17l113 354zM137 1430q0 96 44 139t145 43q98 0 144 -42t46 -140t-46 -141.5t-144 -43.5q-100 0 -144.5 43t-44.5 142zM637 1430q0 96 44 139t144 43q98 0 143.5 -42t45.5 -140 t-45.5 -141.5t-143.5 -43.5q-100 0 -144 43t-44 142z" />
<glyph unicode="&#x152;" horiz-adv-x="1953" d="M49 758q0 387 182.5 582.5t505.5 195.5q63 0 116.5 -7t104.5 -13h916v-330h-516v-256h497v-309h-497v-291h534v-330h-934q-51 -12 -104.5 -16t-116.5 -4q-326 0 -507 194.5t-181 583.5zM451 756q0 -127 15 -213t53 -137.5t105 -73t169 -21.5q41 0 79.5 3t85.5 14v858 q-53 10 -91 13t-79 3q-100 0 -165.5 -22.5t-103.5 -74.5t-53 -137t-15 -212z" />
<glyph unicode="&#x153;" horiz-adv-x="1693" d="M47 553q0 285 129 429t385 144q193 0 311 -100h21q119 98 317 98q227 0 331 -129t104 -411q0 -63 -2.5 -94t-8.5 -66h-557q4 -49 13.5 -80t27 -47t46 -21.5t69.5 -5.5q57 0 155.5 15.5t210.5 40.5l11 -281q-41 -14 -90.5 -25.5t-102.5 -19.5t-107.5 -13t-101.5 -5 q-197 0 -315 96h-21q-115 -100 -311 -101q-256 0 -385 145.5t-129 430.5zM436 553q0 -92 4 -147.5t17.5 -86t38 -40t65.5 -9.5t65.5 9.5t38 40t17.5 86t4 147.5t-4 147.5t-17.5 85t-38 39t-65.5 9.5t-65.5 -9.5t-38 -39t-17.5 -85t-4 -147.5zM1077 655h228q-4 102 -27 143.5 t-80 41.5q-59 0 -87 -39t-34 -146z" />
<glyph unicode="&#x178;" horiz-adv-x="1392" d="M-27 1516h453l238 -529l24 -100h21l26 100l240 529h442l-520 -996v-520h-401v520zM217 1839q0 109 48 156t161 47q111 0 161 -47t50 -156q0 -111 -50 -158t-161 -47q-113 0 -161 48.5t-48 156.5zM758 1839q0 109 48 156t161 47q111 0 161 -47t50 -156q0 -111 -50 -158 t-161 -47q-113 0 -161 48.5t-48 156.5z" />
<glyph unicode="&#x2c6;" horiz-adv-x="833" d="M59 1241v254l353 145l348 -145v-254l-350 145z" />
<glyph unicode="&#x2dc;" horiz-adv-x="888" d="M20 1348q66 123 147 181t159 58q39 0 78.5 -18.5t79.5 -41t80 -41t81 -18.5q35 0 67.5 18.5t71.5 69.5l70 -83q-66 -129 -145.5 -184.5t-159.5 -55.5q-41 0 -81 18.5t-80 40t-80 40t-79 18.5q-35 0 -67.5 -17.5t-71.5 -66.5z" />
<glyph unicode="&#x2000;" horiz-adv-x="1022" />
<glyph unicode="&#x2001;" horiz-adv-x="2044" />
<glyph unicode="&#x2002;" horiz-adv-x="1022" />
<glyph unicode="&#x2003;" horiz-adv-x="2044" />
<glyph unicode="&#x2004;" horiz-adv-x="681" />
<glyph unicode="&#x2005;" horiz-adv-x="511" />
<glyph unicode="&#x2006;" horiz-adv-x="340" />
<glyph unicode="&#x2007;" horiz-adv-x="340" />
<glyph unicode="&#x2008;" horiz-adv-x="255" />
<glyph unicode="&#x2009;" horiz-adv-x="408" />
<glyph unicode="&#x200a;" horiz-adv-x="113" />
<glyph unicode="&#x2010;" horiz-adv-x="856" d="M82 432v283h692v-283h-692z" />
<glyph unicode="&#x2011;" horiz-adv-x="856" d="M82 432v283h692v-283h-692z" />
<glyph unicode="&#x2012;" horiz-adv-x="856" d="M82 432v283h692v-283h-692z" />
<glyph unicode="&#x2013;" horiz-adv-x="1163" d="M82 432v283h999v-283h-999z" />
<glyph unicode="&#x2014;" horiz-adv-x="1513" d="M82 432v283h1350v-283h-1350z" />
<glyph unicode="&#x2018;" horiz-adv-x="430" d="M51 1239q0 117 43 226.5t111 195.5l164 -16q-51 -129 -52 -269q0 -164 68 -332l-285 -20q-27 49 -38 103.5t-11 111.5z" />
<glyph unicode="&#x2019;" horiz-adv-x="421" d="M43 1640l285 21q27 -49 38 -103.5t11 -111.5q0 -117 -43 -226.5t-111 -195.5l-164 16q51 129 52 269q0 162 -68 331z" />
<glyph unicode="&#x201a;" horiz-adv-x="446" d="M49 293l285 20q27 -49 38 -103t11 -112q0 -117 -43 -226.5t-111 -195.5l-163 17q51 129 51 268q0 162 -68 332z" />
<glyph unicode="&#x201c;" horiz-adv-x="892" d="M51 1239q0 117 43 226.5t111 195.5l164 -16q-51 -129 -52 -269q0 -164 68 -332l-285 -20q-27 49 -38 103.5t-11 111.5zM512 1239q0 117 43 226.5t111 195.5l163 -16q-51 -129 -51 -269q0 -164 68 -332l-285 -20q-27 49 -38 103.5t-11 111.5z" />
<glyph unicode="&#x201d;" horiz-adv-x="882" d="M43 1640l285 21q27 -49 38 -103.5t11 -111.5q0 -117 -43 -226.5t-111 -195.5l-164 16q51 129 52 269q0 162 -68 331zM504 1640l284 21q27 -49 38.5 -103.5t11.5 -111.5q0 -117 -43 -226.5t-111 -195.5l-164 16q51 129 51 269q0 162 -67 331z" />
<glyph unicode="&#x201e;" horiz-adv-x="907" d="M49 293l285 20q27 -49 38 -103t11 -112q0 -117 -43 -226.5t-111 -195.5l-163 17q51 129 51 268q0 162 -68 332zM510 293l285 20q27 -49 38 -103t11 -112q0 -117 -43 -226.5t-111 -195.5l-164 17q51 129 52 268q0 162 -68 332z" />
<glyph unicode="&#x2022;" horiz-adv-x="714" d="M90 758q0 127 73 192.5t195 65.5q121 0 194 -65.5t73 -192.5t-73 -192.5t-194 -65.5q-123 0 -195.5 65.5t-72.5 192.5z" />
<glyph unicode="&#x2026;" horiz-adv-x="1718" d="M53 186q0 109 48.5 156t160.5 47q111 0 161 -47t50 -156t-49 -156.5t-162 -47.5q-111 0 -160 47t-49 157zM651 186q0 109 48.5 156t160.5 47q111 0 161 -47t50 -156t-49 -156.5t-162 -47.5q-111 0 -160 47t-49 157zM1245 186q0 109 48 156t161 47q111 0 161 -47t50 -156 t-49 -156.5t-162 -47.5q-111 0 -160 47t-49 157z" />
<glyph unicode="&#x202f;" horiz-adv-x="408" />
<glyph unicode="&#x2039;" horiz-adv-x="669" d="M43 549v8l193 487h389l-193 -487v-8l193 -488h-389z" />
<glyph unicode="&#x203a;" horiz-adv-x="669" d="M45 61l193 488v8l-193 487h389l193 -487v-8l-193 -488h-389z" />
<glyph unicode="&#x205f;" horiz-adv-x="511" />
<glyph unicode="&#x20ac;" horiz-adv-x="1239" d="M49 477v213h146q-2 16 -2 32.5v35.5v32.5t2 32.5h-146v213h174q59 246 231.5 373t450.5 127q80 0 150.5 -11.5t126.5 -33.5l-64 -301q-55 6 -93 9t-73 3q-137 0 -212.5 -36t-110.5 -130h415l-40 -213h-410v-133h385l-41 -213h-311q35 -94 111.5 -130t217.5 -36 q61 0 120 8.5t106 24.5v-321q-57 -23 -130 -33t-153 -10q-274 0 -445 125.5t-231 371.5h-174z" />
<glyph unicode="&#x2122;" horiz-adv-x="1855" d="M45 1307v209h696v-209h-225v-652h-246v652h-225zM823 655v861h340l125 -437l125 437h340v-861h-229v525l-135 -480h-201l-135 480v-525h-230z" />
<glyph unicode="&#x25fc;" horiz-adv-x="1105" d="M0 0v1106h1106v-1106h-1106z" />
</font>
</defs>
</svg>
