<?xml version="1.0" standalone="no"?>
<!DOCTYPE svg PUBLIC "-//W3C//DTD SVG 1.1//EN" "http://www.w3.org/Graphics/SVG/1.1/DTD/svg11.dtd" >
<svg xmlns="http://www.w3.org/2000/svg">
<metadata></metadata>
<defs>
<font id="encode_sans_compressedbold" horiz-adv-x="1067" >
<font-face units-per-em="2048" ascent="1638" descent="-410" />
<missing-glyph horiz-adv-x="364" />
<glyph unicode="&#xfb01;" horiz-adv-x="1187" d="M27 870v236h151v61q0 137 25.5 229.5t87 151t163 86t251.5 33.5l16 -213q-80 -6 -131 -20.5t-81 -44t-41 -77.5t-11 -122v-84h217v-236h-217v-870h-281v870h-149zM784 1440q0 82 37 118.5t121 36.5t122 -37.5t38 -117.5t-37 -118t-123 -38q-84 0 -121 37t-37 119zM803 0 v1106h278v-1106h-278z" />
<glyph unicode="&#xfb02;" horiz-adv-x="1189" d="M27 870v236h151v61q0 137 25.5 229.5t87 151t163 86t251.5 33.5l16 -213q-80 -6 -131 -20.5t-81 -44t-41 -77.5t-11 -122v-84h217v-236h-217v-870h-281v870h-149zM801 0v1655h280v-1655h-280z" />
<glyph unicode="&#xfb03;" horiz-adv-x="1837" d="M27 870v236h151v61q0 137 25.5 229.5t87 151t163 86t251.5 33.5l16 -213q-80 -6 -131 -20.5t-81 -44t-41 -77.5t-11 -122v-84h370v61q0 137 26 229.5t87 151t162.5 86t251.5 33.5l16 -213q-80 -6 -131 -20.5t-81 -44t-41 -77.5t-11 -122v-84h217v-236h-217v-870h-281v870 h-368v-870h-281v870h-149zM1434 1440q0 82 36.5 118.5t120.5 36.5t122 -37.5t38 -117.5t-37 -118t-123 -38q-84 0 -120.5 37t-36.5 119zM1452 0v1106h279v-1106h-279z" />
<glyph unicode="&#xfb04;" horiz-adv-x="1837" d="M27 870v236h151v61q0 137 25.5 229.5t87 151t163 86t251.5 33.5l16 -213q-80 -6 -131 -20.5t-81 -44t-41 -77.5t-11 -122v-84h370v61q0 137 26 229.5t87 151t162.5 86t251.5 33.5l16 -213q-80 -6 -131 -20.5t-81 -44t-41 -77.5t-11 -122v-84h217v-236h-217v-870h-281v870 h-368v-870h-281v870h-149zM1450 0v1655h281v-1655h-281z" />
<glyph horiz-adv-x="0" />
<glyph unicode="&#xd;" horiz-adv-x="546" />
<glyph horiz-adv-x="0" />
<glyph horiz-adv-x="0" />
<glyph unicode=" "  horiz-adv-x="364" />
<glyph unicode="&#x09;" horiz-adv-x="364" />
<glyph unicode="&#xa0;" horiz-adv-x="364" />
<glyph unicode="!" horiz-adv-x="520" d="M98 147q0 74 43 115t121 41t121 -42t43 -114q0 -76 -43 -116.5t-121 -40.5t-121 41t-43 116zM111 1495v21h299v-21l-62 -995v-23h-174v23z" />
<glyph unicode="&#x22;" horiz-adv-x="765" d="M98 983v672h224v-8l-76 -664h-148zM479 983v672h223v-8l-75 -664h-148z" />
<glyph unicode="#" horiz-adv-x="1036" d="M74 434v178h145l23 293h-168v178h182l37 433h194l-36 -433h176l37 433h194l-37 -433h140v-178h-154l-23 -293h177v-178h-191l-35 -434h-196l34 434h-174l-34 -434h-195l35 434h-131zM414 612h174l24 293h-176z" />
<glyph unicode="$" horiz-adv-x="1034" d="M66 51l6 242q33 -16 80 -29.5t98 -25t102 -17.5t94 -6q123 0 185.5 52t62.5 151q0 47 -18.5 80.5t-54 59.5t-85 46.5t-110.5 42.5q-74 27 -136.5 59.5t-109.5 84t-73.5 127t-26.5 190.5q0 166 90 272.5t254 141.5v274h233v-264q125 -8 261 -49l-5 -232q-84 23 -173 36 t-148 13q-109 0 -166 -50t-57 -142q0 -49 20.5 -84t58 -61.5t90 -49t115.5 -47.5q74 -29 134.5 -64.5t103.5 -86.5t66.5 -121t23.5 -168q0 -168 -84 -278.5t-233 -151.5v-277h-234v258q-88 6 -180 23.5t-184 50.5z" />
<glyph unicode="%" horiz-adv-x="1849" d="M55 1051q0 238 91.5 360.5t265.5 122.5q176 0 266 -123t90 -360q0 -238 -90 -361t-266 -123q-174 0 -265.5 123t-91.5 361zM268 1051q0 -156 34 -226.5t110 -70.5q78 0 110.5 69.5t32.5 227.5q0 160 -34 229.5t-109 69.5q-74 0 -109 -72t-35 -227zM543 0l532 1516h228 l-533 -1516h-227zM1081 459q0 238 91.5 361.5t265.5 123.5q176 0 266 -124t90 -361q0 -238 -90 -360t-266 -122q-174 0 -265.5 123t-91.5 359zM1292 459q0 -156 35 -226.5t111 -70.5q78 0 110.5 69.5t32.5 227.5q0 160 -34 229.5t-109 69.5q-74 0 -110 -72t-36 -227z" />
<glyph unicode="&#x26;" horiz-adv-x="1312" d="M72 420q0 143 66.5 244.5t187.5 142.5q-72 88 -102.5 171t-30.5 175q0 186 116.5 285.5t337.5 99.5q84 0 166 -15.5t178 -49.5v-9l-33 -217h-8q-72 29 -146.5 45.5t-133.5 16.5q-203 0 -203 -195q0 -102 79 -199.5t255 -214.5l129 -86q2 20 2 41v43v146l244 16v-158 q0 -66 -6.5 -124t-16.5 -111l158 -105v-10l-103 -235h-10l-141 102q-76 -117 -194.5 -178t-278.5 -61q-117 0 -212.5 30.5t-162 88t-102 138t-35.5 183.5zM350 438q0 -109 68.5 -172t183.5 -63q190 0 268 153l-168 123q-135 98 -229 180q-123 -61 -123 -221z" />
<glyph unicode="'" horiz-adv-x="385" d="M98 983v672h224v-8l-76 -664h-148z" />
<glyph unicode="(" horiz-adv-x="624" d="M57 725q0 285 79 554t235 499h245v-9q-154 -229 -241.5 -495t-87.5 -549t88 -549t241 -495v-9h-245q-156 229 -235 499.5t-79 553.5z" />
<glyph unicode=")" horiz-adv-x="624" d="M10 -319q154 229 241 495t87 549t-87 549t-241 495v9h244q156 -229 234.5 -498.5t78.5 -554.5q0 -283 -78.5 -553t-234.5 -500h-244v9z" />
<glyph unicode="*" horiz-adv-x="993" d="M57 1329l58 174l147 -49l193 -115l-49 222v155h184v-155l-51 -222l190 115l150 49l55 -174l-148 -49l-221 -20l168 -146l92 -127l-147 -106l-94 125l-88 211l-88 -211l-93 -125l-149 106l92 127l168 146l-221 20z" />
<glyph unicode="+" horiz-adv-x="1021" d="M66 655v205h344v332h204v-332h344v-205h-344v-331h-204v331h-344z" />
<glyph unicode="," horiz-adv-x="481" d="M29 -297l88 590h284l-163 -610z" />
<glyph unicode="-" horiz-adv-x="776" d="M96 469v209h584v-209h-584z" />
<glyph unicode="." horiz-adv-x="473" d="M76 143q0 82 37 119t123 37q84 0 122.5 -37t38.5 -119q0 -80 -37.5 -117.5t-123.5 -37.5q-84 0 -122 36.5t-38 118.5z" />
<glyph unicode="/" horiz-adv-x="665" d="M47 -246l328 1762h243l-327 -1762h-244z" />
<glyph unicode="0" horiz-adv-x="1200" d="M74 756q0 383 134 581.5t392 198.5q260 0 392 -198.5t132 -581.5q0 -381 -132 -578.5t-392 -197.5q-258 0 -392 197.5t-134 578.5zM362 756q0 -283 55.5 -410t182.5 -127t182.5 126t55.5 411q0 287 -55.5 414.5t-182.5 127.5t-182.5 -130t-55.5 -412z" />
<glyph unicode="1" horiz-adv-x="782" d="M14 1208l9 37l403 271h211v-1516h-287v1200h-8l-242 -125h-37z" />
<glyph unicode="2" horiz-adv-x="993" d="M66 0v248q0 90 18 163.5t58 138t105.5 123t160.5 118.5q61 39 104 75.5t69.5 73.5t38 76t11.5 84q0 102 -57.5 149t-184.5 47q-57 0 -125.5 -11t-140.5 -34l-27 230q106 29 202.5 42t178.5 13q440 0 441 -401q0 -152 -73 -267.5t-237 -228.5q-80 -57 -131 -99t-79.5 -78 t-39 -71t-10.5 -78v-71h561v-242h-843z" />
<glyph unicode="3" horiz-adv-x="937" d="M74 1505q125 33 268 33q248 0 365.5 -92t117.5 -285q0 -154 -64.5 -248t-187.5 -127v-6q141 -31 217 -126t76 -248q0 -199 -136 -309.5t-388 -114.5q-125 0 -264 26v217h12q39 -14 93.5 -21t113.5 -7q147 0 215 55t68 174q0 129 -69 188.5t-239 59.5h-57v203h57 q145 0 206 51t61 174q0 113 -52.5 164t-169.5 51q-45 0 -98 -6t-125 -23h-14z" />
<glyph unicode="4" horiz-adv-x="1099" d="M23 498v8l485 1030h10l273 -20l12 -9l-490 -958v-10h324l68 446h210v-446h148v-211h-148v-328h-286v328h-572z" />
<glyph unicode="5" horiz-adv-x="937" d="M80 8v232h61q104 -25 187 -25q268 0 268 240q0 70 -18.5 118t-60.5 76.5t-111.5 42t-172.5 13.5h-133l-8 8l53 803h652v-240h-430l-23 -367q287 -4 414 -111.5t127 -342.5q0 -227 -139.5 -352.5t-395.5 -125.5q-57 0 -120.5 7.5t-149.5 23.5z" />
<glyph unicode="6" horiz-adv-x="1124" d="M74 680q0 422 166 639t489 217q119 0 264 -37l-30 -227q-133 33 -224 33q-180 0 -271 -111t-114 -352q55 53 130 83.5t161 30.5q98 0 177 -31.5t135.5 -91t86 -142.5t29.5 -187q0 -121 -33.5 -218.5t-98 -165t-155.5 -104t-204 -36.5q-248 0 -378 178t-130 522zM348 637 q4 -219 60.5 -319.5t173.5 -100.5q104 0 157.5 71.5t53.5 207.5q0 249 -211 249q-66 0 -129.5 -30.5t-104.5 -77.5z" />
<glyph unicode="7" horiz-adv-x="876" d="M35 1481l37 35h745l37 -162v-58l-418 -1294l-51 -37l-233 35v37l419 1239h-534z" />
<glyph unicode="8" horiz-adv-x="1099" d="M72 373q0 137 53 233t168 162q-82 53 -133 139t-51 228q0 92 31.5 165.5t89 126t138.5 80t181 27.5t182 -27.5t140.5 -80t89 -126t30.5 -165.5q0 -121 -39 -199t-139 -141q96 -51 155.5 -137.5t59.5 -239.5q0 -98 -32.5 -177t-95 -133.5t-151.5 -84t-200 -29.5 q-223 0 -350 100.5t-127 278.5zM336 410q0 -109 56.5 -169.5t156.5 -60.5q102 0 158.5 55.5t56.5 155.5q0 61 -18.5 105.5t-54.5 77t-85 57t-110 45.5q-78 -47 -119 -110.5t-41 -155.5zM362 1118q0 -102 66 -155.5t176 -90.5q72 47 102.5 107.5t30.5 155.5q0 205 -188 204 q-90 0 -138.5 -57.5t-48.5 -163.5z" />
<glyph unicode="9" horiz-adv-x="1124" d="M51 1012q0 121 34 218t98.5 164.5t154.5 104.5t205 37q248 0 378 -178t130 -522q0 -422 -166 -639t-490 -217q-121 0 -264 36l31 228q133 -33 223 -33q180 0 271.5 110.5t113.5 352.5q-55 -53 -130 -84t-161 -31q-98 0 -177 32t-135 91t-86 142t-30 188zM332 1020 q0 -250 211 -250q66 0 129 30.5t104 78.5q-4 219 -60.5 319t-172.5 100q-104 0 -157.5 -71.5t-53.5 -206.5z" />
<glyph unicode=":" horiz-adv-x="501" d="M90 143q0 82 37 119t123 37q84 0 123 -37t39 -119q0 -80 -38 -117.5t-124 -37.5q-84 0 -122 36.5t-38 118.5zM90 965q0 82 37 118.5t123 36.5q84 0 123 -36.5t39 -118.5q0 -80 -38 -118t-124 -38q-84 0 -122 37t-38 119z" />
<glyph unicode=";" horiz-adv-x="526" d="M47 -297l88 590h285l-164 -610zM113 965q0 82 36.5 118.5t122.5 36.5q84 0 123 -36.5t39 -118.5q0 -80 -38 -118t-124 -38q-84 0 -121.5 37t-37.5 119z" />
<glyph unicode="&#x3c;" horiz-adv-x="1075" d="M61 647v199l908 393v-225l-621 -269l619 -268v-223z" />
<glyph unicode="=" horiz-adv-x="1058" d="M102 389v211h854v-211h-854zM102 838v211h854v-211h-854z" />
<glyph unicode="&#x3e;" horiz-adv-x="1075" d="M106 1014v225l908 -393v-199l-905 -393v223l618 268z" />
<glyph unicode="?" horiz-adv-x="851" d="M53 1487q72 23 146.5 34t154.5 11q98 0 181 -24.5t141.5 -74t91.5 -125t33 -180.5q0 -92 -29 -161.5t-79 -120.5t-117.5 -84t-145.5 -49l-12 -240v-33h-180v31l-25 373q68 14 124 34.5t97 51.5t64.5 72.5t23.5 103.5q0 111 -62.5 157t-158.5 46q-55 0 -119.5 -10.5 t-111.5 -26.5zM168 143q0 76 43 116t121 40t121 -40t43 -116q0 -74 -43 -114.5t-121 -40.5t-121 41t-43 114z" />
<glyph unicode="@" horiz-adv-x="1642" d="M68 537q0 209 58 368.5t162.5 266t248 160.5t315.5 54q193 0 327 -54t219 -152.5t124 -238.5t39 -312q0 -121 -22.5 -218.5t-67 -167t-112 -107.5t-157.5 -38q-37 0 -70.5 7.5t-61.5 26t-47 53t-28 89.5h-8q-57 -92 -136 -127.5t-153 -35.5q-76 0 -129 29.5t-86.5 79.5 t-49 115.5t-15.5 137.5q0 117 32.5 215t94 170t148.5 112t198 40q121 0 317 -80l-71 -422q-6 -35 -12.5 -72t-6.5 -71q0 -49 18.5 -83t73.5 -34q84 0 126 103.5t42 277.5q0 135 -27.5 243.5t-91 185.5t-164 119t-243.5 42q-133 0 -243.5 -43t-190.5 -129t-124 -214t-44 -296 q0 -188 48 -315.5t126 -204t177 -109.5t202 -33q86 0 185 22.5t200 57.5l57 -148q-111 -37 -224.5 -63.5t-217.5 -26.5q-135 0 -267.5 41t-236.5 136.5t-167.5 253t-63.5 389.5zM596 473q0 -39 6 -76t21.5 -65.5t42 -46t65.5 -17.5q29 0 64.5 11.5t68.5 42t60.5 83 t40.5 132.5l49 297q-35 12 -64.5 16t-58.5 4q-70 0 -124 -28.5t-92 -79t-58.5 -121t-20.5 -152.5z" />
<glyph unicode="A" horiz-adv-x="1232" d="M2 0v14l397 1502h432l400 -1502v-14h-270l-107 389h-477l-105 -389h-270zM432 621h367l-119 450l-53 223h-21l-55 -223z" />
<glyph unicode="B" horiz-adv-x="1191" d="M125 10v1495q133 16 226 23.5t177 7.5q293 0 428.5 -102.5t135.5 -321.5q0 -272 -224 -330v-8q127 -25 196 -118t69 -246q0 -215 -154 -322.5t-459 -107.5q-96 0 -203.5 7t-191.5 23zM389 213q23 -4 73 -8t103 -4q272 0 273 225q0 125 -66.5 177t-226.5 52h-156v-442z M389 866h154q70 0 119 12.5t77.5 39t42 69.5t13.5 107q0 219 -238 219q-41 0 -81 -3t-87 -10v-434z" />
<glyph unicode="C" horiz-adv-x="1021" d="M70 758q0 403 154.5 589.5t465.5 186.5q129 0 277 -31v-229q-55 10 -118 15t-116 5q-102 0 -171.5 -24.5t-114 -86t-63.5 -165t-19 -262.5q0 -156 20.5 -259.5t63.5 -165t112.5 -87t167.5 -25.5q55 0 117.5 6t120.5 19v-224q-45 -16 -118 -27t-157 -11q-315 0 -468.5 187 t-153.5 589z" />
<glyph unicode="D" horiz-adv-x="1273" d="M125 -8v1517q123 14 208 19.5t159 5.5q193 0 328.5 -43t221.5 -137t125 -241.5t39 -356.5q0 -211 -41 -360.5t-131 -244t-231 -137.5t-344 -43q-70 0 -149 5.5t-185 15.5zM406 217q51 -6 84.5 -8t62.5 -2q98 0 166.5 27.5t110.5 91t61.5 169t19.5 263.5q0 154 -18.5 258 t-62.5 167.5t-115.5 91.5t-175.5 28q-41 0 -73 -3.5t-60 -9.5v-1073z" />
<glyph unicode="E" horiz-adv-x="1091" d="M125 0v1516h885v-242h-598v-391h532v-242h-532v-399h616v-242h-903z" />
<glyph unicode="F" horiz-adv-x="1032" d="M125 0v1516h858v-242h-571v-418h518v-242h-518v-614h-287z" />
<glyph unicode="G" horiz-adv-x="1183" d="M68 758q0 395 169 585.5t519 190.5q70 0 152.5 -10.5t168.5 -30.5v-231q-92 16 -162.5 25t-130.5 9q-117 0 -197.5 -27.5t-130.5 -91t-72 -167t-22 -254.5q0 -152 19.5 -254.5t62.5 -165t113 -90t172 -27.5q25 0 50.5 1t54.5 3v547h260v-756q-135 -18 -226.5 -25 t-175.5 -7q-322 0 -473 189t-151 587z" />
<glyph unicode="H" horiz-adv-x="1351" d="M125 0v1516h287v-621h528v621h287v-1516h-287v651h-528v-651h-287z" />
<glyph unicode="I" horiz-adv-x="534" d="M125 0v1516h287v-1516h-287z" />
<glyph unicode="J" horiz-adv-x="536" d="M-31 -328q47 104 78 190.5t49.5 169.5t25.5 169t7 192v1123h287v-1147q0 -102 -14.5 -196.5t-46 -188t-82 -190.5t-123.5 -206z" />
<glyph unicode="K" horiz-adv-x="1239" d="M125 0v1516h287v-621h155l322 621h319l-362 -682l-101 -56v-12l103 -53l401 -713h-319l-371 651h-147v-651h-287z" />
<glyph unicode="L" horiz-adv-x="917" d="M125 0v1516h287v-1274h481v-242h-768z" />
<glyph unicode="M" horiz-adv-x="1744" d="M125 0v1516h407l281 -840l51 -240h15l53 240l280 840h410v-1516h-270v1145h-13l-67 -244l-279 -825h-248l-276 825l-70 244h-10v-1145h-264z" />
<glyph unicode="N" horiz-adv-x="1376" d="M125 0v1516h244l530 -848l82 -164h16v1012h256v-1516h-243l-533 850l-80 166h-18v-1016h-254z" />
<glyph unicode="O" horiz-adv-x="1337" d="M70 756q0 395 147.5 587.5t450.5 192.5q305 0 453.5 -192.5t148.5 -587.5t-147.5 -585.5t-454.5 -190.5q-303 0 -450.5 191t-147.5 585zM362 756q0 -145 16.5 -247.5t53.5 -167.5t94.5 -93.5t141.5 -28.5t142 28.5t95 93.5t53.5 166t16.5 249q0 147 -16.5 250.5 t-53.5 168t-95 94t-142 29.5q-82 0 -140.5 -29.5t-95.5 -94t-53.5 -168t-16.5 -250.5z" />
<glyph unicode="P" horiz-adv-x="1171" d="M125 0v1505q92 16 184 23.5t183 7.5q334 0 485 -127t151 -408q0 -276 -149.5 -402t-476.5 -126h-90v-473h-287zM412 713q29 -4 62.5 -6t62.5 -2q82 0 139 15t92 51t51.5 92.5t16.5 137.5q0 162 -67 230.5t-232 68.5q-29 0 -64 -4t-61 -8v-575z" />
<glyph unicode="Q" horiz-adv-x="1331" d="M66 756q0 395 146 587.5t452 192.5q307 0 454.5 -192.5t147.5 -587.5q0 -301 -117 -470t-358 -220v-25q51 -18 103 -30.5t112.5 -23t132 -16.5t161.5 -12l-165 -225q-299 72 -504 154.5t-331 198.5t-180 276.5t-54 392.5zM354 756q0 -152 16.5 -255.5t52.5 -168t95.5 -92 t145.5 -27.5t145 28.5t97 93t54.5 168t16.5 253.5q0 152 -16.5 256t-53.5 169.5t-97 94.5t-146 29t-145.5 -29t-95.5 -93.5t-52.5 -170t-16.5 -256.5z" />
<glyph unicode="R" horiz-adv-x="1196" d="M125 0v1505q168 31 367 31q334 0 485 -121t151 -389q0 -170 -61 -278.5t-190 -163.5l288 -584h-297l-247 530q-23 -2 -45.5 -2h-47.5h-24.5h-33.5t-33.5 1t-24.5 1v-530h-287zM412 760q29 -4 63.5 -6t61.5 -2q82 0 139 14t92 47t51.5 85t16.5 128q0 150 -67 212t-232 62 q-23 0 -59 -4t-66 -8v-528z" />
<glyph unicode="S" horiz-adv-x="1024" d="M61 51l7 242q33 -16 80 -29.5t98 -25t102 -17.5t94 -6q123 0 185.5 52t62.5 151q0 47 -18.5 80.5t-54 59.5t-85 46.5t-110.5 42.5q-74 27 -136.5 59.5t-109.5 84t-73.5 127t-26.5 190.5q0 98 33.5 178t96 135.5t153 85t204.5 29.5q86 0 172 -12.5t178 -40.5l-4 -232 q-84 23 -173 36t-148 13q-109 0 -166 -50t-57 -142q0 -49 20.5 -84t58 -61.5t90 -49t115.5 -47.5q74 -29 134.5 -64.5t103.5 -86.5t66.5 -121t23.5 -168q0 -104 -34 -188t-96.5 -142.5t-151 -89.5t-201.5 -31q-100 0 -211 18.5t-222 57.5z" />
<glyph unicode="T" horiz-adv-x="1062" d="M33 1268v248h999v-248h-358v-1268h-287v1268h-354z" />
<glyph unicode="U" horiz-adv-x="1341" d="M113 584v929h286v-911q0 -205 62.5 -292t208.5 -87q74 0 125 20.5t83.5 65.5t47 118t14.5 175v911h287v-929q0 -154 -30 -267.5t-96.5 -188.5t-171.5 -111.5t-259 -36.5q-152 0 -258.5 36.5t-173 111.5t-96 188.5t-29.5 267.5z" />
<glyph unicode="V" horiz-adv-x="1234" d="M-2 1516h283l266 -957l59 -303h25l63 303l264 957h277l-418 -1516h-395z" />
<glyph unicode="W" horiz-adv-x="1875" d="M12 1516h318l172 -953l30 -209h19l37 209l215 953h284l205 -953l35 -209h21l32 209l181 953h309l-357 -1516h-337l-197 852l-29 254h-18l-31 -254l-205 -852h-338z" />
<glyph unicode="X" horiz-adv-x="1245" d="M-14 0l452 776l-418 740h324l277 -510l10 -35h6l10 35l271 510h307l-422 -723l457 -793h-318l-317 559l-11 33h-8l-10 -33l-301 -559h-309z" />
<glyph unicode="Y" horiz-adv-x="1261" d="M-14 1516h323l281 -621l33 -109h18l35 109l282 621h316l-498 -998v-518h-289v514z" />
<glyph unicode="Z" horiz-adv-x="1071" d="M51 0v258l621 995v19h-594v244h915v-261l-622 -995v-16h649v-244h-969z" />
<glyph unicode="[" horiz-adv-x="665" d="M131 -328v2106h492v-187h-271v-1732h271v-187h-492z" />
<glyph unicode="\" horiz-adv-x="661" d="M47 1516h238l327 -1762h-237z" />
<glyph unicode="]" horiz-adv-x="665" d="M41 -141h272v1732h-272v187h494v-2106h-494v187z" />
<glyph unicode="^" horiz-adv-x="827" d="M59 985l232 631h244l231 -631h-199l-149 453h-8l-152 -453h-199z" />
<glyph unicode="_" horiz-adv-x="1071" d="M72 -123h925v-209h-925v209z" />
<glyph unicode="`" horiz-adv-x="530" d="M31 1649h288l138 -379l-199 -21z" />
<glyph unicode="a" horiz-adv-x="1003" d="M43 307q0 315 393 344l189 13v34q0 63 -8.5 104.5t-30 66t-58 33.5t-92.5 9q-23 0 -60.5 -3t-79.5 -7t-82 -9t-67 -11l-18 204q88 16 179 26.5t171 10.5q223 0 324.5 -83t101.5 -267v-772h-231l-23 133h-16q-53 -59 -131 -101t-168 -42q-133 0 -213 87t-80 230zM322 332 q0 -66 30.5 -100.5t87.5 -34.5q45 0 95.5 27.5t89.5 54.5v213l-127 -13q-96 -10 -136 -44t-40 -103z" />
<glyph unicode="b" horiz-adv-x="1073" d="M102 55v1600h281v-660q47 63 118.5 96t157.5 33q352 0 353 -536q0 -133 -28 -242.5t-88 -189.5t-158.5 -125t-239.5 -49q-90 0 -188.5 19t-207.5 54zM383 193q57 -23 123 -23q59 0 101 19.5t67.5 64.5t38 118.5t12.5 182.5q0 104 -9 175t-28.5 114t-52.5 61.5t-78 18.5 q-41 0 -72.5 -17.5t-54 -56.5t-35 -102.5t-12.5 -155.5v-399z" />
<glyph unicode="c" horiz-adv-x="841" d="M61 553q0 295 129 433t385 138q104 0 203 -30v-222q-49 12 -92 17.5t-82 5.5q-135 0 -194.5 -79t-59.5 -261t59.5 -264t192.5 -82q43 0 86 5t90 17v-219q-41 -14 -95.5 -22t-107.5 -8q-258 0 -386 137t-128 434z" />
<glyph unicode="d" horiz-adv-x="1075" d="M63 524q0 299 127 449.5t381 150.5q25 0 51.5 -2t69.5 -8v541h279v-1655h-256l-17 111h-8q-98 -129 -272 -129q-354 0 -355 542zM350 557q0 -104 9.5 -175t29 -116t51 -64.5t76.5 -19.5q41 0 74 17.5t55.5 56.5t34.5 102.5t12 155.5v397q-59 23 -129 23q-57 0 -98 -19.5 t-66.5 -63.5t-37 -115.5t-11.5 -178.5z" />
<glyph unicode="e" horiz-adv-x="989" d="M61 539q0 291 120 438t358 147q201 0 296 -125t95 -387q0 -57 -2 -88.5t-6 -66.5h-578q10 -147 57.5 -203.5t155.5 -56.5q59 0 143 14t181 43l10 -209q-72 -29 -168 -46t-182 -17q-236 0 -358 141t-122 416zM344 637h336q-4 150 -38 213t-112 63q-86 0 -131 -64.5 t-55 -211.5z" />
<glyph unicode="f" horiz-adv-x="692" d="M27 870v236h151v61q0 137 25.5 229.5t87 151t163 86t251.5 33.5l16 -213q-80 -6 -131 -20.5t-81 -44t-41 -77.5t-11 -122v-84h217v-236h-217v-870h-281v870h-149z" />
<glyph unicode="g" horiz-adv-x="1075" d="M63 524q0 295 129.5 447.5t378.5 152.5q92 0 187.5 -14t214.5 -47v-916q0 -598 -512 -598q-152 0 -318 48l19 208q84 -20 149.5 -30.5t124.5 -10.5q70 0 120 17.5t82 56.5t47 100.5t15 149.5v55h-10q-94 -123 -264 -123q-184 0 -273.5 124t-89.5 380zM352 557 q0 -190 38 -268t128 -78q82 0 128 68.5t46 234.5v397q-59 23 -127 23q-57 0 -98 -19.5t-66.5 -63.5t-37 -115.5t-11.5 -178.5z" />
<glyph unicode="h" d="M104 0v1655h281v-656q57 37 102 60.5t84 39t75 21.5t75 6q121 0 183.5 -75.5t62.5 -219.5v-831h-279v737q0 143 -104 144q-86 0 -199 -74v-807h-281z" />
<glyph unicode="i" horiz-adv-x="491" d="M88 1440q0 82 37 118.5t121 36.5t122 -37.5t38 -117.5t-37 -118t-123 -38q-84 0 -121 37t-37 119zM106 0v1106h279v-1106h-279z" />
<glyph unicode="j" horiz-adv-x="491" d="M6 -389q47 123 73.5 283.5t26.5 334.5v877h281v-946q0 -72 -14.5 -153t-39 -162t-59 -156.5t-77.5 -139.5zM88 1440q0 82 37 118.5t121 36.5q86 0 124 -37.5t38 -117.5t-38 -118t-124 -38q-82 0 -120 37t-38 119z" />
<glyph unicode="k" horiz-adv-x="1030" d="M104 0v1655h281v-981h90l238 432h303l-314 -514l-45 -19v-6l48 -20l346 -547h-306l-270 467h-90v-467h-281z" />
<glyph unicode="l" horiz-adv-x="493" d="M106 0v1655h281v-1655h-281z" />
<glyph unicode="m" horiz-adv-x="1626" d="M104 0v1106h230l16 -119h8q57 39 104.5 66.5t87.5 43t78 22.5t79 7q158 0 217 -139h12q106 78 183 108.5t161 30.5q119 0 182.5 -75.5t63.5 -219.5v-831h-275v737q0 143 -108 144q-84 0 -191 -72v-809h-274v737q0 143 -109 144q-84 0 -190 -72v-809h-275z" />
<glyph unicode="n" d="M104 0v1106h238l16 -119h9q61 39 108 66.5t88 43t79 22.5t79 7q121 0 183.5 -75.5t62.5 -219.5v-831h-279v737q0 78 -27.5 111t-76.5 33q-45 0 -95.5 -19.5t-103.5 -54.5v-807h-281z" />
<glyph unicode="o" d="M61 553q0 285 119 429t352 144t352.5 -144t119.5 -429t-119.5 -429t-352.5 -144t-352 145t-119 428zM344 553q0 -102 9 -171t31 -110t58.5 -58t89.5 -17t90 16t60 57t32 110t9 173t-9 173t-32 110t-59.5 57t-90.5 16q-53 0 -89.5 -16t-58.5 -57t-31 -110t-9 -173z" />
<glyph unicode="p" horiz-adv-x="1075" d="M104 -451v1557h256l13 -111h8q49 61 120.5 95t160.5 34q352 0 352 -536q0 -139 -30 -251t-91.5 -190.5t-157.5 -121.5t-229 -43q-27 0 -55.5 2t-65.5 8v-443h-281zM385 193q57 -23 123 -23q59 0 101 19.5t67.5 64.5t38 118.5t12.5 182.5q0 104 -9 175t-28.5 114 t-52.5 61.5t-78 18.5q-41 0 -72.5 -17.5t-54 -56.5t-35 -102.5t-12.5 -155.5v-399z" />
<glyph unicode="q" horiz-adv-x="1073" d="M63 524q0 303 128 451.5t397 148.5q86 0 182 -12t201 -39v-1524h-281v557q-97 -124 -267 -124h-3q-180 0 -268.5 133t-88.5 409zM344 567q0 -109 9 -182.5t29.5 -118.5t54.5 -64.5t83 -19.5q84 0 127 74t43 256v401q-31 12 -60.5 16.5t-64.5 4.5q-63 0 -105 -18.5 t-67.5 -60.5t-37 -112.5t-11.5 -175.5z" />
<glyph unicode="r" horiz-adv-x="733" d="M104 0v1106h238l16 -154h15q10 14 40.5 38t71.5 48.5t87 47t87 38.5h54v-268h-113q-31 -4 -62.5 -14.5t-61.5 -22.5t-53.5 -27.5t-37.5 -29.5v-762h-281z" />
<glyph unicode="s" horiz-adv-x="845" d="M70 33v209q66 -25 149.5 -39.5t157.5 -14.5q149 0 149 119q0 55 -31.5 86t-103.5 45q-49 8 -104.5 21.5t-103.5 47.5t-78.5 98.5t-30.5 174.5q0 166 95 256t269 90q68 0 144.5 -10t158.5 -29v-208q-92 23 -144 28.5t-99 5.5q-78 0 -121 -31.5t-43 -88.5q0 -66 37 -91.5 t96 -37.5q57 -12 115.5 -30t105.5 -52.5t77 -95t30 -158.5q0 -164 -108.5 -256t-301.5 -92q-145 0 -315 53z" />
<glyph unicode="t" horiz-adv-x="739" d="M20 868v238h189l37 305l225 31v-336h231v-238h-229v-503q0 -90 32 -128t95 -38q23 0 48.5 3t53.5 11v-205q-41 -10 -85 -15t-87 -5q-168 0 -252.5 78.5t-84.5 232.5v569h-173z" />
<glyph unicode="u" horiz-adv-x="1064" d="M98 274v832h281v-744q0 -78 26.5 -109.5t86.5 -31.5q41 0 85 17.5t103 58.5v809h281v-1106h-238l-16 113h-9q-57 -39 -100 -64.5t-80 -41t-70.5 -21.5t-70.5 -6q-133 0 -206 76.5t-73 217.5z" />
<glyph unicode="v" horiz-adv-x="1040" d="M10 1090v16h289l188 -723l25 -137h16l25 137l188 723h287v-16l-344 -1090h-330z" />
<glyph unicode="w" horiz-adv-x="1474" d="M35 1098v8h256l108 -676l19 -133h22l25 133l135 676h274l138 -676l24 -133h21l22 133l107 676h254v-8l-221 -1098h-318l-137 662l-16 112h-21l-14 -112l-140 -662h-317z" />
<glyph unicode="x" horiz-adv-x="1038" d="M12 0v23l310 552l-297 515v16h297l163 -324l31 -69h14l27 69l162 324h297v-16l-297 -539l307 -528v-23h-293l-180 362l-29 74h-18l-27 -74l-174 -362h-293z" />
<glyph unicode="y" horiz-adv-x="1054" d="M6 1085v21h285l203 -682l24 -141h17l26 141l201 682h285v-21l-510 -1536l-281 58v14l125 379z" />
<glyph unicode="z" horiz-adv-x="872" d="M57 0v193l426 677v15h-411v221h725v-195l-422 -675v-15h442v-221h-760z" />
<glyph unicode="{" horiz-adv-x="671" d="M37 627v207q76 0 108.5 50t32.5 146v506q0 133 51.5 187.5t173.5 54.5q20 0 54.5 -1t69 -3t63 -3.5t37.5 -3.5v-176h-121q-55 0 -79 -22.5t-24 -75.5v-518q0 -94 -40.5 -160.5t-108.5 -85.5q68 -16 108.5 -81.5t40.5 -160.5v-522q0 -53 24 -75.5t79 -22.5h121v-176 q-8 -2 -37 -4t-63.5 -3t-68.5 -2t-55 -1q-123 0 -174 54t-51 189v508q0 96 -32.5 145.5t-108.5 49.5z" />
<glyph unicode="|" horiz-adv-x="528" d="M131 -451v2106h264v-2106h-264z" />
<glyph unicode="}" horiz-adv-x="671" d="M45 -133h121q57 0 79.5 22.5t22.5 75.5v522q0 94 41 160t109 82q-68 18 -109 85t-41 161v518q0 53 -22.5 75.5t-79.5 22.5h-121v176q8 2 37 3.5t63.5 3.5t69.5 3t53 1q125 0 175.5 -54.5t50.5 -187.5v-506q0 -96 32.5 -146t106.5 -50v-207q-74 0 -106.5 -49.5 t-32.5 -145.5v-508q0 -135 -50.5 -189t-175.5 -54q-18 0 -53 1t-69.5 2t-63.5 3t-37 4v176z" />
<glyph unicode="~" horiz-adv-x="1153" d="M74 559q53 76 95 125t79 78t71.5 41t75.5 12q55 0 99.5 -23.5t84 -52t78.5 -52t82 -23.5q47 0 92.5 39.5t79.5 111.5l170 -100q-25 -43 -56.5 -89t-71.5 -84t-87 -63.5t-102 -25.5t-101.5 23.5t-86 52t-77.5 52t-79 23.5q-47 0 -90 -37t-90 -114z" />
<glyph unicode="&#xa1;" horiz-adv-x="491" d="M84 958q0 76 43 117t121 41t121 -41t43 -117q0 -72 -43 -113.5t-121 -41.5t-121 41t-43 114zM96 -389l64 995v23h174v-23l61 -995v-21h-299v21z" />
<glyph unicode="&#xa2;" horiz-adv-x="866" d="M59 553q0 258 98.5 395t295.5 168v236h180v-230q70 -6 143 -28v-222q-49 12 -92 17.5t-82 5.5q-135 0 -194.5 -79t-59.5 -261t59.5 -264t192.5 -82q43 0 86 5t90 17v-219q-31 -10 -67.5 -17t-75.5 -11v-230h-180v236q-199 29 -296.5 166t-97.5 397z" />
<glyph unicode="&#xa3;" horiz-adv-x="1159" d="M70 0v246h219v405h-219v219h219v220q0 227 102.5 334.5t329.5 107.5q78 0 169 -13.5t206 -39.5l-15 -230q-72 20 -158.5 31.5t-146.5 11.5q-111 0 -156 -46t-45 -165v-211h340v-219h-340v-409h492v-242h-997z" />
<glyph unicode="&#xa4;" horiz-adv-x="1163" d="M70 356l110 111l113 82q-47 88 -47 209q0 119 47 207l-113 84l-110 110l108 111l113 -111l74 -104q88 76 217 75q127 0 213 -75l77 104l113 111l109 -111l-113 -110l-115 -86q47 -88 47 -205q0 -119 -47 -207l115 -84l113 -111l-109 -110l-113 110l-75 105 q-88 -78 -217 -78t-215 76l-74 -103l-113 -110zM422 758q0 -106 43 -163.5t115 -57.5t113.5 56t41.5 165q0 106 -42 162.5t-113 56.5q-72 0 -115 -56.5t-43 -162.5z" />
<glyph unicode="&#xa5;" horiz-adv-x="1368" d="M41 1516h324l280 -621l33 -109h18l35 109l283 621h315l-405 -811h239v-201h-332v-154h332v-200h-332v-150h-288v150h-342v200h342v154h-342v201h245z" />
<glyph unicode="&#xa6;" horiz-adv-x="518" d="M127 420h262v-871h-262v871zM127 784v871h262v-871h-262z" />
<glyph unicode="&#xa7;" horiz-adv-x="892" d="M88 33v209q66 -25 151 -39.5t158 -14.5q150 0 150 121q0 102 -137 129q-49 8 -104.5 21.5t-102.5 47.5t-79 98.5t-32 174.5q0 127 60 211q-27 35 -43.5 86t-16.5 127q0 166 96.5 256t270.5 90q66 0 142.5 -10t158.5 -29v-208q-92 23 -143.5 28.5t-98.5 5.5 q-80 0 -122 -31.5t-42 -91.5q0 -63 37 -88.5t96 -38.5q55 -12 113.5 -29.5t106 -52t77 -96t29.5 -159.5q0 -127 -65 -211q31 -37 48 -88.5t17 -122.5q0 -164 -107.5 -256t-302.5 -92q-143 0 -315 53zM340 793q0 -66 27.5 -91.5t70.5 -42.5q47 -18 94 -30q27 43 27 102 q0 49 -19.5 80t-66.5 47q-20 8 -40.5 14.5t-43.5 16.5q-49 -43 -49 -96z" />
<glyph unicode="&#xa8;" horiz-adv-x="925" d="M90 1405q0 139 143 139q72 0 109 -32.5t37 -106.5t-37 -106.5t-109 -32.5q-74 0 -108.5 32.5t-34.5 106.5zM532 1405q0 139 144 139q72 0 107.5 -32.5t35.5 -106.5t-35.5 -106.5t-107.5 -32.5q-74 0 -109 32.5t-35 106.5z" />
<glyph unicode="&#xa9;" horiz-adv-x="1654" d="M68 758q0 174 54 317.5t153.5 245.5t239.5 158.5t312 56.5t312.5 -56.5t240 -158.5t153.5 -245.5t54 -317.5t-54 -317.5t-153.5 -246t-240 -158.5t-312.5 -56t-312 56t-239.5 158.5t-153.5 246t-54 317.5zM233 758q0 -141 41 -256t118 -196t186.5 -126t248.5 -45 q137 0 248 45t187.5 126t117.5 195.5t41 256.5q0 141 -41 255.5t-117.5 195.5t-187 126t-248.5 45q-139 0 -248.5 -45t-186.5 -126t-118 -195.5t-41 -255.5zM475 754q0 211 98.5 316.5t284.5 105.5q47 0 96.5 -6.5t87.5 -16.5v-164q-98 18 -161 19q-115 0 -163 -60.5 t-48 -191.5q0 -135 48 -194.5t159 -59.5q29 0 72.5 4t94.5 14v-162q-39 -10 -88 -16t-98 -6q-186 0 -284.5 103.5t-98.5 314.5z" />
<glyph unicode="&#xaa;" horiz-adv-x="815" d="M57 946q0 109 68 170.5t203 69.5l170 10v25q0 45 -5.5 72.5t-19.5 43t-39.5 20.5t-64.5 5q-47 0 -107.5 -5t-126.5 -16l-16 158q156 29 276 29q174 0 250 -60.5t76 -193.5v-553h-193l-10 96h-8q-47 -49 -110 -76.5t-124 -27.5q-100 0 -159.5 63.5t-59.5 169.5zM281 963 q0 -95 84 -95q51 0 133 58v145l-92 -6q-72 -8 -98.5 -29.5t-26.5 -72.5z" />
<glyph unicode="&#xab;" horiz-adv-x="1095" d="M53 549v8l193 487h282l-192 -487v-8l192 -488h-282zM561 549v8l193 487h282l-192 -487v-8l192 -488h-282z" />
<glyph unicode="&#xac;" horiz-adv-x="1499" d="M82 662v229h1311v-678h-275v449h-1036z" />
<glyph unicode="&#xad;" horiz-adv-x="776" d="M96 469v209h584v-209h-584z" />
<glyph unicode="&#xae;" horiz-adv-x="1398" d="M72 915q0 137 45 253t128 198t198.5 128t254.5 46q141 0 257 -46t199 -128t128 -197.5t45 -253.5q0 -139 -45 -253.5t-128 -196.5t-199 -128t-257 -46q-139 0 -254.5 46t-198.5 128t-128 196.5t-45 253.5zM209 915q0 -111 35 -201.5t98.5 -156t154 -101.5t201.5 -36 q113 0 203 36t154.5 101.5t99.5 156.5t35 201q0 111 -35 202t-99.5 157.5t-154.5 102.5t-203 36q-111 0 -201.5 -36t-154 -102.5t-98.5 -157.5t-35 -202zM475 602v653q53 4 102.5 8.5t94.5 4.5q291 0 291 -213q0 -72 -33 -120t-96 -69v-6l145 -258h-137l-123 225l-113 2 v-227h-131zM606 934h70q84 0 117.5 27.5t33.5 91.5q0 55 -31.5 84.5t-109.5 29.5q-10 0 -37.5 -1t-42.5 -3v-229z" />
<glyph unicode="&#xaf;" horiz-adv-x="823" d="M94 1288v178h623v-178h-623z" />
<glyph unicode="&#xb0;" horiz-adv-x="821" d="M55 1147q0 84 25.5 155.5t73 124t113 81t145.5 28.5q78 0 143.5 -28.5t112.5 -81t72.5 -124t25.5 -155.5t-25.5 -155.5t-72.5 -123t-112.5 -80t-143.5 -28.5q-80 0 -145.5 28.5t-113 80t-73 123t-25.5 155.5zM211 1147q0 -106 50.5 -169t150.5 -63q98 0 147 62.5 t49 169.5q0 106 -49 169.5t-147 63.5q-100 0 -150.5 -63.5t-50.5 -169.5z" />
<glyph unicode="&#xb1;" horiz-adv-x="1062" d="M98 125v205h869v-205h-869zM98 770v205h330v332h205v-332h332v-205h-332v-317h-205v317h-330z" />
<glyph unicode="&#xb2;" horiz-adv-x="782" d="M53 614v193q0 63 14.5 116.5t46 101.5t83 94t125.5 93q86 57 120.5 104.5t34.5 104.5q0 121 -166 121q-47 0 -101 -8t-110 -23l-24 195q84 20 159.5 31.5t137.5 11.5q350 0 350 -303q0 -117 -51 -199t-156 -151q-104 -72 -156.5 -130.5t-52.5 -111.5v-39h410v-201h-664z " />
<glyph unicode="&#xb3;" horiz-adv-x="735" d="M61 1722q104 27 213 27q193 0 284 -70.5t91 -214.5q0 -104 -44 -172.5t-128 -97.5q98 -31 150.5 -100.5t52.5 -173.5q0 -152 -106.5 -236t-299.5 -84q-55 0 -105 6t-103 17v206h20q33 -10 74 -16t82 -6q102 0 149 33.5t47 101.5q0 78 -49 114t-166 36h-55v184h55 q186 0 187 137q0 131 -156 131q-72 0 -166 -20h-20z" />
<glyph unicode="&#xb4;" horiz-adv-x="514" d="M57 1268l140 381h288l-227 -400z" />
<glyph unicode="&#xb5;" horiz-adv-x="1128" d="M129 -451v1557h281v-758q6 -129 116 -129q41 0 84 16.5t101 55.5v815h280v-1106h-235l-17 113h-8q-57 -39 -101 -64.5t-81 -41t-70 -21.5t-69 -6v-431h-281z" />
<glyph unicode="&#xb6;" horiz-adv-x="1083" d="M55 1034q0 137 28 231.5t80 152t125.5 83t166.5 25.5q41 0 88 -5t94 -16v-1505h-137v545q-12 -2 -22.5 -2h-24.5q-90 0 -164 25.5t-126 83t-80 151.5t-28 231zM754 0v1505h178v-1505h-178z" />
<glyph unicode="&#xb7;" horiz-adv-x="477" d="M80 758q0 82 37 118.5t121 36.5q80 0 119.5 -36.5t39.5 -118.5t-39.5 -119t-119.5 -37q-84 0 -121 37t-37 119z" />
<glyph unicode="&#xb8;" horiz-adv-x="534" d="M49 -256q35 -10 70 -13t51 -3q47 0 68.5 22.5t21.5 61.5q0 47 -29.5 115.5t-80.5 140.5h180q63 -90 91 -158t28 -143q0 -100 -60.5 -159t-175.5 -59q-35 0 -76 5.5t-88 19.5v170z" />
<glyph unicode="&#xb9;" horiz-adv-x="630" d="M16 1497l7 37l311 199h180v-1119h-246v854l-174 -79h-37z" />
<glyph unicode="&#xba;" horiz-adv-x="854" d="M61 1118q0 209 95.5 310.5t271.5 101.5t270.5 -101.5t94.5 -310.5t-94.5 -310t-270.5 -101t-271.5 101t-95.5 310zM285 1118q0 -74 6 -122t22.5 -75.5t44 -38t70.5 -10.5q41 0 68.5 10.5t44 38t23.5 75.5t7 122t-7 121t-23.5 74.5t-44 39t-68.5 11.5q-43 0 -70.5 -11.5 t-44 -39t-22.5 -74.5t-6 -121z" />
<glyph unicode="&#xbb;" horiz-adv-x="1095" d="M59 61l193 488v8l-193 487h283l193 -487v-8l-193 -488h-283zM565 61l193 488v8l-193 487h283l192 -487v-8l-192 -488h-283z" />
<glyph unicode="&#xbc;" horiz-adv-x="1939" d="M41 1292l6 37l311 199h181v-1118h-246v854l-174 -80h-37zM530 0l533 1516h227l-532 -1516h-228zM1098 381l342 723l22 16l207 -18l14 -27l-350 -659h223l70 321h154v-321h106v-178h-106v-238h-248v238h-404z" />
<glyph unicode="&#xbd;" horiz-adv-x="1974" d="M41 1292l6 37l311 199h181v-1118h-246v854l-174 -80h-37zM530 0l533 1516h227l-532 -1516h-228zM1227 0v193q0 63 13 115t45 99.5t83 93.5t127 97q88 61 122 105.5t34 101.5q0 123 -164 123q-55 0 -116.5 -8.5t-96.5 -22.5l-25 195q178 43 297 43q350 0 350 -304 q0 -111 -47 -191.5t-159 -158.5q-109 -78 -159 -133t-50 -108v-39h409v-201h-663z" />
<glyph unicode="&#xbe;" horiz-adv-x="1943" d="M82 1518q104 27 213 26q193 0 284 -70.5t91 -213.5q0 -104 -44 -173t-128 -98q98 -31 150 -100.5t52 -173.5q0 -152 -106 -236t-299 -84q-55 0 -105.5 6.5t-103.5 16.5v207h20q33 -10 74 -16.5t82 -6.5q102 0 149.5 34t47.5 101q0 78 -49.5 114t-165.5 36h-56v184h56 q186 0 186 137q0 131 -156 131q-72 0 -165 -20h-21zM594 0l532 1516h228l-533 -1516h-227zM1106 381l342 723l22 16l207 -18l15 -27l-351 -659h224l69 321h154v-321h106v-178h-106v-238h-248v238h-403z" />
<glyph unicode="&#xbf;" horiz-adv-x="839" d="M45 -20q0 92 28.5 161.5t79 120.5t118 84t145.5 49l12 240v33h180v-31l25 -373q-68 -16 -124 -35.5t-97 -50.5t-64.5 -73t-23.5 -103q0 -111 62.5 -157t158.5 -46q55 0 119.5 10.5t111.5 26.5l17 -215q-72 -23 -147 -34t-154 -11q-98 0 -181.5 24.5t-141.5 74t-91 125 t-33 180.5zM350 965q0 74 43 114.5t121 40.5t121 -41t43 -114q0 -76 -43 -116t-121 -40t-121 40t-43 116z" />
<glyph unicode="&#xc0;" horiz-adv-x="1232" d="M2 0v14l397 1502h432l400 -1502v-14h-270l-107 389h-477l-105 -389h-270zM283 1968h288l142 -330l-205 -24zM432 621h367l-119 450l-53 223h-21l-55 -223z" />
<glyph unicode="&#xc1;" horiz-adv-x="1232" d="M2 0v14l397 1502h432l400 -1502v-14h-270l-107 389h-477l-105 -389h-270zM432 621h367l-119 450l-53 223h-21l-55 -223zM504 1630l141 338h289l-225 -354z" />
<glyph unicode="&#xc2;" horiz-adv-x="1232" d="M2 0v14l397 1502h432l400 -1502v-14h-270l-107 389h-477l-105 -389h-270zM303 1632v197l318 145l313 -145v-197l-316 148zM432 621h367l-119 450l-53 223h-21l-55 -223z" />
<glyph unicode="&#xc3;" horiz-adv-x="1232" d="M2 0v14l397 1502h432l400 -1502v-14h-270l-107 389h-477l-105 -389h-270zM264 1718q53 102 122 157.5t136 55.5q39 0 77 -13t74 -28.5t71.5 -28t72.5 -12.5t72 18.5t72 61.5l49 -43q-49 -109 -118 -163t-138 -54q-39 0 -76 12.5t-73 27.5t-71.5 27.5t-72.5 12.5 q-78 0 -152 -76zM432 621h367l-119 450l-53 223h-21l-55 -223z" />
<glyph unicode="&#xc4;" horiz-adv-x="1232" d="M2 0v14l397 1502h432l400 -1502v-14h-270l-107 389h-477l-105 -389h-270zM221 1802q0 82 38 118t120 36t122 -36t40 -118q0 -84 -40 -120.5t-122 -36.5q-158 0 -158 157zM432 621h367l-119 450l-53 223h-21l-55 -223zM694 1802q0 82 38 118t120 36q80 0 121 -36t41 -118 q0 -84 -41 -120.5t-121 -36.5q-158 0 -158 157z" />
<glyph unicode="&#xc5;" horiz-adv-x="1232" d="M2 0v14l397 1502h432l400 -1502v-14h-270l-107 389h-477l-105 -389h-270zM385 1753q0 98 62.5 162.5t164.5 64.5q104 0 166 -64.5t62 -162.5q0 -96 -62 -160.5t-166 -64.5q-102 0 -164.5 64.5t-62.5 160.5zM432 621h367l-119 450l-53 223h-21l-55 -223zM500 1753 q0 -59 25.5 -88t86.5 -29q59 0 86 29t27 88t-26.5 90t-86.5 31q-61 0 -86.5 -31t-25.5 -90z" />
<glyph unicode="&#xc6;" horiz-adv-x="1652" d="M-2 0v12l459 1504h1108v-242h-531l23 -391h475v-242h-461l25 -399h487v-242h-764l-16 385h-397l-115 -385h-293zM479 627h314l-27 665h-88z" />
<glyph unicode="&#xc7;" horiz-adv-x="1021" d="M70 758q0 403 154.5 589.5t465.5 186.5q129 0 277 -31v-229q-55 10 -118 15t-116 5q-102 0 -171.5 -24.5t-114 -86t-63.5 -165t-19 -262.5q0 -156 20.5 -259.5t63.5 -165t112.5 -87t167.5 -25.5q55 0 117.5 6t120.5 19v-224q-41 -16 -106.5 -26t-141.5 -12 q35 -57 49 -108.5t14 -106.5q0 -100 -60 -159t-175 -59q-35 0 -76 5.5t-88 19.5v170q35 -10 69.5 -13t51.5 -3q47 0 68.5 22.5t21.5 61.5q0 35 -17.5 83t-48.5 101q-233 43 -345.5 228.5t-112.5 533.5z" />
<glyph unicode="&#xc8;" horiz-adv-x="1091" d="M125 0v1516h885v-242h-598v-391h532v-242h-532v-399h616v-242h-903zM238 1968h288l142 -330l-205 -24z" />
<glyph unicode="&#xc9;" horiz-adv-x="1091" d="M125 0v1516h885v-242h-598v-391h532v-242h-532v-399h616v-242h-903zM459 1630l141 338h289l-225 -354z" />
<glyph unicode="&#xca;" horiz-adv-x="1091" d="M125 0v1516h885v-242h-598v-391h532v-242h-532v-399h616v-242h-903zM258 1632v197l317 145l314 -145v-197l-316 148z" />
<glyph unicode="&#xcb;" horiz-adv-x="1091" d="M125 0v1516h885v-242h-598v-391h532v-242h-532v-399h616v-242h-903zM176 1802q0 82 38 118t120 36t122 -36t40 -118q0 -84 -40 -120.5t-122 -36.5q-158 0 -158 157zM649 1802q0 82 38 118t120 36q80 0 121 -36t41 -118q0 -84 -41 -120.5t-121 -36.5q-158 0 -158 157z" />
<glyph unicode="&#xcc;" horiz-adv-x="534" d="M-66 1968h289l142 -330l-205 -24zM125 0v1516h287v-1516h-287z" />
<glyph unicode="&#xcd;" horiz-adv-x="534" d="M125 0v1516h287v-1516h-287zM156 1630l141 338h289l-226 -354z" />
<glyph unicode="&#xce;" horiz-adv-x="534" d="M-45 1632v197l317 145l314 -145v-197l-316 148zM125 0v1516h287v-1516h-287z" />
<glyph unicode="&#xcf;" horiz-adv-x="534" d="M-127 1802q0 82 38 118t120 36t122 -36t40 -118q0 -84 -40 -120.5t-122 -36.5q-158 0 -158 157zM125 0v1516h287v-1516h-287zM346 1802q0 82 38 118t120 36q80 0 121 -36t41 -118q0 -84 -41 -120.5t-121 -36.5q-158 0 -158 157z" />
<glyph unicode="&#xd0;" horiz-adv-x="1316" d="M-4 651v219h172v639q123 14 208 19.5t159 5.5q193 0 328.5 -43t221.5 -137t125 -241.5t39 -356.5q0 -211 -41 -360.5t-131 -244t-231 -137.5t-344 -43q-70 0 -149 5.5t-185 15.5v659h-172zM449 217q51 -6 84.5 -8t62.5 -2q98 0 166.5 27.5t110.5 91t61.5 169t19.5 263.5 q0 154 -18 258t-62.5 167.5t-116 91.5t-175.5 28q-41 0 -73 -3.5t-60 -9.5v-420h208v-219h-208v-434z" />
<glyph unicode="&#xd1;" horiz-adv-x="1376" d="M125 0v1516h244l530 -848l82 -164h16v1012h256v-1516h-243l-533 850l-80 166h-18v-1016h-254zM324 1718q53 102 121.5 157.5t136.5 55.5q39 0 76.5 -13t73.5 -28.5t72 -28t73 -12.5t71.5 18.5t71.5 61.5l49 -43q-49 -109 -117.5 -163t-138.5 -54q-39 0 -76 12.5 t-72.5 27.5t-71.5 27.5t-73 12.5q-78 0 -151 -76z" />
<glyph unicode="&#xd2;" horiz-adv-x="1337" d="M70 756q0 395 147.5 587.5t450.5 192.5q305 0 453.5 -192.5t148.5 -587.5t-147.5 -585.5t-454.5 -190.5q-303 0 -450.5 191t-147.5 585zM334 1968h289l141 -330l-205 -24zM362 756q0 -145 16.5 -247.5t53.5 -167.5t94.5 -93.5t141.5 -28.5t142 28.5t95 93.5t53.5 166 t16.5 249q0 147 -16.5 250.5t-53.5 168t-95 94t-142 29.5q-82 0 -140.5 -29.5t-95.5 -94t-53.5 -168t-16.5 -250.5z" />
<glyph unicode="&#xd3;" horiz-adv-x="1337" d="M70 756q0 395 147.5 587.5t450.5 192.5q305 0 453.5 -192.5t148.5 -587.5t-147.5 -585.5t-454.5 -190.5q-303 0 -450.5 191t-147.5 585zM362 756q0 -145 16.5 -247.5t53.5 -167.5t94.5 -93.5t141.5 -28.5t142 28.5t95 93.5t53.5 166t16.5 249q0 147 -16.5 250.5 t-53.5 168t-95 94t-142 29.5q-82 0 -140.5 -29.5t-95.5 -94t-53.5 -168t-16.5 -250.5zM555 1630l141 338h289l-225 -354z" />
<glyph unicode="&#xd4;" horiz-adv-x="1337" d="M70 756q0 395 147.5 587.5t450.5 192.5q305 0 453.5 -192.5t148.5 -587.5t-147.5 -585.5t-454.5 -190.5q-303 0 -450.5 191t-147.5 585zM354 1632v197l318 145l313 -145v-197l-315 148zM362 756q0 -145 16.5 -247.5t53.5 -167.5t94.5 -93.5t141.5 -28.5t142 28.5t95 93.5 t53.5 166t16.5 249q0 147 -16.5 250.5t-53.5 168t-95 94t-142 29.5q-82 0 -140.5 -29.5t-95.5 -94t-53.5 -168t-16.5 -250.5z" />
<glyph unicode="&#xd5;" horiz-adv-x="1337" d="M70 756q0 395 147.5 587.5t450.5 192.5q305 0 453.5 -192.5t148.5 -587.5t-147.5 -585.5t-454.5 -190.5q-303 0 -450.5 191t-147.5 585zM315 1718q53 102 122 157.5t136 55.5q39 0 77 -13t74 -28.5t71.5 -28t72.5 -12.5t72 18.5t72 61.5l49 -43q-49 -109 -118 -163 t-138 -54q-39 0 -76 12.5t-72.5 27.5t-71.5 27.5t-73 12.5q-78 0 -152 -76zM362 756q0 -145 16.5 -247.5t53.5 -167.5t94.5 -93.5t141.5 -28.5t142 28.5t95 93.5t53.5 166t16.5 249q0 147 -16.5 250.5t-53.5 168t-95 94t-142 29.5q-82 0 -140.5 -29.5t-95.5 -94t-53.5 -168 t-16.5 -250.5z" />
<glyph unicode="&#xd6;" horiz-adv-x="1337" d="M70 756q0 395 147.5 587.5t450.5 192.5q305 0 453.5 -192.5t148.5 -587.5t-147.5 -585.5t-454.5 -190.5q-303 0 -450.5 191t-147.5 585zM272 1802q0 82 38 118t120 36t122 -36t40 -118q0 -84 -40 -120.5t-122 -36.5q-158 0 -158 157zM362 756q0 -145 16.5 -247.5 t53.5 -167.5t94.5 -93.5t141.5 -28.5t142 28.5t95 93.5t53.5 166t16.5 249q0 147 -16.5 250.5t-53.5 168t-95 94t-142 29.5q-82 0 -140.5 -29.5t-95.5 -94t-53.5 -168t-16.5 -250.5zM745 1802q0 82 38 118t120 36q80 0 121 -36t41 -118q0 -84 -41 -120.5t-121 -36.5 q-158 0 -158 157z" />
<glyph unicode="&#xd7;" horiz-adv-x="980" d="M70 483l274 275l-274 276l145 146l274 -277l275 277l147 -146l-276 -276l276 -275l-145 -145l-277 274l-274 -274z" />
<glyph unicode="&#xd8;" horiz-adv-x="1349" d="M16 0l168 231q-109 188 -108 525q0 395 147.5 587.5t450.5 192.5q233 0 377 -115l69 95h217l-170 -234q109 -193 109 -526q0 -395 -148.5 -585.5t-453.5 -190.5q-233 0 -373 112l-68 -92h-217zM369 756q0 -74 3 -136.5t13 -113.5l508 696q-37 51 -91 73.5t-128 22.5 q-84 0 -141.5 -29.5t-94.5 -94t-53 -168t-16 -250.5zM459 309q37 -47 90 -68.5t125 -21.5q84 0 142 28.5t95 93.5t53.5 166t16.5 249q0 72 -4 134t-12 114z" />
<glyph unicode="&#xd9;" horiz-adv-x="1341" d="M113 584v929h286v-911q0 -205 62.5 -292t208.5 -87q74 0 125 20.5t83.5 65.5t47 118t14.5 175v911h287v-929q0 -154 -30 -267.5t-96.5 -188.5t-171.5 -111.5t-259 -36.5q-152 0 -258.5 36.5t-173 111.5t-96 188.5t-29.5 267.5zM326 1968h288l142 -330l-205 -24z" />
<glyph unicode="&#xda;" horiz-adv-x="1341" d="M113 584v929h286v-911q0 -205 62.5 -292t208.5 -87q74 0 125 20.5t83.5 65.5t47 118t14.5 175v911h287v-929q0 -154 -30 -267.5t-96.5 -188.5t-171.5 -111.5t-259 -36.5q-152 0 -258.5 36.5t-173 111.5t-96 188.5t-29.5 267.5zM545 1630l141 338h289l-225 -354z" />
<glyph unicode="&#xdb;" horiz-adv-x="1341" d="M113 584v929h286v-911q0 -205 62.5 -292t208.5 -87q74 0 125 20.5t83.5 65.5t47 118t14.5 175v911h287v-929q0 -154 -30 -267.5t-96.5 -188.5t-171.5 -111.5t-259 -36.5q-152 0 -258.5 36.5t-173 111.5t-96 188.5t-29.5 267.5zM344 1632v197l318 145l313 -145v-197 l-316 148z" />
<glyph unicode="&#xdc;" horiz-adv-x="1341" d="M113 584v929h286v-911q0 -205 62.5 -292t208.5 -87q74 0 125 20.5t83.5 65.5t47 118t14.5 175v911h287v-929q0 -154 -30 -267.5t-96.5 -188.5t-171.5 -111.5t-259 -36.5q-152 0 -258.5 36.5t-173 111.5t-96 188.5t-29.5 267.5zM264 1802q0 82 38 118t120 36t122 -36 t40 -118q0 -84 -40 -120.5t-122 -36.5q-158 0 -158 157zM737 1802q0 82 38 118t120 36q80 0 121 -36t41 -118q0 -84 -41 -120.5t-121 -36.5q-158 0 -158 157z" />
<glyph unicode="&#xdd;" horiz-adv-x="1261" d="M-14 1516h323l281 -621l33 -109h18l35 109l282 621h316l-498 -998v-518h-289v514zM520 1630l142 338h288l-225 -354z" />
<glyph unicode="&#xde;" horiz-adv-x="1175" d="M125 0v1516h287v-230q20 2 39.5 2h40.5q334 0 485 -128t151 -408q0 -139 -35.5 -238.5t-112.5 -164t-195.5 -95.5t-282.5 -31h-90v-223h-287zM412 459q8 0 26.5 -1l37 -2t36 -1h25.5q82 0 139 15t92 51t51.5 92.5t16.5 138.5q0 162 -67 230.5t-232 68.5q-8 0 -24.5 -1 t-35 -2t-37 -2.5t-28.5 -3.5v-583z" />
<glyph unicode="&#xdf;" horiz-adv-x="1265" d="M104 0v1186q0 248 119 362.5t379 114.5t379 -114.5t119 -362.5v-273h-139q-90 0 -140.5 -31.5t-50.5 -88.5q0 -66 37 -91.5t96 -37.5q57 -12 115.5 -30t105.5 -52.5t77 -95t30 -158.5q0 -164 -107.5 -256t-302.5 -92q-143 0 -315 53v209q66 -25 149.5 -39.5t157.5 -14.5 q150 0 150 121q0 53 -32 84t-104 45q-49 8 -104 21.5t-103.5 47.5t-79 98.5t-30.5 174.5q0 137 84 227.5t227 112.5v66q0 141 -49 198.5t-170 57.5t-169 -56.5t-48 -199.5v-1186h-281z" />
<glyph unicode="&#xe0;" horiz-adv-x="1003" d="M43 307q0 315 393 344l189 13v34q0 63 -8.5 104.5t-30 66t-58 33.5t-92.5 9q-23 0 -60.5 -3t-79.5 -7t-82 -9t-67 -11l-18 204q88 16 179 26.5t171 10.5q223 0 324.5 -83t101.5 -267v-772h-231l-23 133h-16q-53 -59 -131 -101t-168 -42q-133 0 -213 87t-80 230zM178 1649 h289l137 -379l-198 -21zM322 332q0 -66 30.5 -100.5t87.5 -34.5q45 0 95.5 27.5t89.5 54.5v213l-127 -13q-96 -10 -136 -44t-40 -103z" />
<glyph unicode="&#xe1;" horiz-adv-x="1003" d="M43 307q0 315 393 344l189 13v34q0 63 -8.5 104.5t-30 66t-58 33.5t-92.5 9q-23 0 -60.5 -3t-79.5 -7t-82 -9t-67 -11l-18 204q88 16 179 26.5t171 10.5q223 0 324.5 -83t101.5 -267v-772h-231l-23 133h-16q-53 -59 -131 -101t-168 -42q-133 0 -213 87t-80 230zM322 332 q0 -66 30.5 -100.5t87.5 -34.5q45 0 95.5 27.5t89.5 54.5v213l-127 -13q-96 -10 -136 -44t-40 -103zM408 1268l139 381h289l-228 -400z" />
<glyph unicode="&#xe2;" horiz-adv-x="1003" d="M43 307q0 315 393 344l189 13v34q0 63 -8.5 104.5t-30 66t-58 33.5t-92.5 9q-23 0 -60.5 -3t-79.5 -7t-82 -9t-67 -11l-18 204q88 16 179 26.5t171 10.5q223 0 324.5 -83t101.5 -267v-772h-231l-23 133h-16q-53 -59 -131 -101t-168 -42q-133 0 -213 87t-80 230zM209 1266 v194l315 148l316 -148v-194l-316 145zM322 332q0 -66 30.5 -100.5t87.5 -34.5q45 0 95.5 27.5t89.5 54.5v213l-127 -13q-96 -10 -136 -44t-40 -103z" />
<glyph unicode="&#xe3;" horiz-adv-x="1003" d="M43 307q0 315 393 344l189 13v34q0 63 -8.5 104.5t-30 66t-58 33.5t-92.5 9q-23 0 -60.5 -3t-79.5 -7t-82 -9t-67 -11l-18 204q88 16 179 26.5t171 10.5q223 0 324.5 -83t101.5 -267v-772h-231l-23 133h-16q-53 -59 -131 -101t-168 -42q-133 0 -213 87t-80 230zM150 1348 q51 96 120.5 145t137.5 49q39 0 75.5 -17.5t72.5 -38t72 -37.5t74 -17q68 0 127 88l66 -70q-49 -102 -117.5 -149.5t-138.5 -47.5q-39 0 -76 16.5t-72.5 37t-72.5 37t-74 16.5q-72 0 -133 -82zM322 332q0 -66 30.5 -100.5t87.5 -34.5q45 0 95.5 27.5t89.5 54.5v213l-127 -13 q-96 -10 -136 -44t-40 -103z" />
<glyph unicode="&#xe4;" horiz-adv-x="1003" d="M43 307q0 315 393 344l189 13v34q0 63 -8.5 104.5t-30 66t-58 33.5t-92.5 9q-23 0 -60.5 -3t-79.5 -7t-82 -9t-67 -11l-18 204q88 16 179 26.5t171 10.5q223 0 324.5 -83t101.5 -267v-772h-231l-23 133h-16q-53 -59 -131 -101t-168 -42q-133 0 -213 87t-80 230zM145 1405 q0 139 144 139q72 0 108.5 -32.5t36.5 -106.5t-36.5 -106.5t-108.5 -32.5q-74 0 -109 32.5t-35 106.5zM322 332q0 -66 30.5 -100.5t87.5 -34.5q45 0 95.5 27.5t89.5 54.5v213l-127 -13q-96 -10 -136 -44t-40 -103zM588 1405q0 139 143 139q72 0 107.5 -32.5t35.5 -106.5 t-35.5 -106.5t-107.5 -32.5q-74 0 -108.5 32.5t-34.5 106.5z" />
<glyph unicode="&#xe5;" horiz-adv-x="1003" d="M43 307q0 315 393 344l189 13v34q0 63 -8.5 104.5t-30 66t-58 33.5t-92.5 9q-23 0 -60.5 -3t-79.5 -7t-82 -9t-67 -11l-18 204q88 16 179 26.5t171 10.5q223 0 324.5 -83t101.5 -267v-772h-231l-23 133h-16q-53 -59 -131 -101t-168 -42q-133 0 -213 87t-80 230zM272 1450 q0 98 61.5 161.5t172.5 63.5t173 -63.5t62 -161.5t-63 -161.5t-172 -63.5t-171.5 63.5t-62.5 161.5zM322 332q0 -66 30.5 -100.5t87.5 -34.5q45 0 95.5 27.5t89.5 54.5v213l-127 -13q-96 -10 -136 -44t-40 -103zM403 1450q0 -51 28 -83t75 -32q49 0 77.5 33t28.5 82 q0 51 -28.5 83t-77.5 32t-76 -32t-27 -83z" />
<glyph unicode="&#xe6;" horiz-adv-x="1556" d="M43 307q0 315 393 344l189 13v75q-4 96 -43 134t-146 38q-27 0 -65.5 -3t-80.5 -7t-80 -9t-63 -11l-18 204q102 18 190.5 27.5t159.5 9.5q111 0 180.5 -35.5t104.5 -109.5h16q106 147 324 147q201 0 296 -125t95 -387q0 -57 -2 -87.5t-6 -65.5h-580q6 -141 55.5 -201.5 t161.5 -60.5q55 0 138.5 14t185.5 43l10 -209q-72 -29 -169 -46t-183 -17q-125 0 -211 44t-141 136l-17 2q-121 -90 -215 -132t-186 -42q-133 0 -213 87t-80 230zM322 332q0 -66 30.5 -100.5t87.5 -34.5q41 0 89.5 26.5t109.5 67.5q-4 10 -6 36.5t-4 58.5t-3 60.5t-1 45.5 l-127 -13q-96 -8 -136 -43t-40 -104zM907 635h338q-4 152 -37.5 215t-111.5 63q-90 0 -135.5 -67.5t-53.5 -210.5z" />
<glyph unicode="&#xe7;" horiz-adv-x="841" d="M61 553q0 295 129 433t385 138q104 0 203 -30v-222q-49 12 -92 17.5t-82 5.5q-135 0 -194.5 -79t-59.5 -261t59.5 -264t192.5 -82q43 0 86 5t90 17v-219q-41 -12 -91 -20t-103 -10q35 -57 49 -108.5t14 -106.5q0 -100 -60 -159t-175 -59q-35 0 -76 5.5t-88 19.5v170 q35 -10 69.5 -13t51.5 -3q47 0 68.5 22.5t21.5 61.5q0 37 -18.5 87t-51.5 103q-164 45 -246 179t-82 372z" />
<glyph unicode="&#xe8;" horiz-adv-x="989" d="M61 539q0 291 120 438t358 147q201 0 296 -125t95 -387q0 -57 -2 -88.5t-6 -66.5h-578q10 -147 57.5 -203.5t155.5 -56.5q59 0 143 14t181 43l10 -209q-72 -29 -168 -46t-182 -17q-236 0 -358 141t-122 416zM170 1649h289l137 -379l-199 -21zM344 637h336q-4 150 -38 213 t-112 63q-86 0 -131 -64.5t-55 -211.5z" />
<glyph unicode="&#xe9;" horiz-adv-x="989" d="M61 539q0 291 120 438t358 147q201 0 296 -125t95 -387q0 -57 -2 -88.5t-6 -66.5h-578q10 -147 57.5 -203.5t155.5 -56.5q59 0 143 14t181 43l10 -209q-72 -29 -168 -46t-182 -17q-236 0 -358 141t-122 416zM344 637h336q-4 150 -38 213t-112 63q-86 0 -131 -64.5 t-55 -211.5zM410 1268l139 381h289l-228 -400z" />
<glyph unicode="&#xea;" horiz-adv-x="989" d="M61 539q0 291 120 438t358 147q201 0 296 -125t95 -387q0 -57 -2 -88.5t-6 -66.5h-578q10 -147 57.5 -203.5t155.5 -56.5q59 0 143 14t181 43l10 -209q-72 -29 -168 -46t-182 -17q-236 0 -358 141t-122 416zM205 1266v194l315 148l316 -148v-194l-316 145zM344 637h336 q-4 150 -38 213t-112 63q-86 0 -131 -64.5t-55 -211.5z" />
<glyph unicode="&#xeb;" horiz-adv-x="989" d="M61 539q0 291 120 438t358 147q201 0 296 -125t95 -387q0 -57 -2 -88.5t-6 -66.5h-578q10 -147 57.5 -203.5t155.5 -56.5q59 0 143 14t181 43l10 -209q-72 -29 -168 -46t-182 -17q-236 0 -358 141t-122 416zM143 1405q0 139 144 139q72 0 108.5 -32.5t36.5 -106.5 t-36.5 -106.5t-108.5 -32.5q-74 0 -109 32.5t-35 106.5zM344 637h336q-4 150 -38 213t-112 63q-86 0 -131 -64.5t-55 -211.5zM586 1405q0 139 143 139q72 0 107.5 -32.5t35.5 -106.5t-35.5 -106.5t-107.5 -32.5q-74 0 -108.5 32.5t-34.5 106.5z" />
<glyph unicode="&#xec;" horiz-adv-x="491" d="M-76 1649h289l137 -379l-198 -21zM109 0v1106h278v-1106h-278z" />
<glyph unicode="&#xed;" horiz-adv-x="491" d="M106 0v1106h279v-1106h-279zM154 1268l139 381h289l-228 -400z" />
<glyph unicode="&#xee;" horiz-adv-x="495" d="M-45 1266v194l317 148l314 -148v-194l-316 145zM109 0v1106h278v-1106h-278z" />
<glyph unicode="&#xef;" horiz-adv-x="495" d="M-109 1405q0 139 144 139q72 0 108.5 -32.5t36.5 -106.5t-36.5 -106.5t-108.5 -32.5q-74 0 -109 32.5t-35 106.5zM109 0v1106h278v-1106h-278zM334 1405q0 139 143 139q72 0 108 -32.5t36 -106.5t-36 -106.5t-108 -32.5q-74 0 -108.5 32.5t-34.5 106.5z" />
<glyph unicode="&#xf0;" horiz-adv-x="1077" d="M61 553q0 285 119 429t352 144q45 0 83 -13t71 -46q-16 53 -35.5 105.5t-42.5 103.5l-241 -29v176l159 19q-33 59 -67.5 112.5t-75.5 100.5h289q33 -43 61.5 -88t54.5 -92l252 30v-176l-172 -20q135 -332 136 -756q0 -285 -119 -429t-353 -144q-233 0 -352 145t-119 428z M344 553q0 -104 9 -173t31 -110t58.5 -57t89.5 -16t90 17t60 58t32 110t9 171q0 88 -7 154.5t-28.5 111.5t-58.5 67.5t-97 22.5q-53 0 -89.5 -16t-58.5 -57t-31 -110t-9 -173z" />
<glyph unicode="&#xf1;" d="M104 0v1106h238l16 -119h9q61 39 108 66.5t88 43t79 22.5t79 7q121 0 183.5 -75.5t62.5 -219.5v-831h-279v737q0 78 -27.5 111t-76.5 33q-45 0 -95.5 -19.5t-103.5 -54.5v-807h-281zM184 1348q51 96 121 145t137 49q39 0 76 -17.5t73 -38t71.5 -37.5t74.5 -17 q68 0 127 88l66 -70q-49 -102 -118 -149.5t-138 -47.5q-39 0 -76 16.5t-73 37t-72.5 37t-73.5 16.5q-72 0 -133 -82z" />
<glyph unicode="&#xf2;" d="M61 553q0 285 119 429t352 144t352.5 -144t119.5 -429t-119.5 -429t-352.5 -144t-352 145t-119 428zM201 1649h288l138 -379l-199 -21zM344 553q0 -102 9 -171t31 -110t58.5 -58t89.5 -17t90 16t60 57t32 110t9 173t-9 173t-32 110t-59.5 57t-90.5 16q-53 0 -89.5 -16 t-58.5 -57t-31 -110t-9 -173z" />
<glyph unicode="&#xf3;" d="M61 553q0 285 119 429t352 144t352.5 -144t119.5 -429t-119.5 -429t-352.5 -144t-352 145t-119 428zM344 553q0 -102 9 -171t31 -110t58.5 -58t89.5 -17t90 16t60 57t32 110t9 173t-9 173t-32 110t-59.5 57t-90.5 16q-53 0 -89.5 -16t-58.5 -57t-31 -110t-9 -173z M428 1268l139 381h289l-227 -400z" />
<glyph unicode="&#xf4;" d="M61 553q0 285 119 429t352 144t352.5 -144t119.5 -429t-119.5 -429t-352.5 -144t-352 145t-119 428zM231 1266v194l316 148l315 -148v-194l-315 145zM344 553q0 -102 9 -171t31 -110t58.5 -58t89.5 -17t90 16t60 57t32 110t9 173t-9 173t-32 110t-59.5 57t-90.5 16 q-53 0 -89.5 -16t-58.5 -57t-31 -110t-9 -173z" />
<glyph unicode="&#xf5;" d="M61 553q0 285 119 429t352 144t352.5 -144t119.5 -429t-119.5 -429t-352.5 -144t-352 145t-119 428zM170 1348q51 96 120.5 145t137.5 49q39 0 76 -17.5t72.5 -38t71.5 -37.5t75 -17q68 0 127 88l65 -70q-49 -102 -117.5 -149.5t-138.5 -47.5q-39 0 -75.5 16.5t-72.5 37 t-73 37t-73 16.5q-72 0 -134 -82zM344 553q0 -102 9 -171t31 -110t58.5 -58t89.5 -17t90 16t60 57t32 110t9 173t-9 173t-32 110t-59.5 57t-90.5 16q-53 0 -89.5 -16t-58.5 -57t-31 -110t-9 -173z" />
<glyph unicode="&#xf6;" d="M61 553q0 285 119 429t352 144t352.5 -144t119.5 -429t-119.5 -429t-352.5 -144t-352 145t-119 428zM166 1405q0 139 143 139q72 0 109 -32.5t37 -106.5t-37 -106.5t-109 -32.5q-74 0 -108.5 32.5t-34.5 106.5zM344 553q0 -102 9 -171t31 -110t58.5 -58t89.5 -17t90 16 t60 57t32 110t9 173t-9 173t-32 110t-59.5 57t-90.5 16q-53 0 -89.5 -16t-58.5 -57t-31 -110t-9 -173zM608 1405q0 139 144 139q72 0 107.5 -32.5t35.5 -106.5t-35.5 -106.5t-107.5 -32.5q-74 0 -109 32.5t-35 106.5z" />
<glyph unicode="&#xf7;" horiz-adv-x="1044" d="M76 655v205h895v-205h-895zM393 393q0 66 38 99.5t97 33.5t96.5 -33.5t37.5 -99.5q0 -70 -37.5 -103.5t-96.5 -33.5t-97 34t-38 103zM393 1116q0 70 38 104.5t97 34.5t96.5 -34.5t37.5 -104.5q0 -66 -37.5 -98.5t-96.5 -32.5t-97 33t-38 98z" />
<glyph unicode="&#xf8;" horiz-adv-x="1077" d="M12 0l140 176q-84 143 -84 377q0 285 119.5 429t351.5 144q178 0 292 -90l56 70h174l-135 -172q86 -141 86 -381q0 -285 -120 -429t-353 -144q-182 0 -295 90l-56 -70h-176zM350 488.5q0 -29.5 4 -56.5l326 414q-41 63 -141 63q-53 0 -90 -16t-58.5 -57t-31 -110 t-9.5 -173v-64.5zM395 262q23 -35 58 -50t86 -15q53 0 90 16t59.5 57t31.5 110t9 173q0 35 -1 66.5t-3 60.5z" />
<glyph unicode="&#xf9;" horiz-adv-x="1064" d="M98 274v832h281v-744q0 -78 26.5 -109.5t86.5 -31.5q41 0 85 17.5t103 58.5v809h281v-1106h-238l-16 113h-9q-57 -39 -100 -64.5t-80 -41t-70.5 -21.5t-70.5 -6q-133 0 -206 76.5t-73 217.5zM201 1649h288l138 -379l-199 -21z" />
<glyph unicode="&#xfa;" horiz-adv-x="1064" d="M98 274v832h281v-744q0 -78 26.5 -109.5t86.5 -31.5q41 0 85 17.5t103 58.5v809h281v-1106h-238l-16 113h-9q-57 -39 -100 -64.5t-80 -41t-70.5 -21.5t-70.5 -6q-133 0 -206 76.5t-73 217.5zM430 1268l139 381h289l-227 -400z" />
<glyph unicode="&#xfb;" horiz-adv-x="1064" d="M98 274v832h281v-744q0 -78 26.5 -109.5t86.5 -31.5q41 0 85 17.5t103 58.5v809h281v-1106h-238l-16 113h-9q-57 -39 -100 -64.5t-80 -41t-70.5 -21.5t-70.5 -6q-133 0 -206 76.5t-73 217.5zM231 1266v194l316 148l315 -148v-194l-315 145z" />
<glyph unicode="&#xfc;" horiz-adv-x="1064" d="M98 274v832h281v-744q0 -78 26.5 -109.5t86.5 -31.5q41 0 85 17.5t103 58.5v809h281v-1106h-238l-16 113h-9q-57 -39 -100 -64.5t-80 -41t-70.5 -21.5t-70.5 -6q-133 0 -206 76.5t-73 217.5zM166 1405q0 139 143 139q72 0 109 -32.5t37 -106.5t-37 -106.5t-109 -32.5 q-74 0 -108.5 32.5t-34.5 106.5zM608 1405q0 139 144 139q72 0 107.5 -32.5t35.5 -106.5t-35.5 -106.5t-107.5 -32.5q-74 0 -109 32.5t-35 106.5z" />
<glyph unicode="&#xfd;" horiz-adv-x="1054" d="M6 1085v21h285l203 -682l24 -141h17l26 141l201 682h285v-21l-510 -1536l-281 58v14l125 379zM432 1268l139 381h289l-227 -400z" />
<glyph unicode="&#xfe;" horiz-adv-x="1075" d="M104 -451v2106h281v-654q53 63 126 93t151 30q352 0 352 -536q0 -301 -128 -453.5t-380 -152.5q-27 0 -55.5 2t-65.5 8v-443h-281zM385 193q57 -23 123 -23q59 0 101 19.5t67.5 64.5t38 118.5t12.5 182.5q0 104 -9 175t-28.5 114t-52.5 61.5t-78 18.5q-41 0 -72.5 -17.5 t-54 -56.5t-35 -102.5t-12.5 -155.5v-399z" />
<glyph unicode="&#xff;" horiz-adv-x="1054" d="M6 1085v21h285l203 -682l24 -141h17l26 141l201 682h285v-21l-510 -1536l-281 58v14l125 379zM170 1405q0 139 143 139q72 0 109 -32.5t37 -106.5t-37 -106.5t-109 -32.5q-74 0 -108.5 32.5t-34.5 106.5zM612 1405q0 139 144 139q72 0 107.5 -32.5t35.5 -106.5 t-35.5 -106.5t-107.5 -32.5q-74 0 -109 32.5t-35 106.5z" />
<glyph unicode="&#x152;" horiz-adv-x="1804" d="M68 758q0 387 161.5 579.5t462.5 192.5q53 0 105.5 -5t95.5 -9h823v-242h-538v-387h503v-228h-503v-417h557v-242h-842q-43 -10 -95.5 -12t-105.5 -2q-303 0 -463.5 191.5t-160.5 580.5zM356 756q0 -145 18.5 -245.5t61.5 -164t115 -91.5t176 -28q37 0 80 2t84 11v1034 q-90 12 -166 12q-104 0 -175 -28.5t-114 -92t-61.5 -165t-18.5 -244.5z" />
<glyph unicode="&#x153;" horiz-adv-x="1652" d="M61 553q0 285 119 429t352 144q223 0 326 -178h16q106 176 328 176q201 0 296 -125t95 -387q0 -57 -2 -87.5t-8 -65.5h-577q8 -143 57 -202.5t158 -59.5q59 0 142 14t181 43l10 -209q-72 -29 -168 -46t-182 -17q-115 0 -196.5 44t-135.5 128h-14q-106 -174 -326 -174 q-233 0 -352 145t-119 428zM344 553q0 -102 9 -171t31 -110t58.5 -58t89.5 -17t90 16t60 57t32 110t9 173t-9 173t-32 110t-59.5 57t-90.5 16q-53 0 -89.5 -16t-58.5 -57t-31 -110t-9 -173zM1006 635h337q-4 152 -37.5 215t-111.5 63q-88 0 -134 -66.5t-54 -211.5z" />
<glyph unicode="&#x178;" horiz-adv-x="1261" d="M-14 1516h323l281 -621l33 -109h18l35 109l282 621h316l-498 -998v-518h-289v514zM238 1802q0 82 37.5 118t119.5 36t122 -36t40 -118q0 -84 -40 -120.5t-122 -36.5q-158 0 -157 157zM711 1802q0 82 37.5 118t119.5 36q80 0 121 -36t41 -118q0 -84 -41 -120.5t-121 -36.5 q-158 0 -157 157z" />
<glyph unicode="&#x2c6;" horiz-adv-x="776" d="M63 1266v194l316 148l315 -148v-194l-315 145z" />
<glyph unicode="&#x2dc;" horiz-adv-x="858" d="M43 1348q51 96 120.5 145t137.5 49q39 0 76 -17.5t72.5 -38t71.5 -37.5t75 -17q68 0 127 88l65 -70q-49 -102 -117.5 -149.5t-138.5 -47.5q-39 0 -75.5 16.5t-72.5 37t-73 37t-73 16.5q-72 0 -134 -82z" />
<glyph unicode="&#x2000;" horiz-adv-x="990" />
<glyph unicode="&#x2001;" horiz-adv-x="1980" />
<glyph unicode="&#x2002;" horiz-adv-x="990" />
<glyph unicode="&#x2003;" horiz-adv-x="1980" />
<glyph unicode="&#x2004;" horiz-adv-x="660" />
<glyph unicode="&#x2005;" horiz-adv-x="495" />
<glyph unicode="&#x2006;" horiz-adv-x="330" />
<glyph unicode="&#x2007;" horiz-adv-x="330" />
<glyph unicode="&#x2008;" horiz-adv-x="247" />
<glyph unicode="&#x2009;" horiz-adv-x="396" />
<glyph unicode="&#x200a;" horiz-adv-x="110" />
<glyph unicode="&#x2010;" horiz-adv-x="776" d="M96 469v209h584v-209h-584z" />
<glyph unicode="&#x2011;" horiz-adv-x="776" d="M96 469v209h584v-209h-584z" />
<glyph unicode="&#x2012;" horiz-adv-x="776" d="M96 469v209h584v-209h-584z" />
<glyph unicode="&#x2013;" horiz-adv-x="1093" d="M102 469v209h891v-209h-891z" />
<glyph unicode="&#x2014;" horiz-adv-x="1443" d="M102 469v209h1241v-209h-1241z" />
<glyph unicode="&#x2018;" horiz-adv-x="395" d="M70 1260q0 109 36.5 215t96.5 186l123 -16q-29 -72 -43.5 -148t-14.5 -147q0 -137 56 -285l-211 -21q-23 47 -33 101.5t-10 114.5z" />
<glyph unicode="&#x2019;" horiz-adv-x="389" d="M72 1061q29 72 43 147.5t14 147.5q0 139 -57 284l213 21q41 -90 41 -215q0 -109 -37 -215.5t-96 -186.5z" />
<glyph unicode="&#x201a;" horiz-adv-x="409" d="M68 -287q29 72 43 148t14 147q0 139 -57 285l213 20q41 -90 41 -215q0 -109 -37 -215t-97 -186z" />
<glyph unicode="&#x201c;" horiz-adv-x="827" d="M70 1260q0 109 36.5 215t96.5 186l123 -16q-29 -72 -43.5 -148t-14.5 -147q0 -137 56 -285l-211 -21q-23 47 -33 101.5t-10 114.5zM502 1260q0 109 36.5 215t96.5 186l123 -16q-29 -72 -43.5 -148t-14.5 -147q0 -137 56 -285l-211 -21q-23 47 -33 101.5t-10 114.5z" />
<glyph unicode="&#x201d;" horiz-adv-x="821" d="M72 1061q29 72 43 147.5t14 147.5q0 139 -57 284l213 21q41 -90 41 -215q0 -109 -37 -215.5t-96 -186.5zM504 1061q29 72 43 147.5t14 147.5q0 139 -57 284l213 21q41 -90 41 -215q0 -109 -37 -215.5t-96 -186.5z" />
<glyph unicode="&#x201e;" horiz-adv-x="839" d="M68 -287q29 72 43 148t14 147q0 139 -57 285l213 20q41 -90 41 -215q0 -109 -37 -215t-97 -186zM498 -287q29 72 43 148t14 147q0 139 -57 285l213 20q41 -90 41 -215q0 -109 -37 -215t-97 -186z" />
<glyph unicode="&#x2022;" horiz-adv-x="655" d="M113 758q0 109 60 159t155 50q94 0 154.5 -50.5t60.5 -158.5q0 -109 -60.5 -159t-154.5 -50t-154.5 50t-60.5 159z" />
<glyph unicode="&#x2026;" horiz-adv-x="1503" d="M76 143q0 82 37 119t123 37q84 0 122.5 -37t38.5 -119q0 -80 -37.5 -117.5t-123.5 -37.5q-84 0 -122 36.5t-38 118.5zM596 143q0 82 37 119t123 37q84 0 123 -37t39 -119q0 -80 -38 -117.5t-124 -37.5q-84 0 -122 36.5t-38 118.5zM1106 143q0 82 37 119t123 37 q84 0 122.5 -37t38.5 -119q0 -80 -37.5 -117.5t-123.5 -37.5q-84 0 -122 36.5t-38 118.5z" />
<glyph unicode="&#x202f;" horiz-adv-x="396" />
<glyph unicode="&#x2039;" horiz-adv-x="589" d="M55 549v8l193 487h282l-192 -487v-8l192 -488h-282z" />
<glyph unicode="&#x203a;" horiz-adv-x="589" d="M59 61l193 488v8l-193 487h283l193 -487v-8l-193 -488h-283z" />
<glyph unicode="&#x205f;" horiz-adv-x="495" />
<glyph unicode="&#x20ac;" horiz-adv-x="1153" d="M61 502v164h146q-2 23 -2 45v47v45t2 45h-146v164h164q98 524 643 524q66 0 120 -8t99 -25l-51 -221q-41 4 -71.5 6t-61.5 2q-86 0 -151.5 -14t-112.5 -47t-77 -86t-46 -131h432l-41 -164h-409q-2 -23 -2 -45.5v-46.5v-46.5t2 -43.5h385l-41 -164h-326 q33 -154 123 -217.5t262 -63.5q45 0 90 7.5t86 17.5v-238q-86 -29 -211 -28q-541 4 -639 522h-166z" />
<glyph unicode="&#x2122;" horiz-adv-x="1736" d="M49 1354v162h631v-162h-221v-699h-187v699h-223zM772 655v861h248l176 -535l178 535h248v-861h-174v576l-172 -533h-158l-172 533v-576h-174z" />
<glyph unicode="&#x25fc;" horiz-adv-x="1105" d="M0 0v1106h1106v-1106h-1106z" />
</font>
</defs>
</svg>
