<svg width="17" height="14" viewBox="0 0 17 14" fill="none" xmlns="http://www.w3.org/2000/svg">
<path d="M11.033 0C13.0071 0 14.6132 1.65596 14.6132 3.69141C14.6132 5.72685 13.0071 7.38281 11.033 7.38281C9.05892 7.38281 7.45286 5.72685 7.45286 3.69141C7.45286 1.65596 9.05892 0 11.033 0Z" fill="#3CBEEF"/>
<path d="M6.5786 9.79439C7.55878 8.76824 8.85817 8.20312 10.2374 8.20312H11.8286C13.2079 8.20312 14.5073 8.76824 15.4875 9.79439C16.4628 10.8155 17 12.1634 17 13.5898C17 13.8164 16.8219 14 16.6022 14H5.46387C5.24418 14 5.06607 13.8164 5.06607 13.5898C5.06607 12.1634 5.60323 10.8155 6.5786 9.79439Z" fill="#3CBEEF"/>
<path d="M2.17307 7.14235H0V6.14028H2.17307V3.84341H3.15586V6.14028H5.33439V7.14235H3.15586V9.42796H2.17307V7.14235Z" fill="#3CBEEF"/>
</svg>
