<svg id="eye_1_" data-name="eye (1)" xmlns="http://www.w3.org/2000/svg" width="26.388" height="15.73" viewBox="0 0 26.388 15.73">
  <path id="Tracé_55" data-name="Tracé 55" d="M13.194,98.725c-5.042,0-9.614,2.758-12.988,7.239a1.045,1.045,0,0,0,0,1.247c3.374,4.486,7.946,7.244,12.988,7.244s9.614-2.758,12.988-7.239a1.045,1.045,0,0,0,0-1.247C22.808,101.483,18.236,98.725,13.194,98.725Zm.362,13.4a5.55,5.55,0,1,1,5.177-5.177A5.553,5.553,0,0,1,13.556,112.128Zm-.167-2.559a2.989,2.989,0,1,1,2.791-2.791A2.984,2.984,0,0,1,13.388,109.57Z" transform="translate(0 -98.725)" fill="#28aa69"/>
</svg>
