<svg id="arrow-pointing-to-right_2_" data-name="arrow-pointing-to-right (2)" xmlns="http://www.w3.org/2000/svg" width="11.823" height="12.513" viewBox="0 0 11.823 12.513">
  <path id="Tracé_369" data-name="Tracé 369" d="M23.8,5.534,18.572.305a1.018,1.018,0,0,0-1.454,0l-.6.6a.954.954,0,0,0-.305.723.955.955,0,0,0,.305.723l2.353,2.361H13.215a.856.856,0,0,0-.679.3,1.072,1.072,0,0,0-.261.727V6.771a1.072,1.072,0,0,0,.261.727.856.856,0,0,0,.679.3h5.654l-2.353,2.353a1.028,1.028,0,0,0,0,1.462l.6.6a1.038,1.038,0,0,0,1.454,0L23.8,6.987a.993.993,0,0,0,.3-.731A.951.951,0,0,0,23.8,5.534Z" transform="translate(-12.275 0)" fill="#fff"/>
</svg>
