<?xml version="1.0" standalone="no"?>
<!DOCTYPE svg PUBLIC "-//W3C//DTD SVG 1.1//EN" "http://www.w3.org/Graphics/SVG/1.1/DTD/svg11.dtd" >
<svg xmlns="http://www.w3.org/2000/svg">
<metadata></metadata>
<defs>
<font id="encode_sans_compressedXBd" horiz-adv-x="1269" >
<font-face units-per-em="2048" ascent="1638" descent="-410" />
<missing-glyph horiz-adv-x="352" />
<glyph unicode="&#xfb01;" horiz-adv-x="1259" d="M25 831v275h151v55q0 139 28.5 233.5t95.5 154t176.5 87t273.5 33.5l20 -246q-80 -6 -132 -19t-82 -40t-42 -70t-12 -106v-82h221v-275h-221v-831h-328v831h-149zM817 1436q0 92 42 134t138 42t139.5 -42t43.5 -134t-42.5 -134t-140.5 -42q-94 0 -137 40.5t-43 135.5z M836 0v1106h325v-1106h-325z" />
<glyph unicode="&#xfb02;" horiz-adv-x="1259" d="M25 831v275h151v55q0 139 28.5 233.5t95.5 154t176.5 87t273.5 33.5l20 -246q-80 -6 -132 -19t-82 -40t-42 -70t-12 -106v-82h221v-275h-221v-831h-328v831h-149zM836 0v1655h327v-1655h-327z" />
<glyph unicode="&#xfb03;" horiz-adv-x="1943" d="M25 831v275h151v55q0 139 28.5 233.5t95.5 154t176.5 87t273.5 33.5l20 -246q-80 -6 -132 -19t-82 -40t-42 -70t-12 -106v-82h360v55q0 139 29 233.5t95.5 154t176 87t273.5 33.5l20 -246q-80 -6 -132 -19t-82 -40t-42 -70t-12 -106v-82h221v-275h-221v-831h-328v831 h-358v-831h-328v831h-149zM1503 1436q0 92 42 134t138 42t139.5 -42t43.5 -134t-42.5 -134t-140.5 -42q-94 0 -137 40.5t-43 135.5zM1522 0v1106h325v-1106h-325z" />
<glyph unicode="&#xfb04;" horiz-adv-x="1945" d="M25 831v275h151v55q0 139 28.5 233.5t95.5 154t176.5 87t273.5 33.5l20 -246q-80 -6 -132 -19t-82 -40t-42 -70t-12 -106v-82h360v55q0 139 29 233.5t95.5 154t176 87t273.5 33.5l20 -246q-80 -6 -132 -19t-82 -40t-42 -70t-12 -106v-82h221v-275h-221v-831h-328v831 h-358v-831h-328v831h-149zM1520 0v1655h327v-1655h-327z" />
<glyph horiz-adv-x="0" />
<glyph unicode="&#xd;" horiz-adv-x="540" />
<glyph horiz-adv-x="0" />
<glyph horiz-adv-x="0" />
<glyph unicode=" "  horiz-adv-x="352" />
<glyph unicode="&#x09;" horiz-adv-x="352" />
<glyph unicode="&#xa0;" horiz-adv-x="352" />
<glyph unicode="!" horiz-adv-x="548" d="M88 164q0 86 49 131t137 45q90 0 139.5 -46t49.5 -130q0 -86 -49.5 -132t-139.5 -46q-88 0 -137 46t-49 132zM100 1495v21h349v-21l-70 -956v-23h-205v23z" />
<glyph unicode="&#x22;" horiz-adv-x="813" d="M90 983v672h258v-8l-84 -664h-174zM500 983v672h258v-8l-84 -664h-174z" />
<glyph unicode="#" horiz-adv-x="1054" d="M70 418v203h139l22 276h-161v203h178l35 416h223l-35 -416h162l35 416h225l-35 -416h127v-203h-143l-23 -276h166v-203h-182l-33 -418h-225l33 418h-162l-33 -418h-223l33 418h-123zM432 621h162l22 276h-161z" />
<glyph unicode="$" horiz-adv-x="1058" d="M63 53l5 283q35 -16 83 -31.5t99 -27t102 -17.5t94 -6q225 0 226 176q0 45 -18.5 75t-52.5 51.5t-80 37.5t-101 35q-68 20 -130.5 51t-109.5 84t-75.5 135t-28.5 205q0 164 89 270.5t251 143.5v272h272v-260q127 -12 254 -51l-4 -271q-41 12 -86 21.5t-89 16.5t-84 11.5 t-71 4.5q-197 0 -196 -158q0 -47 21.5 -80t60 -56.5t89 -44t109.5 -42.5q66 -25 123 -59t100 -85t68 -122.5t25 -172.5q0 -172 -84 -285.5t-234 -156.5v-274h-270v254q-86 6 -174 23t-183 50z" />
<glyph unicode="%" horiz-adv-x="1921" d="M51 1049q0 238 95.5 361.5t277.5 123.5q184 0 278.5 -124t94.5 -361q0 -240 -94.5 -363t-278.5 -123t-278.5 124t-94.5 362zM295 1049q0 -147 30.5 -210t98.5 -63q70 0 98.5 62.5t28.5 210.5q0 147 -29.5 210.5t-97.5 63.5t-98.5 -63.5t-30.5 -210.5zM563 0l533 1516h262 l-533 -1516h-262zM1126 463q0 238 95.5 361.5t277.5 123.5q184 0 278.5 -124t94.5 -361q0 -240 -94.5 -363t-278.5 -123q-182 0 -277.5 124t-95.5 362zM1370 463q0 -147 30.5 -210t98.5 -63q70 0 98.5 62.5t28.5 210.5q0 150 -28.5 212t-98.5 62q-68 0 -98.5 -63.5 t-30.5 -210.5z" />
<glyph unicode="&#x26;" horiz-adv-x="1345" d="M66 420q0 143 70.5 244.5t195.5 140.5q-80 92 -115 175t-35 175q0 186 124 284.5t353 98.5q88 0 174.5 -14.5t182.5 -48.5v-9l-33 -254h-8q-72 29 -148.5 44.5t-140.5 15.5q-184 0 -184 -164q0 -86 77.5 -176t247.5 -201l101 -67v182l282 18v-162q0 -115 -18 -213 l162 -106v-8l-121 -279h-8l-150 109q-78 -111 -197.5 -168t-277.5 -57q-123 0 -221 30.5t-168 88t-107.5 138t-37.5 183.5zM391 442q0 -92 63.5 -148t166.5 -56q168 0 239 127l-145 108q-61 45 -113.5 86t-97.5 80q-113 -49 -113 -197z" />
<glyph unicode="'" horiz-adv-x="401" d="M90 983v672h258v-8l-84 -664h-174z" />
<glyph unicode="(" horiz-adv-x="651" d="M51 725q0 283 79 553t235 500h286v-9q-158 -229 -247 -496t-89 -548t89.5 -548t246.5 -496v-9h-286q-156 229 -235 499.5t-79 553.5z" />
<glyph unicode=")" horiz-adv-x="651" d="M2 -319q156 229 245 496t89 548t-89 548t-245 496v9h285q158 -229 235.5 -499.5t77.5 -553.5t-78 -553t-235 -500h-285v9z" />
<glyph unicode="*" horiz-adv-x="999" d="M51 1313l64 196l145 -47l193 -121l-56 224v151h209v-151l-57 -222l190 119l146 47l63 -196l-143 -49l-223 -15l172 -141l90 -125l-168 -123l-92 123l-84 215l-84 -215l-90 -123l-170 123l90 125l170 141l-221 15z" />
<glyph unicode="+" horiz-adv-x="1040" d="M57 641v233h346v326h236v-326h346v-233h-346v-326h-236v326h-346z" />
<glyph unicode="," horiz-adv-x="509" d="M25 -297l88 627h329l-174 -647z" />
<glyph unicode="-" horiz-adv-x="811" d="M90 453v241h631v-241h-631z" />
<glyph unicode="." horiz-adv-x="495" d="M66 162q0 94 42 135t140 41q94 0 138 -41t44 -135q0 -92 -43 -134t-139 -42t-139 41t-43 135z" />
<glyph unicode="/" horiz-adv-x="694" d="M43 -246l328 1762h282l-327 -1762h-283z" />
<glyph unicode="0" horiz-adv-x="1234" d="M68 756q0 383 140 581.5t408 198.5q270 0 409.5 -198.5t139.5 -581.5q0 -381 -139.5 -578.5t-409.5 -197.5q-268 0 -408 197.5t-140 578.5zM403 756q0 -133 11.5 -228.5t37 -156t66.5 -88t98 -27.5q117 0 165 114.5t48 385.5q0 135 -11 231t-36.5 156.5t-66.5 88.5 t-99 28q-115 0 -164 -118t-49 -386z" />
<glyph unicode="1" horiz-adv-x="823" d="M8 1200l8 45l416 271h252v-1516h-336v1153h-8l-238 -104h-43z" />
<glyph unicode="2" horiz-adv-x="1030" d="M61 0v264q0 90 18.5 163t59.5 135.5t106.5 118.5t162.5 114q121 72 169 135t48 149q0 96 -55.5 138.5t-180.5 42.5q-59 0 -130 -11.5t-140 -31.5l-27 264q111 29 214.5 42t189.5 13q465 0 465 -414q0 -156 -75 -274.5t-243 -226.5q-80 -53 -130 -91t-76.5 -68t-36 -57.5 t-9.5 -60.5v-63h559v-281h-889z" />
<glyph unicode="3" horiz-adv-x="968" d="M70 1505q125 33 278 33q266 0 391 -92t125 -285q0 -309 -256 -375v-8q141 -29 219 -124t78 -242q0 -205 -143.5 -315.5t-409.5 -114.5q-133 0 -278 26v252h8q41 -16 97.5 -24.5t117.5 -8.5q147 0 209.5 50.5t62.5 160.5q0 117 -62.5 167t-223.5 50h-66v234h64 q72 0 118.5 10t75.5 32.5t41 61.5t12 97q0 104 -48 149t-158 45q-47 0 -103.5 -7t-132.5 -22h-12z" />
<glyph unicode="4" horiz-adv-x="1134" d="M16 514v8l482 1014h8l323 -20l15 -9l-492 -942v-8h283l74 406h247v-406h146v-246h-146v-311h-335v311h-568z" />
<glyph unicode="5" horiz-adv-x="974" d="M76 8v271h69q104 -25 191 -25q256 0 256 205q0 63 -17.5 107t-58.5 70t-109.5 37t-173.5 11h-137l-8 8l53 824h690v-279h-434l-20 -317q291 -4 422 -114t131 -347q0 -229 -150 -355.5t-418 -126.5q-59 0 -126.5 7.5t-159.5 23.5z" />
<glyph unicode="6" horiz-adv-x="1159" d="M68 684q0 422 173 637t515 215q129 0 278 -39l-37 -260q-72 16 -127 23.5t-102 7.5q-174 0 -263 -95.5t-110 -310.5q53 49 125 77t156 28q100 0 181 -32t138.5 -92.5t88 -144.5t30.5 -188q0 -123 -36 -221.5t-102.5 -167t-162.5 -105t-215 -36.5q-256 0 -393 180 t-137 524zM387 629q4 -199 55.5 -286t155.5 -87q190 0 190 244q0 225 -190 225q-59 0 -117.5 -26.5t-93.5 -69.5z" />
<glyph unicode="7" horiz-adv-x="919" d="M31 1477l45 39h784l41 -191v-55l-409 -1266l-60 -43l-276 39v39l413 1198h-536z" />
<glyph unicode="8" horiz-adv-x="1130" d="M66 373q0 135 52 229t163 160q-78 53 -128.5 138t-50.5 230q0 92 33 166t94.5 127.5t146.5 82t189 28.5t190.5 -28.5t147 -82t93 -127t32.5 -166.5q0 -117 -37 -191.5t-135 -137.5q90 -47 149.5 -133t59.5 -240q0 -205 -132 -319.5t-368 -114.5t-367.5 100.5 t-131.5 278.5zM373 418q0 -102 50 -157.5t142 -55.5t143.5 49t51.5 141q0 55 -18.5 96t-51.5 72t-78 53.5t-98 40.5q-66 -45 -103.5 -102t-37.5 -137zM397 1110q0 -47 16.5 -81t46 -59.5t69.5 -45t89 -35.5q61 43 88 99t27 140q0 184 -168 185q-80 0 -124 -52.5t-44 -150.5z " />
<glyph unicode="9" horiz-adv-x="1159" d="M45 1006q0 123 36 221t102.5 166.5t161.5 105.5t216 37q256 0 393.5 -180t137.5 -525q0 -422 -173.5 -636.5t-515.5 -214.5q-129 0 -278 38l37 261q72 -16 127 -23.5t102 -7.5q174 0 262 95t111 310q-53 -49 -125 -76.5t-156 -27.5q-100 0 -181 31.5t-138.5 92t-88 144.5 t-30.5 189zM371 1016q0 -225 190 -225q59 0 117.5 26.5t93.5 69.5q-4 199 -55 286t-156 87q-190 0 -190 -244z" />
<glyph unicode=":" horiz-adv-x="530" d="M82 162q0 94 42 135t140 41q94 0 138 -41t44 -135q0 -92 -43 -134t-139 -42t-139 41t-43 135zM82 946q0 94 42 135t140 41q94 0 138 -41t44 -135q0 -92 -43 -134t-139 -42t-139 41t-43 135z" />
<glyph unicode=";" horiz-adv-x="548" d="M37 -297l88 627h330l-174 -647zM102 946q0 94 42 135t141 41q94 0 138 -41t44 -135q0 -92 -43 -134t-139 -42t-139.5 41t-43.5 135z" />
<glyph unicode="&#x3c;" horiz-adv-x="1099" d="M55 631v229l944 408v-258l-614 -267l612 -262v-258z" />
<glyph unicode="=" horiz-adv-x="1071" d="M96 369v241h877v-241h-877zM96 821v242h877v-242h-877z" />
<glyph unicode="&#x3e;" horiz-adv-x="1099" d="M102 223v258l613 262l-613 267v258l942 -408v-229z" />
<glyph unicode="?" horiz-adv-x="866" d="M53 1487q143 43 305 43q213 0 337 -100.5t124 -303.5q0 -174 -100.5 -275t-263.5 -134l-15 -217v-31h-204v29l-31 366q137 31 213 81t76 153q0 94 -54.5 135t-146.5 41q-27 0 -57.5 -3t-61.5 -7t-58.5 -11.5t-47.5 -13.5zM156 162q0 86 48 131t138 45q88 0 137 -45 t49 -131t-49 -132t-137 -46q-90 0 -138 46t-48 132z" />
<glyph unicode="@" horiz-adv-x="1658" d="M61 537q0 209 59.5 368.5t166 266t253 160.5t322.5 54q195 0 332 -54t223 -152.5t126 -238.5t40 -312q0 -121 -23.5 -218.5t-69.5 -168t-115.5 -108.5t-162.5 -38q-37 0 -71.5 6.5t-62 25.5t-47 53t-27.5 89h-9q-55 -92 -132 -126.5t-154 -34.5q-76 0 -130.5 29.5 t-90 79.5t-52 115.5t-16.5 139.5q0 117 32.5 215t95 170t151.5 112t200 40q125 0 330 -84l-72 -420q-6 -35 -12 -69t-6 -68q0 -43 17.5 -74t66.5 -31q76 0 114.5 99.5t38.5 265.5q0 129 -27.5 234.5t-89 179t-158.5 114.5t-239 41q-131 0 -240.5 -42t-187.5 -125t-122 -207 t-44 -287q0 -182 48.5 -305t125 -199t174 -107.5t197.5 -31.5q84 0 186.5 24.5t206.5 58.5l64 -165q-115 -41 -233 -68t-224 -27q-139 0 -274.5 41t-240.5 136.5t-171 253t-66 389.5zM623 473q0 -35 6 -68.5t20.5 -60.5t39 -43t61.5 -16q27 0 59.5 11t62 40t54 78t37.5 123 l47 280q-31 10 -58.5 14.5t-52.5 4.5q-66 0 -117 -27t-85.5 -75t-54 -114.5t-19.5 -146.5z" />
<glyph unicode="A" d="M-2 0v14l383 1502h508l383 -1502v-14h-316l-94 362h-456l-93 -362h-315zM469 631h330l-101 409l-53 224h-22l-52 -224z" />
<glyph unicode="B" horiz-adv-x="1212" d="M115 10v1495q133 16 231 23.5t184 7.5q307 0 448.5 -103.5t141.5 -326.5q0 -264 -221 -324v-8q127 -25 193.5 -117t66.5 -243q0 -434 -647 -434q-96 0 -201.5 7t-195.5 23zM422 248q23 -6 60.5 -9t84.5 -3q123 0 185.5 50t62.5 146q0 113 -58.5 159t-201.5 46h-133v-389z M422 883h131q125 0 173 44t48 158q0 193 -207 193q-35 0 -68.5 -3t-76.5 -9v-383z" />
<glyph unicode="C" horiz-adv-x="1030" d="M61 758q0 401 158 588.5t463 187.5q143 0 295 -33v-266q-61 10 -126 16t-118 6q-90 0 -152.5 -21.5t-100.5 -77.5t-55 -153.5t-17 -248.5q0 -150 17 -246t56 -152.5t100.5 -78t149.5 -21.5q63 0 125 6t121 21v-260q-43 -18 -124 -30.5t-167 -12.5q-311 0 -468 188 t-157 588z" />
<glyph unicode="D" horiz-adv-x="1302" d="M115 -4v1515q131 12 219 17.5t164 5.5q203 0 344 -42t230 -135t129 -241.5t40 -359.5q0 -213 -41 -361.5t-132 -243t-236.5 -136.5t-354.5 -42q-72 0 -156.5 5.5t-205.5 17.5zM444 256q53 -6 86 -8t62 -2q86 0 144.5 23.5t94 82t50 156.5t14.5 250q0 147 -15.5 245.5 t-54.5 157t-103.5 82t-162.5 23.5q-41 0 -66.5 -2t-48.5 -9v-999z" />
<glyph unicode="E" horiz-adv-x="1112" d="M115 0v1516h919v-281h-583v-334h520v-283h-520v-337h602v-281h-938z" />
<glyph unicode="F" horiz-adv-x="1056" d="M115 0v1516h895v-281h-559v-367h501v-282h-501v-586h-336z" />
<glyph unicode="G" horiz-adv-x="1200" d="M61 758q0 776 703 776q152 0 334 -43v-268q-98 18 -170 27.5t-131 9.5q-111 0 -185.5 -26t-121 -84t-65.5 -155.5t-19 -238.5q0 -143 16 -239.5t54 -154t100.5 -81t154.5 -23.5h43.5t42.5 2v510h301v-754q-145 -20 -245.5 -27t-188.5 -7q-317 0 -470 191.5t-153 584.5z " />
<glyph unicode="H" horiz-adv-x="1378" d="M115 0v1516h336v-601h477v601h336v-1516h-336v633h-477v-633h-336z" />
<glyph unicode="I" horiz-adv-x="565" d="M115 0v1516h336v-1516h-336z" />
<glyph unicode="J" horiz-adv-x="567" d="M-37 -328q45 104 75 190.5t48 169.5t25.5 171t7.5 194v1119h338v-1147q0 -104 -15.5 -199.5t-49.5 -190t-87 -192.5t-131 -211z" />
<glyph unicode="K" horiz-adv-x="1271" d="M115 0v1516h336v-603h149l272 603h373l-327 -682l-113 -56v-12l115 -55l366 -711h-373l-325 633h-137v-633h-336z" />
<glyph unicode="L" horiz-adv-x="946" d="M115 0v1516h336v-1235h471v-281h-807z" />
<glyph unicode="M" horiz-adv-x="1787" d="M115 0v1516h481l242 -760l49 -252h14l47 252l246 760h479v-1516h-313v1102h-12l-68 -256l-248 -768h-282l-246 768l-70 256h-12v-1102h-307z" />
<glyph unicode="N" horiz-adv-x="1392" d="M115 0v1516h280l488 -766l80 -162h18v928h297v-1516h-281l-491 772l-76 160h-20v-932h-295z" />
<glyph unicode="O" horiz-adv-x="1368" d="M61 756q0 395 154 587.5t467 192.5q317 0 471 -192.5t154 -587.5q0 -397 -153 -586.5t-472 -189.5q-313 0 -467 191t-154 585zM406 756q0 -137 14 -232.5t47 -155t86 -86t129 -26.5q78 0 131 25.5t87 85t48.5 154.5t14.5 235q0 141 -14.5 237.5t-47.5 155.5t-87 85 t-132 26q-76 0 -129 -27t-86 -86.5t-47 -155.5t-14 -235z" />
<glyph unicode="P" horiz-adv-x="1206" d="M115 0v1505q94 16 191 23.5t194 7.5q352 0 510.5 -128t158.5 -413q0 -139 -37.5 -240.5t-116.5 -166t-202 -95t-295 -30.5h-67v-463h-336zM451 737q23 -4 53 -5t55 -1q74 0 125 13.5t83 44t45 82t13 124.5q0 74 -13 125t-45 82t-84 45.5t-130 14.5q-25 0 -55.5 -2.5 t-46.5 -6.5v-516z" />
<glyph unicode="Q" horiz-adv-x="1361" d="M59 756q0 395 151.5 587.5t469.5 192.5q317 0 470 -192.5t153 -587.5q0 -281 -115 -446t-354 -226v-27q53 -18 105 -31.5t112.5 -22.5t132 -15t164.5 -11l-205 -260q-307 80 -514 168t-334 207t-181.5 279.5t-54.5 384.5zM395 756q0 -143 14.5 -240.5t47 -157t88 -85 t135.5 -25.5t135 25.5t89 85t48.5 156.5t14.5 241q0 145 -14.5 243.5t-48.5 158t-89 85t-135 25.5t-135.5 -25.5t-88 -85t-47 -158t-14.5 -243.5z" />
<glyph unicode="R" horiz-adv-x="1228" d="M115 0v1505q86 16 183 23.5t202 7.5q352 0 510.5 -123t158.5 -395q0 -330 -247 -438l290 -580h-348l-237 518q-18 -2 -37 -2h-37h-19.5h-32t-31.5 1t-19 1v-518h-336zM451 782q23 -4 54 -5t54 -1q74 0 125 12.5t83 41t45 74.5t13 114q0 70 -13 116t-46 74.5t-85 41 t-128 12.5q-16 0 -48 -2.5t-54 -6.5v-471z" />
<glyph unicode="S" horiz-adv-x="1044" d="M59 53l4 283q35 -16 83.5 -31.5t99.5 -27t102 -17.5t94 -6q225 0 226 176q0 45 -18.5 75t-52.5 51.5t-80 37.5t-101 35q-68 20 -130.5 51t-109.5 84t-75.5 135t-28.5 205q0 203 133 316.5t370 113.5q88 0 177.5 -13.5t185.5 -41.5l-4 -271q-41 12 -86 21.5t-89 16.5 t-84 11.5t-71 4.5q-196 0 -196 -156q0 -49 21.5 -82t60 -56.5t89 -44t109.5 -42.5q66 -25 123 -59t100 -85t68 -122.5t25 -172.5q0 -109 -35 -194.5t-99.5 -146t-156.5 -93.5t-209 -33q-104 0 -215 18.5t-230 59.5z" />
<glyph unicode="T" horiz-adv-x="1095" d="M33 1227v289h1030v-289h-348v-1227h-336v1227h-346z" />
<glyph unicode="U" horiz-adv-x="1357" d="M104 582v931h336v-911q0 -184 54.5 -262t183.5 -78q66 0 112 18.5t74.5 58.5t41 104.5t12.5 158.5v911h335v-931q0 -154 -30.5 -266.5t-98 -187.5t-177 -111.5t-269.5 -36.5q-158 0 -267.5 36.5t-177 111.5t-98.5 188.5t-31 265.5z" />
<glyph unicode="V" horiz-adv-x="1265" d="M-6 1516h330l239 -908l58 -315h28l60 315l237 908h322l-402 -1516h-463z" />
<glyph unicode="W" horiz-adv-x="1910" d="M8 1516h369l151 -914l23 -192h22l29 192l197 914h327l191 -914l29 -192h22l23 192l155 914h361l-346 -1516h-394l-176 776l-22 262h-23l-24 -262l-181 -776h-393z" />
<glyph unicode="X" horiz-adv-x="1282" d="M-25 0l451 780l-408 736h377l248 -478l8 -32h6l9 32l241 478h357l-412 -715l455 -801h-369l-299 535l-8 32h-8l-9 -32l-280 -535h-359z" />
<glyph unicode="Y" horiz-adv-x="1318" d="M-20 1516h380l263 -582l28 -105h19l30 105l265 582h372l-510 -998v-518h-335v516z" />
<glyph unicode="Z" horiz-adv-x="1105" d="M49 0v305l606 907v21h-575v283h946v-308l-606 -907v-18h637v-283h-1008z" />
<glyph unicode="[" horiz-adv-x="692" d="M127 -328v2106h526v-213h-274v-1680h274v-213h-526z" />
<glyph unicode="\" horiz-adv-x="692" d="M43 1516h279l327 -1762h-278z" />
<glyph unicode="]" horiz-adv-x="692" d="M37 -115h274v1680h-274v213h528v-2106h-528v213z" />
<glyph unicode="^" horiz-adv-x="862" d="M53 985l232 631h290l232 -631h-232l-141 430h-8l-141 -430h-232z" />
<glyph unicode="_" horiz-adv-x="1095" d="M68 -123h958v-239h-958v239z" />
<glyph unicode="`" horiz-adv-x="555" d="M18 1651h338l136 -381l-234 -21z" />
<glyph unicode="a" horiz-adv-x="1038" d="M37 317q0 322 397 347l187 12v8q0 61 -7.5 99t-27 59.5t-54 29t-90.5 7.5q-23 0 -61.5 -2.5t-82.5 -6.5t-85 -9t-68 -11l-20 235q92 16 187.5 26.5t183.5 10.5q238 0 344 -83t106 -269v-770h-270l-25 133h-16q-51 -63 -128 -103t-165 -40q-68 0 -124 23.5t-96 66.5 t-62.5 103.5t-22.5 133.5zM362 348q0 -57 27 -89t76 -32q35 0 78 21.5t78 44.5v188l-115 -12q-78 -8 -111 -35.5t-33 -85.5z" />
<glyph unicode="b" horiz-adv-x="1103" d="M94 63v1592h328v-660q98 129 274 129q352 0 353 -532q0 -137 -29 -248t-91.5 -190.5t-164 -123.5t-244.5 -48q-94 0 -201.5 20.5t-224.5 60.5zM422 221q20 -10 48.5 -16t59.5 -6q51 0 87 16t56.5 56t30 107.5t9.5 172.5q0 100 -7.5 166.5t-23.5 105.5t-43 54.5t-68 15.5 q-39 0 -66.5 -17.5t-46 -58.5t-27.5 -111.5t-9 -177.5v-307z" />
<glyph unicode="c" horiz-adv-x="862" d="M55 553q0 297 134.5 434t404.5 137q55 0 109.5 -8t99.5 -24v-254q-98 22 -168 22h-6q-129 0 -183.5 -70.5t-54.5 -234.5q0 -166 54.5 -238.5t181.5 -72.5q45 0 87 5t89 17v-252q-41 -16 -96.5 -24t-112.5 -8q-268 0 -403.5 137t-135.5 434z" />
<glyph unicode="d" horiz-adv-x="1105" d="M57 518q0 606 525 606q20 0 41.5 -2t60.5 -6v539h326v-1655h-299l-21 111h-8q-98 -129 -270 -129q-354 0 -355 536zM391 557q0 -100 7.5 -165.5t24.5 -105.5t43.5 -56.5t65.5 -16.5t68 17.5t47.5 58.5t27.5 111.5t9 177.5v307q-49 22 -108 22h-5q-51 0 -84.5 -16.5 t-55 -56t-31 -107.5t-9.5 -170z" />
<glyph unicode="e" horiz-adv-x="1017" d="M55 541q0 291 124 437t372 146q213 0 312.5 -127t99.5 -397q0 -59 -2.5 -91t-8.5 -67h-567q4 -63 16.5 -105t34 -66.5t55 -34t80.5 -9.5q59 0 149.5 15.5t194.5 42.5l11 -240q-76 -29 -179.5 -46t-193.5 -17q-248 0 -373 141t-125 418zM385 645h289q-4 129 -33.5 182.5 t-97.5 53.5q-76 0 -112 -53.5t-46 -182.5z" />
<glyph unicode="f" horiz-adv-x="739" d="M25 831v275h151v55q0 139 28.5 233.5t95.5 154t176.5 87t273.5 33.5l20 -246q-80 -6 -132 -19t-82 -40t-42 -70t-12 -106v-82h221v-275h-221v-831h-328v831h-149z" />
<glyph unicode="g" horiz-adv-x="1105" d="M59 518q0 299 131.5 452.5t391.5 153.5q96 0 198.5 -15t231.5 -50v-905q0 -605 -545 -605q-156 0 -334 48l23 239q170 -39 282 -39q139 0 196.5 67.5t57.5 227.5v58h-8q-98 -121 -262 -121q-362 0 -363 489zM393 557q0 -90 7.5 -149.5t23.5 -95.5t43 -51t68 -15 q39 0 66.5 16.5t46 55t27.5 102t9 158.5v307q-47 22 -106 22h-5q-51 0 -85.5 -16.5t-55 -56t-30 -107.5t-9.5 -170z" />
<glyph unicode="h" horiz-adv-x="1097" d="M96 0v1655h328v-654q57 37 102 61.5t83 38t73 19.5t74 6q117 0 183.5 -77.5t66.5 -217.5v-831h-326v715q0 127 -92 127q-63 0 -164 -60v-782h-328z" />
<glyph unicode="i" horiz-adv-x="522" d="M80 1436q0 92 42 134t138 42t139 -42t43 -134t-42 -134t-140 -42q-94 0 -137 40.5t-43 135.5zM98 0v1106h326v-1106h-326z" />
<glyph unicode="j" horiz-adv-x="522" d="M10 -383q20 57 36.5 130t28 151.5t17.5 162.5t6 168v877h328v-954q0 -68 -14.5 -148t-40 -161t-61.5 -156.5t-77 -137.5zM82 1436q0 92 42 134t138 42t139 -42t43 -134t-42 -134t-140 -42q-94 0 -137 40.5t-43 135.5z" />
<glyph unicode="k" horiz-adv-x="1073" d="M96 0v1655h328v-965h74l213 416h352l-303 -512l-49 -21v-6l51 -20l338 -547h-357l-245 451h-74v-451h-328z" />
<glyph unicode="l" horiz-adv-x="524" d="M98 0v1655h328v-1655h-328z" />
<glyph unicode="m" horiz-adv-x="1652" d="M96 0v1106h269l18 -119h6q61 41 108.5 68.5t86.5 43t75.5 21.5t77.5 6q156 0 221 -139h13q55 41 100 67.5t84 43t76 22.5t80 6q117 0 183.5 -77.5t66.5 -217.5v-831h-320v715q0 127 -98 127q-63 0 -154 -58v-784h-319v715q0 127 -101 127q-61 0 -153 -58v-784h-320z" />
<glyph unicode="n" horiz-adv-x="1097" d="M96 0v1106h277l18 -119h8q66 41 114 68.5t88 43t76 21.5t79 6q117 0 183.5 -77.5t66.5 -217.5v-831h-326v715q0 70 -25.5 98.5t-66.5 28.5q-37 0 -79 -16.5t-85 -43.5v-782h-328z" />
<glyph unicode="o" horiz-adv-x="1091" d="M55 553q0 285 124 429t366 144t365.5 -144t123.5 -429t-123.5 -429t-365.5 -144t-366 145t-124 428zM383 553q0 -98 7 -160.5t25.5 -99.5t49.5 -50.5t80 -13.5t79.5 13.5t49 50.5t26 99.5t7.5 160.5t-7.5 160.5t-26 99.5t-49 50.5t-79.5 13.5t-80 -13.5t-49.5 -50.5 t-25.5 -99.5t-7 -160.5z" />
<glyph unicode="p" horiz-adv-x="1105" d="M96 -451v1557h299l15 -111h8q47 61 119.5 95t160.5 34q352 0 353 -532q0 -291 -127 -450.5t-394 -159.5q-23 0 -47 2t-59 6v-441h-328zM424 221q40 -22 108 -22q51 0 87 16t56.5 56t30 107.5t9.5 172.5q0 100 -7.5 166.5t-23.5 105.5t-43 54.5t-68 15.5 q-39 0 -66.5 -17.5t-46 -58.5t-27.5 -111.5t-9 -177.5v-307z" />
<glyph unicode="q" horiz-adv-x="1103" d="M57 516q0 311 131 459.5t412 148.5q180 0 410 -53v-1522h-328v557q-97 -124 -267 -124h-3q-180 0 -267.5 131t-87.5 403zM383 571q0 -106 7 -175.5t24.5 -110.5t47.5 -57.5t75 -16.5q39 0 67.5 18.5t45 60.5t24.5 111.5t8 173.5v312q-41 20 -109 20q-57 0 -94 -14 t-58.5 -52t-29.5 -103.5t-8 -166.5z" />
<glyph unicode="r" horiz-adv-x="768" d="M96 0v1106h277l18 -162h15q8 14 37.5 38t70.5 50.5t87 51t85 40.5h62v-307h-134q-25 -4 -53.5 -13t-55 -22.5t-49 -28t-32.5 -26.5v-727h-328z" />
<glyph unicode="s" horiz-adv-x="876" d="M68 37v239q66 -25 153.5 -41t165.5 -16q133 0 133 94q0 84 -123 105q-49 6 -106.5 18.5t-106.5 47t-81.5 100t-32.5 182.5q0 174 98 267t281 93q72 0 156.5 -11t168.5 -32v-239q-96 20 -150.5 28.5t-103.5 8.5q-147 0 -147 -101q0 -49 29.5 -70.5t82.5 -31.5 q55 -10 116 -24.5t112 -49.5t84.5 -98.5t33.5 -167.5q0 -172 -113.5 -265t-322.5 -93q-160 0 -327 57z" />
<glyph unicode="t" horiz-adv-x="761" d="M20 831v275h181l43 317l264 33v-350h213v-275h-211v-446q0 -86 27.5 -121t85.5 -35q23 0 47 3.5t53 11.5v-236q-41 -10 -89 -15t-95 -5q-176 0 -266.5 81t-90.5 234v528h-162z" />
<glyph unicode="u" horiz-adv-x="1095" d="M90 274v832h328v-723q0 -66 24.5 -95.5t75.5 -29.5q35 0 70 13.5t84 47.5v787h327v-1106h-276l-18 113h-9q-59 -39 -102 -64.5t-79 -41t-68.5 -21.5t-69.5 -6q-133 0 -210 78.5t-77 215.5z" />
<glyph unicode="v" horiz-adv-x="1075" d="M6 1087v19h336l164 -676l22 -147h19l22 147l164 676h336v-19l-342 -1087h-379z" />
<glyph unicode="w" horiz-adv-x="1511" d="M33 1098v8h297l88 -645l16 -125h25l18 125l119 645h319l119 -645l21 -125h22l19 125l88 645h295v-8l-211 -1098h-369l-119 621l-12 112h-25l-12 -112l-119 -621h-368z" />
<glyph unicode="x" horiz-adv-x="1073" d="M10 0v27l293 548l-283 512v19h345l141 -303l26 -72h17l24 72l136 303h346v-19l-285 -538l293 -522v-27h-340l-156 342l-24 78h-21l-24 -78l-148 -342h-340z" />
<glyph unicode="y" horiz-adv-x="1093" d="M2 1081v25h332l176 -635l25 -147h20l27 147l176 635h332v-25l-506 -1532l-328 68v14l121 369z" />
<glyph unicode="z" horiz-adv-x="894" d="M57 0v227l400 609v14h-387v256h751v-227l-397 -609v-14h418v-256h-785z" />
<glyph unicode="{" horiz-adv-x="669" d="M37 608v242q74 0 103.5 48t29.5 140v490q0 137 53 193.5t176 56.5q20 0 55 -1t70 -3t64.5 -3.5t38.5 -3.5v-202h-97q-53 0 -75.5 -21.5t-22.5 -70.5v-500q0 -96 -44 -163t-116 -83q72 -14 116 -79.5t44 -160.5v-503q0 -51 22.5 -73t75.5 -22h97v-202q-8 -2 -38 -4 t-65 -3.5t-69.5 -2.5t-55.5 -1q-123 0 -176 56.5t-53 195.5v494q0 92 -29.5 139t-103.5 47z" />
<glyph unicode="|" horiz-adv-x="559" d="M127 -451v2106h305v-2106h-305z" />
<glyph unicode="}" horiz-adv-x="669" d="M41 -111h98q53 0 76 21.5t23 73.5v503q0 94 44 160t115 80q-72 16 -115.5 83t-43.5 163v500q0 49 -22.5 70.5t-76.5 21.5h-98v202q8 2 38 3.5t65.5 3.5t70.5 3t53 1q125 0 177.5 -56.5t52.5 -193.5v-490q0 -92 30.5 -140t102.5 -48v-242q-72 0 -102.5 -47t-30.5 -139 v-494q0 -139 -52.5 -195.5t-177.5 -56.5q-18 0 -53 1t-70.5 2.5t-65.5 3.5t-38 4v202z" />
<glyph unicode="~" horiz-adv-x="1191" d="M61 551q57 82 102.5 135t83.5 85t74.5 44t79.5 12q57 0 104.5 -23.5t89.5 -51t83 -51t86 -23.5q98 0 174 153l195 -116q-29 -43 -63 -92.5t-76 -91.5t-92 -69.5t-107 -27.5t-105.5 23.5t-91.5 52.5t-83 52.5t-83 23.5q-90 0 -180 -154z" />
<glyph unicode="&#xa1;" horiz-adv-x="522" d="M74 942q0 86 49 132t137 46q90 0 139.5 -46t49.5 -132q0 -84 -49.5 -130t-139.5 -46q-88 0 -137 45t-49 131zM86 -389l74 956v23h205v-23l69 -956v-21h-348v21z" />
<glyph unicode="&#xa2;" horiz-adv-x="884" d="M53 553q0 256 99.5 392t302.5 169v238h204v-232q78 -6 142 -28v-254q-102 23 -174 22q-129 0 -183.5 -70.5t-54.5 -234.5q0 -166 54.5 -238.5t181.5 -72.5q45 0 87 5t89 17v-252q-59 -23 -142 -28v-232h-204v238q-203 31 -302.5 167t-99.5 394z" />
<glyph unicode="&#xa3;" horiz-adv-x="1198" d="M66 0v285h219v350h-219v254h219v201q0 229 108.5 336.5t345.5 107.5q84 0 180.5 -13.5t219.5 -39.5l-13 -264q-37 8 -78.5 16t-84.5 13t-84 8t-72 3q-104 0 -145 -37.5t-41 -138.5v-192h337v-254h-337v-354h489v-281h-1044z" />
<glyph unicode="&#xa4;" horiz-adv-x="1187" d="M61 346l113 111l115 86q-55 88 -56 215q0 125 56 215l-115 86l-113 110l119 121l111 -112l84 -113q88 66 217 65q127 0 217 -67l86 115l111 112l118 -121l-112 -110l-119 -88q27 -45 41 -98.5t14 -114.5q0 -125 -53 -213l117 -88l112 -111l-118 -121l-111 113l-84 113 q-90 -68 -219 -68t-219 66l-82 -111l-111 -113zM434 758q0 -98 43 -151.5t115 -53.5t114 52t42 153q0 98 -41 150.5t-115 52.5q-72 0 -115 -52.5t-43 -150.5z" />
<glyph unicode="&#xa5;" horiz-adv-x="1431" d="M39 1516h381l262 -582l29 -105h18l31 105l264 582h373l-400 -781h230v-231h-340v-144h340v-231h-340v-129h-336v129h-352v231h352v144h-352v231h239z" />
<glyph unicode="&#xa6;" horiz-adv-x="552" d="M123 420h307v-871h-307v871zM123 784v871h307v-871h-307z" />
<glyph unicode="&#xa7;" horiz-adv-x="923" d="M84 37v239q66 -25 155 -41t167 -16q133 0 133 94q0 86 -123 105q-49 6 -106.5 18.5t-106.5 48t-82 101t-33 180.5q0 129 55 215q-25 35 -40 87t-15 128q0 172 98.5 265t280.5 93q72 0 157 -11t167 -30v-241q-47 12 -84 19t-66 11.5t-53.5 6.5t-48.5 2q-147 0 -148 -101 q0 -51 30 -71.5t83 -30.5t113.5 -24.5t111.5 -50.5t85 -98.5t34 -168.5q0 -131 -66 -215q31 -37 48.5 -88t17.5 -125q0 -172 -112.5 -265t-323.5 -93q-78 0 -161 14t-167 43zM375 780q0 -49 17.5 -71.5t51.5 -36.5q18 -6 39.5 -12.5t46.5 -10.5q10 16 17.5 41t7.5 53 q0 72 -63 99l-68 24q-49 -37 -49 -86z" />
<glyph unicode="&#xa8;" horiz-adv-x="970" d="M82 1415q0 84 39 121t125 37q84 0 124 -36t40 -122q0 -84 -40 -121t-124 -37q-86 0 -125 37t-39 121zM551 1415q0 84 38 121t124 37q84 0 124 -36t40 -122q0 -84 -40 -121t-124 -37q-86 0 -124 37t-38 121z" />
<glyph unicode="&#xa9;" horiz-adv-x="1642" d="M63 758q0 174 54.5 317.5t153 245.5t238.5 158.5t312 56.5t312.5 -56.5t238.5 -158.5t152.5 -245.5t54.5 -317.5t-54.5 -317.5t-152.5 -246t-238.5 -158.5t-312.5 -56t-312 56t-238.5 158.5t-153 246t-54.5 317.5zM250 758q0 -135 39 -247t112.5 -190.5t179 -121.5 t240.5 -43q133 0 238.5 43t179.5 121.5t113 190.5t39 247t-39 246.5t-113 191.5t-179.5 123t-238.5 43q-135 0 -240.5 -43t-179 -123t-112.5 -191.5t-39 -246.5zM467 754q0 422 385 422q49 0 99 -6.5t87 -16.5v-184q-51 10 -91 14t-68 4q-109 0 -150 -55t-41 -176 q0 -123 41 -178.5t145 -55.5q57 0 166 19v-183q-39 -10 -89 -16t-99 -6q-385 0 -385 418z" />
<glyph unicode="&#xaa;" horiz-adv-x="837" d="M51 952q0 111 67.5 172.5t203.5 67.5l170 8v10q0 43 -4.5 69t-16.5 39t-34.5 17t-59.5 4q-51 0 -117.5 -5t-130.5 -15l-16 178q150 31 290 31q184 0 265.5 -60.5t81.5 -193.5v-553h-224l-10 96h-8q-41 -49 -103.5 -76.5t-128.5 -27.5q-104 0 -164.5 64.5t-60.5 174.5z M311 973q0 -86 72 -86q23 0 51.5 14t57.5 37v127l-93 -8q-51 -4 -69.5 -23.5t-18.5 -60.5z" />
<glyph unicode="&#xab;" horiz-adv-x="1161" d="M49 549v8l193 487h327l-192 -487v-8l192 -488h-327zM588 549v8l192 487h328l-193 -487v-8l193 -488h-328z" />
<glyph unicode="&#xac;" horiz-adv-x="1519" d="M74 633v264h1345v-692h-319v428h-1026z" />
<glyph unicode="&#xad;" horiz-adv-x="811" d="M90 453v241h631v-241h-631z" />
<glyph unicode="&#xae;" horiz-adv-x="1388" d="M68 915q0 139 45 254t128 198t197.5 128t255.5 45t257 -45t199 -128t128 -197.5t45 -254.5q0 -139 -45 -252.5t-128 -196.5t-199 -128t-257 -45t-255.5 45t-197.5 128t-128 196.5t-45 252.5zM219 915q0 -109 33 -197.5t94.5 -151t149 -97.5t198.5 -35t199 35t149.5 97.5 t94 151.5t32.5 197q0 109 -32.5 198t-94 152.5t-149.5 98.5t-199 35t-198.5 -35t-149 -98.5t-94.5 -152.5t-33 -198zM471 610v641q53 4 103.5 7.5t97.5 3.5q281 0 280 -209q0 -70 -30.5 -118t-90.5 -67v-6l136 -252h-150l-108 215h-93v-215h-145zM616 940q4 -2 27 -2h31 q74 0 101.5 26.5t27.5 86.5q0 49 -25.5 76.5t-91.5 27.5q-6 0 -33.5 -1t-36.5 -1v-213z" />
<glyph unicode="&#xaf;" horiz-adv-x="856" d="M92 1278v201h658v-201h-658z" />
<glyph unicode="&#xb0;" horiz-adv-x="833" d="M47 1147q0 84 26.5 155.5t76 124t118 81t150.5 28.5t149.5 -28.5t116.5 -81t75.5 -124t26.5 -155.5t-26.5 -155.5t-75.5 -123t-116.5 -80t-149.5 -28.5t-150.5 28.5t-118 80t-76 123t-26.5 155.5zM225 1147q0 -98 47.5 -155.5t145.5 -57.5q96 0 143 57.5t47 155.5 t-47 156.5t-143 58.5q-98 0 -145.5 -58.5t-47.5 -156.5z" />
<glyph unicode="&#xb1;" horiz-adv-x="1073" d="M90 100v236h895v-236h-895zM90 754v233h328v326h235v-326h330v-233h-330v-310h-235v310h-328z" />
<glyph unicode="&#xb2;" horiz-adv-x="813" d="M49 614v205q0 63 14.5 115.5t47 99.5t85 91t128.5 92q84 53 116.5 95t32.5 93q0 106 -162 106q-51 0 -106 -8t-109 -18l-24 221q86 20 168 31.5t149 11.5q371 0 371 -313q0 -121 -52.5 -203t-156.5 -148q-207 -135 -207 -208v-31h408v-232h-703z" />
<glyph unicode="&#xb3;" horiz-adv-x="759" d="M59 1722q104 27 224 27q207 0 303 -68.5t96 -216.5q0 -211 -168 -270q96 -31 146.5 -99.5t50.5 -168.5q0 -156 -111.5 -241t-316.5 -85q-59 0 -112.5 6t-109.5 17v237h21q33 -10 76 -16t84 -6q102 0 147 27.5t45 86.5q0 66 -45 94.5t-158 28.5h-61v211h59q92 0 133 27.5 t41 87.5q0 113 -145 112q-76 0 -176 -20h-19z" />
<glyph unicode="&#xb4;" horiz-adv-x="540" d="M49 1268l135 383h338l-237 -402z" />
<glyph unicode="&#xb5;" horiz-adv-x="1163" d="M125 -451v1557h326v-735q0 -57 27.5 -86t76.5 -29q57 0 152 59v791h327v-1106h-276l-19 113h-8q-51 -35 -90 -58.5t-71.5 -39t-61.5 -23.5t-57 -10v-433h-326z" />
<glyph unicode="&#xb6;" horiz-adv-x="1120" d="M51 1034q0 137 29 231.5t83 152t130 83t170 25.5q43 0 95 -5t104 -16v-1505h-150v545q-16 -2 -24.5 -2h-20.5q-96 0 -173 25.5t-130 83t-83 151.5t-30 231zM776 0v1505h199v-1505h-199z" />
<glyph unicode="&#xb7;" horiz-adv-x="501" d="M70 758q0 94 42 136t138 42q94 0 138 -42t44 -136t-44 -136t-138 -42q-96 0 -138 42t-42 136z" />
<glyph unicode="&#xb8;" horiz-adv-x="534" d="M49 -233q39 -10 74 -12.5t47 -2.5q41 0 59.5 20.5t18.5 49.5q0 47 -33 115.5t-86 142.5h203q35 -47 60.5 -87t41 -77t22.5 -74t7 -75q0 -98 -61.5 -158t-180.5 -60q-35 0 -78 5.5t-94 19.5v193z" />
<glyph unicode="&#xb9;" horiz-adv-x="661" d="M10 1491l8 43l322 199h213v-1119h-287v820l-172 -66h-41z" />
<glyph unicode="&#xba;" horiz-adv-x="870" d="M53 1118q0 209 99.5 310.5t281.5 101.5q186 0 284.5 -101.5t98.5 -310.5t-98.5 -310t-284.5 -101q-182 0 -281.5 101t-99.5 310zM311 1118q0 -68 4 -111.5t17.5 -68.5t37 -34t64.5 -9t65.5 9t38 34t17.5 69t4 111q0 68 -4 111t-17.5 68.5t-38 34.5t-65.5 9t-64.5 -9 t-37 -34.5t-17.5 -68.5t-4 -111z" />
<glyph unicode="&#xbb;" horiz-adv-x="1161" d="M53 61l193 488v8l-193 487h328l192 -487v-8l-192 -488h-328zM590 61l192 488v8l-192 487h328l192 -487v-8l-192 -488h-328z" />
<glyph unicode="&#xbc;" horiz-adv-x="2048" d="M39 1286l8 43l322 199h213v-1118h-287v819l-172 -66h-41zM563 0l533 1516h262l-533 -1516h-262zM1171 393l334 705l23 18l246 -16l16 -29l-348 -641h190l80 293h176v-293h107v-205h-107v-225h-286v225h-400z" />
<glyph unicode="&#xbd;" horiz-adv-x="2072" d="M39 1286l8 43l322 199h213v-1118h-287v819l-172 -66h-41zM563 0l533 1516h262l-533 -1516h-262zM1286 0v205q0 63 13.5 114.5t46 97.5t85 91t130.5 94q86 53 117.5 94t31.5 95q0 106 -160 106q-59 0 -120.5 -7t-96.5 -20l-24 222q94 23 175 33t142 10q371 0 371 -314 q0 -115 -49.5 -196.5t-159.5 -153.5q-207 -137 -207 -209v-31h408v-231h-703z" />
<glyph unicode="&#xbe;" horiz-adv-x="2011" d="M80 1518q104 27 223 26q207 0 303 -68.5t96 -215.5q0 -211 -167 -271q96 -31 146 -99.5t50 -168.5q0 -156 -111.5 -241t-316.5 -85q-59 0 -112.5 6.5t-108.5 16.5v237h20q33 -10 76 -16t84 -6q102 0 147.5 27.5t45.5 87.5q0 66 -45 94t-158 28h-62v211h60q92 0 133 28 t41 87q0 113 -145 113q-76 0 -177 -21h-18zM614 0l533 1516h262l-532 -1516h-263zM1143 393l334 705l22 18l246 -16l16 -29l-348 -641h191l79 293h177v-293h106v-205h-106v-225h-287v225h-399z" />
<glyph unicode="&#xbf;" horiz-adv-x="856" d="M43 -20q0 174 100.5 275t264.5 134l14 217v31h205v-29l30 -366q-139 -31 -213.5 -81t-74.5 -153q0 -94 54 -135t146 -41q27 0 57.5 3t61.5 7t58.5 11.5t48.5 13.5l14 -248q-145 -43 -305 -43q-213 0 -337 100.5t-124 303.5zM334 944q0 86 49 132t137 46q90 0 138.5 -46 t48.5 -132t-48.5 -131t-138.5 -45q-88 0 -137 45t-49 131z" />
<glyph unicode="&#xc0;" d="M-2 0v14l383 1502h508l383 -1502v-14h-316l-94 362h-456l-93 -362h-315zM276 1993h336l138 -355l-236 -22zM469 631h330l-101 409l-53 224h-22l-52 -224z" />
<glyph unicode="&#xc1;" d="M-2 0v14l383 1502h508l383 -1502v-14h-316l-94 362h-456l-93 -362h-315zM469 631h330l-101 409l-53 224h-22l-52 -224zM508 1634l135 359h336l-236 -377z" />
<glyph unicode="&#xc2;" d="M-2 0v14l383 1502h508l383 -1502v-14h-316l-94 362h-456l-93 -362h-315zM307 1622v221l332 148l330 -148v-221l-332 147zM469 631h330l-101 409l-53 224h-22l-52 -224z" />
<glyph unicode="&#xc3;" d="M-2 0v14l383 1502h508l383 -1502v-14h-316l-94 362h-456l-93 -362h-315zM268 1712q59 119 133 178.5t148 59.5q39 0 77 -12.5t75.5 -28t75.5 -27.5t77 -12t74 18.5t76 61.5l49 -43q-55 -123 -129 -181.5t-148 -58.5q-41 0 -79 12.5t-75.5 26.5t-74.5 26.5t-76 12.5 q-41 0 -78 -17.5t-78 -58.5zM469 631h330l-101 409l-53 224h-22l-52 -224z" />
<glyph unicode="&#xc4;" d="M-2 0v14l383 1502h508l383 -1502v-14h-316l-94 362h-456l-93 -362h-315zM205 1819q0 92 42 133t138 41q94 0 138 -41t44 -133q0 -96 -44 -137.5t-138 -41.5q-96 0 -138 42t-42 137zM469 631h330l-101 409l-53 224h-22l-52 -224zM707 1819q0 92 42 133t138 41 q94 0 138 -41t44 -133q0 -96 -44 -137.5t-138 -41.5q-96 0 -138 42t-42 137z" />
<glyph unicode="&#xc5;" d="M-2 0v14l383 1502h508l383 -1502v-14h-316l-94 362h-456l-93 -362h-315zM393 1778q0 98 66.5 164.5t171.5 66.5q106 0 172.5 -66.5t66.5 -164.5t-66.5 -164t-172.5 -66q-104 0 -171 65.5t-67 164.5zM469 631h330l-101 409l-53 224h-22l-52 -224zM518 1778q0 -59 25 -87 t88 -28q61 0 86.5 27.5t25.5 87.5q0 59 -25.5 87.5t-86.5 28.5q-63 0 -88 -28.5t-25 -87.5z" />
<glyph unicode="&#xc6;" horiz-adv-x="1691" d="M-6 0v12l446 1504h1166v-281h-508l20 -334h463v-283h-444l22 -337h465v-281h-788l-15 356h-381l-102 -356h-344zM520 637h289l-25 620h-84z" />
<glyph unicode="&#xc7;" horiz-adv-x="1030" d="M61 758q0 401 158 588.5t463 187.5q143 0 295 -33v-266q-61 10 -126 16t-118 6q-90 0 -152.5 -21.5t-100.5 -77.5t-55 -153.5t-17 -248.5q0 -150 17 -246t56 -152.5t100.5 -78t149.5 -21.5q63 0 125 6t121 21v-260q-39 -16 -106.5 -26.5t-145.5 -14.5q35 -59 50.5 -108.5 t15.5 -108.5q0 -98 -61.5 -158t-180.5 -60q-35 0 -78 5.5t-94 19.5v193q39 -10 73.5 -12.5t47.5 -2.5q41 0 59 20.5t18 49.5q0 35 -17 80t-48 96q-225 47 -337 233.5t-112 526.5z" />
<glyph unicode="&#xc8;" horiz-adv-x="1112" d="M115 0v1516h919v-281h-583v-334h520v-283h-520v-337h602v-281h-938zM221 1993h336l137 -355l-235 -22z" />
<glyph unicode="&#xc9;" horiz-adv-x="1112" d="M115 0v1516h919v-281h-583v-334h520v-283h-520v-337h602v-281h-938zM455 1634l135 359h336l-236 -377z" />
<glyph unicode="&#xca;" horiz-adv-x="1112" d="M115 0v1516h919v-281h-583v-334h520v-283h-520v-337h602v-281h-938zM254 1622v221l332 148l329 -148v-221l-331 147z" />
<glyph unicode="&#xcb;" horiz-adv-x="1112" d="M115 0v1516h919v-281h-583v-334h520v-283h-520v-337h602v-281h-938zM152 1819q0 92 42 133t138 41q94 0 138 -41t44 -133q0 -96 -44 -137.5t-138 -41.5q-96 0 -138 42t-42 137zM653 1819q0 92 42 133t139 41q94 0 138 -41t44 -133q0 -96 -44 -137.5t-138 -41.5 q-96 0 -138.5 42t-42.5 137z" />
<glyph unicode="&#xcc;" horiz-adv-x="565" d="M-78 1993h336l137 -355l-235 -22zM115 0v1516h336v-1516h-336z" />
<glyph unicode="&#xcd;" horiz-adv-x="565" d="M115 0v1516h336v-1516h-336zM154 1634l135 359h336l-236 -377z" />
<glyph unicode="&#xce;" horiz-adv-x="565" d="M-45 1622v221l332 148l329 -148v-221l-331 147zM115 0v1516h336v-1516h-336z" />
<glyph unicode="&#xcf;" horiz-adv-x="565" d="M-150 1819q0 92 42 133t139 41q94 0 138 -41t44 -133q0 -96 -44 -137.5t-138 -41.5q-96 0 -138.5 42t-42.5 137zM115 0v1516h336v-1516h-336zM352 1819q0 92 42 133t138 41q94 0 138.5 -41t44.5 -133q0 -96 -44.5 -137.5t-138.5 -41.5q-96 0 -138 42t-42 137z" />
<glyph unicode="&#xd0;" horiz-adv-x="1351" d="M-4 637v252h166v622q131 12 219 17.5t164 5.5q203 0 344 -42t230 -135t129 -241.5t40 -359.5q0 -213 -41 -361.5t-132 -243t-236.5 -136.5t-354.5 -42q-72 0 -156.5 5.5t-205.5 17.5v641h-166zM492 256q53 -6 85.5 -8t61.5 -2q86 0 144.5 23.5t94 82t50 156.5t14.5 250 q0 147 -15.5 245.5t-54 157t-103 82t-163.5 23.5q-41 0 -66.5 -2t-47.5 -9v-366h182v-252h-182v-381z" />
<glyph unicode="&#xd1;" horiz-adv-x="1392" d="M115 0v1516h280l488 -766l80 -162h18v928h297v-1516h-281l-491 772l-76 160h-20v-932h-295zM309 1712q59 119 133 178.5t148 59.5q39 0 77 -12.5t75.5 -28t75.5 -27.5t77 -12t74 18.5t75 61.5l50 -43q-55 -123 -129 -181.5t-148 -58.5q-41 0 -79 12.5t-75.5 26.5 t-74.5 26.5t-76 12.5q-41 0 -78 -17.5t-78 -58.5z" />
<glyph unicode="&#xd2;" horiz-adv-x="1368" d="M61 756q0 395 154 587.5t467 192.5q317 0 471 -192.5t154 -587.5q0 -397 -153 -586.5t-472 -189.5q-313 0 -467 191t-154 585zM322 1993h335l138 -355l-236 -22zM406 756q0 -137 14 -232.5t47 -155t86 -86t129 -26.5q78 0 131 25.5t87 85t48.5 154.5t14.5 235 q0 141 -14.5 237.5t-47.5 155.5t-87 85t-132 26q-76 0 -129 -27t-86 -86.5t-47 -155.5t-14 -235z" />
<glyph unicode="&#xd3;" horiz-adv-x="1368" d="M61 756q0 395 154 587.5t467 192.5q317 0 471 -192.5t154 -587.5q0 -397 -153 -586.5t-472 -189.5q-313 0 -467 191t-154 585zM406 756q0 -137 14 -232.5t47 -155t86 -86t129 -26.5q78 0 131 25.5t87 85t48.5 154.5t14.5 235q0 141 -14.5 237.5t-47.5 155.5t-87 85 t-132 26q-76 0 -129 -27t-86 -86.5t-47 -155.5t-14 -235zM555 1634l135 359h336l-235 -377z" />
<glyph unicode="&#xd4;" horiz-adv-x="1368" d="M61 756q0 395 154 587.5t467 192.5q317 0 471 -192.5t154 -587.5q0 -397 -153 -586.5t-472 -189.5q-313 0 -467 191t-154 585zM354 1622v221l332 148l330 -148v-221l-332 147zM406 756q0 -137 14 -232.5t47 -155t86 -86t129 -26.5q78 0 131 25.5t87 85t48.5 154.5 t14.5 235q0 141 -14.5 237.5t-47.5 155.5t-87 85t-132 26q-76 0 -129 -27t-86 -86.5t-47 -155.5t-14 -235z" />
<glyph unicode="&#xd5;" horiz-adv-x="1368" d="M61 756q0 395 154 587.5t467 192.5q317 0 471 -192.5t154 -587.5q0 -397 -153 -586.5t-472 -189.5q-313 0 -467 191t-154 585zM315 1712q59 119 133 178.5t148 59.5q39 0 77 -12.5t75.5 -28t75.5 -27.5t77 -12t74 18.5t76 61.5l49 -43q-55 -123 -129 -181.5t-148 -58.5 q-41 0 -78.5 12.5t-75.5 26.5t-75 26.5t-76 12.5q-41 0 -78 -17.5t-78 -58.5zM406 756q0 -137 14 -232.5t47 -155t86 -86t129 -26.5q78 0 131 25.5t87 85t48.5 154.5t14.5 235q0 141 -14.5 237.5t-47.5 155.5t-87 85t-132 26q-76 0 -129 -27t-86 -86.5t-47 -155.5t-14 -235z " />
<glyph unicode="&#xd6;" horiz-adv-x="1368" d="M61 756q0 395 154 587.5t467 192.5q317 0 471 -192.5t154 -587.5q0 -397 -153 -586.5t-472 -189.5q-313 0 -467 191t-154 585zM252 1819q0 92 42 133t138 41q94 0 138 -41t44 -133q0 -96 -44 -137.5t-138 -41.5q-96 0 -138 42t-42 137zM406 756q0 -137 14 -232.5t47 -155 t86 -86t129 -26.5q78 0 131 25.5t87 85t48.5 154.5t14.5 235q0 141 -14.5 237.5t-47.5 155.5t-87 85t-132 26q-76 0 -129 -27t-86 -86.5t-47 -155.5t-14 -235zM754 1819q0 92 42 133t138 41q94 0 138 -41t44 -133q0 -96 -44 -137.5t-138 -41.5q-96 0 -138 42t-42 137z" />
<glyph unicode="&#xd7;" horiz-adv-x="1005" d="M59 483l275 275l-275 276l168 166l275 -274l274 274l168 -166l-276 -276l276 -275l-166 -168l-276 277l-275 -277z" />
<glyph unicode="&#xd8;" horiz-adv-x="1376" d="M8 0l170 231q-111 190 -110 525q0 395 152.5 587.5t465.5 192.5q233 0 379 -104l61 84h246l-172 -236q111 -190 111 -524q0 -397 -152.5 -586.5t-472.5 -189.5q-227 0 -371 100l-59 -80h-248zM412 756q0 -57 2 -105.5t6 -91.5l461 623q-66 78 -195 78q-76 0 -128 -27 t-85 -86.5t-47 -155.5t-14 -235zM500 330q61 -74 186 -74q78 0 131 25.5t87 85t48.5 154.5t14.5 235q0 55 -3 104t-8 92z" />
<glyph unicode="&#xd9;" horiz-adv-x="1357" d="M104 582v931h336v-911q0 -184 54.5 -262t183.5 -78q66 0 112 18.5t74.5 58.5t41 104.5t12.5 158.5v911h335v-931q0 -154 -30.5 -266.5t-98 -187.5t-177 -111.5t-269.5 -36.5q-158 0 -267.5 36.5t-177 111.5t-98.5 188.5t-31 265.5zM305 1993h336l137 -355l-235 -22z" />
<glyph unicode="&#xda;" horiz-adv-x="1357" d="M104 582v931h336v-911q0 -184 54.5 -262t183.5 -78q66 0 112 18.5t74.5 58.5t41 104.5t12.5 158.5v911h335v-931q0 -154 -30.5 -266.5t-98 -187.5t-177 -111.5t-269.5 -36.5q-158 0 -267.5 36.5t-177 111.5t-98.5 188.5t-31 265.5zM537 1634l135 359h336l-236 -377z" />
<glyph unicode="&#xdb;" horiz-adv-x="1357" d="M104 582v931h336v-911q0 -184 54.5 -262t183.5 -78q66 0 112 18.5t74.5 58.5t41 104.5t12.5 158.5v911h335v-931q0 -154 -30.5 -266.5t-98 -187.5t-177 -111.5t-269.5 -36.5q-158 0 -267.5 36.5t-177 111.5t-98.5 188.5t-31 265.5zM336 1622v221l332 148l329 -148v-221 l-331 147z" />
<glyph unicode="&#xdc;" horiz-adv-x="1357" d="M104 582v931h336v-911q0 -184 54.5 -262t183.5 -78q66 0 112 18.5t74.5 58.5t41 104.5t12.5 158.5v911h335v-931q0 -154 -30.5 -266.5t-98 -187.5t-177 -111.5t-269.5 -36.5q-158 0 -267.5 36.5t-177 111.5t-98.5 188.5t-31 265.5zM233 1819q0 92 42 133t139 41 q94 0 138 -41t44 -133q0 -96 -44 -137.5t-138 -41.5q-96 0 -138.5 42t-42.5 137zM735 1819q0 92 42 133t138 41q94 0 138.5 -41t44.5 -133q0 -96 -44.5 -137.5t-138.5 -41.5q-96 0 -138 42t-42 137z" />
<glyph unicode="&#xdd;" horiz-adv-x="1318" d="M-20 1516h380l263 -582l28 -105h19l30 105l265 582h372l-510 -998v-518h-335v516zM532 1634l136 359h336l-236 -377z" />
<glyph unicode="&#xde;" horiz-adv-x="1208" d="M115 0v1516h336v-226h49q176 0 303 -30.5t208 -97t119.5 -169t38.5 -243.5q0 -139 -37.5 -240.5t-116.5 -166t-202 -95.5t-295 -31h-67v-217h-336zM451 487q6 0 21 -1t32.5 -1h33h21.5q74 0 125 13.5t83 44t45 82t13 125.5t-13 125t-45 81.5t-84 45t-130 14.5h-18.5 t-31 -1t-31.5 -2t-21 -1v-525z" />
<glyph unicode="&#xdf;" horiz-adv-x="1329" d="M96 0v1169q0 256 128 375t405 119q279 0 405.5 -119t126.5 -375v-288h-155q-80 0 -122 -28t-42 -73q0 -49 30.5 -70.5t83.5 -31.5t113.5 -24.5t112 -49.5t85 -98.5t33.5 -167.5q0 -172 -112.5 -265t-323.5 -93q-160 0 -327 57v239q33 -12 71.5 -22t81.5 -18.5t86 -12.5 t82 -4q131 0 131 94q0 43 -28.5 69t-94.5 36q-49 6 -106.5 18.5t-106.5 47t-81.5 101t-32.5 181.5q0 135 78.5 227t216.5 121v55q0 131 -45.5 185.5t-159.5 54.5q-115 0 -160 -53t-45 -187v-1169h-328z" />
<glyph unicode="&#xe0;" horiz-adv-x="1038" d="M37 317q0 322 397 347l187 12v8q0 61 -7.5 99t-27 59.5t-54 29t-90.5 7.5q-23 0 -61.5 -2.5t-82.5 -6.5t-85 -9t-68 -11l-20 235q92 16 187.5 26.5t183.5 10.5q238 0 344 -83t106 -269v-770h-270l-25 133h-16q-51 -63 -128 -103t-165 -40q-68 0 -124 23.5t-96 66.5 t-62.5 103.5t-22.5 133.5zM162 1651h338l135 -381l-234 -21zM362 348q0 -57 27 -89t76 -32q35 0 78 21.5t78 44.5v188l-115 -12q-78 -8 -111 -35.5t-33 -85.5z" />
<glyph unicode="&#xe1;" horiz-adv-x="1038" d="M37 317q0 322 397 347l187 12v8q0 61 -7.5 99t-27 59.5t-54 29t-90.5 7.5q-23 0 -61.5 -2.5t-82.5 -6.5t-85 -9t-68 -11l-20 235q92 16 187.5 26.5t183.5 10.5q238 0 344 -83t106 -269v-770h-270l-25 133h-16q-51 -63 -128 -103t-165 -40q-68 0 -124 23.5t-96 66.5 t-62.5 103.5t-22.5 133.5zM362 348q0 -57 27 -89t76 -32q35 0 78 21.5t78 44.5v188l-115 -12q-78 -8 -111 -35.5t-33 -85.5zM408 1268l135 383h338l-238 -402z" />
<glyph unicode="&#xe2;" horiz-adv-x="1038" d="M37 317q0 322 397 347l187 12v8q0 61 -7.5 99t-27 59.5t-54 29t-90.5 7.5q-23 0 -61.5 -2.5t-82.5 -6.5t-85 -9t-68 -11l-20 235q92 16 187.5 26.5t183.5 10.5q238 0 344 -83t106 -269v-770h-270l-25 133h-16q-51 -63 -128 -103t-165 -40q-68 0 -124 23.5t-96 66.5 t-62.5 103.5t-22.5 133.5zM213 1255v222l332 145l329 -145v-222l-331 146zM362 348q0 -57 27 -89t76 -32q35 0 78 21.5t78 44.5v188l-115 -12q-78 -8 -111 -35.5t-33 -85.5z" />
<glyph unicode="&#xe3;" horiz-adv-x="1038" d="M37 317q0 322 397 347l187 12v8q0 61 -7.5 99t-27 59.5t-54 29t-90.5 7.5q-23 0 -61.5 -2.5t-82.5 -6.5t-85 -9t-68 -11l-20 235q92 16 187.5 26.5t183.5 10.5q238 0 344 -83t106 -269v-770h-270l-25 133h-16q-51 -63 -128 -103t-165 -40q-68 0 -124 23.5t-96 66.5 t-62.5 103.5t-22.5 133.5zM150 1348q57 109 131.5 161t146.5 52q39 0 78 -17.5t75.5 -39t74.5 -39t77 -17.5q35 0 66.5 19.5t66.5 68.5l68 -76q-55 -113 -130 -164t-149 -51q-39 0 -76.5 17.5t-75.5 38t-76 38t-77 17.5q-35 0 -67.5 -18.5t-67.5 -63.5zM362 348 q0 -57 27 -89t76 -32q35 0 78 21.5t78 44.5v188l-115 -12q-78 -8 -111 -35.5t-33 -85.5z" />
<glyph unicode="&#xe4;" horiz-adv-x="1038" d="M37 317q0 322 397 347l187 12v8q0 61 -7.5 99t-27 59.5t-54 29t-90.5 7.5q-23 0 -61.5 -2.5t-82.5 -6.5t-85 -9t-68 -11l-20 235q92 16 187.5 26.5t183.5 10.5q238 0 344 -83t106 -269v-770h-270l-25 133h-16q-51 -63 -128 -103t-165 -40q-68 0 -124 23.5t-96 66.5 t-62.5 103.5t-22.5 133.5zM129 1415q0 84 39 121t125 37q84 0 124 -36t40 -122q0 -84 -40 -121t-124 -37q-86 0 -125 37t-39 121zM362 348q0 -57 27 -89t76 -32q35 0 78 21.5t78 44.5v188l-115 -12q-78 -8 -111 -35.5t-33 -85.5zM598 1415q0 84 38 121t124 37q84 0 124 -36 t40 -122q0 -84 -40 -121t-124 -37q-86 0 -124 37t-38 121z" />
<glyph unicode="&#xe5;" horiz-adv-x="1038" d="M37 317q0 322 397 347l187 12v8q0 61 -7.5 99t-27 59.5t-54 29t-90.5 7.5q-23 0 -61.5 -2.5t-82.5 -6.5t-85 -9t-68 -11l-20 235q92 16 187.5 26.5t183.5 10.5q238 0 344 -83t106 -269v-770h-270l-25 133h-16q-51 -63 -128 -103t-165 -40q-68 0 -124 23.5t-96 66.5 t-62.5 103.5t-22.5 133.5zM274 1446q0 102 67 165.5t179 63.5q113 0 180.5 -63.5t67.5 -165.5q0 -100 -68.5 -164.5t-179.5 -64.5t-178.5 64.5t-67.5 164.5zM362 348q0 -57 27 -89t76 -32q35 0 78 21.5t78 44.5v188l-115 -12q-78 -8 -111 -35.5t-33 -85.5zM418 1446 q0 -49 27.5 -80t74.5 -31t76 32t29 79q0 49 -29 79.5t-76 30.5t-74.5 -30.5t-27.5 -79.5z" />
<glyph unicode="&#xe6;" horiz-adv-x="1585" d="M37 317q0 319 397 347l187 12v55q-4 86 -41 117t-138 31q-27 0 -67.5 -2.5t-83.5 -6.5t-83 -9t-63 -11l-20 235q217 37 371 37q209 0 280 -127h19q113 129 323 129q213 0 312.5 -127t99.5 -397q0 -59 -2 -91t-8 -67h-570q6 -119 47 -167t144 -48q55 0 143 14.5t199 43.5 l10 -240q-76 -29 -179.5 -46t-193.5 -17q-129 0 -215 43t-145 135h-19q-215 -170 -399 -170q-68 0 -124 23.5t-96 66.5t-62.5 103.5t-22.5 133.5zM362 348q0 -57 27 -89t76 -32q35 0 75 20.5t87 53.5q-2 6 -3 31.5t-2 55.5t-1 57.5v35.5l-115 -12q-78 -8 -111 -35.5 t-33 -85.5zM950 643h291q-4 131 -33.5 184.5t-99.5 53.5q-76 0 -114 -55.5t-44 -182.5z" />
<glyph unicode="&#xe7;" horiz-adv-x="862" d="M55 553q0 297 134.5 434t404.5 137q55 0 109.5 -8t99.5 -24v-254q-102 23 -174 22q-129 0 -183.5 -70.5t-54.5 -234.5q0 -166 54.5 -238.5t181.5 -72.5q45 0 87 5t89 17v-252q-41 -14 -93.5 -22t-105.5 -10q35 -57 49.5 -107.5t14.5 -107.5q0 -98 -61.5 -158t-180.5 -60 q-35 0 -78 5.5t-94 19.5v193q39 -10 73.5 -12.5t47.5 -2.5q41 0 59.5 20.5t18.5 49.5q0 35 -18.5 84t-53.5 102q-164 47 -245 179t-81 366z" />
<glyph unicode="&#xe8;" horiz-adv-x="1017" d="M55 541q0 291 124 437t372 146q213 0 312.5 -127t99.5 -397q0 -59 -2.5 -91t-8.5 -67h-567q4 -63 16.5 -105t34 -66.5t55 -34t80.5 -9.5q59 0 149.5 15.5t194.5 42.5l11 -240q-76 -29 -179.5 -46t-193.5 -17q-248 0 -373 141t-125 418zM152 1651h337l136 -381l-234 -21z M385 645h289q-4 129 -33.5 182.5t-97.5 53.5q-76 0 -112 -53.5t-46 -182.5z" />
<glyph unicode="&#xe9;" horiz-adv-x="1017" d="M55 541q0 291 124 437t372 146q213 0 312.5 -127t99.5 -397q0 -59 -2.5 -91t-8.5 -67h-567q4 -63 16.5 -105t34 -66.5t55 -34t80.5 -9.5q59 0 149.5 15.5t194.5 42.5l11 -240q-76 -29 -179.5 -46t-193.5 -17q-248 0 -373 141t-125 418zM385 645h289q-4 129 -33.5 182.5 t-97.5 53.5q-76 0 -112 -53.5t-46 -182.5zM403 1268l136 383h338l-238 -402z" />
<glyph unicode="&#xea;" horiz-adv-x="1017" d="M55 541q0 291 124 437t372 146q213 0 312.5 -127t99.5 -397q0 -59 -2.5 -91t-8.5 -67h-567q4 -63 16.5 -105t34 -66.5t55 -34t80.5 -9.5q59 0 149.5 15.5t194.5 42.5l11 -240q-76 -29 -179.5 -46t-193.5 -17q-248 0 -373 141t-125 418zM207 1255v222l332 145l329 -145 v-222l-331 146zM385 645h289q-4 129 -33.5 182.5t-97.5 53.5q-76 0 -112 -53.5t-46 -182.5z" />
<glyph unicode="&#xeb;" horiz-adv-x="1017" d="M55 541q0 291 124 437t372 146q213 0 312.5 -127t99.5 -397q0 -59 -2.5 -91t-8.5 -67h-567q4 -63 16.5 -105t34 -66.5t55 -34t80.5 -9.5q59 0 149.5 15.5t194.5 42.5l11 -240q-76 -29 -179.5 -46t-193.5 -17q-248 0 -373 141t-125 418zM123 1415q0 84 39 121t125 37 q84 0 124 -36t40 -122q0 -84 -40 -121t-124 -37q-86 0 -125 37t-39 121zM385 645h289q-4 129 -33.5 182.5t-97.5 53.5q-76 0 -112 -53.5t-46 -182.5zM592 1415q0 84 38 121t124 37q84 0 124 -36t40 -122q0 -84 -40 -121t-124 -37q-86 0 -124 37t-38 121z" />
<glyph unicode="&#xec;" horiz-adv-x="522" d="M-92 1651h338l135 -381l-234 -21zM100 0v1106h326v-1106h-326z" />
<glyph unicode="&#xed;" horiz-adv-x="522" d="M98 0v1106h326v-1106h-326zM152 1268l135 383h338l-238 -402z" />
<glyph unicode="&#xee;" horiz-adv-x="526" d="M-39 1255v222l332 145l328 -145v-222l-330 146zM100 0v1106h326v-1106h-326z" />
<glyph unicode="&#xef;" horiz-adv-x="526" d="M-123 1415q0 84 38 121t124 37q84 0 125 -36t41 -122q0 -84 -41 -121t-125 -37q-86 0 -124 37t-38 121zM100 0v1106h326v-1106h-326zM344 1415q0 84 39 121t125 37q82 0 122 -36t40 -122q0 -84 -40 -121t-122 -37q-86 0 -125 37t-39 121z" />
<glyph unicode="&#xf0;" horiz-adv-x="1103" d="M55 553q0 285 124 429t366 144q35 0 68.5 -10t62.5 -33q-16 47 -31.5 91.5t-36.5 89.5l-256 -29v201l158 18q-33 55 -70 105.5t-78 95.5h336q33 -41 61.5 -83t55.5 -85l264 31v-201l-170 -21q63 -158 94 -340t31 -403q0 -285 -124 -429t-365 -144q-242 0 -366 145 t-124 428zM383 553q0 -100 7 -162.5t25.5 -98.5t49.5 -49.5t80 -13.5q47 0 78.5 14.5t50 50.5t26 98.5t7.5 160.5q0 90 -6.5 152.5t-25 100.5t-50 54.5t-80.5 16.5t-80 -13.5t-49.5 -49.5t-25.5 -99.5t-7 -161.5z" />
<glyph unicode="&#xf1;" horiz-adv-x="1097" d="M96 0v1106h277l18 -119h8q66 41 114 68.5t88 43t76 21.5t79 6q117 0 183.5 -77.5t66.5 -217.5v-831h-326v715q0 70 -25.5 98.5t-66.5 28.5q-37 0 -79 -16.5t-85 -43.5v-782h-328zM184 1348q57 109 132 161t147 52q39 0 78 -17.5t75.5 -39t74.5 -39t77 -17.5 q35 0 66.5 19.5t66.5 68.5l68 -76q-55 -113 -130 -164t-149 -51q-39 0 -77 17.5t-75.5 38t-75.5 38t-77 17.5q-35 0 -67.5 -18.5t-67.5 -63.5z" />
<glyph unicode="&#xf2;" horiz-adv-x="1091" d="M55 553q0 285 124 429t366 144t365.5 -144t123.5 -429t-123.5 -429t-365.5 -144t-366 145t-124 428zM184 1651h338l135 -381l-233 -21zM383 553q0 -98 7 -160.5t25.5 -99.5t49.5 -50.5t80 -13.5t79.5 13.5t49 50.5t26 99.5t7.5 160.5t-7.5 160.5t-26 99.5t-49 50.5 t-79.5 13.5t-80 -13.5t-49.5 -50.5t-25.5 -99.5t-7 -160.5z" />
<glyph unicode="&#xf3;" horiz-adv-x="1091" d="M55 553q0 285 124 429t366 144t365.5 -144t123.5 -429t-123.5 -429t-365.5 -144t-366 145t-124 428zM383 553q0 -98 7 -160.5t25.5 -99.5t49.5 -50.5t80 -13.5t79.5 13.5t49 50.5t26 99.5t7.5 160.5t-7.5 160.5t-26 99.5t-49 50.5t-79.5 13.5t-80 -13.5t-49.5 -50.5 t-25.5 -99.5t-7 -160.5zM428 1268l135 383h338l-237 -402z" />
<glyph unicode="&#xf4;" horiz-adv-x="1091" d="M55 553q0 285 124 429t366 144t365.5 -144t123.5 -429t-123.5 -429t-365.5 -144t-366 145t-124 428zM236 1255v222l331 145l330 -145v-222l-332 146zM383 553q0 -98 7 -160.5t25.5 -99.5t49.5 -50.5t80 -13.5t79.5 13.5t49 50.5t26 99.5t7.5 160.5t-7.5 160.5t-26 99.5 t-49 50.5t-79.5 13.5t-80 -13.5t-49.5 -50.5t-25.5 -99.5t-7 -160.5z" />
<glyph unicode="&#xf5;" horiz-adv-x="1091" d="M55 553q0 285 124 429t366 144t365.5 -144t123.5 -429t-123.5 -429t-365.5 -144t-366 145t-124 428zM172 1348q57 109 132 161t147 52q39 0 77.5 -17.5t75.5 -39t75 -39t77 -17.5q35 0 66.5 19.5t66.5 68.5l67 -76q-55 -113 -129.5 -164t-148.5 -51q-39 0 -77 17.5 t-76 38t-75.5 38t-76.5 17.5q-35 0 -68 -18.5t-67 -63.5zM383 553q0 -98 7 -160.5t25.5 -99.5t49.5 -50.5t80 -13.5t79.5 13.5t49 50.5t26 99.5t7.5 160.5t-7.5 160.5t-26 99.5t-49 50.5t-79.5 13.5t-80 -13.5t-49.5 -50.5t-25.5 -99.5t-7 -160.5z" />
<glyph unicode="&#xf6;" horiz-adv-x="1091" d="M55 553q0 285 124 429t366 144t365.5 -144t123.5 -429t-123.5 -429t-365.5 -144t-366 145t-124 428zM152 1415q0 84 38.5 121t124.5 37q84 0 124 -36t40 -122q0 -84 -40 -121t-124 -37q-86 0 -124.5 37t-38.5 121zM383 553q0 -98 7 -160.5t25.5 -99.5t49.5 -50.5 t80 -13.5t79.5 13.5t49 50.5t26 99.5t7.5 160.5t-7.5 160.5t-26 99.5t-49 50.5t-79.5 13.5t-80 -13.5t-49.5 -50.5t-25.5 -99.5t-7 -160.5zM621 1415q0 84 37.5 121t123.5 37q84 0 124 -36t40 -122q0 -84 -40 -121t-124 -37q-86 0 -123.5 37t-37.5 121z" />
<glyph unicode="&#xf7;" horiz-adv-x="1054" d="M63 641v233h928v-233h-928zM381 379q0 76 43 112.5t108 36.5q66 0 108 -36.5t42 -112.5q0 -78 -42 -116t-108 -38t-108.5 38t-42.5 116zM381 1133q0 78 43 116.5t108 38.5q66 0 108 -39t42 -116q0 -76 -42 -112t-108 -36t-108.5 36t-42.5 112z" />
<glyph unicode="&#xf8;" horiz-adv-x="1103" d="M0 0l147 180q-84 143 -84 373q0 285 124 429t366 144q184 0 299 -86l53 66h197l-146 -178q41 -72 63.5 -165t22.5 -210q0 -285 -123.5 -429t-365.5 -144q-186 0 -303 86l-53 -66h-197zM391 479l283 344q-18 29 -48 41.5t-73 12.5q-49 0 -81 -13.5t-49 -50.5t-24.5 -99.5 t-7.5 -160.5v-74zM428 283q18 -31 48 -42.5t77 -11.5t79 13.5t50 50.5t25.5 99.5t7.5 160.5v41t-2 37z" />
<glyph unicode="&#xf9;" horiz-adv-x="1095" d="M90 274v832h328v-723q0 -66 24.5 -95.5t75.5 -29.5q35 0 70 13.5t84 47.5v787h327v-1106h-276l-18 113h-9q-59 -39 -102 -64.5t-79 -41t-68.5 -21.5t-69.5 -6q-133 0 -210 78.5t-77 215.5zM182 1651h338l135 -381l-233 -21z" />
<glyph unicode="&#xfa;" horiz-adv-x="1095" d="M90 274v832h328v-723q0 -66 24.5 -95.5t75.5 -29.5q35 0 70 13.5t84 47.5v787h327v-1106h-276l-18 113h-9q-59 -39 -102 -64.5t-79 -41t-68.5 -21.5t-69.5 -6q-133 0 -210 78.5t-77 215.5zM428 1268l135 383h338l-237 -402z" />
<glyph unicode="&#xfb;" horiz-adv-x="1095" d="M90 274v832h328v-723q0 -66 24.5 -95.5t75.5 -29.5q35 0 70 13.5t84 47.5v787h327v-1106h-276l-18 113h-9q-59 -39 -102 -64.5t-79 -41t-68.5 -21.5t-69.5 -6q-133 0 -210 78.5t-77 215.5zM236 1255v222l331 145l330 -145v-222l-332 146z" />
<glyph unicode="&#xfc;" horiz-adv-x="1095" d="M90 274v832h328v-723q0 -66 24.5 -95.5t75.5 -29.5q35 0 70 13.5t84 47.5v787h327v-1106h-276l-18 113h-9q-59 -39 -102 -64.5t-79 -41t-68.5 -21.5t-69.5 -6q-133 0 -210 78.5t-77 215.5zM150 1415q0 84 38.5 121t124.5 37q84 0 124 -36t40 -122q0 -84 -40 -121 t-124 -37q-86 0 -124.5 37t-38.5 121zM618 1415q0 84 38 121t124 37q84 0 124 -36t40 -122q0 -84 -40 -121t-124 -37q-86 0 -124 37t-38 121z" />
<glyph unicode="&#xfd;" horiz-adv-x="1093" d="M2 1081v25h332l176 -635l25 -147h20l27 147l176 635h332v-25l-506 -1532l-328 68v14l121 369zM432 1268l135 383h338l-237 -402z" />
<glyph unicode="&#xfe;" horiz-adv-x="1105" d="M96 -451v2106h328v-649q55 61 128 89.5t146 28.5q352 0 353 -532q0 -610 -521 -610q-23 0 -47 2t-59 6v-441h-328zM424 221q40 -22 108 -22q51 0 87 16t56.5 56t30 107.5t9.5 172.5q0 100 -7.5 166.5t-23.5 105.5t-43 54.5t-68 15.5q-39 0 -66.5 -17.5t-46 -58.5 t-27.5 -111.5t-9 -177.5v-307z" />
<glyph unicode="&#xff;" horiz-adv-x="1093" d="M2 1081v25h332l176 -635l25 -147h20l27 147l176 635h332v-25l-506 -1532l-328 68v14l121 369zM156 1415q0 84 38.5 121t124.5 37q84 0 124 -36t40 -122q0 -84 -40 -121t-124 -37q-86 0 -124.5 37t-38.5 121zM625 1415q0 84 37.5 121t123.5 37q84 0 124 -36t40 -122 q0 -84 -40 -121t-124 -37q-86 0 -123.5 37t-37.5 121z" />
<glyph unicode="&#x152;" horiz-adv-x="1869" d="M59 758q0 387 170 580.5t482 193.5q59 0 111 -6t100 -10h864v-281h-531v-330h502v-262h-502v-362h549v-281h-882q-47 -10 -99.5 -13t-111.5 -3q-313 0 -482.5 192.5t-169.5 581.5zM397 756q0 -137 17.5 -231.5t58.5 -152t110 -83t173 -25.5q39 0 80 2t84 13v956 q-47 8 -87 11t-81 3q-102 0 -170 -25.5t-109 -84t-58.5 -152.5t-17.5 -231z" />
<glyph unicode="&#x153;" horiz-adv-x="1671" d="M55 553q0 285 124 429t366 144q211 0 319 -143h19q113 141 323 141q211 0 310.5 -127t99.5 -397q0 -59 -2 -91t-8 -67h-570q8 -123 50 -169t139 -46q59 0 149 15.5t195 42.5l10 -240q-76 -29 -179.5 -46t-193.5 -17q-211 0 -325 139h-17q-111 -141 -319 -141 q-242 0 -366 145t-124 428zM383 553q0 -98 7 -160.5t25.5 -99.5t49.5 -50.5t80 -13.5t79.5 13.5t49 50.5t26 99.5t7.5 160.5t-7.5 160.5t-26 99.5t-49 50.5t-79.5 13.5t-80 -13.5t-49.5 -50.5t-25.5 -99.5t-7 -160.5zM1036 643h291q-4 131 -33.5 184.5t-97.5 53.5 q-78 0 -115 -54.5t-45 -183.5z" />
<glyph unicode="&#x178;" horiz-adv-x="1318" d="M-20 1516h380l263 -582l28 -105h19l30 105l265 582h372l-510 -998v-518h-335v516zM229 1819q0 92 42 133t139 41q94 0 138 -41t44 -133q0 -96 -44 -137.5t-138 -41.5q-96 0 -138.5 42t-42.5 137zM731 1819q0 92 42 133t138 41q94 0 138.5 -41t44.5 -133 q0 -96 -44.5 -137.5t-138.5 -41.5q-96 0 -138 42t-42 137z" />
<glyph unicode="&#x2c6;" horiz-adv-x="800" d="M61 1255v222l332 145l330 -145v-222l-332 146z" />
<glyph unicode="&#x2dc;" horiz-adv-x="870" d="M33 1348q57 109 132 161t146 52q39 0 78 -17.5t76 -39t75 -39t76 -17.5q35 0 67 19.5t67 68.5l67 -76q-55 -113 -130 -164t-148 -51q-39 0 -77 17.5t-76 38t-76 38t-77 17.5q-35 0 -67.5 -18.5t-67.5 -63.5z" />
<glyph unicode="&#x2000;" horiz-adv-x="1004" />
<glyph unicode="&#x2001;" horiz-adv-x="2009" />
<glyph unicode="&#x2002;" horiz-adv-x="1004" />
<glyph unicode="&#x2003;" horiz-adv-x="2009" />
<glyph unicode="&#x2004;" horiz-adv-x="669" />
<glyph unicode="&#x2005;" horiz-adv-x="502" />
<glyph unicode="&#x2006;" horiz-adv-x="334" />
<glyph unicode="&#x2007;" horiz-adv-x="334" />
<glyph unicode="&#x2008;" horiz-adv-x="251" />
<glyph unicode="&#x2009;" horiz-adv-x="401" />
<glyph unicode="&#x200a;" horiz-adv-x="111" />
<glyph unicode="&#x2010;" horiz-adv-x="811" d="M90 453v241h631v-241h-631z" />
<glyph unicode="&#x2011;" horiz-adv-x="811" d="M90 453v241h631v-241h-631z" />
<glyph unicode="&#x2012;" horiz-adv-x="811" d="M90 453v241h631v-241h-631z" />
<glyph unicode="&#x2013;" horiz-adv-x="1124" d="M94 453v241h938v-241h-938z" />
<glyph unicode="&#x2014;" horiz-adv-x="1474" d="M94 453v241h1288v-241h-1288z" />
<glyph unicode="&#x2018;" horiz-adv-x="409" d="M61 1251q0 111 40 219.5t102 190.5l141 -16q-55 -139 -55 -283q0 -150 61 -305l-244 -21q-45 92 -45 215z" />
<glyph unicode="&#x2019;" horiz-adv-x="403" d="M59 1640l244 21q25 -47 35 -101.5t10 -113.5q0 -111 -40 -219.5t-101 -190.5l-141 17q29 68 42 140.5t13 141.5q0 147 -62 305z" />
<glyph unicode="&#x201a;" horiz-adv-x="425" d="M59 293l244 20q25 -47 35 -101t10 -114q0 -111 -40 -219t-101 -190l-141 16q29 68 42 140.5t13 142.5q0 147 -62 305z" />
<glyph unicode="&#x201c;" horiz-adv-x="856" d="M61 1251q0 111 40 219.5t102 190.5l141 -16q-55 -139 -55 -283q0 -150 61 -305l-244 -21q-45 92 -45 215zM506 1251q0 111 40 219.5t101 190.5l141 -16q-55 -139 -55 -283q0 -150 62 -305l-244 -21q-45 92 -45 215z" />
<glyph unicode="&#x201d;" horiz-adv-x="847" d="M59 1640l244 21q25 -47 35 -101.5t10 -113.5q0 -111 -40 -219.5t-101 -190.5l-141 17q29 68 42 140.5t13 141.5q0 147 -62 305zM504 1640l244 21q25 -47 35 -101.5t10 -113.5q0 -111 -40 -219.5t-102 -190.5l-141 17q29 68 42 140.5t13 141.5q0 147 -61 305z" />
<glyph unicode="&#x201e;" horiz-adv-x="868" d="M59 293l244 20q25 -47 35 -101t10 -114q0 -111 -40 -219t-101 -190l-141 16q29 68 42 140.5t13 142.5q0 147 -62 305zM504 293l244 20q25 -47 35 -101t10 -114q0 -111 -40 -219t-102 -190l-141 16q29 68 42 140.5t13 142.5q0 147 -61 305z" />
<glyph unicode="&#x2022;" horiz-adv-x="681" d="M102 758q0 117 67 174t173 57q104 0 170 -57.5t66 -173.5q0 -117 -66 -174.5t-170 -57.5q-106 0 -173 57.5t-67 174.5z" />
<glyph unicode="&#x2026;" horiz-adv-x="1597" d="M66 162q0 94 42 135t140 41q94 0 138 -41t44 -135q0 -92 -43 -134t-139 -42t-139 41t-43 135zM621 162q0 94 42 135t140 41q94 0 138 -41t44 -135q0 -92 -43 -134t-139 -42t-139 41t-43 135zM1165 162q0 94 42 135t141 41q94 0 138 -41t44 -135q0 -92 -43 -134t-139 -42 t-139.5 41t-43.5 135z" />
<glyph unicode="&#x202f;" horiz-adv-x="401" />
<glyph unicode="&#x2039;" horiz-adv-x="624" d="M51 549v8l193 487h327l-192 -487v-8l192 -488h-327z" />
<glyph unicode="&#x203a;" horiz-adv-x="624" d="M53 61l193 488v8l-193 487h328l192 -487v-8l-192 -488h-328z" />
<glyph unicode="&#x205f;" horiz-adv-x="502" />
<glyph unicode="&#x20ac;" horiz-adv-x="1189" d="M55 492v184h148q-2 20 -2 39.5v42.5v39.5t2 40.5h-148v184h170q104 514 660 514q72 0 133 -10t110 -27l-57 -258q-47 6 -81 8t-66 2q-158 0 -243 -51t-118 -178h426l-41 -184h-407q-2 -20 -2 -40v-42v-42.5t2 -37.5h383l-41 -184h-320q33 -127 119 -179.5t244 -52.5 q106 0 196 29v-275q-98 -35 -241 -34q-547 4 -656 512h-170z" />
<glyph unicode="&#x2122;" horiz-adv-x="1787" d="M47 1333v183h660v-183h-224v-678h-211v678h-225zM795 655v861h286l156 -492l154 492h288v-861h-198v553l-156 -510h-176l-156 510v-553h-198z" />
<glyph unicode="&#x25fc;" horiz-adv-x="1105" d="M0 0v1106h1106v-1106h-1106z" />
</font>
</defs>
</svg>
