<?xml version="1.0" standalone="no"?>
<!DOCTYPE svg PUBLIC "-//W3C//DTD SVG 1.1//EN" "http://www.w3.org/Graphics/SVG/1.1/DTD/svg11.dtd" >
<svg xmlns="http://www.w3.org/2000/svg">
<metadata></metadata>
<defs>
<font id="encode_sans_compressedXLt" horiz-adv-x="1077" >
<font-face units-per-em="2048" ascent="1638" descent="-410" />
<missing-glyph horiz-adv-x="413" />
<glyph unicode="&#xfb01;" horiz-adv-x="899" d="M33 1028v78h155v90q0 123 15.5 207t54.5 136t102.5 80t161.5 38v-78q-74 -10 -122 -30.5t-75.5 -63.5t-39 -111.5t-11.5 -175.5v-92h201v-78h-201v-1028h-88v1028h-153zM647 1458q0 70 68 70q70 0 69 -70q1 -67 -69 -67q-68 0 -68 67zM670 0v1106h88v-1106h-88z" />
<glyph unicode="&#xfb02;" horiz-adv-x="901" d="M33 1028v78h155v90q0 123 15.5 207t54.5 136t102.5 80t161.5 38v-78q-74 -10 -122 -30.5t-75.5 -63.5t-39 -111.5t-11.5 -175.5v-92h201v-78h-201v-1028h-88v1028h-153zM670 0v1655h88v-1655h-88z" />
<glyph unicode="&#xfb03;" horiz-adv-x="1396" d="M33 1028v78h155v90q0 123 15.5 207t54.5 136t102.5 80t161.5 38v-78q-74 -10 -122 -30.5t-75.5 -63.5t-39 -111.5t-11.5 -175.5v-92h201v-78h-201v-1028h-88v1028h-153zM532 1028v78h156v90q0 123 15.5 207t54.5 136t102.5 80t161.5 38v-78q-74 -10 -122 -30.5 t-75.5 -63.5t-39 -111.5t-11.5 -175.5v-92h201v-78h-201v-1028h-88v1028h-154zM1147 1458q0 70 67 70q70 0 70 -70q0 -67 -70 -67q-68 0 -67 67zM1169 0v1106h88v-1106h-88z" />
<glyph unicode="&#xfb04;" horiz-adv-x="1400" d="M33 1028v78h155v90q0 123 15.5 207t54.5 136t102.5 80t161.5 38v-78q-74 -10 -122 -30.5t-75.5 -63.5t-39 -111.5t-11.5 -175.5v-92h201v-78h-201v-1028h-88v1028h-153zM532 1028v78h156v90q0 123 15.5 207t54.5 136t102.5 80t161.5 38v-78q-74 -10 -122 -30.5 t-75.5 -63.5t-39 -111.5t-11.5 -175.5v-92h201v-78h-201v-1028h-88v1028h-154zM1169 0v1655h88v-1655h-88z" />
<glyph horiz-adv-x="0" />
<glyph unicode="&#xd;" horiz-adv-x="577" />
<glyph horiz-adv-x="0" />
<glyph horiz-adv-x="0" />
<glyph unicode=" "  horiz-adv-x="413" />
<glyph unicode="&#x09;" horiz-adv-x="413" />
<glyph unicode="&#xa0;" horiz-adv-x="413" />
<glyph unicode="!" horiz-adv-x="403" d="M139 78q0 35 18.5 52t49.5 17q33 0 52.5 -18t19.5 -51q0 -31 -19.5 -49.5t-52.5 -18.5q-31 0 -49.5 18.5t-18.5 49.5zM156 1495v21h90v-21l-15 -1151v-29h-61v29z" />
<glyph unicode="&#x22;" horiz-adv-x="577" d="M127 983v672h82v-8l-39 -664h-43zM389 983v672h82v-8l-39 -664h-43z" />
<glyph unicode="#" horiz-adv-x="954" d="M90 498v80h164l29 360h-193v80h199l43 498h80l-41 -498h225l43 498h82l-41 -498h184v-80h-190l-31 -360h219v-80h-225l-39 -498h-84l41 498h-227l-39 -498h-82l41 498h-158zM334 578h227l29 360h-225z" />
<glyph unicode="$" horiz-adv-x="937" d="M74 41l14 80q29 -12 73 -24.5t94 -21.5t101.5 -14.5t94.5 -5.5q158 0 242.5 82t84.5 230q0 123 -76.5 205.5t-252.5 156.5q-94 39 -161 80t-109 88t-61.5 104.5t-19.5 128.5q0 86 26 158t74 124t114.5 85t148.5 41v283h80v-279q125 -2 278 -39l-14 -84q-180 39 -287 39 q-74 0 -135 -23.5t-105.5 -66.5t-68 -103.5t-23.5 -134.5q0 -55 16.5 -100t53.5 -82t95.5 -70.5t142.5 -68.5q102 -43 173.5 -87t115.5 -95.5t63.5 -114.5t19.5 -143q0 -162 -83 -263.5t-232 -125.5v-285h-78v276h-18q-43 0 -95.5 5.5t-104.5 14.5t-100.5 22.5t-80.5 27.5z " />
<glyph unicode="%" horiz-adv-x="1552" d="M74 1061q0 236 73.5 355.5t219.5 119.5q145 0 217.5 -120t72.5 -355q0 -236 -72.5 -354.5t-217.5 -118.5q-293 0 -293 473zM154 1061q0 -393 213 -393q209 0 208 393q0 195 -53 295t-155 100q-104 0 -158.5 -100.5t-54.5 -294.5zM459 0l532 1516h86l-532 -1516h-86z M897 446q0 233 73.5 353.5t219.5 120.5q145 0 218 -120t73 -354q0 -475 -291 -475q-293 0 -293 475zM977 446q0 -395 213 -395q209 0 209 395q0 193 -53.5 293.5t-155.5 100.5q-104 0 -158.5 -100.5t-54.5 -293.5z" />
<glyph unicode="&#x26;" horiz-adv-x="1179" d="M92 422q0 281 221 397q-43 72 -61.5 148.5t-18.5 175.5q0 199 91.5 299t267.5 100q66 0 135.5 -19.5t157.5 -60.5v-10l-23 -66h-10q-78 39 -138.5 55.5t-119.5 16.5q-272 0 -272 -319q0 -86 20 -158t64.5 -138.5t116 -130t173.5 -132.5l226 -154q25 117 24 274v136h86 v-136q0 -96 -8 -177t-25 -150l140 -94v-13l-37 -59h-12l-117 78q-113 -310 -447 -310q-205 0 -319.5 118t-114.5 329zM180 424q0 -170 93.5 -267.5t252.5 -97.5q281 0 373 277l-250 172q-98 68 -169.5 128t-119.5 120q-180 -98 -180 -332z" />
<glyph unicode="'" horiz-adv-x="315" d="M127 983v672h82v-8l-39 -664h-43z" />
<glyph unicode="(" horiz-adv-x="518" d="M84 725q0 289 80 558t233 495h82v-9q-152 -221 -230.5 -487t-78.5 -557q0 -293 79 -558t230 -486v-9h-82q-154 225 -233.5 494.5t-79.5 558.5z" />
<glyph unicode=")" horiz-adv-x="518" d="M41 -319q150 221 228.5 486t78.5 558q0 291 -79 557t-228 487v9h80q154 -225 233.5 -494.5t79.5 -558.5t-80 -558t-233 -495h-80v9z" />
<glyph unicode="*" horiz-adv-x="962" d="M84 1397l22 76l166 -52l189 -86l-21 211v170h80v-170l-22 -211l192 86l164 52l25 -76l-164 -51l-205 -43l141 -158l99 -141l-62 -46l-100 140l-109 184l-104 -184l-101 -140l-63 46l100 141l140 158l-205 43z" />
<glyph unicode="+" horiz-adv-x="948" d="M96 717v82h338v356h82v-356h338v-82h-338v-357h-82v357h-338z" />
<glyph unicode="," horiz-adv-x="362" d="M45 -297l96 434h97l-119 -454z" />
<glyph unicode="-" horiz-adv-x="632" d="M121 532v82h391v-82h-391z" />
<glyph unicode="." horiz-adv-x="376" d="M117 68q0 74 71 73q35 0 54.5 -19.5t19.5 -53.5q0 -33 -19.5 -51.5t-54.5 -18.5q-72 0 -71 70z" />
<glyph unicode="/" horiz-adv-x="546" d="M66 -248l327 1764h88l-327 -1764h-88z" />
<glyph unicode="0" horiz-adv-x="1062" d="M102 756q0 387 107.5 583.5t320.5 196.5t322 -196.5t109 -583.5q0 -385 -109 -580.5t-322 -195.5t-320.5 194.5t-107.5 581.5zM190 756q0 -693 340 -693q172 0 256 174.5t84 518.5t-86 520t-254 176q-166 0 -253 -176t-87 -520z" />
<glyph unicode="1" horiz-adv-x="620" d="M43 1237v10l352 269h56v-1516h-91v1384h-6l-262 -200h-12z" />
<glyph unicode="2" horiz-adv-x="843" d="M84 0v178q0 92 17.5 171t55.5 150.5t99 139.5t147 137q70 55 118 105.5t79 98.5t44 97t13 105q0 129 -67.5 198.5t-196.5 69.5q-49 0 -108.5 -11.5t-145.5 -39.5l-18 82q80 29 148.5 41t131.5 12q170 0 257 -88t87 -260q0 -68 -14 -125t-48 -113.5t-88 -113t-132 -119.5 q-82 -68 -137.5 -129.5t-89 -124t-49 -130t-15.5 -147.5v-100h576v-84h-664z" />
<glyph unicode="3" horiz-adv-x="806" d="M90 1503q119 33 221 33q170 0 264.5 -100.5t94.5 -280.5q0 -141 -62.5 -235.5t-177.5 -126.5v-5q281 -70 281 -409q0 -186 -106.5 -289.5t-299.5 -103.5q-49 0 -101 6t-102 20v76h17q80 -25 182 -25q152 0 237 84t85 234q0 180 -98.5 273.5t-291.5 93.5h-28v79h31 q162 0 254 86t92 238q0 147 -71 225t-206 78q-78 0 -178 -27h-18z" />
<glyph unicode="4" horiz-adv-x="958" d="M43 430v8l508 1098h14l64 -20l2 -11l-481 -1028v-12h509v43l27 567h64v-610h153v-78h-153v-387h-91v387h-577z" />
<glyph unicode="5" horiz-adv-x="790" d="M96 4v78h25q106 -25 178 -25q152 0 232.5 96.5t80.5 276.5q0 190 -91 273t-296 83h-100l-8 9l51 721h491v-84h-413l-41 -564q137 -2 232 -26.5t154.5 -76.5t86.5 -134t27 -201q0 -217 -104.5 -337t-299.5 -120q-94 0 -205 31z" />
<glyph unicode="6" horiz-adv-x="980" d="M100 666q0 207 35 369.5t101.5 274t164 171t222.5 59.5q94 0 200 -33l-2 -88q-57 20 -103 28.5t-95 8.5q-193 0 -306.5 -183t-128.5 -511q74 72 162 112.5t170 40.5q178 0 280.5 -116.5t102.5 -321.5q0 -113 -27.5 -205t-79 -158.5t-123 -102.5t-157.5 -36 q-416 0 -416 691zM186 666q0 -309 82 -458t248 -149q68 0 123 30t94 85t60.5 132t21.5 171q0 168 -80 262.5t-221 94.5q-80 0 -168 -44.5t-160 -119.5v-4z" />
<glyph unicode="7" horiz-adv-x="700" d="M51 1505l4 11h584l20 -48v-59l-444 -1413l-18 -16l-66 20v25l449 1407h-519z" />
<glyph unicode="8" horiz-adv-x="972" d="M98 373q0 154 58.5 254t187.5 159q-106 57 -157.5 145.5t-51.5 223.5q0 180 93.5 279.5t258.5 99.5q166 0 258.5 -99.5t92.5 -279.5q0 -152 -53.5 -242t-166.5 -143q135 -59 195.5 -151.5t60.5 -241.5q0 -176 -104.5 -279.5t-282.5 -103.5q-88 0 -159.5 26.5t-122.5 76.5 t-79 120t-28 156zM184 377q0 -137 84 -220t219 -83t218 82t83 219q0 76 -15 131t-51 97t-93.5 73t-141.5 55l-59 19q-68 -31 -114 -67t-75.5 -80t-42 -99t-12.5 -127zM221 1153q0 -82 21.5 -138.5t61.5 -95t95.5 -65.5t124.5 -49q123 49 175.5 130t52.5 220q0 141 -69 220 t-196 79t-196.5 -80t-69.5 -221z" />
<glyph unicode="9" horiz-adv-x="980" d="M78 1038q0 113 27.5 205t79 158.5t123 102.5t157.5 36q416 0 416 -690q0 -207 -35 -370t-101.5 -274.5t-164 -171t-222.5 -59.5q-94 0 -200 33l2 88q57 -20 103 -28.5t95 -8.5q193 0 306.5 183.5t128.5 511.5q-74 -72 -162 -113t-170 -41q-178 0 -280.5 117t-102.5 321z M166 1038q0 -168 80 -262t221 -94q80 0 168 44t160 120v4q0 309 -82 457.5t-248 148.5q-68 0 -123 -29.5t-94 -85t-60.5 -132t-21.5 -171.5z" />
<glyph unicode=":" horiz-adv-x="385" d="M121 68q0 74 72 73q35 0 54 -19.5t19 -53.5q0 -33 -19 -51.5t-54 -18.5q-72 0 -72 70zM121 1036q0 74 72 74q35 0 54 -19.5t19 -54.5q0 -33 -19 -51t-54 -18q-72 0 -72 69z" />
<glyph unicode=";" horiz-adv-x="440" d="M92 -297l96 434h97l-119 -454zM160 1036q0 74 71 74q35 0 54.5 -19.5t19.5 -54.5q0 -33 -19.5 -51t-54.5 -18q-72 0 -71 69z" />
<glyph unicode="&#x3c;" horiz-adv-x="974" d="M88 715v73l764 340v-90l-653 -286l647 -287v-92z" />
<glyph unicode="=" horiz-adv-x="1005" d="M127 475v82h754v-82h-754zM127 909v82h754v-82h-754z" />
<glyph unicode="&#x3e;" horiz-adv-x="974" d="M123 1038v90l764 -340v-73l-758 -342v92l647 287z" />
<glyph unicode="?" horiz-adv-x="794" d="M55 1479q61 27 134 44t149 17q70 0 140.5 -19.5t125.5 -65.5t90 -124t35 -192q0 -113 -39 -189t-97 -126t-130 -78.5t-135 -47.5v-374h-80l-4 438q59 16 128.5 39.5t129 65.5t99.5 106.5t40 163.5q0 92 -27.5 153.5t-71.5 98t-99.5 52t-110.5 15.5q-63 0 -127 -14.5 t-125 -36.5zM223 70q0 70 68 69q70 0 69 -69q0 -31 -18 -49.5t-51 -18.5t-50.5 18.5t-17.5 49.5z" />
<glyph unicode="@" horiz-adv-x="1572" d="M92 537q0 209 53.5 367.5t148.5 266t227 161.5t290 54q178 0 303 -54t204 -153.5t113.5 -238.5t34.5 -311q0 -117 -18 -213.5t-56 -165t-95.5 -105t-135.5 -36.5q-37 0 -69.5 7t-59 27.5t-45 57.5t-24.5 96h-11q-31 -49 -69.5 -83t-78.5 -54.5t-79 -29.5t-68 -9 q-72 0 -120 30.5t-76.5 81t-40.5 113t-12 127.5q0 115 31.5 214t90 172t141.5 114t187 41q115 0 262 -64l-69 -434q-8 -43 -14.5 -88t-6.5 -86q0 -66 26.5 -112t104.5 -46q57 0 99.5 32t71 90.5t43 140t14.5 182.5q0 154 -31 279.5t-100.5 214.5t-179 137.5t-267.5 48.5 q-141 0 -258 -49.5t-202 -146.5t-132 -241.5t-47 -334.5q0 -209 51 -350.5t134 -227.5t189.5 -123t215.5 -37q92 0 181 18.5t173 47.5l29 -72q-90 -31 -187.5 -51.5t-195.5 -20.5q-125 0 -245 40t-214 135.5t-152.5 252t-58.5 388.5zM487 473q0 -49 8.5 -99t28 -89t53 -63.5 t82.5 -24.5q35 0 82 14t94.5 52t85 102.5t54.5 162.5l59 373q-94 35 -176 35q-86 0 -154.5 -36t-116.5 -97.5t-74 -146.5t-26 -183z" />
<glyph unicode="A" d="M18 0v12l463 1504h115l463 -1504v-12h-86l-154 500h-559l-156 -500h-86zM283 584h510l-187 604l-65 229h-6l-64 -229z" />
<glyph unicode="B" horiz-adv-x="1110" d="M162 10v1499q68 8 118 13.5t90 8.5t74.5 4t71.5 1q233 0 346 -98.5t113 -304.5q0 -147 -64.5 -239.5t-181.5 -115.5v-8q135 -18 214 -118.5t79 -258.5q0 -413 -471 -413q-45 0 -100.5 2t-108.5 7t-101 10t-79 11zM250 76q14 -4 50 -7t80 -6.5t91 -5.5t84 -2 q188 2 281.5 84t93.5 256t-98.5 253t-323.5 79h-258v-651zM250 809h256q104 0 175 17.5t116 55.5t64.5 99t19.5 149q0 166 -88 246t-275 80q-72 0 -134 -4t-134 -14v-629z" />
<glyph unicode="C" horiz-adv-x="991" d="M98 756q0 209 34 356.5t108.5 240.5t192.5 136t286 43q43 0 94 -3t109 -13v-82q-31 6 -84.5 10t-108.5 4q-147 0 -249.5 -37t-167 -120t-93.5 -214t-29 -321q0 -182 31 -313.5t95.5 -215.5t164 -124t238.5 -40q29 0 90 4.5t113 12.5v-82q-47 -10 -90 -14t-109 -4 q-166 2 -283.5 47t-193.5 139t-112 240.5t-36 349.5z" />
<glyph unicode="D" horiz-adv-x="1159" d="M162 -20v1519q92 18 165.5 27.5t135.5 9.5q309 0 455.5 -190.5t146.5 -589.5q0 -410 -165 -601.5t-519 -191.5q-53 0 -107.5 3t-111.5 14zM250 59q43 -4 77.5 -7t65.5 -3q578 0 578 707q0 362 -123 529t-389 167q-106 0 -209 -20v-1373z" />
<glyph unicode="E" horiz-adv-x="1005" d="M162 0v1516h747v-84h-659v-621h592v-84h-592v-643h678v-84h-766z" />
<glyph unicode="F" horiz-adv-x="935" d="M162 0v1516h706v-84h-618v-623h584v-84h-584v-725h-88z" />
<glyph unicode="G" horiz-adv-x="1114" d="M98 756q0 209 35 356.5t109.5 240.5t193.5 136t289 43q47 0 126 -8t148 -21v-84q-72 14 -140 21.5t-126 7.5q-147 0 -250.5 -37t-168 -120t-94.5 -215t-30 -320q0 -362 126 -527.5t403 -165.5q31 0 82 3.5t108 11.5v692h86v-766q-84 -14 -145 -19t-127 -5q-166 2 -285 48 t-193.5 140t-110.5 239.5t-36 348.5z" />
<glyph unicode="H" horiz-adv-x="1241" d="M162 0v1516h88v-701h741v701h88v-1516h-88v729h-741v-729h-88z" />
<glyph unicode="I" horiz-adv-x="413" d="M162 0v1516h88v-1516h-88z" />
<glyph unicode="J" horiz-adv-x="413" d="M-6 -326q51 113 85 198t53.5 162t26.5 156.5t7 180.5v1145h88v-1147q0 -190 -48 -366.5t-153 -364.5z" />
<glyph unicode="K" horiz-adv-x="1107" d="M162 0v1516h88v-703h180l518 703h109l-504 -687l-53 -51v-8l57 -47l541 -723h-105l-549 727h-194v-727h-88z" />
<glyph unicode="L" horiz-adv-x="800" d="M162 0v1516h88v-1432h526v-84h-614z" />
<glyph unicode="M" horiz-adv-x="1568" d="M162 0v1516h110l443 -1162l65 -186h8l66 186l442 1162h111v-1516h-88v1325l-8 2l-72 -203l-403 -1058h-103l-403 1058l-72 203l-8 -2v-1325h-88z" />
<glyph unicode="N" horiz-adv-x="1316" d="M162 0v1516h96l707 -1188l94 -174l10 2v1360h86v-1516h-98l-699 1176l-100 184l-10 -2v-1358h-86z" />
<glyph unicode="O" horiz-adv-x="1212" d="M98 756q0 395 125 587.5t383 192.5q508 0 508 -780q0 -776 -508 -776t-508 776zM186 756q0 -362 100.5 -527.5t319.5 -165.5q217 0 318.5 166t101.5 527q0 356 -102.5 526t-317.5 170q-219 0 -319.5 -167t-100.5 -529z" />
<glyph unicode="P" horiz-adv-x="1034" d="M162 0v1505q84 16 155.5 25.5t139.5 9.5q262 0 386 -123t124 -389q0 -270 -129 -393t-412 -123q-41 0 -85 2t-91 6v-520h-88zM250 610q53 -6 103.5 -10t97.5 -4q221 0 323.5 103.5t102.5 328.5q0 221 -98.5 324.5t-307.5 103.5q-47 0 -103.5 -6t-117.5 -16v-824z" />
<glyph unicode="Q" horiz-adv-x="1208" d="M94 756q0 395 125 587.5t383 192.5q508 0 508 -780q0 -760 -498 -768v-11q76 -29 207 -50t293 -40l-10 -84q-272 41 -464 98.5t-312.5 161t-176 269.5t-55.5 424zM182 756q0 -362 100.5 -527.5t319.5 -165.5q217 0 318.5 166t101.5 527q0 358 -102.5 527t-317.5 169 q-219 0 -319.5 -167t-100.5 -529z" />
<glyph unicode="R" horiz-adv-x="1060" d="M162 0v1505q164 35 295 35q264 0 387 -115.5t123 -367.5q0 -186 -68 -295t-213 -156l293 -606h-96l-281 586q-78 -12 -172 -13q-45 0 -89 3.5t-91 7.5v-584h-88zM250 670q59 -8 108.5 -11.5t92.5 -3.5q223 0 324.5 96.5t101.5 305.5q0 207 -97.5 303t-308.5 96 q-43 0 -97.5 -6t-123.5 -16v-764z" />
<glyph unicode="S" horiz-adv-x="935" d="M72 41l14 80q29 -12 73 -24.5t94 -21.5t101.5 -14.5t94.5 -5.5q158 0 242.5 82t84.5 230q0 123 -76.5 205.5t-253.5 156.5q-94 39 -160.5 80t-108.5 88t-61.5 104.5t-19.5 128.5q0 92 30 169t85 130.5t132 83t171 29.5q72 0 144.5 -9t158.5 -30l-14 -84q-180 39 -287 39 q-74 0 -135.5 -23.5t-105.5 -66.5t-67.5 -103.5t-23.5 -134.5q0 -55 16.5 -100t53.5 -82t95.5 -70.5t142.5 -68.5q102 -43 173.5 -87t115.5 -95.5t63.5 -114.5t19.5 -143q0 -186 -109 -292t-302 -106q-43 0 -95.5 5.5t-104.5 14.5t-100.5 22.5t-80.5 27.5z" />
<glyph unicode="T" horiz-adv-x="927" d="M25 1430v86h876v-86h-393v-1430h-90v1430h-393z" />
<glyph unicode="U" horiz-adv-x="1271" d="M150 596v920h88v-922q0 -276 96 -403.5t303 -127.5t302 127t95 404v922h88v-920q0 -324 -113.5 -470t-371.5 -146t-372.5 146t-114.5 470z" />
<glyph unicode="V" horiz-adv-x="1110" d="M14 1516h90l371 -1160l76 -252h8l76 252l371 1160h90l-484 -1516h-114z" />
<glyph unicode="W" horiz-adv-x="1736" d="M37 1516h94l264 -1119l62 -284h10l68 284l290 1119h105l266 -1119l64 -284h10l67 284l287 1119h90l-393 -1516h-117l-280 1161l-45 221h-9l-51 -221l-303 -1161h-117z" />
<glyph unicode="X" horiz-adv-x="1095" d="M27 0l465 764l-461 752h104l391 -644l23 -45h4l20 45l390 644h100l-459 -758l465 -758h-104l-398 647l-20 45h-4l-21 -45l-391 -647h-104z" />
<glyph unicode="Y" horiz-adv-x="1032" d="M6 1516h96l357 -781l53 -135h6l53 135l357 781h96l-463 -1004v-512h-88v504z" />
<glyph unicode="Z" horiz-adv-x="927" d="M61 0v63l682 1358v11h-673v84h786v-62l-684 -1362v-10h694v-82h-805z" />
<glyph unicode="[" horiz-adv-x="561" d="M156 -328v2106h348v-80h-266v-1946h266v-80h-348z" />
<glyph unicode="\" horiz-adv-x="530" d="M66 1516h71l328 -1762h-72z" />
<glyph unicode="]" horiz-adv-x="561" d="M57 -248h267v1946h-267v80h349v-2106h-349v80z" />
<glyph unicode="^" horiz-adv-x="690" d="M88 985l231 631h52l231 -631h-67l-187 539h-8l-186 -539h-66z" />
<glyph unicode="_" horiz-adv-x="972" d="M88 -123h795v-80h-795v80z" />
<glyph unicode="`" horiz-adv-x="428" d="M76 1636h92l151 -366l-61 -21z" />
<glyph unicode="a" horiz-adv-x="866" d="M68 264q0 301 378 332l201 14v162q0 141 -57.5 205.5t-183.5 64.5q-51 0 -120 -10t-130 -26l-15 81q72 16 148 25.5t133 9.5q313 0 313 -344v-778h-73l-15 133h-8q-70 -51 -151 -97t-173 -46q-117 0 -182 72.5t-65 201.5zM160 272q0 -198 180 -198q39 0 83 16t85 39 t77 47.5t62 40.5v318l-182 -15q-166 -12 -235.5 -71.5t-69.5 -176.5z" />
<glyph unicode="b" horiz-adv-x="950" d="M135 25v1630h88v-660q49 59 124 94t161 35q176 0 265 -139t89 -412q0 -115 -22.5 -220t-75.5 -187t-142.5 -133t-220.5 -53q-59 0 -126.5 11t-139.5 34zM223 82q59 -10 105.5 -16.5t81.5 -6.5q178 0 269 129t91 381q0 473 -274 473q-49 0 -97.5 -15t-87.5 -42 t-63.5 -59.5t-24.5 -69.5v-774z" />
<glyph unicode="c" horiz-adv-x="753" d="M90 553q0 573 412 573q35 0 74.5 -5t103.5 -17v-84q-51 12 -92 17t-82 5q-166 0 -245 -118.5t-79 -372.5q0 -250 79 -369t245 -119q57 0 174 25v-84q-41 -10 -90 -17t-88 -7q-211 0 -311.5 140t-100.5 433z" />
<glyph unicode="d" horiz-adv-x="952" d="M88 553q0 270 115.5 420.5t326.5 150.5q45 0 88.5 -5t106.5 -15v551h88v-1655h-76l-10 111h-6q-98 -129 -272 -129q-184 0 -272.5 140t-88.5 431zM180 553q0 -236 72 -363t201 -127q49 0 97 15.5t87 42t63.5 59.5t24.5 70v772q-66 12 -109 17t-86 5q-170 0 -260 -125.5 t-90 -365.5z" />
<glyph unicode="e" horiz-adv-x="878" d="M88 528q0 291 101.5 443.5t293.5 152.5q154 0 235 -117.5t81 -340.5q0 -51 -2 -83t-6 -65h-611q4 -221 85 -338t231 -117q66 0 124 15.5t123 50.5l11 -84q-55 -31 -122.5 -47t-137.5 -16q-193 0 -299.5 143t-106.5 403zM182 598h529q-4 233 -58.5 338.5t-171.5 105.5 q-135 0 -211.5 -114.5t-87.5 -329.5z" />
<glyph unicode="f" horiz-adv-x="501" d="M33 1028v78h155v90q0 123 15.5 207t54.5 136t102.5 80t161.5 38v-78q-74 -10 -122 -30.5t-75.5 -63.5t-39 -111.5t-11.5 -175.5v-92h201v-78h-201v-1028h-88v1028h-153z" />
<glyph unicode="g" horiz-adv-x="950" d="M88 553q0 270 115.5 420.5t326.5 150.5q82 0 146.5 -9t136.5 -34v-960q0 -301 -90 -436.5t-293 -135.5q-131 0 -248 48l11 84q63 -27 118.5 -38.5t114.5 -11.5q158 0 228.5 102.5t74.5 340.5v39h-8q-98 -127 -272 -127q-184 0 -272.5 139t-88.5 428zM180 553 q0 -236 72 -361.5t201 -125.5q49 0 97 15t87 40.5t63.5 59.5t24.5 69v772q-70 12 -112 17t-83 5q-170 0 -260 -125.5t-90 -365.5z" />
<glyph unicode="h" horiz-adv-x="942" d="M137 0v1655h88v-668h6q92 68 182.5 103.5t168.5 35.5q63 0 107 -15t70.5 -49t38 -89t11.5 -135v-838h-88v829q0 115 -35 164t-117 49q-78 0 -164 -33.5t-180 -99.5v-909h-88z" />
<glyph unicode="i" horiz-adv-x="368" d="M117 1458q0 70 67 70q70 0 70 -70q0 -67 -70 -67q-68 0 -67 67zM139 0v1106h88v-1106h-88z" />
<glyph unicode="j" horiz-adv-x="364" d="M-18 -410q82 139 119.5 291t37.5 344v881h88v-918q0 -170 -47 -333.5t-137 -305.5zM117 1458q0 70 67 70q70 0 70 -70q0 -67 -70 -67q-68 0 -67 67z" />
<glyph unicode="k" horiz-adv-x="856" d="M137 0v1655h88v-1049h160l334 500h98l-346 -518l-27 -21v-4l29 -22l377 -541h-98l-371 528h-156v-528h-88z" />
<glyph unicode="l" horiz-adv-x="376" d="M143 0v1655h88v-1655h-88z" />
<glyph unicode="m" horiz-adv-x="1511" d="M137 0v1106h74l8 -119h6q92 68 181.5 103.5t166.5 35.5q94 0 144.5 -32.5t68.5 -110.5h11q92 72 183 107.5t171 35.5q63 0 107.5 -15t71 -49t38.5 -89t12 -135v-838h-88v829q0 115 -35.5 164t-117.5 49q-76 0 -160 -33.5t-176 -95.5v-913h-88v829q0 115 -35 164t-119 49 q-154 0 -336 -129v-913h-88z" />
<glyph unicode="n" horiz-adv-x="942" d="M137 0v1106h78l8 -119h8q92 68 182.5 103.5t168.5 35.5q63 0 107 -15t70.5 -49t38 -89t11.5 -135v-838h-88v829q0 115 -35 164t-117 49q-78 0 -164 -33.5t-180 -99.5v-909h-88z" />
<glyph unicode="o" horiz-adv-x="968" d="M88 553q0 281 101.5 427t293.5 146q197 0 297.5 -146t100.5 -427t-100.5 -425t-297.5 -144q-195 0 -295 144t-100 425zM180 553q0 -487 303 -487q154 0 229.5 119.5t75.5 367.5q0 491 -304 491h-1q-303 0 -303 -491z" />
<glyph unicode="p" horiz-adv-x="952" d="M137 -451v1557h80l8 -111h8q49 59 120 94t157 35q176 0 265 -139t89 -412q0 -113 -22.5 -219t-75.5 -189t-141 -134t-219 -51q-80 0 -181 22v-453h-88zM225 82q59 -10 105.5 -16.5t81.5 -6.5q178 0 269 129t91 381q0 473 -274 473q-49 0 -97.5 -15t-87.5 -42t-63.5 -59.5 t-24.5 -69.5v-774z" />
<glyph unicode="q" horiz-adv-x="950" d="M88 553q0 272 115.5 421.5t328.5 149.5q82 0 145.5 -9t135.5 -32v-1534h-86v562q-111 -129 -278 -129q-184 0 -272.5 140t-88.5 431zM180 555q0 -238 71 -365t202 -127q49 0 97 15.5t87 42t63.5 59.5t24.5 70v772q-76 14 -116 18t-79 4q-172 0 -261 -125.5t-89 -363.5z " />
<glyph unicode="r" horiz-adv-x="595" d="M137 0v1106h78l8 -123h10q47 39 130 77t184 64h26v-102h-34q-203 -35 -314 -117v-905h-88z" />
<glyph unicode="s" horiz-adv-x="718" d="M80 16v86q66 -20 130 -31.5t118 -11.5q111 0 168 60.5t57 165.5q0 96 -44 152.5t-147 84.5q-47 14 -96 30.5t-88 49.5t-63.5 88t-24.5 146q0 135 83 216t224 81q45 0 89 -7.5t124 -25.5v-84q-129 33 -207 33q-104 0 -162.5 -54.5t-58.5 -156.5q0 -61 15.5 -99.5t43 -63 t66.5 -39.5t84 -30q135 -41 195.5 -111.5t60.5 -207.5q0 -145 -85 -228.5t-218 -83.5q-53 0 -111.5 9.5t-152.5 31.5z" />
<glyph unicode="t" horiz-adv-x="647" d="M27 1022v84h213l12 260l72 18v-278h303v-84h-303v-737q0 -104 47 -157.5t135 -53.5q23 0 56.5 4t55.5 10v-82q-71 -14 -124 -14q-258 0 -258 287v743h-209z" />
<glyph unicode="u" horiz-adv-x="940" d="M129 268v838h88v-830q0 -111 41 -160.5t131 -49.5q74 0 150.5 32.5t173.5 104.5v903h88v-1106h-76l-8 119h-8q-100 -72 -179 -105.5t-149 -33.5q-135 0 -193.5 66.5t-58.5 221.5z" />
<glyph unicode="v" horiz-adv-x="897" d="M31 1100v6h90l293 -918l30 -100h11l28 100l295 918h88v-6l-354 -1100h-127z" />
<glyph unicode="w" horiz-adv-x="1325" d="M45 1098v8h84l193 -807l34 -174h11l43 174l211 807h84l213 -807l43 -174h8l37 174l190 807h84v-8l-264 -1098h-101l-221 842l-26 112h-11l-26 -112l-221 -842h-99z" />
<glyph unicode="x" horiz-adv-x="899" d="M23 0v10l370 561l-346 525v10h94l267 -406l41 -67h6l39 67l262 406h96v-10l-346 -533l368 -553v-10h-98l-287 442l-40 62h-5l-38 -62l-283 -442h-100z" />
<glyph unicode="y" horiz-adv-x="894" d="M31 1098v8h88l299 -879l28 -114h7l30 114l295 879h88v-8l-520 -1549l-86 19v8l146 428z" />
<glyph unicode="z" horiz-adv-x="782" d="M61 0v55l525 963v8h-504v80h618v-55l-526 -963v-8h547v-80h-660z" />
<glyph unicode="{" horiz-adv-x="681" d="M41 702v68q78 0 122 60.5t44 168.5v568q0 61 9 102t33.5 64.5t65.5 34t103 10.5q20 0 52 -1t62.5 -3t56 -3.5t32.5 -3.5v-69h-211q-70 0 -95.5 -24.5t-25.5 -92.5v-596q0 -92 -30 -157.5t-81 -90.5q51 -27 81 -93t30 -155v-598q0 -68 25.5 -92t95.5 -24h211v-70 q-6 -2 -32 -4t-56.5 -3t-62.5 -2t-52 -1q-61 0 -102.5 10t-66 34.5t-33.5 65.5t-9 103v567q0 106 -44 166.5t-122 60.5z" />
<glyph unicode="|" horiz-adv-x="397" d="M156 -451v2106h86v-2106h-86z" />
<glyph unicode="}" horiz-adv-x="681" d="M61 -225h211q70 0 95.5 24.5t25.5 91.5v598q0 88 31 155t82 93q-51 25 -82 90.5t-31 157.5v596q0 68 -25.5 92.5t-95.5 24.5h-211v69q6 2 32 3.5t56.5 3.5t62.5 3t52 1q61 0 102.5 -10.5t66 -34t34.5 -64.5t10 -102v-568q0 -109 44 -169t122 -60v-68q-78 0 -122 -60 t-44 -167v-567q0 -61 -10 -102.5t-34.5 -66t-65.5 -34.5t-103 -10q-20 0 -52 1t-62.5 2t-56 3t-32.5 4v70z" />
<glyph unicode="~" horiz-adv-x="997" d="M123 590q39 51 70.5 84t60.5 53.5t56.5 28.5t58.5 8q45 0 78.5 -23.5t64.5 -53.5t61.5 -53.5t69.5 -23.5q47 0 92 39t66 96l76 -30q-31 -78 -96.5 -132.5t-135.5 -54.5q-49 0 -87 23.5t-69.5 53.5t-59.5 53.5t-58 23.5q-43 0 -85 -32t-102 -109z" />
<glyph unicode="&#xa1;" horiz-adv-x="374" d="M125 1028q0 31 18.5 49.5t49.5 18.5q33 0 52 -18.5t19 -49.5q0 -33 -19.5 -51.5t-51.5 -18.5q-31 0 -49.5 17.5t-18.5 52.5zM141 -389l15 1151v29h61v-29l14 -1151v-21h-90v21z" />
<glyph unicode="&#xa2;" horiz-adv-x="790" d="M92 553q0 262 87 405.5t263 163.5v232h78v-228q31 -2 69 -7t93 -15v-84q-51 12 -92 17t-82 5q-166 0 -245 -118.5t-79 -372.5q0 -250 79 -369t245 -119q57 0 174 25v-84q-39 -10 -82 -16t-80 -8v-224h-78v228q-180 18 -265 158.5t-85 410.5z" />
<glyph unicode="&#xa3;" horiz-adv-x="1001" d="M86 0v84h219v625h-219v84h219v288q0 227 77 335t257 108q115 0 281 -58l-21 -80q-147 53 -254 54q-135 0 -193.5 -83t-58.5 -276v-288h346v-84h-346v-625h498v-84h-805z" />
<glyph unicode="&#xa4;" horiz-adv-x="1064" d="M100 393l109 117l108 68q-25 80 -24 180q0 100 24 178l-108 70l-109 116l68 66l115 -107l57 -90q33 66 82 102.5t115 36.5q61 0 108 -35.5t78 -101.5l55 88l117 107l66 -66l-107 -116l-111 -68q25 -80 25 -180q0 -51 -7 -95.5t-18 -84.5l111 -68l107 -117l-66 -65 l-117 106l-55 90q-33 -68 -81 -104.5t-112 -36.5q-63 0 -111 37t-81 102l-55 -88l-115 -106zM373 758q0 -135 43 -210t114 -75q72 0 114 75t42 210q0 141 -43 211.5t-113 70.5q-72 0 -114.5 -71.5t-42.5 -210.5z" />
<glyph unicode="&#xa5;" horiz-adv-x="1105" d="M45 1516h96l357 -781l53 -135h6l53 135l357 781h96l-430 -932h274v-78h-307v-195h307v-78h-307v-233h-88v233h-305v78h305v193l-2 2h-303v78h268z" />
<glyph unicode="&#xa6;" horiz-adv-x="370" d="M141 416h86v-867h-86v867zM141 788v867h86v-867h-86z" />
<glyph unicode="&#xa7;" horiz-adv-x="772" d="M104 16v82q66 -20 131.5 -30.5t124.5 -10.5q104 0 163 61.5t59 166.5q0 96 -45 153.5t-148 85.5q-47 12 -96 29.5t-88 49.5t-63.5 87t-24.5 146q0 119 63 194q-29 33 -46 82t-17 125q0 135 83 216t224 81q45 0 89 -7t124 -26v-82q-78 20 -121 26.5t-84 6.5 q-104 0 -166.5 -57.5t-62.5 -155.5q0 -61 18.5 -100t48 -63.5t67.5 -40t79 -27.5q68 -23 116 -49.5t78.5 -64.5t45 -88t14.5 -118q0 -59 -15.5 -107.5t-44.5 -88.5q59 -74 60 -205q0 -68 -22.5 -125.5t-62.5 -99.5t-94 -64.5t-120 -22.5q-53 0 -112.5 9.5t-154.5 31.5z M203 838q0 -61 17.5 -100.5t47 -64t66.5 -40t78 -29.5q41 -12 73.5 -28.5t59.5 -32.5q39 57 39 143q0 96 -45 153.5t-144 86.5q-37 10 -72.5 21t-70.5 32q-49 -55 -49 -141z" />
<glyph unicode="&#xa8;" horiz-adv-x="743" d="M119 1362q0 33 17.5 48t45.5 15q29 0 46.5 -15t17.5 -48t-17.5 -48.5t-46.5 -15.5t-46 15.5t-17 48.5zM459 1362q0 33 18.5 48t46.5 15q27 0 45.5 -15t18.5 -48t-18.5 -48.5t-45.5 -15.5q-29 0 -47 15.5t-18 48.5z" />
<glyph unicode="&#xa9;" horiz-adv-x="1708" d="M92 758q0 176 55.5 319.5t154.5 245.5t239.5 158.5t312.5 56.5t312.5 -56.5t239.5 -158.5t154.5 -245.5t55.5 -319.5t-55.5 -319.5t-154.5 -246t-239.5 -159t-312.5 -56.5t-312.5 56.5t-239.5 159t-154.5 246t-55.5 319.5zM170 758q0 -160 49 -289t138 -221t216 -142.5 t281 -50.5t281 50.5t216 142.5t138 221t49 289t-49 289t-138 221t-216 142t-281 50t-281 -50t-216 -142t-138 -221t-49 -289zM510 748q0 213 103.5 318t273.5 105q43 0 86 -5t84 -13v-80q-37 8 -80 13.5t-86 5.5q-135 0 -216 -85t-81 -259q0 -172 83 -254t212 -82q43 0 87 6 t85 14v-76q-84 -22 -174 -22q-170 0 -273.5 103.5t-103.5 310.5z" />
<glyph unicode="&#xaa;" horiz-adv-x="729" d="M88 915q0 100 66.5 163t199.5 79l168 19v90q0 98 -40 140t-148 42q-27 0 -67 -3t-111 -18l-11 78q76 12 129.5 17.5t87.5 5.5q127 0 184.5 -60.5t57.5 -193.5v-553h-65l-9 96h-8q-82 -55 -137.5 -79.5t-108.5 -24.5q-86 0 -137 55t-51 147zM164 926q0 -140 127 -140 q45 0 96 20.5t135 70.5v225l-90 -6q-152 -12 -210 -50t-58 -120z" />
<glyph unicode="&#xab;" horiz-adv-x="831" d="M80 549v8l192 487h93l-193 -487v-8l193 -488h-93zM463 549v8l192 487h93l-193 -487v-8l193 -488h-93z" />
<glyph unicode="&#xac;" horiz-adv-x="1417" d="M117 778v82h1169v-612h-88v530h-1081z" />
<glyph unicode="&#xad;" horiz-adv-x="632" d="M121 532v82h391v-82h-391z" />
<glyph unicode="&#xae;" horiz-adv-x="1439" d="M90 911q0 135 47 251t131 201t200 132t251 47q137 0 252.5 -47t199.5 -132t131.5 -200.5t47.5 -251.5q0 -135 -47.5 -250.5t-131.5 -199.5t-199.5 -131t-252.5 -47q-135 0 -251 47t-200 131t-131 199.5t-47 250.5zM166 911q0 -121 41 -222t114.5 -175t175 -115t222.5 -41 t222 41t175 115t116 175.5t42 221.5q0 121 -42 223.5t-116 176t-175 115.5t-222 42t-222.5 -42t-175 -115.5t-114.5 -176t-41 -223.5zM487 569v703q55 8 102.5 12t88.5 4q166 0 243.5 -53t77.5 -170q0 -162 -155 -209l-2 -6l186 -281h-90l-178 271h-197v-271h-76zM563 913 q23 -2 56.5 -3t66.5 -1q238 0 238 154q0 82 -55.5 118t-182.5 36q-27 0 -55.5 -3.5t-67.5 -7.5v-293z" />
<glyph unicode="&#xaf;" horiz-adv-x="690" d="M104 1333v78h482v-78h-482z" />
<glyph unicode="&#xb0;" horiz-adv-x="765" d="M88 1147q0 84 21.5 155.5t60.5 124t93 81t120 28.5t120 -28.5t92 -81t59.5 -124t21.5 -155.5t-21.5 -155.5t-59.5 -123t-92 -80t-120 -28.5t-120 28.5t-93 80t-60.5 123t-21.5 155.5zM158 1147q0 -137 57 -223t168 -86t167 86t56 223t-56 224t-167 87t-168 -87t-57 -224z " />
<glyph unicode="&#xb1;" horiz-adv-x="1019" d="M131 221v82h758v-82h-758zM131 840v80h338v356h82v-356h338v-80h-338v-357h-82v357h-338z" />
<glyph unicode="&#xb2;" horiz-adv-x="659" d="M74 614v140q0 135 55 237.5t182 204.5q98 78 138 142.5t40 142.5q0 90 -46 137t-136 47q-35 0 -80 -9t-110 -30l-19 78q66 23 118 33t97 10q262 0 262 -264q0 -98 -48 -176t-158 -170q-55 -47 -95.5 -91.5t-66 -89.5t-36.5 -94t-11 -104v-62h418v-82h-504z" />
<glyph unicode="&#xb3;" horiz-adv-x="628" d="M74 1722q51 12 93 19.5t79 7.5q129 0 200.5 -76t71.5 -211q0 -98 -49 -166.5t-139 -97.5q217 -61 217 -299q0 -139 -81 -217t-224 -78q-74 0 -158 23v73h22q61 -16 132 -16q106 0 165.5 57.5t59.5 159.5q0 254 -273 254h-30v80h33q111 0 176 59.5t65 163.5 q0 102 -49 155.5t-143 53.5q-53 0 -127 -18h-23z" />
<glyph unicode="&#xb4;" horiz-adv-x="411" d="M90 1262l154 374h92l-182 -387z" />
<glyph unicode="&#xb5;" horiz-adv-x="983" d="M152 -451v1557h88v-830q0 -213 172 -213q72 0 148.5 31t174.5 101v911h88v-1106h-78l-8 119h-8q-100 -74 -178 -106.5t-150 -32.5q-104 0 -161 38v-469h-88z" />
<glyph unicode="&#xb6;" horiz-adv-x="927" d="M74 1034q0 137 25.5 231.5t71.5 152t109.5 83t141.5 25.5q35 0 59.5 -5t59.5 -16v-1505h-86v545q-6 -2 -24.5 -2h-31.5q-74 0 -134 25.5t-102 83t-65.5 151.5t-23.5 231zM662 0v1505h96v-1505h-96z" />
<glyph unicode="&#xb7;" horiz-adv-x="376" d="M119 758q0 37 19.5 53t47.5 16q31 0 51.5 -17t20.5 -52t-20.5 -52.5t-51.5 -17.5q-29 0 -48 16.5t-19 53.5z" />
<glyph unicode="&#xb8;" horiz-adv-x="526" d="M51 -348q61 -23 121 -23q139 0 139 146q0 53 -20.5 116.5t-54.5 120.5h83q35 -61 53.5 -124.5t18.5 -114.5q0 -111 -55.5 -167.5t-159.5 -56.5q-31 0 -63.5 5.5t-61.5 15.5v82z" />
<glyph unicode="&#xb9;" horiz-adv-x="499" d="M41 1518v16l264 199h53v-1119h-84v998l-184 -139h-16z" />
<glyph unicode="&#xba;" horiz-adv-x="788" d="M92 1118q0 209 81 310.5t224 101.5q141 0 220 -101.5t79 -310.5t-79 -310t-220 -101q-143 0 -224 101t-81 310zM170 1118q0 -96 17.5 -160.5t48 -104.5t72.5 -57.5t89 -17.5q45 0 85 17.5t71 57.5t49.5 104.5t18.5 160.5t-18.5 162t-49.5 105.5t-71 57t-85 17.5 q-47 0 -89 -17.5t-72.5 -57t-48 -105.5t-17.5 -162z" />
<glyph unicode="&#xbb;" horiz-adv-x="831" d="M86 61l193 488v8l-193 487h92l193 -487v-8l-193 -488h-92zM469 61l193 488v8l-193 487h92l193 -487v-8l-193 -488h-92z" />
<glyph unicode="&#xbc;" horiz-adv-x="1495" d="M49 1313v16l264 199h54v-1118h-84v997l-185 -139h-16zM387 0l533 1516h86l-533 -1516h-86zM793 330l370 803h19l55 -19l2 -16l-348 -740h350l23 441h61v-441h113v-75h-113v-283h-86v283h-412z" />
<glyph unicode="&#xbd;" horiz-adv-x="1576" d="M49 1313v16l264 199h54v-1118h-84v997l-185 -139h-16zM387 0l533 1516h86l-533 -1516h-86zM979 -2v139q0 66 12.5 122t40 108.5t72.5 103.5t113 109q51 45 85.5 79.5t55 67.5t29 64.5t8.5 68.5q0 92 -45 140.5t-131 48.5q-47 0 -101.5 -11.5t-95.5 -27.5l-18 77 q129 43 217 43q129 0 194.5 -67.5t65.5 -196.5q0 -49 -9.5 -88t-32 -77.5t-63.5 -82t-102 -98.5q-59 -53 -99 -98t-65 -89t-35 -90t-10 -102v-61h418v-82h-504z" />
<glyph unicode="&#xbe;" horiz-adv-x="1662" d="M94 1518q51 12 93 19t79 7q129 0 201 -75.5t72 -211.5q0 -98 -49.5 -166.5t-139.5 -97.5q217 -61 217 -299q0 -139 -81 -217t-224 -78q-74 0 -158 23v74h23q61 -16 131 -17q106 0 165.5 57.5t59.5 159.5q0 254 -272 254h-31v80h33q111 0 176.5 59.5t65.5 163.5 q0 102 -49.5 155.5t-143.5 53.5q-53 0 -127 -18h-22zM512 0l532 1516h86l-532 -1516h-86zM965 330l370 803h19l55 -19l2 -16l-348 -740h350l23 441h61v-441h113v-75h-113v-283h-86v283h-412z" />
<glyph unicode="&#xbf;" horiz-adv-x="778" d="M57 -20q0 113 39 188.5t97.5 125.5t129 78.5t136.5 47.5v375h80l4 -439q-59 -16 -129 -39.5t-129.5 -65.5t-99.5 -106.5t-40 -162.5q0 -92 28 -153.5t72 -98.5t99 -52.5t111 -15.5q63 0 126.5 14.5t125.5 36.5l24 -73q-61 -27 -134 -44.5t-148 -17.5q-72 0 -141.5 19.5 t-125 65.5t-90.5 124t-35 193zM426 1049q0 31 18.5 49t51.5 18t50 -18.5t17 -48.5q0 -70 -67 -70q-70 0 -70 70z" />
<glyph unicode="&#xc0;" d="M18 0v12l463 1504h115l463 -1504v-12h-86l-154 500h-559l-156 -500h-86zM283 584h510l-187 604l-65 229h-6l-64 -229zM313 1872h97l159 -238l-77 -28z" />
<glyph unicode="&#xc1;" d="M18 0v12l463 1504h115l463 -1504v-12h-86l-154 500h-559l-156 -500h-86zM283 584h510l-187 604l-65 229h-6l-64 -229zM494 1614l159 258h97l-179 -266z" />
<glyph unicode="&#xc2;" d="M18 0v12l463 1504h115l463 -1504v-12h-86l-154 500h-559l-156 -500h-86zM283 584h510l-187 604l-65 229h-6l-64 -229zM285 1673v94l254 148l254 -148v-94l-254 148z" />
<glyph unicode="&#xc3;" d="M18 0v12l463 1504h115l463 -1504v-12h-86l-154 500h-559l-156 -500h-86zM244 1739q29 41 80 75.5t100 34.5q39 0 69.5 -13t59.5 -30.5t56.5 -31t62.5 -13.5q33 0 60.5 22.5t47.5 59.5l56 -41q-23 -53 -72 -87t-98 -34q-39 0 -70 13.5t-59.5 31t-57 30.5t-61.5 13 q-35 0 -69 -23.5t-56 -55.5zM283 584h510l-187 604l-65 229h-6l-64 -229z" />
<glyph unicode="&#xc4;" d="M18 0v12l463 1504h115l463 -1504v-12h-86l-154 500h-559l-156 -500h-86zM283 584h510l-187 604l-65 229h-6l-64 -229zM295 1733q0 37 19.5 53t47.5 16q29 0 49.5 -17.5t20.5 -51.5q0 -35 -20.5 -51.5t-49.5 -16.5t-48 16.5t-19 51.5zM645 1733q0 37 20.5 53t49.5 16 t50 -17.5t21 -51.5q0 -35 -21 -51.5t-50 -16.5t-49.5 16.5t-20.5 51.5z" />
<glyph unicode="&#xc5;" d="M18 0v12l449 1454q-55 23 -84 75t-29 120q0 86 46 146.5t139 60.5q92 0 139 -60.5t47 -146.5q0 -68 -29.5 -120t-85.5 -75l449 -1454v-12h-86l-154 500h-559l-156 -500h-86zM283 584h510l-187 604l-65 229h-6l-64 -229zM428 1661q0 -57 28 -95t83 -38q53 0 82.5 38 t29.5 95t-28.5 95t-83.5 38t-83 -38t-28 -95z" />
<glyph unicode="&#xc6;" horiz-adv-x="1492" d="M14 0v12l506 1504h875v-84h-615l27 -621h522v-84h-518l31 -643h571v-84h-659l-21 500h-463l-168 -500h-88zM299 584h430l-35 846h-110z" />
<glyph unicode="&#xc7;" horiz-adv-x="991" d="M98 756q0 209 34 356.5t108.5 240.5t192.5 136t286 43q43 0 94 -3t109 -13v-82q-31 6 -84.5 10t-108.5 4q-147 0 -249.5 -37t-167 -120t-93.5 -214t-29 -321q0 -182 31 -313.5t95.5 -215.5t164 -124t238.5 -40q29 0 90 4.5t113 12.5v-82q-47 -10 -90.5 -14t-108.5 -4 q-6 0 -12 1t-13 1q29 -55 42.5 -109.5t13.5 -99.5q0 -111 -55.5 -167.5t-159.5 -56.5q-31 0 -64 5.5t-61 15.5v82q61 -23 121 -23q139 0 139 146q0 47 -16.5 102t-45.5 109q-135 14 -232 67t-159.5 147.5t-92.5 231.5t-30 324z" />
<glyph unicode="&#xc8;" horiz-adv-x="1005" d="M162 0v1516h747v-84h-659v-621h592v-84h-592v-643h678v-84h-766zM305 1872h96l160 -238l-78 -28z" />
<glyph unicode="&#xc9;" horiz-adv-x="1005" d="M162 0v1516h747v-84h-659v-621h592v-84h-592v-643h678v-84h-766zM485 1614l160 258h96l-178 -266z" />
<glyph unicode="&#xca;" horiz-adv-x="1005" d="M162 0v1516h747v-84h-659v-621h592v-84h-592v-643h678v-84h-766zM276 1673v94l254 148l254 -148v-94l-254 148z" />
<glyph unicode="&#xcb;" horiz-adv-x="1005" d="M162 0v1516h747v-84h-659v-621h592v-84h-592v-643h678v-84h-766zM287 1733q0 37 19.5 53t47.5 16q29 0 49.5 -17.5t20.5 -51.5q0 -35 -20.5 -51.5t-49.5 -16.5t-48 16.5t-19 51.5zM637 1733q0 37 20.5 53t49.5 16t50 -17.5t21 -51.5q0 -35 -21 -51.5t-50 -16.5 t-49.5 16.5t-20.5 51.5z" />
<glyph unicode="&#xcc;" horiz-adv-x="413" d="M-12 1872h96l160 -238l-78 -28zM162 0v1516h88v-1516h-88z" />
<glyph unicode="&#xcd;" horiz-adv-x="413" d="M162 0v1516h88v-1516h-88zM168 1614l160 258h96l-178 -266z" />
<glyph unicode="&#xce;" horiz-adv-x="413" d="M-43 1673v94l254 148l254 -148v-94l-254 148zM162 0v1516h88v-1516h-88z" />
<glyph unicode="&#xcf;" horiz-adv-x="413" d="M-31 1733q0 37 19.5 53t48.5 16t49 -17.5t20 -51.5q0 -35 -20 -51.5t-49 -16.5t-48.5 16.5t-19.5 51.5zM162 0v1516h88v-1516h-88zM319 1733q0 37 20.5 53t49.5 16t50.5 -17.5t21.5 -51.5q0 -35 -21.5 -51.5t-50.5 -16.5t-49.5 16.5t-20.5 51.5z" />
<glyph unicode="&#xd0;" horiz-adv-x="1179" d="M0 713v82h182v704q92 18 166 27.5t135 9.5q309 0 455.5 -190.5t146.5 -589.5q0 -410 -164.5 -601.5t-519.5 -191.5q-53 0 -107 3t-112 14v733h-182zM270 59q43 -4 78 -7t66 -3q578 0 577 707q0 362 -123 529t-389 167q-106 0 -209 -20v-637h324v-82h-324v-654z" />
<glyph unicode="&#xd1;" horiz-adv-x="1316" d="M162 0v1516h96l707 -1188l94 -174l10 2v1360h86v-1516h-98l-699 1176l-100 184l-10 -2v-1358h-86zM375 1739q29 41 80 75.5t100 34.5q39 0 69.5 -13t59.5 -30.5t56.5 -31t62.5 -13.5q33 0 60.5 22.5t47.5 59.5l56 -41q-23 -53 -72 -87t-98 -34q-39 0 -70 13.5t-59.5 31 t-57 30.5t-61.5 13q-35 0 -69 -23.5t-56 -55.5z" />
<glyph unicode="&#xd2;" horiz-adv-x="1212" d="M98 756q0 395 125 587.5t383 192.5q508 0 508 -780q0 -776 -508 -776t-508 776zM186 756q0 -362 100.5 -527.5t319.5 -165.5q217 0 318.5 166t101.5 527q0 356 -102.5 526t-317.5 170q-219 0 -319.5 -167t-100.5 -529zM381 1872h96l160 -238l-78 -28z" />
<glyph unicode="&#xd3;" horiz-adv-x="1212" d="M98 756q0 395 125 587.5t383 192.5q508 0 508 -780q0 -776 -508 -776t-508 776zM186 756q0 -362 100.5 -527.5t319.5 -165.5q217 0 318.5 166t101.5 527q0 356 -102.5 526t-317.5 170q-219 0 -319.5 -167t-100.5 -529zM561 1614l160 258h96l-178 -266z" />
<glyph unicode="&#xd4;" horiz-adv-x="1212" d="M98 756q0 395 125 587.5t383 192.5q508 0 508 -780q0 -776 -508 -776t-508 776zM186 756q0 -362 100.5 -527.5t319.5 -165.5q217 0 318.5 166t101.5 527q0 356 -102.5 526t-317.5 170q-219 0 -319.5 -167t-100.5 -529zM352 1673v94l254 148l254 -148v-94l-254 148z" />
<glyph unicode="&#xd5;" horiz-adv-x="1212" d="M98 756q0 395 125 587.5t383 192.5q508 0 508 -780q0 -776 -508 -776t-508 776zM186 756q0 -362 100.5 -527.5t319.5 -165.5q217 0 318.5 166t101.5 527q0 356 -102.5 526t-317.5 170q-219 0 -319.5 -167t-100.5 -529zM311 1739q29 41 80 75.5t101 34.5q39 0 69.5 -13 t59 -30.5t56.5 -31t62 -13.5q33 0 60.5 22.5t48.5 59.5l55 -41q-23 -53 -72 -87t-98 -34q-39 0 -69.5 13.5t-59.5 31t-57.5 30.5t-61.5 13q-35 0 -68.5 -23.5t-56.5 -55.5z" />
<glyph unicode="&#xd6;" horiz-adv-x="1212" d="M98 756q0 395 125 587.5t383 192.5q508 0 508 -780q0 -776 -508 -776t-508 776zM186 756q0 -362 100.5 -527.5t319.5 -165.5q217 0 318.5 166t101.5 527q0 356 -102.5 526t-317.5 170q-219 0 -319.5 -167t-100.5 -529zM362 1733q0 37 19.5 53t48.5 16t49.5 -17.5 t20.5 -51.5q0 -35 -20.5 -51.5t-49.5 -16.5t-48.5 16.5t-19.5 51.5zM713 1733q0 37 20.5 53t48.5 16q29 0 50.5 -17.5t21.5 -51.5q0 -35 -21.5 -51.5t-50.5 -16.5t-49 16.5t-20 51.5z" />
<glyph unicode="&#xd7;" horiz-adv-x="882" d="M111 487l272 273l-272 272l57 58l272 -273l273 273l59 -58l-274 -272l274 -273l-59 -57l-273 272l-272 -272z" />
<glyph unicode="&#xd8;" horiz-adv-x="1236" d="M47 0l158 227q-94 188 -94 529q0 395 125.5 587.5t381.5 192.5q244 0 371 -178l111 158h92l-160 -230q96 -193 96 -530q0 -776 -510 -776q-246 0 -370 174l-107 -154h-94zM201 756q0 -285 61 -447l674 971q-104 172 -318 172q-217 0 -317 -167t-100 -529zM299 229 q51 -86 129.5 -126t189.5 -40q217 0 318.5 166t101.5 527q0 276 -65 444z" />
<glyph unicode="&#xd9;" horiz-adv-x="1271" d="M150 596v920h88v-922q0 -276 96 -403.5t303 -127.5t302 127t95 404v922h88v-920q0 -324 -113.5 -470t-371.5 -146t-372.5 146t-114.5 470zM410 1872h96l160 -238l-78 -28z" />
<glyph unicode="&#xda;" horiz-adv-x="1271" d="M150 596v920h88v-922q0 -276 96 -403.5t303 -127.5t302 127t95 404v922h88v-920q0 -324 -113.5 -470t-371.5 -146t-372.5 146t-114.5 470zM590 1614l160 258h96l-178 -266z" />
<glyph unicode="&#xdb;" horiz-adv-x="1271" d="M150 596v920h88v-922q0 -276 96 -403.5t303 -127.5t302 127t95 404v922h88v-920q0 -324 -113.5 -470t-371.5 -146t-372.5 146t-114.5 470zM381 1673v94l254 148l254 -148v-94l-254 148z" />
<glyph unicode="&#xdc;" horiz-adv-x="1271" d="M150 596v920h88v-922q0 -276 96 -403.5t303 -127.5t302 127t95 404v922h88v-920q0 -324 -113.5 -470t-371.5 -146t-372.5 146t-114.5 470zM391 1733q0 37 19.5 53t48.5 16t49 -17.5t20 -51.5q0 -35 -20 -51.5t-49 -16.5t-48.5 16.5t-19.5 51.5zM741 1733q0 37 20.5 53 t49.5 16t50.5 -17.5t21.5 -51.5q0 -35 -21.5 -51.5t-50.5 -16.5t-49.5 16.5t-20.5 51.5z" />
<glyph unicode="&#xdd;" horiz-adv-x="1032" d="M6 1516h96l357 -781l53 -135h6l53 135l357 781h96l-463 -1004v-512h-88v504zM477 1614l160 258h96l-178 -266z" />
<glyph unicode="&#xde;" horiz-adv-x="1038" d="M162 0v1516h88v-259q111 18 207 19q260 0 385 -124t125 -390q0 -268 -129 -391t-412 -123q-41 0 -85 2t-91 6v-256h-88zM250 344q53 -4 103.5 -8t97.5 -4q221 0 323.5 103.5t102.5 326.5t-98.5 325.5t-307.5 102.5q-47 0 -103.5 -5t-117.5 -16v-825z" />
<glyph unicode="&#xdf;" horiz-adv-x="1005" d="M137 0v1262q0 205 86 302t273 97q184 0 270 -97.5t86 -301.5v-211h-143q-106 0 -169 -57.5t-63 -155.5q0 -61 17.5 -100.5t47 -64t68.5 -40t80 -27.5q68 -23 116 -49.5t77.5 -64t44 -88t14.5 -117.5q0 -68 -21.5 -125.5t-61.5 -99.5t-95 -64.5t-121 -22.5 q-51 0 -109.5 9.5t-154.5 31.5v82q135 -41 254 -41q104 0 163.5 61.5t59.5 166.5q0 96 -45 153.5t-147 85.5q-49 12 -97.5 29.5t-87.5 49.5t-63.5 87t-24.5 146q0 135 84 216t225 81h66v129q0 172 -61.5 244.5t-208.5 72.5t-209 -71.5t-62 -245.5v-1262h-88z" />
<glyph unicode="&#xe0;" horiz-adv-x="866" d="M68 264q0 301 378 332l201 14v162q0 141 -57.5 205.5t-183.5 64.5q-51 0 -120 -10t-130 -26l-15 81q72 16 148 25.5t133 9.5q313 0 313 -344v-778h-73l-15 133h-8q-70 -51 -151 -97t-173 -46q-117 0 -182 72.5t-65 201.5zM160 272q0 -198 180 -198q39 0 83 16t85 39 t77 47.5t62 40.5v318l-182 -15q-166 -12 -235.5 -71.5t-69.5 -176.5zM248 1636h92l152 -366l-62 -21z" />
<glyph unicode="&#xe1;" horiz-adv-x="866" d="M68 264q0 301 378 332l201 14v162q0 141 -57.5 205.5t-183.5 64.5q-51 0 -120 -10t-130 -26l-15 81q72 16 148 25.5t133 9.5q313 0 313 -344v-778h-73l-15 133h-8q-70 -51 -151 -97t-173 -46q-117 0 -182 72.5t-65 201.5zM160 272q0 -198 180 -198q39 0 83 16t85 39 t77 47.5t62 40.5v318l-182 -15q-166 -12 -235.5 -71.5t-69.5 -176.5zM412 1262l153 374h92l-182 -387z" />
<glyph unicode="&#xe2;" horiz-adv-x="866" d="M68 264q0 301 378 332l201 14v162q0 141 -57.5 205.5t-183.5 64.5q-51 0 -120 -10t-130 -26l-15 81q72 16 148 25.5t133 9.5q313 0 313 -344v-778h-73l-15 133h-8q-70 -51 -151 -97t-173 -46q-117 0 -182 72.5t-65 201.5zM160 272q0 -198 180 -198q39 0 83 16t85 39 t77 47.5t62 40.5v318l-182 -15q-166 -12 -235.5 -71.5t-69.5 -176.5zM190 1309v94l254 147l254 -147v-94l-254 147z" />
<glyph unicode="&#xe3;" horiz-adv-x="866" d="M68 264q0 301 378 332l201 14v162q0 141 -57.5 205.5t-183.5 64.5q-51 0 -120 -10t-130 -26l-15 81q72 16 148 25.5t133 9.5q313 0 313 -344v-778h-73l-15 133h-8q-70 -51 -151 -97t-173 -46q-117 0 -182 72.5t-65 201.5zM143 1352q31 41 81 74.5t100 33.5q39 0 69.5 -14 t59 -30.5t56.5 -31t62 -14.5q33 0 60.5 22.5t46.5 59.5l57 -43q-23 -53 -71 -86t-99 -33q-39 0 -69.5 14.5t-59 31t-57.5 30.5t-62 14q-35 0 -67.5 -23.5t-54.5 -56.5zM160 272q0 -198 180 -198q39 0 83 16t85 39t77 47.5t62 40.5v318l-182 -15q-166 -12 -235.5 -71.5 t-69.5 -176.5z" />
<glyph unicode="&#xe4;" horiz-adv-x="866" d="M68 264q0 301 378 332l201 14v162q0 141 -57.5 205.5t-183.5 64.5q-51 0 -120 -10t-130 -26l-15 81q72 16 148 25.5t133 9.5q313 0 313 -344v-778h-73l-15 133h-8q-70 -51 -151 -97t-173 -46q-117 0 -182 72.5t-65 201.5zM160 272q0 -198 180 -198q39 0 83 16t85 39 t77 47.5t62 40.5v318l-182 -15q-166 -12 -235.5 -71.5t-69.5 -176.5zM209 1362q0 33 17.5 48t45.5 15q29 0 46.5 -15t17.5 -48t-17.5 -48.5t-46.5 -15.5t-46 15.5t-17 48.5zM549 1362q0 33 18.5 48t46.5 15q27 0 45.5 -15t18.5 -48t-18.5 -48.5t-45.5 -15.5q-29 0 -47 15.5 t-18 48.5z" />
<glyph unicode="&#xe5;" horiz-adv-x="866" d="M68 264q0 301 378 332l201 14v162q0 141 -57.5 205.5t-183.5 64.5q-51 0 -120 -10t-130 -26l-15 81q72 16 148 25.5t133 9.5q313 0 313 -344v-778h-73l-15 133h-8q-70 -51 -151 -97t-173 -46q-117 0 -182 72.5t-65 201.5zM160 272q0 -198 180 -198q39 0 83 16t85 39 t77 47.5t62 40.5v318l-182 -15q-166 -12 -235.5 -71.5t-69.5 -176.5zM260 1468q0 86 46 146.5t138 60.5t139.5 -60.5t47.5 -146.5t-48.5 -146t-138.5 -60t-137 60t-47 146zM334 1468q0 -57 28.5 -95t81.5 -38t83 39t30 94q0 57 -28.5 95.5t-84.5 38.5q-55 0 -82.5 -38 t-27.5 -96z" />
<glyph unicode="&#xe6;" horiz-adv-x="1439" d="M68 264q0 301 378 332l201 14v164q0 141 -58.5 204.5t-182.5 63.5q-53 0 -121 -10t-129 -26l-15 81q74 16 150 25.5t131 9.5q123 0 193.5 -55t93.5 -166h10q94 223 323 223q154 0 235 -117.5t81 -340.5q0 -51 -2 -83t-6 -65h-615q4 -219 87 -337t233 -118q66 0 124 15.5 t126 50.5l10 -84q-57 -31 -124.5 -47t-137.5 -16q-113 0 -197 50t-133 142l-8 2q-78 -53 -135.5 -88t-101.5 -57.5t-83 -31.5t-80 -9q-117 0 -182 72.5t-65 201.5zM160 272q0 -198 180 -198q70 0 148.5 47t199.5 129q-41 113 -41 285l-182 -15q-166 -14 -235.5 -72.5 t-69.5 -175.5zM735 598h533q-6 236 -59.5 340t-168.5 104q-135 0 -215 -115.5t-90 -328.5z" />
<glyph unicode="&#xe7;" horiz-adv-x="751" d="M88 553q0 573 412 573q35 0 74.5 -5t103.5 -17v-84q-51 12 -92 17t-82 5q-166 0 -245 -118.5t-79 -372.5q0 -250 79 -369t245 -119q57 0 174 25v-84q-35 -8 -75 -14t-75 -8q29 -55 42.5 -109.5t13.5 -99.5q0 -111 -55.5 -167.5t-159.5 -56.5q-31 0 -64 5.5t-61 15.5v82 q61 -23 121 -23q139 0 139 146q0 47 -15.5 101t-44.5 106q-182 16 -269 156.5t-87 414.5z" />
<glyph unicode="&#xe8;" horiz-adv-x="878" d="M88 528q0 291 101.5 443.5t293.5 152.5q154 0 235 -117.5t81 -340.5q0 -51 -2 -83t-6 -65h-611q4 -221 85 -338t231 -117q66 0 124 15.5t123 50.5l11 -84q-55 -31 -122.5 -47t-137.5 -16q-193 0 -299.5 143t-106.5 403zM182 598h529q-4 233 -58.5 338.5t-171.5 105.5 q-135 0 -211.5 -114.5t-87.5 -329.5zM242 1636h92l151 -366l-61 -21z" />
<glyph unicode="&#xe9;" horiz-adv-x="878" d="M88 528q0 291 101.5 443.5t293.5 152.5q154 0 235 -117.5t81 -340.5q0 -51 -2 -83t-6 -65h-611q4 -221 85 -338t231 -117q66 0 124 15.5t123 50.5l11 -84q-55 -31 -122.5 -47t-137.5 -16q-193 0 -299.5 143t-106.5 403zM182 598h529q-4 233 -58.5 338.5t-171.5 105.5 q-135 0 -211.5 -114.5t-87.5 -329.5zM432 1262l154 374h92l-182 -387z" />
<glyph unicode="&#xea;" horiz-adv-x="878" d="M88 528q0 291 101.5 443.5t293.5 152.5q154 0 235 -117.5t81 -340.5q0 -51 -2 -83t-6 -65h-611q4 -221 85 -338t231 -117q66 0 124 15.5t123 50.5l11 -84q-55 -31 -122.5 -47t-137.5 -16q-193 0 -299.5 143t-106.5 403zM182 598h529q-4 233 -58.5 338.5t-171.5 105.5 q-135 0 -211.5 -114.5t-87.5 -329.5zM199 1309v94l254 147l254 -147v-94l-254 147z" />
<glyph unicode="&#xeb;" horiz-adv-x="878" d="M88 528q0 291 101.5 443.5t293.5 152.5q154 0 235 -117.5t81 -340.5q0 -51 -2 -83t-6 -65h-611q4 -221 85 -338t231 -117q66 0 124 15.5t123 50.5l11 -84q-55 -31 -122.5 -47t-137.5 -16q-193 0 -299.5 143t-106.5 403zM182 598h529q-4 233 -58.5 338.5t-171.5 105.5 q-135 0 -211.5 -114.5t-87.5 -329.5zM223 1362q0 33 17.5 48t46.5 15t46 -15t17 -48t-17 -48.5t-46 -15.5t-46.5 15.5t-17.5 48.5zM563 1362q0 33 18.5 48t47.5 15q27 0 45 -15t18 -48t-18 -48.5t-45 -15.5q-29 0 -47.5 15.5t-18.5 48.5z" />
<glyph unicode="&#xec;" horiz-adv-x="368" d="M-10 1636h92l151 -366l-61 -21zM139 0v1106h88v-1106h-88z" />
<glyph unicode="&#xed;" horiz-adv-x="368" d="M139 0v1106h88v-1106h-88zM156 1262l153 374h92l-182 -387z" />
<glyph unicode="&#xee;" horiz-adv-x="372" d="M-66 1309v94l254 147l254 -147v-94l-254 147zM141 0v1106h88v-1106h-88z" />
<glyph unicode="&#xef;" horiz-adv-x="372" d="M-47 1362q0 33 18.5 48t46.5 15q29 0 46.5 -15t17.5 -48t-17.5 -48.5t-46.5 -15.5t-47 15.5t-18 48.5zM141 0v1106h88v-1106h-88zM295 1362q0 33 18.5 48t46.5 15q25 0 43.5 -15t18.5 -48t-18.5 -48.5t-43.5 -15.5q-29 0 -47 15.5t-18 48.5z" />
<glyph unicode="&#xf0;" horiz-adv-x="970" d="M88 553q0 281 101.5 427t293.5 146q147 0 244 -122q-23 82 -48.5 163.5t-57.5 163.5l-199 -35v80l168 29q-57 133 -123 250h92q33 -53 62.5 -111.5t56.5 -122.5l205 37v-80l-174 -30q39 -98 71.5 -202t54 -206t34 -200.5t12.5 -186.5q0 -281 -100.5 -425t-297.5 -144 q-195 0 -295 144t-100 425zM180 553q0 -487 303 -487q305 0 305 487q0 80 -11 167t-44 159.5t-92 118.5t-158 46q-303 0 -303 -491z" />
<glyph unicode="&#xf1;" horiz-adv-x="942" d="M137 0v1106h78l8 -119h8q92 68 182.5 103.5t168.5 35.5q63 0 107 -15t70.5 -49t38 -89t11.5 -135v-838h-88v829q0 115 -35 164t-117 49q-78 0 -164 -33.5t-180 -99.5v-909h-88zM182 1352q31 41 81 74.5t99 33.5q39 0 70 -14t59.5 -30.5t56 -31t62.5 -14.5q33 0 60.5 22.5 t46.5 59.5l57 -43q-23 -53 -71 -86t-99 -33q-39 0 -69.5 14.5t-59.5 31t-57.5 30.5t-61.5 14q-35 0 -67.5 -23.5t-55.5 -56.5z" />
<glyph unicode="&#xf2;" horiz-adv-x="968" d="M88 553q0 281 101.5 427t293.5 146q197 0 297.5 -146t100.5 -427t-100.5 -425t-297.5 -144q-195 0 -295 144t-100 425zM180 553q0 -487 303 -487q154 0 229.5 119.5t75.5 367.5q0 492 -305 491q-303 0 -303 -491zM262 1636h92l152 -366l-62 -21z" />
<glyph unicode="&#xf3;" horiz-adv-x="968" d="M88 553q0 281 101.5 427t293.5 146q197 0 297.5 -146t100.5 -427t-100.5 -425t-297.5 -144q-195 0 -295 144t-100 425zM180 553q0 -487 303 -487q154 0 229.5 119.5t75.5 367.5q0 492 -305 491q-303 0 -303 -491zM428 1262l154 374h92l-182 -387z" />
<glyph unicode="&#xf4;" horiz-adv-x="968" d="M88 553q0 281 101.5 427t293.5 146q197 0 297.5 -146t100.5 -427t-100.5 -425t-297.5 -144q-195 0 -295 144t-100 425zM180 553q0 -487 303 -487q154 0 229.5 119.5t75.5 367.5q0 492 -305 491q-303 0 -303 -491zM207 1309v94l254 147l254 -147v-94l-254 147z" />
<glyph unicode="&#xf5;" horiz-adv-x="968" d="M88 553q0 281 101.5 427t293.5 146q197 0 297.5 -146t100.5 -427t-100.5 -425t-297.5 -144q-195 0 -295 144t-100 425zM158 1352q31 41 81 74.5t99 33.5q39 0 69.5 -14t59.5 -30.5t56.5 -31t62.5 -14.5q33 0 60.5 22.5t45.5 59.5l58 -43q-23 -53 -71 -86t-99 -33 q-39 0 -70 14.5t-59.5 31t-57 30.5t-61.5 14q-35 0 -68 -23.5t-55 -56.5zM180 553q0 -487 303 -487q154 0 229.5 119.5t75.5 367.5q0 492 -305 491q-303 0 -303 -491z" />
<glyph unicode="&#xf6;" horiz-adv-x="968" d="M88 553q0 281 101.5 427t293.5 146q197 0 297.5 -146t100.5 -427t-100.5 -425t-297.5 -144q-195 0 -295 144t-100 425zM180 553q0 -487 303 -487q154 0 229.5 119.5t75.5 367.5q0 492 -305 491q-303 0 -303 -491zM225 1362q0 33 17.5 48t46.5 15t46 -15t17 -48t-17 -48.5 t-46 -15.5t-46.5 15.5t-17.5 48.5zM565 1362q0 33 18.5 48t47.5 15q27 0 45 -15t18 -48t-18 -48.5t-45 -15.5q-29 0 -47.5 15.5t-18.5 48.5z" />
<glyph unicode="&#xf7;" horiz-adv-x="1003" d="M123 717v82h758v-82h-758zM438 446q0 70 70 70q33 0 52.5 -18.5t19.5 -51.5q0 -35 -19.5 -53t-52.5 -18q-70 0 -70 71zM438 1053q0 72 70 71q33 0 52.5 -19.5t19.5 -51.5q0 -33 -19.5 -51.5t-52.5 -18.5q-70 0 -70 70z" />
<glyph unicode="&#xf8;" horiz-adv-x="972" d="M68 0l104 158q-82 139 -82 395q0 281 101.5 427t293.5 146q168 0 267 -108l59 88h88l-102 -152q86 -145 86 -401q0 -281 -100.5 -425t-297.5 -144q-168 0 -266 108l-61 -92h-90zM182 553q0 -199 47 -311l471 700q-78 102 -215 102q-303 1 -303 -491zM270 168 q72 -102 215 -102q156 0 231 119.5t75 367.5q0 197 -50 317z" />
<glyph unicode="&#xf9;" horiz-adv-x="940" d="M129 268v838h88v-830q0 -111 41 -160.5t131 -49.5q74 0 150.5 32.5t173.5 104.5v903h88v-1106h-76l-8 119h-8q-100 -72 -179 -105.5t-149 -33.5q-135 0 -193.5 66.5t-58.5 221.5zM266 1636h92l152 -366l-61 -21z" />
<glyph unicode="&#xfa;" horiz-adv-x="940" d="M129 268v838h88v-830q0 -111 41 -160.5t131 -49.5q74 0 150.5 32.5t173.5 104.5v903h88v-1106h-76l-8 119h-8q-100 -72 -179 -105.5t-149 -33.5q-135 0 -193.5 66.5t-58.5 221.5zM432 1262l154 374h92l-182 -387z" />
<glyph unicode="&#xfb;" horiz-adv-x="940" d="M129 268v838h88v-830q0 -111 41 -160.5t131 -49.5q74 0 150.5 32.5t173.5 104.5v903h88v-1106h-76l-8 119h-8q-100 -72 -179 -105.5t-149 -33.5q-135 0 -193.5 66.5t-58.5 221.5zM209 1309v94l254 147l254 -147v-94l-254 147z" />
<glyph unicode="&#xfc;" horiz-adv-x="940" d="M129 268v838h88v-830q0 -111 41 -160.5t131 -49.5q74 0 150.5 32.5t173.5 104.5v903h88v-1106h-76l-8 119h-8q-100 -72 -179 -105.5t-149 -33.5q-135 0 -193.5 66.5t-58.5 221.5zM227 1362q0 33 17.5 48t46.5 15t46 -15t17 -48t-17 -48.5t-46 -15.5t-46.5 15.5 t-17.5 48.5zM567 1362q0 33 18.5 48t47.5 15q27 0 45 -15t18 -48t-18 -48.5t-45 -15.5q-29 0 -47.5 15.5t-18.5 48.5z" />
<glyph unicode="&#xfd;" horiz-adv-x="894" d="M31 1098v8h88l299 -879l28 -114h7l30 114l295 879h88v-8l-520 -1549l-86 19v8l146 428zM432 1262l154 374h92l-182 -387z" />
<glyph unicode="&#xfe;" horiz-adv-x="952" d="M137 -451v2106h88v-658q53 59 127 93t158 34q176 0 265 -139t89 -412q0 -287 -117.5 -440t-340.5 -153q-80 0 -181 22v-453h-88zM225 82q59 -10 104.5 -16.5t82.5 -6.5q178 0 269 129t91 381q0 473 -274 473q-49 0 -97.5 -15t-87.5 -42t-63.5 -59.5t-24.5 -69.5v-774z " />
<glyph unicode="&#xff;" horiz-adv-x="894" d="M31 1098v8h88l299 -879l28 -114h7l30 114l295 879h88v-8l-520 -1549l-86 19v8l146 428zM229 1362q0 33 17.5 48t46.5 15t46 -15t17 -48t-17 -48.5t-46 -15.5t-46.5 15.5t-17.5 48.5zM569 1362q0 33 18.5 48t47.5 15q27 0 45 -15t18 -48t-18 -48.5t-45 -15.5 q-29 0 -47.5 15.5t-18.5 48.5z" />
<glyph unicode="&#x152;" horiz-adv-x="1538" d="M98 756q0 764 512 764q35 0 87.5 -1t80.5 -3h660v-84h-578v-621h512v-82h-512v-645h596v-84h-678q-29 -2 -81 -3t-87 -1q-512 0 -512 760zM188 756q0 -176 25 -304t76 -211t131.5 -122t191.5 -39q33 0 81 1t79 3v1346q-31 4 -78 5t-82 1q-221 0 -322.5 -164t-101.5 -516z " />
<glyph unicode="&#x153;" horiz-adv-x="1581" d="M88 553q0 281 101.5 427t293.5 146q139 0 225.5 -80.5t122.5 -234.5h11q39 154 124 233.5t220 79.5q154 0 234.5 -117.5t80.5 -340.5q0 -51 -2 -83t-6 -65h-610q4 -219 85 -337t230 -118q66 0 124 15.5t126 50.5l10 -84q-57 -31 -124.5 -47t-137.5 -16q-137 0 -227 79.5 t-129 227.5h-11q-78 -305 -346 -305q-195 0 -295 144t-100 425zM180 553q0 -487 303 -487q154 0 229.5 119.5t75.5 367.5q0 492 -305 491q-303 0 -303 -491zM883 598h528q-6 236 -59.5 340t-167.5 104q-137 0 -214 -114.5t-87 -329.5z" />
<glyph unicode="&#x178;" horiz-adv-x="1032" d="M6 1516h96l357 -781l53 -135h6l53 135l357 781h96l-463 -1004v-512h-88v504zM279 1733q0 37 19 53t48 16t49.5 -17.5t20.5 -51.5q0 -35 -20.5 -51.5t-49.5 -16.5t-48 16.5t-19 51.5zM629 1733q0 37 20.5 53t48.5 16q29 0 50.5 -17.5t21.5 -51.5q0 -35 -21.5 -51.5 t-50.5 -16.5t-49 16.5t-20 51.5z" />
<glyph unicode="&#x2c6;" horiz-adv-x="675" d="M70 1309v94l254 147l254 -147v-94l-254 147z" />
<glyph unicode="&#x2dc;" horiz-adv-x="802" d="M80 1352q31 41 81 74.5t99 33.5q39 0 69.5 -14t59.5 -30.5t56.5 -31t62.5 -14.5q33 0 60.5 22.5t45.5 59.5l58 -43q-23 -53 -71 -86t-99 -33q-39 0 -70 14.5t-59.5 31t-57 30.5t-61.5 14q-35 0 -67.5 -23.5t-55.5 -56.5z" />
<glyph unicode="&#x2000;" horiz-adv-x="957" />
<glyph unicode="&#x2001;" horiz-adv-x="1915" />
<glyph unicode="&#x2002;" horiz-adv-x="957" />
<glyph unicode="&#x2003;" horiz-adv-x="1915" />
<glyph unicode="&#x2004;" horiz-adv-x="638" />
<glyph unicode="&#x2005;" horiz-adv-x="478" />
<glyph unicode="&#x2006;" horiz-adv-x="319" />
<glyph unicode="&#x2007;" horiz-adv-x="319" />
<glyph unicode="&#x2008;" horiz-adv-x="239" />
<glyph unicode="&#x2009;" horiz-adv-x="383" />
<glyph unicode="&#x200a;" horiz-adv-x="106" />
<glyph unicode="&#x2010;" horiz-adv-x="632" d="M121 532v82h391v-82h-391z" />
<glyph unicode="&#x2011;" horiz-adv-x="632" d="M121 532v82h391v-82h-391z" />
<glyph unicode="&#x2012;" horiz-adv-x="632" d="M121 532v82h391v-82h-391z" />
<glyph unicode="&#x2013;" horiz-adv-x="974" d="M137 532v82h699v-82h-699z" />
<glyph unicode="&#x2014;" horiz-adv-x="1325" d="M137 532v82h1049v-82h-1049z" />
<glyph unicode="&#x2018;" horiz-adv-x="333" d="M102 1292q0 96 27 196.5t70 172.5l49 -16q-31 -78 -49.5 -170.5t-18.5 -174.5q0 -45 8.5 -95t26.5 -103l-82 -21q-31 88 -31 211z" />
<glyph unicode="&#x2019;" horiz-adv-x="333" d="M92 1098q31 80 49.5 172t18.5 172q0 88 -35 198l82 21q29 -84 29 -211q0 -96 -27 -196.5t-70 -172.5z" />
<glyph unicode="&#x201a;" horiz-adv-x="339" d="M68 -250q31 80 49 172t18 172q0 88 -35 199l82 20q29 -84 29 -211q0 -96 -26.5 -196.5t-69.5 -171.5z" />
<glyph unicode="&#x201c;" horiz-adv-x="712" d="M102 1292q0 96 27 196.5t70 172.5l49 -16q-31 -78 -49.5 -170.5t-18.5 -174.5q0 -45 8.5 -95t26.5 -103l-82 -21q-31 88 -31 211zM481 1292q0 96 27 196.5t70 172.5l49 -16q-31 -78 -49.5 -170.5t-18.5 -174.5q0 -45 8 -95t27 -103l-82 -21q-31 88 -31 211z" />
<glyph unicode="&#x201d;" horiz-adv-x="712" d="M92 1098q31 80 49.5 172t18.5 172q0 88 -35 198l82 21q29 -84 29 -211q0 -96 -27 -196.5t-70 -172.5zM471 1098q31 80 49.5 172t18.5 172q0 88 -35 198l82 21q29 -84 28 -211q0 -96 -26.5 -196.5t-69.5 -172.5z" />
<glyph unicode="&#x201e;" horiz-adv-x="720" d="M68 -250q31 80 49 172t18 172q0 88 -35 199l82 20q29 -84 29 -211q0 -96 -26.5 -196.5t-69.5 -171.5zM446 -250q31 80 49.5 172t18.5 172q0 88 -35 199l82 20q29 -84 29 -211q0 -96 -26.5 -196.5t-69.5 -171.5z" />
<glyph unicode="&#x2022;" horiz-adv-x="550" d="M154 758q0 74 36.5 98.5t83.5 24.5t85 -25t38 -98q0 -74 -38 -98.5t-85 -24.5t-83.5 24.5t-36.5 98.5z" />
<glyph unicode="&#x2026;" horiz-adv-x="1124" d="M117 68q0 74 71 73q35 0 54.5 -19.5t19.5 -53.5q0 -33 -19.5 -51.5t-54.5 -18.5q-72 0 -71 70zM500 68q0 74 71 73q35 0 54.5 -19.5t19.5 -53.5q0 -33 -19.5 -51.5t-54.5 -18.5q-72 0 -71 70zM862 68q0 74 72 73q35 0 54.5 -19.5t19.5 -53.5q0 -33 -19.5 -51.5 t-54.5 -18.5q-72 0 -72 70z" />
<glyph unicode="&#x202f;" horiz-adv-x="383" />
<glyph unicode="&#x2039;" horiz-adv-x="450" d="M80 549v8l192 487h93l-193 -487v-8l193 -488h-93z" />
<glyph unicode="&#x203a;" horiz-adv-x="450" d="M86 61l193 488v8l-193 487h92l193 -487v-8l-193 -488h-92z" />
<glyph unicode="&#x205f;" horiz-adv-x="478" />
<glyph unicode="&#x20ac;" horiz-adv-x="997" d="M82 547v78h149q-4 31 -4 63.5v67.5t1 67.5t3 65.5h-149v78h154q14 150 56 257t111.5 175.5t169 100.5t232.5 32q41 0 65.5 -1t53.5 -5l-33 -82q-16 2 -32.5 3t-43.5 1q-225 0 -342 -110.5t-143 -370.5h446l-41 -78h-413q-2 -33 -2.5 -65.5t-0.5 -67.5v-68t5 -63h387 l-41 -78h-340q29 -254 143.5 -369t331.5 -115q14 0 37.5 2.5t52.5 4.5v-86q-16 -4 -34.5 -4h-51.5q-262 4 -400.5 139t-170.5 428h-156z" />
<glyph unicode="&#x2122;" horiz-adv-x="1525" d="M59 1438v78h514v-78h-217v-783h-80v783h-217zM678 655v861h88l268 -709l269 709h88v-861h-80v668l-238 -633h-78l-237 631v-666h-80z" />
<glyph unicode="&#x25fc;" horiz-adv-x="1105" d="M0 0v1106h1106v-1106h-1106z" />
</font>
</defs>
</svg>
