<?xml version="1.0" standalone="no"?>
<!DOCTYPE svg PUBLIC "-//W3C//DTD SVG 1.1//EN" "http://www.w3.org/Graphics/SVG/1.1/DTD/svg11.dtd" >
<svg xmlns="http://www.w3.org/2000/svg">
<metadata></metadata>
<defs>
<font id="encode_sans_compressedlight" horiz-adv-x="1099" >
<font-face units-per-em="2048" ascent="1638" descent="-410" />
<missing-glyph horiz-adv-x="405" />
<glyph unicode="&#xfb01;" horiz-adv-x="937" d="M33 1006v100h153v86q0 125 17.5 210t58.5 138t110.5 80t174.5 37l2 -96q-74 -8 -122 -28t-75.5 -60.5t-39 -107.5t-11.5 -169v-90h201v-100h-201v-1006h-115v1006h-153zM666 1456q0 80 79 80q82 0 82 -80t-82 -80q-80 0 -79 80zM688 0v1106h115v-1106h-115z" />
<glyph unicode="&#xfb02;" horiz-adv-x="942" d="M33 1006v100h153v86q0 125 17.5 210t58.5 138t110.5 80t174.5 37l2 -96q-74 -8 -122 -28t-75.5 -60.5t-39 -107.5t-11.5 -169v-90h201v-100h-201v-1006h-115v1006h-153zM688 0v1655h115v-1655h-115z" />
<glyph unicode="&#xfb03;" horiz-adv-x="1458" d="M33 1006v100h153v86q0 125 17.5 210t58.5 138t110.5 80t174.5 37l2 -96q-74 -8 -122 -28t-75.5 -60.5t-39 -107.5t-11.5 -169v-90h201v-100h-201v-1006h-115v1006h-153zM553 1006v100h154v86q0 125 17 210t58 138t111 80t174 37l2 -96q-74 -8 -122 -28t-75.5 -60.5 t-39 -107.5t-11.5 -169v-90h201v-100h-201v-1006h-114v1006h-154zM1186 1456q0 80 80 80q82 0 82 -80t-82 -80q-80 0 -80 80zM1208 0v1106h115v-1106h-115z" />
<glyph unicode="&#xfb04;" horiz-adv-x="1462" d="M33 1006v100h153v86q0 125 17.5 210t58.5 138t110.5 80t174.5 37l2 -96q-74 -8 -122 -28t-75.5 -60.5t-39 -107.5t-11.5 -169v-90h201v-100h-201v-1006h-115v1006h-153zM553 1006v100h154v86q0 125 17 210t58 138t111 80t174 37l2 -96q-74 -8 -122 -28t-75.5 -60.5 t-39 -107.5t-11.5 -169v-90h201v-100h-201v-1006h-114v1006h-154zM1208 0v1655h115v-1655h-115z" />
<glyph horiz-adv-x="0" />
<glyph unicode="&#xd;" horiz-adv-x="573" />
<glyph horiz-adv-x="0" />
<glyph horiz-adv-x="0" />
<glyph unicode=" "  horiz-adv-x="405" />
<glyph unicode="&#x09;" horiz-adv-x="405" />
<glyph unicode="&#xa0;" horiz-adv-x="405" />
<glyph unicode="!" horiz-adv-x="419" d="M133 88q0 39 22.5 60.5t59.5 21.5q39 0 61.5 -22.5t22.5 -59.5q0 -39 -22.5 -59.5t-61.5 -20.5q-37 0 -59.5 20.5t-22.5 59.5zM150 1495v21h118v-21l-20 -1128v-29h-78v29z" />
<glyph unicode="&#x22;" horiz-adv-x="604" d="M123 983v672h102v-8l-45 -664h-57zM401 983v672h103v-8l-45 -664h-58z" />
<glyph unicode="#" horiz-adv-x="964" d="M88 489v93h162l29 352h-191v92h197l41 490h96l-41 -490h221l41 490h96l-41 -490h179v-92h-185l-28 -352h210v-93h-219l-39 -489h-98l39 489h-219l-39 -489h-96l39 489h-154zM346 582h219l29 352h-219z" />
<glyph unicode="$" horiz-adv-x="950" d="M72 41l14 104q29 -12 74 -24t95 -21.5t101.5 -15.5t94.5 -6q152 0 233.5 77.5t81.5 219.5q0 59 -18.5 107t-58.5 89t-100.5 77t-144.5 71q-92 37 -157.5 77t-107.5 87t-62.5 107.5t-20.5 137.5q0 172 97.5 281t263.5 129v279h100v-275q63 -4 131 -14t146 -27l-15 -104 q-176 39 -291 39q-143 0 -229 -83t-86 -225q0 -55 16.5 -98t53 -80t94 -68.5t139.5 -64.5q98 -41 168 -84t114 -94t64.5 -115.5t20.5 -146.5q0 -164 -84 -266.5t-232 -128.5v-283h-100v272h-6q-45 0 -97.5 5.5t-104.5 14.5t-101 22.5t-86 27.5z" />
<glyph unicode="%" horiz-adv-x="1593" d="M72 1061q0 236 76.5 355.5t224.5 119.5q150 0 225.5 -120t75.5 -355q0 -475 -301 -475t-301 475zM170 1061q0 -381 203 -381q201 0 200 381q0 188 -51 284.5t-149 96.5q-100 0 -151.5 -96.5t-51.5 -284.5zM469 0l532 1516h107l-533 -1516h-106zM922 446q0 236 76.5 357 t226.5 121q147 0 223 -121t76 -357t-76 -355.5t-223 -119.5q-303 0 -303 475zM1020 446q0 -378 205 -378q199 0 198 378q0 383 -198 383q-205 0 -205 -383z" />
<glyph unicode="&#x26;" horiz-adv-x="1198" d="M90 422q0 283 223 397q-47 72 -66.5 150t-19.5 174q0 199 95.5 299t277.5 100q68 0 139.5 -18.5t159.5 -59.5v-12l-25 -84h-10q-78 37 -139 53.5t-121 16.5q-129 0 -196.5 -76t-67.5 -227q0 -80 20.5 -148.5t64.5 -133.5t114.5 -127t171.5 -130l213 -145q10 53 15 115.5 t5 133.5v136l107 4v-140q0 -180 -31 -315l143 -96v-10l-47 -84h-12l-119 79q-116 -299 -450 -299q-209 0 -327 118t-118 329zM203 426q0 -162 90 -255t244 -93q266 0 358 260l-238 166q-96 66 -165.5 123t-118.5 114q-170 -96 -170 -315z" />
<glyph unicode="'" horiz-adv-x="325" d="M123 983v672h102v-8l-45 -664h-57z" />
<glyph unicode="(" horiz-adv-x="532" d="M80 725q0 289 80 558t233 495h105v-9q-152 -223 -232 -488t-80 -556q0 -293 80 -557t232 -487v-9h-105q-154 225 -233.5 495.5t-79.5 557.5z" />
<glyph unicode=")" horiz-adv-x="532" d="M37 -319q150 223 229.5 487t79.5 557q0 291 -80 556t-229 488v9h102q154 -225 234 -494.5t80 -558.5q0 -287 -80 -557t-234 -496h-102v9z" />
<glyph unicode="*" horiz-adv-x="966" d="M80 1389l29 88l161 -52l191 -90l-25 213v168h94v-168l-28 -213l194 90l162 52l29 -88l-162 -52l-207 -41l144 -155l98 -140l-74 -53l-98 137l-107 189l-102 -189l-98 -137l-76 53l98 140l143 155l-206 41z" />
<glyph unicode="+" horiz-adv-x="958" d="M92 709v98h338v352h98v-352h340v-98h-340v-353h-98v353h-338z" />
<glyph unicode="," horiz-adv-x="378" d="M43 -297l94 457h123l-125 -477z" />
<glyph unicode="-" horiz-adv-x="651" d="M117 524v99h418v-99h-418z" />
<glyph unicode="." horiz-adv-x="391" d="M111 78q0 86 84 86q86 0 86 -86q0 -82 -86 -82q-84 0 -84 82z" />
<glyph unicode="/" horiz-adv-x="563" d="M63 -248l328 1764h109l-328 -1764h-109z" />
<glyph unicode="0" horiz-adv-x="1081" d="M98 756q0 387 112 583.5t331 196.5t330.5 -196.5t111.5 -583.5q0 -385 -111.5 -580.5t-330.5 -195.5t-331 194.5t-112 581.5zM215 756q0 -340 80 -505t246 -165q326 0 325 670q0 338 -82 507t-243 169q-162 0 -244 -170t-82 -506z" />
<glyph unicode="1" horiz-adv-x="643" d="M39 1233l2 14l358 269h78v-1516h-117v1360h-6l-260 -191h-16z" />
<glyph unicode="2" horiz-adv-x="864" d="M82 0v188q0 92 17.5 170t55.5 149t99 137.5t149 133.5q70 53 117 101.5t77 94.5t43 94t13 103q0 125 -65.5 192t-194.5 67q-51 0 -111.5 -11.5t-144.5 -40.5l-20 103q86 29 157.5 41t137.5 12q176 0 267 -89t91 -267q0 -68 -15.5 -126.5t-49 -114.5t-89 -112.5 t-135.5 -119.5q-80 -68 -134 -126.5t-87 -117t-47 -122t-14 -136.5v-97h571v-106h-688z" />
<glyph unicode="3" horiz-adv-x="825" d="M88 1503q123 33 227 33q180 0 278.5 -99.5t98.5 -281.5q0 -141 -63.5 -235.5t-179.5 -126.5v-7q285 -68 284 -403q0 -186 -111.5 -291.5t-312.5 -105.5q-51 0 -104 6t-107 20v94h17q80 -25 186 -24q150 0 232.5 80t82.5 225q0 174 -94 262t-282 88h-33v99h33 q160 0 247.5 80.5t87.5 226.5q0 143 -67.5 218t-202.5 75q-78 0 -182 -27h-19z" />
<glyph unicode="4" horiz-adv-x="976" d="M41 438v8l504 1090h14l92 -20l4 -11l-483 -1018v-12h483v29l33 559h84v-588h154v-96h-154v-379h-117v379h-577z" />
<glyph unicode="5" horiz-adv-x="811" d="M94 4v100h29q106 -25 180 -24q150 0 228.5 91t78.5 263q0 182 -89 262t-294 80h-106l-8 8l53 732h512v-107h-414l-41 -535q139 -2 235.5 -26.5t157 -76.5t88 -135t27.5 -202q0 -221 -109.5 -341t-312.5 -120q-98 0 -215 31z" />
<glyph unicode="6" horiz-adv-x="999" d="M96 668q0 207 36 368.5t105.5 274t170 171t229.5 58.5q51 0 101 -8t108 -27l-6 -106q-57 20 -104.5 28.5t-96.5 8.5q-193 0 -302.5 -173t-125.5 -491q72 70 158 110t170 40q178 0 282.5 -118t104.5 -323q0 -115 -29 -208t-81 -159.5t-127 -102.5t-165 -36 q-213 0 -320.5 174.5t-107.5 518.5zM209 664q0 -299 78 -440.5t237 -141.5q131 0 210 107.5t79 289.5q0 164 -77 253t-214 89q-78 0 -163 -43t-150 -114z" />
<glyph unicode="7" horiz-adv-x="724" d="M49 1501l8 15h607l22 -64v-59l-440 -1397l-23 -19l-90 23v25l447 1384h-523z" />
<glyph unicode="8" horiz-adv-x="991" d="M94 373q0 152 57.5 251t184.5 158q-102 57 -153.5 145.5t-51.5 225.5q0 180 96.5 280.5t268.5 100.5q174 0 268 -100.5t94 -280.5q0 -147 -48 -237.5t-159 -145.5q125 -59 184.5 -149.5t59.5 -237.5q0 -90 -27.5 -161.5t-80 -123t-126 -78t-165.5 -26.5t-166 26.5 t-126 76.5t-81 120t-29 156zM205 381q0 -133 80 -213t211 -80t209.5 78t78.5 211q0 74 -16 128t-51 95t-91.5 69.5t-138.5 53.5q-14 4 -26 8t-25 8q-127 -59 -179 -140t-52 -218zM240 1149q0 -137 70.5 -212t226.5 -122q113 49 163 127t50 211q0 135 -66 210t-188 75 q-121 0 -188.5 -76t-67.5 -213z" />
<glyph unicode="9" horiz-adv-x="999" d="M74 1034q0 115 28.5 208t81 159.5t127 102.5t164.5 36q213 0 320.5 -174t107.5 -518q0 -207 -36 -369t-105.5 -274.5t-169.5 -171t-230 -58.5q-51 0 -101 8.5t-107 26.5l6 107q57 -20 104 -28.5t96 -8.5q193 0 302.5 173t125.5 490q-72 -70 -157.5 -109.5t-169.5 -39.5 q-178 0 -282.5 117.5t-104.5 322.5zM186 1036q0 -164 77 -253t214 -89q78 0 163 43t151 115q0 299 -78 440.5t-238 141.5q-131 0 -210 -107.5t-79 -290.5z" />
<glyph unicode=":" horiz-adv-x="401" d="M115 78q0 86 84 86q86 0 86 -86q0 -82 -86 -82q-84 0 -84 82zM115 1026q0 86 84 86q86 0 86 -86q0 -82 -86 -82q-84 0 -84 82z" />
<glyph unicode=";" horiz-adv-x="452" d="M86 -297l94 457h123l-125 -477zM154 1026q0 86 84 86q86 0 86 -86q0 -82 -86 -82q-84 0 -84 82z" />
<glyph unicode="&#x3c;" horiz-adv-x="989" d="M84 707v90l784 348v-111l-647 -284l641 -285v-109z" />
<glyph unicode="=" horiz-adv-x="1013" d="M123 463v100h768v-100h-768zM123 899v100h768v-100h-768z" />
<glyph unicode="&#x3e;" horiz-adv-x="989" d="M121 1034v111l784 -348v-90l-778 -351v109l641 285z" />
<glyph unicode="?" horiz-adv-x="802" d="M55 1481q63 25 136 41t149 16q74 0 145.5 -20.5t128 -66.5t91 -124t34.5 -190q0 -109 -36.5 -183.5t-95 -125t-129 -80t-136.5 -48.5l-2 -321v-39h-92v39l-8 393q61 16 128.5 40t125 63.5t94.5 102t37 155.5q0 86 -27 144t-69 93t-95 50.5t-106 15.5q-61 0 -125 -13.5 t-123 -36.5zM215 80q0 82 82 82t82 -82q0 -37 -21.5 -58.5t-60.5 -21.5t-60.5 21.5t-21.5 58.5z" />
<glyph unicode="@" horiz-adv-x="1583" d="M88 537q0 209 53.5 367.5t150.5 266t231 161.5t294 54q180 0 306 -54t206 -153.5t116 -238.5t36 -311q0 -117 -19.5 -213.5t-58.5 -165t-97.5 -106.5t-138.5 -38q-37 0 -69.5 7.5t-60 29t-46 57.5t-24.5 95h-11q-31 -49 -68.5 -82t-77.5 -54.5t-78 -30.5t-68 -9 q-72 0 -121 30.5t-79 81t-42 114t-12 128.5q0 115 31.5 214t90 172t142.5 114t188 41q111 0 271 -66l-70 -434q-8 -41 -14.5 -85t-6.5 -85q0 -63 26 -107t101 -44q111 0 164 118.5t53 317.5q0 152 -30.5 274.5t-98 210.5t-176 135t-264.5 47q-139 0 -256 -49t-201 -144 t-131 -237.5t-47 -328.5q0 -207 51.5 -346.5t134.5 -224.5t187 -120.5t213 -35.5q90 0 181 19t177 48l33 -82q-92 -33 -191.5 -53.5t-199.5 -20.5q-127 0 -249 40t-218 135.5t-154.5 252t-58.5 388.5zM502 473q0 -49 8 -96t27.5 -85t51.5 -61.5t81 -23.5q33 0 79 14.5t91 51 t80.5 99t52.5 158.5l59 363q-94 33 -170 33q-84 0 -150.5 -35t-113.5 -95.5t-71.5 -143.5t-24.5 -179z" />
<glyph unicode="A" d="M16 0v12l455 1504h158l454 -1504v-12h-110l-150 485h-547l-149 -485h-111zM303 588h492l-179 583l-63 228h-10l-62 -228z" />
<glyph unicode="B" horiz-adv-x="1120" d="M158 10v1499q68 8 118 13.5t91 8.5t76.5 4t72.5 1q242 0 358.5 -98.5t116.5 -307.5q0 -147 -62.5 -238t-178.5 -114v-8q135 -18 211.5 -117.5t76.5 -257.5q0 -209 -123.5 -312t-367.5 -103q-45 0 -99.5 2t-108.5 7t-101.5 10t-79.5 11zM268 94q14 -4 48 -7t75 -6t85 -5 t79 -2q362 2 363 325q0 170 -94.5 244t-311.5 74h-244v-623zM268 817h242q98 0 166.5 16.5t111.5 53.5t61.5 95t18.5 144q0 160 -84 236t-260 76q-70 0 -129 -4t-127 -15v-602z" />
<glyph unicode="C" horiz-adv-x="995" d="M94 756q0 209 35 356.5t109.5 240.5t192.5 136t284 43q47 0 100 -3t113 -13v-105q-35 8 -89.5 12t-109.5 4q-139 0 -237.5 -34.5t-160 -114.5t-89 -208t-27.5 -314q0 -178 29.5 -305t91 -208t157 -119t228.5 -38q31 0 92 4t115 12v-102q-47 -10 -94 -15t-115 -5 q-164 2 -283 48t-194.5 140t-111.5 239.5t-36 348.5z" />
<glyph unicode="D" horiz-adv-x="1175" d="M158 -20v1521q96 16 169.5 25.5t139.5 9.5q317 0 466.5 -189.5t149.5 -590.5q0 -412 -166 -601.5t-526 -189.5q-55 0 -112.5 3t-120.5 12zM272 82q43 -4 78 -7t66 -3q279 0 413 167t134 517q0 354 -118 515t-376 161q-98 0 -197 -19v-1331z" />
<glyph unicode="E" horiz-adv-x="1017" d="M158 0v1516h766v-107h-652v-588h584v-106h-584v-609h670v-106h-784z" />
<glyph unicode="F" horiz-adv-x="950" d="M158 0v1516h727v-107h-613v-594h576v-106h-576v-709h-114z" />
<glyph unicode="G" horiz-adv-x="1124" d="M94 756q0 209 36 355t112.5 240.5t196.5 137.5t290 43q49 0 129 -8t152 -23v-104q-72 16 -141.5 23t-127.5 7q-145 0 -244.5 -35.5t-163 -115.5t-91 -208t-27.5 -312q0 -178 28.5 -304t90 -208t158 -120t229.5 -38q31 0 78 3t100 9v672h109v-764q-90 -16 -155.5 -21 t-133.5 -5q-166 2 -284 48t-193.5 140t-111.5 239.5t-36 348.5z" />
<glyph unicode="H" horiz-adv-x="1257" d="M158 0v1516h114v-691h711v691h117v-1516h-117v719h-711v-719h-114z" />
<glyph unicode="I" horiz-adv-x="430" d="M158 0v1516h114v-1516h-114z" />
<glyph unicode="J" horiz-adv-x="430" d="M-10 -326q51 111 85 197t53 164t26.5 157.5t7.5 180.5v1143h114v-1147q0 -193 -50 -370t-158 -370z" />
<glyph unicode="K" horiz-adv-x="1126" d="M158 0v1516h114v-693h177l491 693h137l-485 -687l-57 -51v-8l61 -49l522 -721h-133l-524 717h-189v-717h-114z" />
<glyph unicode="L" horiz-adv-x="817" d="M158 0v1516h114v-1410h521v-106h-635z" />
<glyph unicode="M" horiz-adv-x="1593" d="M158 0v1516h151l420 -1117l62 -196h10l63 196l420 1117h152v-1516h-113v1298l-8 2l-72 -206l-385 -1028h-125l-385 1028l-72 206l-8 -2v-1298h-110z" />
<glyph unicode="N" horiz-adv-x="1325" d="M158 0v1516h116l682 -1141l93 -172l10 2v1311h108v-1516h-118l-674 1130l-99 183l-10 -2v-1311h-108z" />
<glyph unicode="O" horiz-adv-x="1230" d="M94 756q0 395 128 587.5t392 192.5q522 0 523 -780q-1 -776 -523 -776q-520 0 -520 776zM211 756q0 -352 95 -511t308 -159q211 0 307.5 160t96.5 510q0 346 -98.5 511t-305.5 165q-211 0 -307 -162t-96 -514z" />
<glyph unicode="P" horiz-adv-x="1052" d="M158 0v1505q84 16 157.5 25.5t145.5 9.5q272 0 400 -125t128 -391q0 -270 -132 -394t-421 -124q-41 0 -81 2t-83 6v-514h-114zM272 625q49 -6 97.5 -10.5t93.5 -4.5q211 0 309 98.5t98 315.5q0 213 -93 311.5t-298 98.5q-94 0 -207 -19v-790z" />
<glyph unicode="Q" horiz-adv-x="1224" d="M90 756q0 395 128 587.5t392 192.5q522 0 523 -780q0 -735 -496 -758v-12q78 -29 207 -50.5t295 -37.5l-33 -105q-276 45 -469 105.5t-314.5 166t-177 270.5t-55.5 421zM207 756q0 -178 23.5 -305t72.5 -208t125 -120t182 -39q211 0 308.5 161t97.5 511t-97.5 513 t-308.5 163q-106 0 -182 -39t-125 -122t-72.5 -210t-23.5 -305z" />
<glyph unicode="R" horiz-adv-x="1079" d="M158 0v1505q164 35 303 35q272 0 400 -116.5t128 -370.5q0 -182 -67.5 -293t-208.5 -158l293 -602h-125l-275 578q-37 -4 -77 -7.5t-85 -3.5q-41 0 -86 2t-86 6v-575h-114zM272 682q107 -12 191 -12q213 0 310 91t97 292q0 199 -93 290t-298 91q-78 0 -207 -19v-733z" />
<glyph unicode="S" horiz-adv-x="948" d="M70 41l14 104q29 -12 74 -24t95 -21.5t101.5 -15.5t94.5 -6q152 0 233.5 77.5t81.5 219.5q0 59 -18.5 107t-58.5 89t-100.5 77t-144.5 71q-92 37 -157.5 77t-107.5 87t-62.5 107.5t-20.5 137.5q0 94 31 170t87 130.5t135 84t175 29.5q72 0 146.5 -10t162.5 -31l-14 -104 q-176 39 -291 39q-143 0 -229 -83t-86 -225q0 -55 16.5 -98t53 -80t94 -68.5t139.5 -64.5q98 -41 168 -84t114 -94t64.5 -115.5t20.5 -146.5q0 -190 -112.5 -298t-309.5 -108q-45 0 -97.5 5.5t-104.5 14.5t-101.5 22.5t-85.5 27.5z" />
<glyph unicode="T" horiz-adv-x="946" d="M27 1407v109h893v-109h-390v-1407h-116v1407h-387z" />
<glyph unicode="U" horiz-adv-x="1282" d="M145 596v920h115v-920q0 -268 91 -389t290 -121q201 0 290 121t89 389v920h117v-920q0 -162 -28 -278.5t-88 -191.5t-154.5 -110.5t-225.5 -35.5q-133 0 -226 35.5t-153.5 110.5t-88.5 191.5t-28 278.5z" />
<glyph unicode="V" horiz-adv-x="1128" d="M12 1516h117l356 -1131l74 -260h10l74 260l356 1131h115l-475 -1516h-152z" />
<glyph unicode="W" horiz-adv-x="1755" d="M33 1516h125l252 -1092l57 -274h10l66 274l278 1092h131l258 -1092l58 -274h12l63 274l271 1092h123l-389 -1516h-148l-268 1118l-43 228h-10l-50 -228l-286 -1118h-150z" />
<glyph unicode="X" horiz-adv-x="1116" d="M20 0l463 764l-452 752h133l377 -627l18 -41h4l21 41l372 627h129l-454 -754l465 -762h-133l-388 637l-20 41h-4l-19 -41l-378 -637h-134z" />
<glyph unicode="Y" horiz-adv-x="1062" d="M4 1516h125l348 -760l49 -129h11l49 129l346 760h127l-469 -1004v-512h-115v506z" />
<glyph unicode="Z" horiz-adv-x="946" d="M59 0v90l674 1309v10h-661v107h802v-89l-675 -1312v-11h688v-104h-828z" />
<glyph unicode="[" horiz-adv-x="575" d="M152 -328v2106h368v-95h-266v-1916h266v-95h-368z" />
<glyph unicode="\" horiz-adv-x="548" d="M63 1516h95l327 -1762h-94z" />
<glyph unicode="]" horiz-adv-x="575" d="M55 -233h267v1916h-267v95h369v-2106h-369v95z" />
<glyph unicode="^" horiz-adv-x="708" d="M84 985l231 631h78l232 -631h-86l-181 526h-8l-182 -526h-84z" />
<glyph unicode="_" horiz-adv-x="985" d="M86 -123h813v-98h-813v98z" />
<glyph unicode="`" horiz-adv-x="442" d="M70 1636h118l150 -366l-80 -21z" />
<glyph unicode="a" horiz-adv-x="884" d="M63 270q0 303 383 334l199 14v144q0 141 -56.5 201.5t-178.5 60.5q-51 0 -123 -10t-133 -27l-13 100q74 16 152 25.5t137 9.5q328 0 328 -344v-778h-96l-15 133h-8q-68 -51 -149 -97t-173 -46q-119 0 -186.5 74.5t-67.5 205.5zM182 281q0 -92 43 -141.5t129 -49.5 q37 0 78 15.5t80 37t74 44t59 38.5v303l-176 -14q-154 -14 -220.5 -68.5t-66.5 -164.5z" />
<glyph unicode="b" horiz-adv-x="966" d="M131 29v1626h115v-660q49 59 122.5 94t159.5 35q176 0 265.5 -138t89.5 -411q0 -117 -23.5 -223t-78 -188t-143.5 -132t-222 -52q-131 0 -285 49zM246 98q112 -22 178 -22q340 0 340 491q0 459 -260 459q-47 0 -93 -16.5t-83 -44t-59.5 -65.5t-22.5 -81v-721z" />
<glyph unicode="c" horiz-adv-x="765" d="M86 553q0 573 426 573q35 0 78 -5t102 -19v-103q-49 12 -91 17.5t-83 5.5q-162 0 -237.5 -112.5t-75.5 -358.5q0 -240 76.5 -354.5t236.5 -114.5q63 0 174 24v-100q-41 -12 -90 -19t-90 -7q-217 0 -321.5 140t-104.5 433z" />
<glyph unicode="d" horiz-adv-x="968" d="M84 549q0 274 117.5 424.5t335.5 150.5q41 0 83 -4t101 -14v549h115v-1655h-101l-12 111h-6q-99 -129 -273 -129q-184 0 -272 139t-88 428zM203 553q0 -231 67.5 -352t190.5 -121q47 0 94 16.5t84 44t59.5 65.5t22.5 81v719q-63 12 -104.5 17t-81.5 5q-162 0 -247 -120 t-85 -355z" />
<glyph unicode="e" horiz-adv-x="894" d="M84 530q0 291 104.5 442.5t303.5 151.5q160 0 242.5 -118.5t82.5 -348.5q0 -51 -2 -82.5t-6 -66.5h-606q10 -426 301 -426q66 0 126 15.5t132 49.5l10 -102q-57 -31 -128.5 -47t-143.5 -16q-199 0 -307.5 143t-108.5 405zM205 604h502q0 221 -53.5 318.5t-164.5 97.5 q-129 0 -201.5 -105.5t-82.5 -310.5z" />
<glyph unicode="f" horiz-adv-x="528" d="M33 1006v100h153v86q0 125 17.5 210t58.5 138t110.5 80t174.5 37l2 -96q-74 -8 -122 -28t-75.5 -60.5t-39 -107.5t-11.5 -169v-90h201v-100h-201v-1006h-115v1006h-153z" />
<glyph unicode="g" horiz-adv-x="968" d="M84 549q0 274 117.5 424.5t335.5 150.5q84 0 151.5 -10t147.5 -35v-954q0 -301 -95.5 -438.5t-306.5 -137.5q-133 0 -258 48l12 102q66 -27 122.5 -38t117.5 -11q156 0 224.5 98t72.5 328v41h-8q-98 -127 -271 -127q-184 0 -273 137t-89 422zM205 553q0 -229 66.5 -349 t189.5 -120q47 0 94 15.5t84 43t59.5 64.5t22.5 80v719q-66 12 -106 17t-80 5q-162 0 -246 -120t-84 -355z" />
<glyph unicode="h" horiz-adv-x="960" d="M133 0v1655h115v-670l2 2q195 139 350 139q127 0 179 -65.5t52 -222.5v-838h-114v817q0 111 -34 157t-112 46q-143 0 -323 -125v-895h-115z" />
<glyph unicode="i" horiz-adv-x="385" d="M113 1456q0 80 80 80q82 0 81 -80q1 -80 -81 -80q-80 0 -80 80zM135 0v1106h115v-1106h-115z" />
<glyph unicode="j" horiz-adv-x="382" d="M-14 -408q78 137 113.5 291t35.5 342v881h115v-922q0 -166 -48 -330.5t-139 -304.5zM113 1456q0 80 80 80q82 0 81 -80q1 -80 -81 -80q-80 0 -80 80z" />
<glyph unicode="k" horiz-adv-x="880" d="M133 0v1655h115v-1041h149l322 492h125l-342 -518l-29 -21v-4l31 -20l375 -543h-127l-357 520h-147v-520h-115z" />
<glyph unicode="l" horiz-adv-x="393" d="M139 0v1655h115v-1655h-115z" />
<glyph unicode="m" horiz-adv-x="1527" d="M133 0v1106h94l11 -119h6q193 139 348 139q92 0 142 -32.5t71 -110.5h10q186 143 354 143q125 0 177.5 -65.5t52.5 -222.5v-838h-113v817q0 111 -34.5 157t-112.5 46q-70 0 -150 -31t-166 -90v-899h-112v817q0 111 -35 157t-113 46q-147 0 -317 -121v-899h-113z" />
<glyph unicode="n" horiz-adv-x="960" d="M133 0v1106h100l9 -119h8q195 139 350 139q127 0 179 -65.5t52 -222.5v-838h-114v817q0 111 -34 157t-112 46q-145 0 -323 -125v-895h-115z" />
<glyph unicode="o" horiz-adv-x="980" d="M84 553q0 281 104.5 427t303.5 146t302 -146t103 -427t-103 -425t-302 -144q-201 0 -304.5 144t-103.5 425zM203 553q0 -242 71 -355.5t218 -113.5t217.5 113.5t70.5 355.5t-70.5 357.5t-217.5 115.5t-218 -115.5t-71 -357.5z" />
<glyph unicode="p" horiz-adv-x="968" d="M133 -451v1557h103l10 -111h8q49 59 119.5 94t156.5 35q176 0 265.5 -138t89.5 -411q0 -117 -23.5 -224t-78 -190t-143.5 -132t-220 -49q-41 0 -84 5t-88 15v-451h-115zM248 98q112 -22 178 -22q340 0 340 491q0 459 -260 459q-47 0 -93 -16.5t-83 -44t-59.5 -65.5 t-22.5 -81v-721z" />
<glyph unicode="q" horiz-adv-x="966" d="M84 549q0 274 117.5 424.5t339.5 150.5q82 0 150.5 -9t144.5 -34v-1532h-113v562q-111 -129 -279 -129q-184 0 -272 139t-88 428zM203 555q0 -236 66.5 -355.5t191.5 -119.5q49 0 95 16.5t83 44t59.5 65.5t22.5 81v721q-70 12 -109 16t-77 4q-164 0 -248 -118.5 t-84 -354.5z" />
<glyph unicode="r" horiz-adv-x="614" d="M133 0v1106h100l9 -127h10q43 37 128 78t183 67h29v-127h-45q-195 -31 -299 -110v-887h-115z" />
<glyph unicode="s" horiz-adv-x="737" d="M78 18v103q66 -20 133.5 -31.5t124.5 -11.5q104 0 159.5 56t55.5 155q0 90 -43 142t-141 81q-47 12 -97.5 28.5t-90.5 49.5t-65.5 89t-25.5 148q0 141 85 223.5t230 82.5q49 0 97.5 -7.5t128.5 -25.5v-103q-72 18 -121 25.5t-90 7.5q-102 0 -159.5 -52t-57.5 -147 q0 -57 15 -93t43 -59.5t63.5 -37.5t78.5 -27q66 -20 116 -45.5t83 -62.5t49.5 -89t16.5 -124q0 -147 -87.5 -232.5t-228.5 -85.5q-57 0 -118.5 10.5t-153.5 32.5z" />
<glyph unicode="t" horiz-adv-x="659" d="M27 1001v105h209l16 266l92 21v-287h293v-105h-293v-706q0 -102 45 -152.5t131 -50.5q23 0 54.5 3t54.5 11v-100q-72 -14 -131 -14q-268 0 -269 289v720h-202z" />
<glyph unicode="u" horiz-adv-x="958" d="M125 268v838h115v-817q0 -109 37.5 -155t123.5 -46q72 0 143.5 31t164.5 98v889h114v-1106h-98l-10 119h-8q-102 -74 -179 -106.5t-147 -32.5q-135 0 -195.5 67.5t-60.5 220.5z" />
<glyph unicode="v" horiz-adv-x="915" d="M29 1098v8h116l279 -891l29 -104h12l29 104l278 891h117v-8l-352 -1098h-156z" />
<glyph unicode="w" horiz-adv-x="1345" d="M43 1098v8h111l178 -789l33 -167h12l41 167l198 789h115l199 -789l41 -167h12l33 167l180 789h107v-8l-261 -1098h-129l-211 815l-24 113h-10l-25 -113l-211 -815h-129z" />
<glyph unicode="x" horiz-adv-x="917" d="M23 0v10l360 561l-338 525v10h123l250 -395l39 -68h8l37 68l250 395h122v-10l-339 -533l360 -553v-10h-125l-272 432l-39 64h-6l-37 -64l-269 -432h-124z" />
<glyph unicode="y" horiz-adv-x="917" d="M27 1098v8h116l285 -852l29 -119h6l31 119l282 852h117v-8l-520 -1549l-113 25v8l141 422z" />
<glyph unicode="z" horiz-adv-x="794" d="M61 0v74l510 923v9h-491v100h635v-74l-514 -923v-9h534v-100h-674z" />
<glyph unicode="{" horiz-adv-x="681" d="M41 692v86q78 0 120 59.5t42 166.5v559q0 61 10 103t34.5 66.5t65.5 35t103 10.5q20 0 52 -1t63.5 -3t57 -3.5t32.5 -3.5v-84h-197q-68 0 -93.5 -24.5t-25.5 -89.5v-586q0 -92 -31.5 -157.5t-85.5 -90.5q53 -25 85 -91t32 -155v-587q0 -66 25.5 -90.5t93.5 -24.5h197v-84 q-6 -2 -32 -4t-57.5 -3t-63.5 -2t-52 -1q-61 0 -102.5 10t-66 34.5t-34.5 66.5t-10 106v559q0 104 -42 163.5t-120 59.5z" />
<glyph unicode="|" horiz-adv-x="415" d="M152 -451v2106h110v-2106h-110z" />
<glyph unicode="}" horiz-adv-x="679" d="M59 -213h199q68 0 92.5 24.5t24.5 90.5v587q0 88 32.5 155t86.5 91q-53 25 -86 90.5t-33 157.5v586q0 66 -24.5 90t-92.5 24h-199v84q8 2 34 3.5t56.5 3.5t62.5 3t52 1q61 0 103.5 -10.5t67 -35t34.5 -66.5t10 -103v-559q0 -106 42 -166t120 -60v-86q-78 0 -120 -59.5 t-42 -163.5v-559q0 -63 -10 -105.5t-34.5 -67t-66.5 -34.5t-104 -10q-20 0 -52 1t-62.5 2t-56 3t-34.5 4v84z" />
<glyph unicode="~" horiz-adv-x="1019" d="M115 586q41 53 74.5 89t63.5 57.5t58.5 30.5t61.5 9q45 0 80.5 -23.5t67.5 -53t63.5 -53.5t70.5 -24q47 0 93.5 39t68.5 99l86 -41q-16 -39 -40.5 -74t-57.5 -62.5t-70 -44t-73 -16.5q-51 0 -90.5 23.5t-71 53.5t-61 53.5t-60.5 23.5q-45 0 -86 -33t-100 -111z" />
<glyph unicode="&#xa1;" horiz-adv-x="391" d="M119 1018q0 39 22.5 59.5t59.5 20.5q39 0 61.5 -20.5t22.5 -59.5q0 -37 -22.5 -59.5t-61.5 -22.5q-37 0 -59.5 21.5t-22.5 60.5zM135 -389l21 1128v29h77v-29l21 -1128v-21h-119v21z" />
<glyph unicode="&#xa2;" horiz-adv-x="800" d="M88 553q0 520 354 567v234h95v-228q31 -2 68.5 -8t88.5 -16v-103q-49 12 -91 17.5t-83 5.5q-162 0 -237.5 -112.5t-75.5 -358.5q0 -240 76.5 -354.5t236.5 -114.5q63 0 174 24v-100q-37 -10 -78 -17t-79 -9v-224h-95v228q-354 43 -354 569z" />
<glyph unicode="&#xa3;" horiz-adv-x="1024" d="M84 0v106h219v594h-219v103h219v280q0 227 80 335t266 108q61 0 133 -14.5t162 -45.5l-18 -98q-74 27 -141.5 39t-120.5 12q-133 0 -188.5 -77.5t-55.5 -260.5v-278h344v-103h-344v-594h495v-106h-831z" />
<glyph unicode="&#xa4;" horiz-adv-x="1077" d="M96 389l109 115l108 69q-27 78 -26 185q0 51 6 97t20 85l-108 72l-109 114l72 72l117 -106l57 -88q35 59 85 92.5t116 33.5q61 0 110 -33.5t80 -92.5l60 88l114 106l72 -72l-107 -114l-112 -72q12 -41 19 -86t7 -96q0 -53 -7 -98.5t-19 -84.5l112 -71l107 -115l-72 -72 l-114 107l-60 90q-33 -63 -82 -97t-112 -34q-66 0 -115 34t-84 93l-55 -86l-117 -107zM381 758q0 -131 43 -204t115 -73t113.5 72t41.5 205q0 137 -43 205.5t-112 68.5q-72 0 -115 -69.5t-43 -204.5z" />
<glyph unicode="&#xa5;" horiz-adv-x="1142" d="M45 1516h125l348 -760l49 -129h11l49 129l346 760h127l-428 -916h270v-94h-311v-189h311v-94h-311v-223h-115v223h-309v94h309v189h-309v94h264z" />
<glyph unicode="&#xa6;" horiz-adv-x="391" d="M139 416h111v-867h-111v867zM139 788v867h111v-867h-111z" />
<glyph unicode="&#xa7;" horiz-adv-x="788" d="M102 18v99q66 -20 134.5 -30.5t128.5 -10.5q100 0 156.5 57t56.5 156q0 90 -44.5 143t-142.5 80q-47 12 -97 28.5t-90 49.5t-65.5 89t-25.5 148q0 121 63 197q-29 35 -46 84t-17 125q0 139 85 221t230 82q49 0 97 -7t128 -26v-100q-78 20 -123 26.5t-86 6.5 q-102 0 -161.5 -54.5t-59.5 -146.5q0 -57 17.5 -93t45 -59.5t64.5 -38t76 -26.5q66 -20 115 -46t81.5 -63t49 -89t16.5 -124q0 -59 -15.5 -108t-43.5 -90q59 -72 59 -205q0 -72 -22.5 -130.5t-64.5 -99t-99 -64.5t-127 -24q-55 0 -116.5 10.5t-156.5 32.5zM221 831 q0 -57 16.5 -94t43 -60.5t62.5 -37.5t73 -27q74 -24 129 -57q35 53 35 137q0 90 -41 143.5t-133 82.5q-35 10 -69 20t-67 29q-49 -53 -49 -136z" />
<glyph unicode="&#xa8;" horiz-adv-x="770" d="M115 1368q0 74 75 74q35 0 54.5 -18.5t19.5 -55.5t-19.5 -55.5t-54.5 -18.5q-76 0 -75 74zM469 1368q0 74 76 74q33 0 53 -18.5t20 -55.5t-20 -55.5t-53 -18.5q-76 0 -76 74z" />
<glyph unicode="&#xa9;" horiz-adv-x="1699" d="M88 758q0 176 55.5 319.5t154.5 245.5t239.5 158.5t312.5 56.5t312.5 -56.5t239.5 -158.5t154.5 -245.5t55.5 -319.5t-55.5 -319.5t-154.5 -246t-239.5 -159t-312.5 -56.5t-312.5 56.5t-239.5 159t-154.5 246t-55.5 319.5zM178 758q0 -156 48 -284t136.5 -218t212 -140 t275.5 -50t275.5 50t211.5 140t136.5 218t48.5 284t-48.5 283.5t-136.5 218t-212 140.5t-275 50q-152 0 -275.5 -50t-212 -140.5t-136.5 -218.5t-48 -283zM506 748q0 215 101.5 319t275.5 104q45 0 88 -5t84 -13v-90q-39 8 -81 13t-83 5q-135 0 -211 -83t-76 -248 q0 -166 78 -246t207 -80q41 0 84 6t86 14v-88q-84 -22 -176 -22q-174 0 -275.5 102.5t-101.5 311.5z" />
<glyph unicode="&#xaa;" horiz-adv-x="741" d="M84 920q0 102 67.5 164.5t198.5 76.5l168 19v80q0 98 -38 137t-142 39q-29 0 -71 -3t-113 -18l-13 90q76 12 132.5 17.5t93.5 5.5q135 0 194.5 -60.5t59.5 -193.5v-553h-84l-7 96h-8q-78 -53 -135.5 -78.5t-110.5 -25.5q-88 0 -140 57t-52 150zM180 930q0 -133 121 -133 q43 0 91 20.5t126 67.5v213l-90 -6q-141 -10 -194.5 -46t-53.5 -116z" />
<glyph unicode="&#xab;" horiz-adv-x="868" d="M76 549v8l192 487h119l-192 -487v-8l192 -488h-119zM475 549v8l193 487h118l-192 -487v-8l192 -488h-118z" />
<glyph unicode="&#xac;" horiz-adv-x="1427" d="M113 762v102h1187v-620h-112v518h-1075z" />
<glyph unicode="&#xad;" horiz-adv-x="651" d="M117 524v99h418v-99h-418z" />
<glyph unicode="&#xae;" horiz-adv-x="1433" d="M88 911q0 137 47 253t131 200t199 131t252 47t252.5 -47t199.5 -131t131.5 -199.5t47.5 -253.5q0 -135 -47.5 -250.5t-131.5 -198.5t-199.5 -130t-252.5 -47t-252 47t-199 130t-131 198.5t-47 250.5zM172 911q0 -119 40 -219t112.5 -171.5t172 -112.5t220.5 -41 q119 0 219 41t173 112.5t114 172t41 218.5q0 119 -41 220.5t-114 174t-173 113.5t-219 41q-121 0 -220.5 -41t-172 -113.5t-112.5 -174t-40 -220.5zM487 573v697q53 8 101.5 12t89.5 4q164 0 240.5 -53t76.5 -170q0 -78 -40 -130t-113 -75l-2 -8l180 -277h-96l-170 263 l-185 4v-267h-82zM569 915q20 -2 53 -2h64q225 0 225 150q0 78 -52 111.5t-173 33.5q-25 0 -53.5 -2t-63.5 -6v-285z" />
<glyph unicode="&#xaf;" horiz-adv-x="708" d="M102 1327v92h502v-92h-502z" />
<glyph unicode="&#xb0;" horiz-adv-x="774" d="M84 1147q0 84 21.5 155.5t61.5 124t96 81t124 28.5t123 -28.5t95 -81t61.5 -124t21.5 -155.5t-21.5 -155.5t-61.5 -123t-95 -80t-123 -28.5t-124 28.5t-96 80t-61.5 123t-21.5 155.5zM166 1147q0 -133 56 -216t165 -83t164 83t55 216t-55 217t-164 84t-165 -84t-56 -217z " />
<glyph unicode="&#xb1;" horiz-adv-x="1026" d="M127 209v98h772v-98h-772zM127 829v99h336v352h98v-352h338v-99h-338v-350h-98v350h-336z" />
<glyph unicode="&#xb2;" horiz-adv-x="675" d="M72 614v148q0 133 55 234.5t184 201.5q98 76 138 138.5t40 136.5q0 176 -182 176q-68 0 -192 -39l-19 94q66 23 122 33t104 10q274 0 274 -268q0 -51 -12.5 -95.5t-37 -85.5t-63.5 -81.5t-94 -86.5q-111 -92 -160 -172.5t-49 -185.5v-59h416v-99h-524z" />
<glyph unicode="&#xb3;" horiz-adv-x="643" d="M74 1722q49 12 92 19.5t84 7.5q137 0 212 -76t75 -211q0 -98 -49.5 -166.5t-137.5 -97.5q215 -61 215 -297q0 -141 -84.5 -219t-234.5 -78q-78 0 -164 23v92h22q29 -8 64 -13.5t70 -5.5q106 0 163.5 54.5t57.5 152.5q0 240 -264 240h-33v94h35q111 0 172 56.5t61 154.5 q0 96 -48 147.5t-140 51.5q-57 0 -131 -21h-23z" />
<glyph unicode="&#xb4;" horiz-adv-x="425" d="M86 1262l152 374h118l-188 -387z" />
<glyph unicode="&#xb5;" horiz-adv-x="1001" d="M150 -451v1557h112v-817q0 -203 166 -203q68 0 139.5 28.5t163.5 94.5v897h115v-1106h-98l-11 119h-8q-102 -74 -179 -106.5t-147 -32.5q-88 0 -141 26v-457h-112z" />
<glyph unicode="&#xb6;" horiz-adv-x="950" d="M72 1034q0 137 25.5 231.5t72.5 152t111.5 83t144.5 25.5q35 0 62.5 -5t64.5 -16v-1505h-92v545q-8 -2 -24.5 -2h-28.5q-76 0 -138.5 25.5t-106.5 83t-67.5 151.5t-23.5 231zM674 0v1505h108v-1505h-108z" />
<glyph unicode="&#xb7;" horiz-adv-x="391" d="M113 758q0 43 22.5 62.5t59.5 19.5t59 -20.5t22 -61.5t-22 -61.5t-59 -20.5t-59.5 19.5t-22.5 62.5z" />
<glyph unicode="&#xb8;" horiz-adv-x="528" d="M51 -336q61 -23 121 -22q131 0 131 137q0 53 -21.5 117.5t-58.5 123.5h99q39 -66 58 -130t19 -119q0 -109 -56.5 -165.5t-160.5 -56.5q-33 0 -66.5 5.5t-64.5 15.5v94z" />
<glyph unicode="&#xb9;" horiz-adv-x="518" d="M37 1516l2 18l270 199h72v-1119h-107v979l-184 -131h-18z" />
<glyph unicode="&#xba;" horiz-adv-x="796" d="M88 1118q0 209 83 310.5t230 101.5q145 0 226.5 -101.5t81.5 -310.5t-81.5 -310t-226.5 -101q-147 0 -230 101t-83 310zM186 1118q0 -92 16.5 -154.5t45 -100.5t67.5 -54t86 -16q43 0 82 16t68 54t45 100.5t16 154.5t-16 155.5t-45 101.5t-68 54.5t-82 16.5 q-47 0 -86 -16.5t-67.5 -54.5t-45 -101.5t-16.5 -155.5z" />
<glyph unicode="&#xbb;" horiz-adv-x="868" d="M82 61l192 488v8l-192 487h119l192 -487v-8l-192 -488h-119zM481 61l193 488v8l-193 487h119l193 -487v-8l-193 -488h-119z" />
<glyph unicode="&#xbc;" horiz-adv-x="1556" d="M47 1311l2 18l270 199h72v-1118h-106v979l-185 -132h-18zM406 0l532 1516h104l-532 -1516h-104zM836 338l364 790l21 5l75 -19l4 -18l-348 -729h334l27 424h76v-424h110v-91h-110v-276h-109v276h-412z" />
<glyph unicode="&#xbd;" horiz-adv-x="1630" d="M47 1311l2 18l270 199h72v-1118h-106v979l-185 -132h-18zM406 0l532 1516h104l-532 -1516h-104zM1014 -2v147q0 66 12 121.5t41 106.5t74 102t112 107q51 43 86 76.5t55.5 64.5t29 61.5t8.5 67.5q0 86 -45.5 133t-131.5 47q-47 0 -102 -11t-96 -28l-19 94q135 43 228 43 q135 0 203.5 -68.5t68.5 -199.5q0 -49 -9 -90t-32.5 -80t-63.5 -82t-102 -96q-59 -51 -99 -94t-64.5 -85t-35 -85t-10.5 -94v-60h416v-98h-524z" />
<glyph unicode="&#xbe;" horiz-adv-x="1701" d="M94 1518q49 12 92 19t84 7q137 0 212 -75.5t75 -211.5q0 -98 -49 -166.5t-137 -97.5q215 -61 215 -297q0 -141 -85 -219t-235 -78q-78 0 -164 23v92h23q29 -8 63.5 -13t69.5 -5q106 0 163.5 54t57.5 152q0 240 -264 240h-33v94h35q111 0 172.5 56.5t61.5 154.5 q0 96 -48.5 147.5t-140.5 51.5q-57 0 -131 -21h-22zM522 0l533 1516h104l-532 -1516h-105zM985 338l365 790l20 5l76 -19l4 -18l-348 -729h334l26 424h76v-424h111v-91h-111v-276h-108v276h-412z" />
<glyph unicode="&#xbf;" horiz-adv-x="786" d="M55 -20q0 109 37 183.5t95.5 124.5t129 79.5t136.5 48.5l2 321v39h92v-39l8 -393q-61 -16 -129 -39.5t-125 -63.5t-94 -102.5t-37 -154.5q0 -86 26.5 -144.5t68.5 -93.5t95.5 -50t106.5 -15q61 0 124.5 13t123.5 36l24 -95q-63 -25 -136 -41t-148 -16q-74 0 -145.5 20.5 t-128 66.5t-91.5 123t-35 192zM416 1036q0 37 21.5 58.5t60.5 21.5t60.5 -21.5t21.5 -58.5q0 -82 -82 -82t-82 82z" />
<glyph unicode="&#xc0;" d="M16 0v12l455 1504h158l454 -1504v-12h-110l-150 485h-547l-149 -485h-111zM303 588h492l-179 583l-63 228h-10l-62 -228zM307 1886h123l158 -252l-94 -26z" />
<glyph unicode="&#xc1;" d="M16 0v12l455 1504h158l454 -1504v-12h-110l-150 485h-547l-149 -485h-111zM303 588h492l-179 583l-63 228h-10l-62 -228zM496 1616l155 270h123l-184 -278z" />
<glyph unicode="&#xc2;" d="M16 0v12l455 1504h158l454 -1504v-12h-110l-150 485h-547l-149 -485h-111zM287 1667v109l262 147l262 -147v-109l-262 148zM303 588h492l-179 583l-63 228h-10l-62 -228z" />
<glyph unicode="&#xc3;" d="M16 0v12l455 1504h158l454 -1504v-12h-110l-150 485h-547l-149 -485h-111zM248 1737q33 49 85 86t105 37q39 0 71 -13.5t61.5 -30t58 -29.5t63.5 -13q68 0 113 81l55 -43q-27 -59 -78 -95t-104 -36q-39 0 -71 13.5t-61.5 30t-59 29.5t-62.5 13q-35 0 -68.5 -22.5 t-60.5 -56.5zM303 588h492l-179 583l-63 228h-10l-62 -228z" />
<glyph unicode="&#xc4;" d="M16 0v12l455 1504h158l454 -1504v-12h-110l-150 485h-547l-149 -485h-111zM285 1743q0 43 21.5 61.5t58.5 18.5t59 -19.5t22 -60.5q0 -43 -22 -61.5t-59 -18.5t-58.5 19.5t-21.5 60.5zM303 588h492l-179 583l-63 228h-10l-62 -228zM653 1743q0 43 22.5 61.5t59.5 18.5 q35 0 58.5 -19.5t23.5 -60.5q0 -43 -23.5 -61.5t-58.5 -18.5q-37 0 -59.5 19.5t-22.5 60.5z" />
<glyph unicode="&#xc5;" d="M16 0v12l445 1471q-49 25 -76 75t-27 115q0 86 49.5 147.5t141.5 61.5t142 -61.5t50 -147.5q0 -63 -27.5 -113.5t-76.5 -74.5l446 -1473v-12h-110l-150 485h-547l-149 -485h-111zM303 588h492l-179 583l-63 228h-10l-62 -228zM438 1673q0 -57 28 -95t83 -38t84 38t29 95 t-28 94t-85 37t-84 -36.5t-27 -94.5z" />
<glyph unicode="&#xc6;" horiz-adv-x="1515" d="M12 0v12l500 1504h905v-107h-602l27 -588h516v-106h-510l29 -609h559v-106h-674l-21 483h-452l-160 -483h-117zM326 590h411l-32 821h-107z" />
<glyph unicode="&#xc7;" horiz-adv-x="995" d="M94 756q0 209 35 356.5t109.5 240.5t192.5 136t284 43q47 0 100 -3t113 -13v-105q-35 8 -89.5 12t-109.5 4q-139 0 -237.5 -34.5t-160 -114.5t-89 -208t-27.5 -314q0 -178 29.5 -305t91 -208t157 -119t228.5 -38q31 0 92 4t115 12v-102q-47 -10 -94.5 -15t-114.5 -5 q-4 0 -8 1t-9 1q55 -115 56 -211q0 -109 -56.5 -165.5t-160.5 -56.5q-33 0 -67 5.5t-64 15.5v94q61 -23 120 -22q131 0 132 137q0 47 -16.5 101t-45.5 108q-133 16 -228.5 69.5t-156.5 147.5t-91 230t-30 321z" />
<glyph unicode="&#xc8;" horiz-adv-x="1017" d="M158 0v1516h766v-107h-652v-588h584v-106h-584v-609h670v-106h-784zM295 1886h123l157 -252l-94 -26z" />
<glyph unicode="&#xc9;" horiz-adv-x="1017" d="M158 0v1516h766v-107h-652v-588h584v-106h-584v-609h670v-106h-784zM483 1616l156 270h123l-184 -278z" />
<glyph unicode="&#xca;" horiz-adv-x="1017" d="M158 0v1516h766v-107h-652v-588h584v-106h-584v-609h670v-106h-784zM274 1667v109l263 147l262 -147v-109l-262 148z" />
<glyph unicode="&#xcb;" horiz-adv-x="1017" d="M158 0v1516h766v-107h-652v-588h584v-106h-584v-609h670v-106h-784zM272 1743q0 43 21.5 61.5t58.5 18.5t59.5 -19.5t22.5 -60.5q0 -43 -22.5 -61.5t-59.5 -18.5t-58.5 19.5t-21.5 60.5zM641 1743q0 43 22.5 61.5t59.5 18.5q35 0 58.5 -19.5t23.5 -60.5 q0 -43 -23.5 -61.5t-58.5 -18.5q-37 0 -59.5 19.5t-22.5 60.5z" />
<glyph unicode="&#xcc;" horiz-adv-x="430" d="M-20 1886h122l158 -252l-94 -26zM158 0v1516h114v-1516h-114z" />
<glyph unicode="&#xcd;" horiz-adv-x="430" d="M158 0v1516h114v-1516h-114zM166 1616l156 270h122l-184 -278z" />
<glyph unicode="&#xce;" horiz-adv-x="430" d="M-41 1667v109l262 147l262 -147v-109l-262 148zM158 0v1516h114v-1516h-114z" />
<glyph unicode="&#xcf;" horiz-adv-x="430" d="M-43 1743q0 43 21.5 61.5t58.5 18.5t59.5 -19.5t22.5 -60.5q0 -43 -22.5 -61.5t-59.5 -18.5t-58.5 19.5t-21.5 60.5zM158 0v1516h114v-1516h-114zM326 1743q0 43 22.5 61.5t59.5 18.5q35 0 58 -19.5t23 -60.5q0 -43 -23 -61.5t-58 -18.5q-37 0 -59.5 19.5t-22.5 60.5z " />
<glyph unicode="&#xd0;" horiz-adv-x="1198" d="M0 705v100h180v696q96 16 170 25.5t139 9.5q317 0 467 -189.5t150 -590.5q0 -412 -166 -601.5t-526 -189.5q-55 0 -112.5 3t-121.5 12v725h-180zM295 82q43 -4 77.5 -7t65.5 -3q279 0 413 167t134 517q0 354 -117.5 515t-375.5 161q-98 0 -197 -19v-608h307v-100h-307 v-623z" />
<glyph unicode="&#xd1;" horiz-adv-x="1325" d="M158 0v1516h116l682 -1141l93 -172l10 2v1311h108v-1516h-118l-674 1130l-99 183l-10 -2v-1311h-108zM369 1737q33 49 85 86t105 37q39 0 71 -13.5t61.5 -30t58 -29.5t63.5 -13q68 0 113 81l55 -43q-27 -59 -78 -95t-104 -36q-39 0 -71 13.5t-61.5 30t-59 29.5t-62.5 13 q-35 0 -69 -22.5t-60 -56.5z" />
<glyph unicode="&#xd2;" horiz-adv-x="1230" d="M94 756q0 395 128 587.5t392 192.5q522 0 523 -780q-1 -776 -523 -776q-520 0 -520 776zM211 756q0 -352 95 -511t308 -159q211 0 307.5 160t96.5 510q0 346 -98.5 511t-305.5 165q-211 0 -307 -162t-96 -514zM373 1886h123l157 -252l-94 -26z" />
<glyph unicode="&#xd3;" horiz-adv-x="1230" d="M94 756q0 395 128 587.5t392 192.5q522 0 523 -780q-1 -776 -523 -776q-520 0 -520 776zM211 756q0 -352 95 -511t308 -159q211 0 307.5 160t96.5 510q0 346 -98.5 511t-305.5 165q-211 0 -307 -162t-96 -514zM561 1616l156 270h123l-185 -278z" />
<glyph unicode="&#xd4;" horiz-adv-x="1230" d="M94 756q0 395 128 587.5t392 192.5q522 0 523 -780q-1 -776 -523 -776q-520 0 -520 776zM211 756q0 -352 95 -511t308 -159q211 0 307.5 160t96.5 510q0 346 -98.5 511t-305.5 165q-211 0 -307 -162t-96 -514zM354 1667v109l262 147l263 -147v-109l-263 148z" />
<glyph unicode="&#xd5;" horiz-adv-x="1230" d="M94 756q0 395 128 587.5t392 192.5q522 0 523 -780q-1 -776 -523 -776q-520 0 -520 776zM211 756q0 -352 95 -511t308 -159q211 0 307.5 160t96.5 510q0 346 -98.5 511t-305.5 165q-211 0 -307 -162t-96 -514zM313 1737q33 49 85.5 86t105.5 37q39 0 70.5 -13.5t61.5 -30 t58.5 -29.5t63.5 -13q68 0 112 81l56 -43q-27 -59 -78 -95t-105 -36q-39 0 -70.5 13.5t-61 30t-59.5 29.5t-63 13q-35 0 -68.5 -22.5t-60.5 -56.5z" />
<glyph unicode="&#xd6;" horiz-adv-x="1230" d="M94 756q0 395 128 587.5t392 192.5q522 0 523 -780q-1 -776 -523 -776q-520 0 -520 776zM211 756q0 -352 95 -511t308 -159q211 0 307.5 160t96.5 510q0 346 -98.5 511t-305.5 165q-211 0 -307 -162t-96 -514zM350 1743q0 43 21.5 61.5t58.5 18.5t59.5 -19.5t22.5 -60.5 q0 -43 -22.5 -61.5t-59.5 -18.5t-58.5 19.5t-21.5 60.5zM719 1743q0 43 22.5 61.5t59.5 18.5q35 0 58.5 -19.5t23.5 -60.5q0 -43 -23.5 -61.5t-58.5 -18.5q-37 0 -59.5 19.5t-22.5 60.5z" />
<glyph unicode="&#xd7;" horiz-adv-x="894" d="M104 487l273 273l-273 272l70 70l272 -273l275 273l70 -70l-275 -272l275 -273l-70 -69l-275 272l-272 -272z" />
<glyph unicode="&#xd8;" horiz-adv-x="1253" d="M43 0l160 227q-96 186 -97 529q0 395 129.5 587.5t391.5 192.5q244 0 372 -168l103 148h108l-159 -230q98 -190 98 -530q0 -776 -522 -776q-244 0 -373 165l-100 -145h-111zM223 756q0 -268 53 -420l654 934q-100 162 -303 162q-211 0 -307.5 -162t-96.5 -514zM322 242 q96 -156 305 -156q211 0 307 160t96 510q0 266 -57 420z" />
<glyph unicode="&#xd9;" horiz-adv-x="1282" d="M145 596v920h115v-920q0 -268 91 -389t290 -121q201 0 290 121t89 389v920h117v-920q0 -162 -28 -278.5t-88 -191.5t-154.5 -110.5t-225.5 -35.5q-133 0 -226 35.5t-153.5 110.5t-88.5 191.5t-28 278.5zM397 1886h123l158 -252l-94 -26z" />
<glyph unicode="&#xda;" horiz-adv-x="1282" d="M145 596v920h115v-920q0 -268 91 -389t290 -121q201 0 290 121t89 389v920h117v-920q0 -162 -28 -278.5t-88 -191.5t-154.5 -110.5t-225.5 -35.5q-133 0 -226 35.5t-153.5 110.5t-88.5 191.5t-28 278.5zM586 1616l155 270h123l-184 -278z" />
<glyph unicode="&#xdb;" horiz-adv-x="1282" d="M145 596v920h115v-920q0 -268 91 -389t290 -121q201 0 290 121t89 389v920h117v-920q0 -162 -28 -278.5t-88 -191.5t-154.5 -110.5t-225.5 -35.5q-133 0 -226 35.5t-153.5 110.5t-88.5 191.5t-28 278.5zM377 1667v109l262 147l262 -147v-109l-262 148z" />
<glyph unicode="&#xdc;" horiz-adv-x="1282" d="M145 596v920h115v-920q0 -268 91 -389t290 -121q201 0 290 121t89 389v920h117v-920q0 -162 -28 -278.5t-88 -191.5t-154.5 -110.5t-225.5 -35.5q-133 0 -226 35.5t-153.5 110.5t-88.5 191.5t-28 278.5zM375 1743q0 43 21.5 61.5t58.5 18.5t59.5 -19.5t22.5 -60.5 q0 -43 -22.5 -61.5t-59.5 -18.5t-58.5 19.5t-21.5 60.5zM743 1743q0 43 22.5 61.5t59.5 18.5q35 0 58.5 -19.5t23.5 -60.5q0 -43 -23.5 -61.5t-58.5 -18.5q-37 0 -59.5 19.5t-22.5 60.5z" />
<glyph unicode="&#xdd;" horiz-adv-x="1062" d="M4 1516h125l348 -760l49 -129h11l49 129l346 760h127l-469 -1004v-512h-115v506zM483 1616l156 270h123l-184 -278z" />
<glyph unicode="&#xde;" horiz-adv-x="1056" d="M158 0v1516h114v-254q49 6 95.5 10t93.5 4q272 0 400 -124t128 -390q0 -270 -133 -394t-420 -124q-78 0 -164 6v-250h-114zM272 360q47 -4 98.5 -8t92.5 -4q211 0 309 98.5t98 315.5q0 213 -93 311t-298 98q-41 0 -96 -5t-111 -15v-791z" />
<glyph unicode="&#xdf;" horiz-adv-x="1040" d="M133 0v1251q0 211 91 310.5t286 99.5t286 -99.5t91 -310.5v-219h-144q-104 0 -165.5 -54t-61.5 -147q0 -57 17.5 -94t45 -59.5t64.5 -36.5t76 -27q66 -20 116 -45.5t82.5 -62.5t49 -89t16.5 -124t-23.5 -130.5t-64.5 -99t-99.5 -64.5t-127.5 -24q-53 0 -114.5 10.5 t-156.5 32.5v99q66 -20 134.5 -30.5t127.5 -10.5q98 0 154.5 57t56.5 156q0 90 -43 143t-141 80q-49 12 -98 28.5t-89 49.5t-65.5 89t-25.5 148q0 139 86 222.5t233 83.5h47v118q0 168 -59.5 239t-204.5 71q-72 0 -122 -16.5t-81 -53.5t-45 -96.5t-14 -143.5v-1251h-115z " />
<glyph unicode="&#xe0;" horiz-adv-x="884" d="M63 270q0 303 383 334l199 14v144q0 141 -56.5 201.5t-178.5 60.5q-51 0 -123 -10t-133 -27l-13 100q74 16 152 25.5t137 9.5q328 0 328 -344v-778h-96l-15 133h-8q-68 -51 -149 -97t-173 -46q-119 0 -186.5 74.5t-67.5 205.5zM182 281q0 -92 43 -141.5t129 -49.5 q37 0 78 15.5t80 37t74 44t59 38.5v303l-176 -14q-154 -14 -220.5 -68.5t-66.5 -164.5zM238 1636h118l150 -366l-80 -21z" />
<glyph unicode="&#xe1;" horiz-adv-x="884" d="M63 270q0 303 383 334l199 14v144q0 141 -56.5 201.5t-178.5 60.5q-51 0 -123 -10t-133 -27l-13 100q74 16 152 25.5t137 9.5q328 0 328 -344v-778h-96l-15 133h-8q-68 -51 -149 -97t-173 -46q-119 0 -186.5 74.5t-67.5 205.5zM182 281q0 -92 43 -141.5t129 -49.5 q37 0 78 15.5t80 37t74 44t59 38.5v303l-176 -14q-154 -14 -220.5 -68.5t-66.5 -164.5zM412 1262l151 374h119l-188 -387z" />
<glyph unicode="&#xe2;" horiz-adv-x="884" d="M63 270q0 303 383 334l199 14v144q0 141 -56.5 201.5t-178.5 60.5q-51 0 -123 -10t-133 -27l-13 100q74 16 152 25.5t137 9.5q328 0 328 -344v-778h-96l-15 133h-8q-68 -51 -149 -97t-173 -46q-119 0 -186.5 74.5t-67.5 205.5zM182 281q0 -92 43 -141.5t129 -49.5 q37 0 78 15.5t80 37t74 44t59 38.5v303l-176 -14q-154 -14 -220.5 -68.5t-66.5 -164.5zM195 1303v108l262 148l262 -148v-108l-262 147z" />
<glyph unicode="&#xe3;" horiz-adv-x="884" d="M63 270q0 303 383 334l199 14v144q0 141 -56.5 201.5t-178.5 60.5q-51 0 -123 -10t-133 -27l-13 100q74 16 152 25.5t137 9.5q328 0 328 -344v-778h-96l-15 133h-8q-68 -51 -149 -97t-173 -46q-119 0 -186.5 74.5t-67.5 205.5zM145 1352q33 47 85.5 82.5t105.5 35.5 q39 0 70.5 -14t60.5 -31.5t58.5 -32t64.5 -14.5q33 0 60.5 22.5t47.5 59.5l60 -45q-27 -59 -78 -94t-105 -35q-39 0 -70.5 14.5t-60 32t-58.5 31.5t-64 14q-35 0 -68 -23.5t-57 -56.5zM182 281q0 -92 43 -141.5t129 -49.5q37 0 78 15.5t80 37t74 44t59 38.5v303l-176 -14 q-154 -14 -220.5 -68.5t-66.5 -164.5z" />
<glyph unicode="&#xe4;" horiz-adv-x="884" d="M63 270q0 303 383 334l199 14v144q0 141 -56.5 201.5t-178.5 60.5q-51 0 -123 -10t-133 -27l-13 100q74 16 152 25.5t137 9.5q328 0 328 -344v-778h-96l-15 133h-8q-68 -51 -149 -97t-173 -46q-119 0 -186.5 74.5t-67.5 205.5zM182 281q0 -92 43 -141.5t129 -49.5 q37 0 78 15.5t80 37t74 44t59 38.5v303l-176 -14q-154 -14 -220.5 -68.5t-66.5 -164.5zM201 1368q0 74 75 74q35 0 54.5 -18.5t19.5 -55.5t-19.5 -55.5t-54.5 -18.5q-76 0 -75 74zM555 1368q0 74 76 74q33 0 53.5 -18.5t20.5 -55.5t-20.5 -55.5t-53.5 -18.5q-76 0 -76 74z " />
<glyph unicode="&#xe5;" horiz-adv-x="884" d="M63 270q0 303 383 334l199 14v144q0 141 -56.5 201.5t-178.5 60.5q-51 0 -123 -10t-133 -27l-13 100q74 16 152 25.5t137 9.5q328 0 328 -344v-778h-96l-15 133h-8q-68 -51 -149 -97t-173 -46q-119 0 -186.5 74.5t-67.5 205.5zM182 281q0 -92 43 -141.5t129 -49.5 q37 0 78 15.5t80 37t74 44t59 38.5v303l-176 -14q-154 -14 -220.5 -68.5t-66.5 -164.5zM260 1466q0 88 49 148.5t144 60.5q94 0 144 -60.5t50 -148.5t-51 -148.5t-143 -60.5t-142.5 60.5t-50.5 148.5zM344 1466q0 -55 28 -93t81 -38t82.5 38t29.5 93t-29.5 93t-82.5 38 t-81 -37.5t-28 -93.5z" />
<glyph unicode="&#xe6;" horiz-adv-x="1456" d="M63 270q0 303 383 334l199 14v152q-2 135 -57.5 194.5t-177.5 59.5q-53 0 -125 -10t-131 -27l-13 100q78 16 154 25.5t135 9.5q238 0 287 -211h10q96 213 324 213q160 0 242.5 -118.5t82.5 -348.5q0 -51 -2 -82.5t-6 -64.5h-608q4 -209 82 -318.5t223 -109.5 q63 0 124.5 15.5t133.5 49.5l10 -102q-59 -31 -129.5 -47t-142.5 -16q-117 0 -200 50t-134 142l-10 2q-76 -51 -131.5 -87t-101.5 -57.5t-85 -31.5t-82 -10q-119 0 -186.5 74.5t-67.5 205.5zM182 281q0 -92 43 -141.5t129 -49.5q66 0 139.5 45t186.5 121q-16 51 -25.5 123 t-9.5 149l-176 -14q-154 -12 -220.5 -67.5t-66.5 -165.5zM760 602h506q-6 225 -56.5 323.5t-160.5 98.5q-129 0 -205 -108.5t-84 -313.5z" />
<glyph unicode="&#xe7;" horiz-adv-x="763" d="M84 553q0 573 426 573q35 0 78 -5t102 -19v-103q-49 12 -91 17.5t-83 5.5q-162 0 -237.5 -112.5t-75.5 -358.5q0 -240 76.5 -354.5t236.5 -114.5q63 0 174 24v-100q-35 -10 -76 -16t-77 -10q55 -111 55 -209q0 -109 -56.5 -165.5t-160.5 -56.5q-33 0 -67 5.5t-64 15.5v94 q61 -23 121 -22q131 0 131 137q0 47 -15.5 99t-44.5 106q-352 45 -352 569z" />
<glyph unicode="&#xe8;" horiz-adv-x="894" d="M84 530q0 291 104.5 442.5t303.5 151.5q160 0 242.5 -118.5t82.5 -348.5q0 -51 -2 -82.5t-6 -66.5h-606q10 -426 301 -426q66 0 126 15.5t132 49.5l10 -102q-57 -31 -128.5 -47t-143.5 -16q-199 0 -307.5 143t-108.5 405zM205 604h502q0 221 -53.5 318.5t-164.5 97.5 q-129 0 -201.5 -105.5t-82.5 -310.5zM231 1636h119l150 -366l-80 -21z" />
<glyph unicode="&#xe9;" horiz-adv-x="894" d="M84 530q0 291 104.5 442.5t303.5 151.5q160 0 242.5 -118.5t82.5 -348.5q0 -51 -2 -82.5t-6 -66.5h-606q10 -426 301 -426q66 0 126 15.5t132 49.5l10 -102q-57 -31 -128.5 -47t-143.5 -16q-199 0 -307.5 143t-108.5 405zM205 604h502q0 221 -53.5 318.5t-164.5 97.5 q-129 0 -201.5 -105.5t-82.5 -310.5zM430 1262l152 374h118l-188 -387z" />
<glyph unicode="&#xea;" horiz-adv-x="894" d="M84 530q0 291 104.5 442.5t303.5 151.5q160 0 242.5 -118.5t82.5 -348.5q0 -51 -2 -82.5t-6 -66.5h-606q10 -426 301 -426q66 0 126 15.5t132 49.5l10 -102q-57 -31 -128.5 -47t-143.5 -16q-199 0 -307.5 143t-108.5 405zM199 1303v108l262 148l262 -148v-108l-262 147z M205 604h502q0 221 -53.5 318.5t-164.5 97.5q-129 0 -201.5 -105.5t-82.5 -310.5z" />
<glyph unicode="&#xeb;" horiz-adv-x="894" d="M84 530q0 291 104.5 442.5t303.5 151.5q160 0 242.5 -118.5t82.5 -348.5q0 -51 -2 -82.5t-6 -66.5h-606q10 -426 301 -426q66 0 126 15.5t132 49.5l10 -102q-57 -31 -128.5 -47t-143.5 -16q-199 0 -307.5 143t-108.5 405zM205 604h502q0 221 -53.5 318.5t-164.5 97.5 q-129 0 -201.5 -105.5t-82.5 -310.5zM211 1368q0 74 76 74q35 0 54 -18.5t19 -55.5t-19 -55.5t-54 -18.5q-76 0 -76 74zM565 1368q0 74 76 74q33 0 53.5 -18.5t20.5 -55.5t-20.5 -55.5t-53.5 -18.5q-76 0 -76 74z" />
<glyph unicode="&#xec;" horiz-adv-x="385" d="M-18 1636h118l150 -366l-80 -21zM135 0v1106h115v-1106h-115z" />
<glyph unicode="&#xed;" horiz-adv-x="385" d="M135 0v1106h115v-1106h-115zM156 1262l151 374h119l-188 -387z" />
<glyph unicode="&#xee;" horiz-adv-x="389" d="M-63 1303v108l262 148l262 -148v-108l-262 147zM137 0v1106h115v-1106h-115z" />
<glyph unicode="&#xef;" horiz-adv-x="389" d="M-55 1368q0 74 75 74q35 0 54.5 -18.5t19.5 -55.5t-19.5 -55.5t-54.5 -18.5q-76 0 -75 74zM137 0v1106h115v-1106h-115zM301 1368q0 74 76 74q33 0 52.5 -18.5t19.5 -55.5t-19.5 -55.5t-52.5 -18.5q-76 0 -76 74z" />
<glyph unicode="&#xf0;" horiz-adv-x="985" d="M84 553q0 281 104.5 427t303.5 146q141 0 229 -114q-39 152 -103 309l-204 -33v94l168 27q-29 66 -59.5 126t-65.5 120h118q33 -53 63 -109.5t56 -115.5l211 34v-94l-172 -29q78 -195 121 -399.5t43 -388.5q0 -281 -103.5 -425t-301.5 -144q-201 0 -304.5 144t-103.5 425 zM203 553q0 -242 71 -355.5t218 -113.5t217.5 113.5t70.5 355.5q0 82 -11 166t-42 152.5t-87 111.5t-148 43q-147 0 -218 -115.5t-71 -357.5z" />
<glyph unicode="&#xf1;" horiz-adv-x="960" d="M133 0v1106h100l9 -119h8q195 139 350 139q127 0 179 -65.5t52 -222.5v-838h-114v817q0 111 -34 157t-112 46q-145 0 -323 -125v-895h-115zM184 1352q33 47 85.5 82.5t105.5 35.5q39 0 70.5 -14t60.5 -31.5t58.5 -32t64.5 -14.5q33 0 60.5 22.5t47.5 59.5l60 -45 q-27 -59 -78 -94t-105 -35q-39 0 -70.5 14.5t-60 32t-58.5 31.5t-65 14t-67.5 -23.5t-56.5 -56.5z" />
<glyph unicode="&#xf2;" horiz-adv-x="980" d="M84 553q0 281 104.5 427t303.5 146t302 -146t103 -427t-103 -425t-302 -144q-201 0 -304.5 144t-103.5 425zM203 553q0 -242 71 -355.5t218 -113.5t217.5 113.5t70.5 355.5t-70.5 357.5t-217.5 115.5t-218 -115.5t-71 -357.5zM254 1636h119l149 -366l-80 -21z" />
<glyph unicode="&#xf3;" horiz-adv-x="980" d="M84 553q0 281 104.5 427t303.5 146t302 -146t103 -427t-103 -425t-302 -144q-201 0 -304.5 144t-103.5 425zM203 553q0 -242 71 -355.5t218 -113.5t217.5 113.5t70.5 355.5t-70.5 357.5t-217.5 115.5t-218 -115.5t-71 -357.5zM428 1262l152 374h118l-188 -387z" />
<glyph unicode="&#xf4;" horiz-adv-x="980" d="M84 553q0 281 104.5 427t303.5 146t302 -146t103 -427t-103 -425t-302 -144q-201 0 -304.5 144t-103.5 425zM203 553q0 -242 71 -355.5t218 -113.5t217.5 113.5t70.5 355.5t-70.5 357.5t-217.5 115.5t-218 -115.5t-71 -357.5zM211 1303v108l262 148l262 -148v-108 l-262 147z" />
<glyph unicode="&#xf5;" horiz-adv-x="980" d="M84 553q0 281 104.5 427t303.5 146t302 -146t103 -427t-103 -425t-302 -144q-201 0 -304.5 144t-103.5 425zM162 1352q33 47 85 82.5t105 35.5q39 0 71 -14t60.5 -31.5t58 -32t64.5 -14.5q33 0 60.5 22.5t48.5 59.5l59 -45q-27 -59 -78 -94t-104 -35q-39 0 -71 14.5 t-60.5 32t-58 31.5t-64.5 14t-67.5 -23.5t-57.5 -56.5zM203 553q0 -242 71 -355.5t218 -113.5t217.5 113.5t70.5 355.5t-70.5 357.5t-217.5 115.5t-218 -115.5t-71 -357.5z" />
<glyph unicode="&#xf6;" horiz-adv-x="980" d="M84 553q0 281 104.5 427t303.5 146t302 -146t103 -427t-103 -425t-302 -144q-201 0 -304.5 144t-103.5 425zM203 553q0 -242 71 -355.5t218 -113.5t217.5 113.5t70.5 355.5t-70.5 357.5t-217.5 115.5t-218 -115.5t-71 -357.5zM217 1368q0 74 76 74q35 0 54.5 -18.5 t19.5 -55.5t-19.5 -55.5t-54.5 -18.5q-76 0 -76 74zM571 1368q0 74 76 74q33 0 53.5 -18.5t20.5 -55.5t-20.5 -55.5t-53.5 -18.5q-76 0 -76 74z" />
<glyph unicode="&#xf7;" horiz-adv-x="1009" d="M117 709v98h776v-98h-776zM432 438q0 39 21.5 59.5t56.5 20.5q37 0 58.5 -21.5t21.5 -58.5q0 -39 -21.5 -59.5t-58.5 -20.5q-35 0 -56.5 20.5t-21.5 59.5zM432 1061q0 41 21.5 61.5t56.5 20.5q37 0 58.5 -21.5t21.5 -60.5q0 -37 -21.5 -57.5t-58.5 -20.5 q-35 0 -56.5 20.5t-21.5 57.5z" />
<glyph unicode="&#xf8;" horiz-adv-x="987" d="M59 0l111 162q-82 145 -82 391q0 281 103.5 427t302.5 146q168 0 268 -106l59 86h101l-107 -156q86 -141 86 -397q0 -281 -103.5 -425t-303.5 -144q-172 0 -271 104l-61 -88h-103zM205 553q0 -178 39 -287l454 662q-72 98 -204 98q-147 0 -218 -115.5t-71 -357.5z M287 182q68 -98 207 -98q147 0 217.5 113.5t70.5 355.5q0 178 -41 291z" />
<glyph unicode="&#xf9;" horiz-adv-x="958" d="M125 268v838h115v-817q0 -109 37.5 -155t123.5 -46q72 0 143.5 31t164.5 98v889h114v-1106h-98l-10 119h-8q-102 -74 -179 -106.5t-147 -32.5q-135 0 -195.5 67.5t-60.5 220.5zM258 1636h119l149 -366l-80 -21z" />
<glyph unicode="&#xfa;" horiz-adv-x="958" d="M125 268v838h115v-817q0 -109 37.5 -155t123.5 -46q72 0 143.5 31t164.5 98v889h114v-1106h-98l-10 119h-8q-102 -74 -179 -106.5t-147 -32.5q-135 0 -195.5 67.5t-60.5 220.5zM432 1262l152 374h118l-188 -387z" />
<glyph unicode="&#xfb;" horiz-adv-x="958" d="M125 268v838h115v-817q0 -109 37.5 -155t123.5 -46q72 0 143.5 31t164.5 98v889h114v-1106h-98l-10 119h-8q-102 -74 -179 -106.5t-147 -32.5q-135 0 -195.5 67.5t-60.5 220.5zM213 1303v108l262 148l262 -148v-108l-262 147z" />
<glyph unicode="&#xfc;" horiz-adv-x="958" d="M125 268v838h115v-817q0 -109 37.5 -155t123.5 -46q72 0 143.5 31t164.5 98v889h114v-1106h-98l-10 119h-8q-102 -74 -179 -106.5t-147 -32.5q-135 0 -195.5 67.5t-60.5 220.5zM219 1368q0 74 76 74q35 0 54.5 -18.5t19.5 -55.5t-19.5 -55.5t-54.5 -18.5q-76 0 -76 74z M573 1368q0 74 76 74q33 0 53.5 -18.5t20.5 -55.5t-20.5 -55.5t-53.5 -18.5q-76 0 -76 74z" />
<glyph unicode="&#xfd;" horiz-adv-x="917" d="M27 1098v8h116l285 -852l29 -119h6l31 119l282 852h117v-8l-520 -1549l-113 25v8l141 422zM432 1262l152 374h118l-188 -387z" />
<glyph unicode="&#xfe;" horiz-adv-x="968" d="M133 -451v2106h115v-658q53 59 127 93t155 34q176 0 265.5 -138t89.5 -411q0 -289 -120 -442t-345 -153q-41 0 -84 5t-88 15v-451h-115zM248 98q53 -10 97 -16t81 -6q340 0 340 491q0 459 -260 459q-47 0 -93 -16.5t-83 -44t-59.5 -65.5t-22.5 -81v-721z" />
<glyph unicode="&#xff;" horiz-adv-x="917" d="M27 1098v8h116l285 -852l29 -119h6l31 119l282 852h117v-8l-520 -1549l-113 25v8l141 422zM221 1368q0 74 76 74q35 0 54.5 -18.5t19.5 -55.5t-19.5 -55.5t-54.5 -18.5q-76 0 -76 74zM575 1368q0 74 76 74q33 0 53.5 -18.5t20.5 -55.5t-20.5 -55.5t-53.5 -18.5 q-76 0 -76 74z" />
<glyph unicode="&#x152;" horiz-adv-x="1574" d="M94 756q0 766 527 766q39 0 89 -1t85 -5h682v-107h-574v-588h512v-102h-512v-613h592v-106h-700q-33 -4 -84 -5t-90 -1q-526 0 -527 762zM211 756q0 -172 23.5 -296t74.5 -204t130 -118t190 -38q33 0 80 1t79 5v1301q-33 4 -78.5 6t-80.5 2q-219 0 -318.5 -157.5 t-99.5 -501.5z" />
<glyph unicode="&#x153;" horiz-adv-x="1591" d="M84 553q0 281 104.5 427t303.5 146q266 0 344 -297h10q41 145 126 220t216 75q160 0 242.5 -118.5t82.5 -348.5q0 -51 -2 -82.5t-6 -64.5h-606q4 -209 81 -318.5t220 -109.5q66 0 127.5 15.5t132.5 49.5l10 -102q-59 -31 -129.5 -47t-142.5 -16q-135 0 -224 73.5 t-130 214.5h-10q-80 -287 -342 -286q-201 0 -304.5 144t-103.5 425zM203 553q0 -242 71 -355.5t218 -113.5t217.5 113.5t70.5 355.5t-70.5 357.5t-217.5 115.5t-218 -115.5t-71 -357.5zM899 602h504q-6 225 -57.5 323.5t-159.5 98.5q-131 0 -204 -108.5t-83 -313.5z" />
<glyph unicode="&#x178;" horiz-adv-x="1062" d="M4 1516h125l348 -760l49 -129h11l49 129l346 760h127l-469 -1004v-512h-115v506zM274 1743q0 43 21.5 61.5t58.5 18.5t59.5 -19.5t22.5 -60.5q0 -43 -22.5 -61.5t-59.5 -18.5t-58.5 19.5t-21.5 60.5zM643 1743q0 43 22.5 61.5t59.5 18.5q35 0 58.5 -19.5t23.5 -60.5 q0 -43 -23.5 -61.5t-58.5 -18.5q-37 0 -59.5 19.5t-22.5 60.5z" />
<glyph unicode="&#x2c6;" horiz-adv-x="690" d="M70 1303v108l262 148l262 -148v-108l-262 147z" />
<glyph unicode="&#x2dc;" horiz-adv-x="811" d="M76 1352q33 47 85 82.5t105 35.5q39 0 71 -14t60.5 -31.5t58 -32t64.5 -14.5q33 0 60.5 22.5t48.5 59.5l59 -45q-27 -59 -78 -94t-104 -35q-39 0 -71 14.5t-60.5 32t-58 31.5t-64.5 14t-67.5 -23.5t-57.5 -56.5z" />
<glyph unicode="&#x2000;" horiz-adv-x="961" />
<glyph unicode="&#x2001;" horiz-adv-x="1923" />
<glyph unicode="&#x2002;" horiz-adv-x="961" />
<glyph unicode="&#x2003;" horiz-adv-x="1923" />
<glyph unicode="&#x2004;" horiz-adv-x="641" />
<glyph unicode="&#x2005;" horiz-adv-x="480" />
<glyph unicode="&#x2006;" horiz-adv-x="320" />
<glyph unicode="&#x2007;" horiz-adv-x="320" />
<glyph unicode="&#x2008;" horiz-adv-x="240" />
<glyph unicode="&#x2009;" horiz-adv-x="384" />
<glyph unicode="&#x200a;" horiz-adv-x="106" />
<glyph unicode="&#x2010;" horiz-adv-x="651" d="M117 524v99h418v-99h-418z" />
<glyph unicode="&#x2011;" horiz-adv-x="651" d="M117 524v99h418v-99h-418z" />
<glyph unicode="&#x2012;" horiz-adv-x="651" d="M117 524v99h418v-99h-418z" />
<glyph unicode="&#x2013;" horiz-adv-x="991" d="M133 524v99h725v-99h-725z" />
<glyph unicode="&#x2014;" horiz-adv-x="1341" d="M133 524v99h1075v-99h-1075z" />
<glyph unicode="&#x2018;" horiz-adv-x="342" d="M98 1288q0 98 28 199.5t73 173.5l59 -16q-31 -78 -48 -168.5t-17 -167.5q0 -98 36 -211l-98 -21q-33 86 -33 211z" />
<glyph unicode="&#x2019;" horiz-adv-x="342" d="M90 1094q29 78 47.5 168t18.5 168q0 100 -39 210l100 21q16 -45 23.5 -96.5t7.5 -114.5q0 -98 -27.5 -199.5t-73.5 -173.5z" />
<glyph unicode="&#x201a;" horiz-adv-x="350" d="M68 -254q29 78 47 168t18 168q0 100 -39 211l101 20q16 -45 23 -96t7 -115q0 -98 -27.5 -199.5t-72.5 -172.5z" />
<glyph unicode="&#x201c;" horiz-adv-x="729" d="M98 1288q0 98 28 199.5t73 173.5l59 -16q-31 -78 -48 -168.5t-17 -167.5q0 -98 36 -211l-98 -21q-33 86 -33 211zM485 1288q0 98 28 199.5t73 173.5l59 -16q-31 -78 -48 -168.5t-17 -167.5q0 -98 36 -211l-98 -21q-33 86 -33 211z" />
<glyph unicode="&#x201d;" horiz-adv-x="727" d="M90 1094q29 78 47.5 168t18.5 168q0 100 -39 210l100 21q16 -45 23.5 -96.5t7.5 -114.5q0 -98 -27.5 -199.5t-73.5 -173.5zM477 1094q29 78 47.5 168t18.5 168q0 100 -39 210l100 21q16 -45 23.5 -96.5t7.5 -114.5q0 -98 -27.5 -199.5t-72.5 -173.5z" />
<glyph unicode="&#x201e;" horiz-adv-x="737" d="M68 -254q29 78 47 168t18 168q0 100 -39 211l101 20q16 -45 23 -96t7 -115q0 -98 -27.5 -199.5t-72.5 -172.5zM455 -254q29 78 47 168t18 168q0 100 -39 211l101 20q16 -45 23 -96t7 -115q0 -98 -27.5 -199.5t-72.5 -172.5z" />
<glyph unicode="&#x2022;" horiz-adv-x="565" d="M147 758q0 78 41 106.5t95 28.5q53 0 93 -28.5t40 -106.5t-40 -106.5t-93 -28.5t-94.5 28.5t-41.5 106.5z" />
<glyph unicode="&#x2026;" horiz-adv-x="1175" d="M111 78q0 86 84 86q86 0 86 -86q0 -82 -86 -82q-84 0 -84 82zM512 78q0 86 84 86q86 0 86 -86q0 -82 -86 -82q-84 0 -84 82zM895 78q0 86 84 86q86 0 86 -86q0 -82 -86 -82q-84 0 -84 82z" />
<glyph unicode="&#x202f;" horiz-adv-x="384" />
<glyph unicode="&#x2039;" horiz-adv-x="468" d="M76 549v8l192 487h119l-192 -487v-8l192 -488h-119z" />
<glyph unicode="&#x203a;" horiz-adv-x="468" d="M82 61l192 488v8l-192 487h119l192 -487v-8l-192 -488h-119z" />
<glyph unicode="&#x205f;" horiz-adv-x="480" />
<glyph unicode="&#x20ac;" horiz-adv-x="1019" d="M80 541v90h149q-2 29 -3 59.5t-1 65.5v64.5t2 62.5h-147v90h156q33 297 172 428t405 131q43 0 71.5 -2t61.5 -6l-37 -103q-16 2 -34.5 3t-47.5 1q-219 0 -331.5 -103t-141.5 -349h447l-41 -90h-414q-2 -31 -2 -61.5v-65.5v-66t2 -59h389l-41 -90h-338 q29 -240 140.5 -347.5t322.5 -107.5q16 0 44 2t57 6v-106q-35 -8 -103 -8q-262 4 -404.5 138t-176.5 423h-156z" />
<glyph unicode="&#x2122;" horiz-adv-x="1554" d="M57 1427v89h531v-89h-217v-772h-95v772h-219zM692 655v861h109l256 -685l256 685h108v-861h-92v656l-227 -619h-90l-228 617v-654h-92z" />
<glyph unicode="&#x25fc;" horiz-adv-x="1105" d="M0 0v1106h1106v-1106h-1106z" />
</font>
</defs>
</svg>
