<?xml version="1.0" standalone="no"?>
<!DOCTYPE svg PUBLIC "-//W3C//DTD SVG 1.1//EN" "http://www.w3.org/Graphics/SVG/1.1/DTD/svg11.dtd" >
<svg xmlns="http://www.w3.org/2000/svg">
<metadata></metadata>
<defs>
<font id="encode_sans_compressedSBd" horiz-adv-x="505" >
<font-face units-per-em="2048" ascent="1638" descent="-410" />
<missing-glyph horiz-adv-x="376" />
<glyph unicode="&#xfb01;" horiz-adv-x="1118" d="M29 909v197h151v68q0 133 23.5 224t79 147.5t147.5 84t229 35.5l13 -180q-78 -6 -128 -22.5t-80 -50.5t-41 -87t-11 -133v-86h213v-197h-213v-909h-234v909h-149zM750 1446q0 133 137 133t137 -133q0 -135 -137 -135q-72 0 -104.5 31.5t-32.5 103.5zM770 0v1106h231 v-1106h-231z" />
<glyph unicode="&#xfb02;" horiz-adv-x="1118" d="M29 909v197h151v68q0 133 23.5 224t79 147.5t147.5 84t229 35.5l13 -180q-78 -6 -128 -22.5t-80 -50.5t-41 -87t-11 -133v-86h213v-197h-213v-909h-234v909h-149zM770 0v1655h234v-1655h-234z" />
<glyph unicode="&#xfb03;" horiz-adv-x="1728" d="M29 909v197h151v68q0 133 23.5 224t79 147.5t147.5 84t229 35.5l13 -180q-78 -6 -128 -22.5t-80 -50.5t-41 -87t-11 -133v-86h213v-197h-213v-909h-234v909h-149zM641 909v197h152v68q0 133 23.5 224t78.5 147.5t147.5 84t229.5 35.5l12 -180q-78 -6 -128 -22.5 t-79.5 -50.5t-41 -87t-11.5 -133v-86h213v-197h-213v-909h-233v909h-150zM1362 1446q0 133 137 133t137 -133q0 -135 -137 -135q-72 0 -104.5 31.5t-32.5 103.5zM1382 0v1106h232v-1106h-232z" />
<glyph unicode="&#xfb04;" horiz-adv-x="1730" d="M29 909v197h151v68q0 133 23.5 224t79 147.5t147.5 84t229 35.5l13 -180q-78 -6 -128 -22.5t-80 -50.5t-41 -87t-11 -133v-86h213v-197h-213v-909h-234v909h-149zM641 909v197h152v68q0 133 23.5 224t78.5 147.5t147.5 84t229.5 35.5l12 -180q-78 -6 -128 -22.5 t-79.5 -50.5t-41 -87t-11.5 -133v-86h213v-197h-213v-909h-233v909h-150zM1382 0v1655h234v-1655h-234z" />
<glyph horiz-adv-x="0" />
<glyph unicode="&#xd;" horiz-adv-x="555" />
<glyph horiz-adv-x="0" />
<glyph horiz-adv-x="0" />
<glyph unicode=" "  horiz-adv-x="376" />
<glyph unicode="&#x09;" horiz-adv-x="376" />
<glyph unicode="&#xa0;" horiz-adv-x="376" />
<glyph unicode="!" horiz-adv-x="491" d="M109 131q0 63 36.5 98t102.5 35q68 0 104.5 -35.5t36.5 -97.5q0 -66 -36.5 -100.5t-104.5 -34.5q-66 0 -102.5 35t-36.5 100zM121 1495v21h248v-21l-50 -1032v-25h-147v25z" />
<glyph unicode="&#x22;" horiz-adv-x="718" d="M104 983v672h189v-8l-66 -664h-123zM457 983v672h188v-8l-65 -664h-123z" />
<glyph unicode="#" horiz-adv-x="1015" d="M78 449v155h149l25 309h-174v154h186l37 449h168l-37 -449h189l36 449h168l-37 -449h150v-154h-162l-24 -309h184v-155h-197l-37 -449h-170l37 449h-186l-37 -449h-168l37 449h-137zM395 604h187l26 309h-188z" />
<glyph unicode="$" horiz-adv-x="1011" d="M66 49l10 203q33 -16 78 -29.5t96 -24t102 -16.5t94 -6q129 0 198 59.5t69 170.5q0 51 -18.5 88.5t-55.5 67.5t-89 55.5t-120 50.5q-78 29 -142.5 63.5t-109.5 84.5t-69.5 122t-24.5 176q0 166 92 274.5t258 139.5v274h195v-266q63 -4 127.5 -16.5t136.5 -30.5l-8 -197 q-86 23 -170 35t-144 12q-117 0 -182 -60t-65 -165q0 -51 19 -88t56 -66.5t91.5 -55t121.5 -52.5q80 -33 142.5 -71t106.5 -88t66.5 -118.5t22.5 -162.5q0 -166 -83 -275.5t-232 -144.5v-279h-195v262q-92 4 -189 22.5t-185 51.5z" />
<glyph unicode="%" horiz-adv-x="1775" d="M61 1053q0 238 87.5 360.5t252.5 122.5q168 0 254 -123t86 -360q0 -236 -86 -358t-254 -122t-254 122t-86 358zM240 1053q0 -166 38.5 -243t122.5 -77t122 77t38 243q0 168 -39 245.5t-121 77.5q-162 0 -161 -323zM522 0l533 1516h192l-532 -1516h-193zM1036 455 q0 238 87 360.5t255 122.5t254 -123t86 -360q0 -236 -86 -358t-254 -122t-255 122t-87 358zM1214 455q0 -166 40 -243t124 -77q82 0 120 77t38 243q0 168 -38 245.5t-120 77.5q-84 0 -124 -78.5t-40 -244.5z" />
<glyph unicode="&#x26;" horiz-adv-x="1280" d="M76 422q0 141 63.5 241.5t182.5 147.5q-66 84 -92.5 165t-26.5 175q0 190 110.5 289.5t319.5 99.5q78 0 158.5 -17.5t173.5 -52.5v-10l-29 -178h-10q-152 63 -275 64q-221 0 -221 -226q0 -119 82 -223t264 -225l154 -105q6 61 6 133v142l205 12v-154q0 -143 -25 -256 l154 -102v-10l-88 -193h-11l-133 94q-143 -253 -469 -253q-115 0 -206 30.5t-154.5 88t-98 139t-34.5 184.5zM307 434q0 -123 76 -194.5t201 -71.5q211 0 293 182l-187 135q-76 53 -137 102.5t-111 94.5q-135 -72 -135 -248z" />
<glyph unicode="'" horiz-adv-x="368" d="M104 983v672h189v-8l-66 -664h-123z" />
<glyph unicode="(" horiz-adv-x="598" d="M63 725q0 287 80 555t234 498h207v-9q-154 -227 -240 -493t-86 -551q0 -287 86 -552t240 -492v-9h-207q-154 229 -234 498.5t-80 554.5z" />
<glyph unicode=")" horiz-adv-x="598" d="M18 -319q154 227 238 492t84 552q0 285 -84 551t-238 493v9h203q156 -229 235 -497.5t79 -555.5q0 -285 -79 -554t-235 -499h-203v9z" />
<glyph unicode="*" horiz-adv-x="985" d="M63 1346l50 149l151 -49l193 -109l-43 219v160h159v-160l-45 -219l193 109l151 49l50 -149l-154 -50l-217 -24l162 -150l94 -131l-127 -92l-94 129l-94 207l-93 -207l-94 -129l-129 92l94 131l162 150l-217 24z" />
<glyph unicode="+" horiz-adv-x="1003" d="M74 670v176h342v336h174v-336h344v-176h-344v-336h-174v336h-342z" />
<glyph unicode="," horiz-adv-x="452" d="M33 -297l90 551h237l-151 -571z" />
<glyph unicode="-" horiz-adv-x="741" d="M102 483v181h537v-181h-537z" />
<glyph unicode="." horiz-adv-x="448" d="M86 125q0 72 33 103.5t104 31.5q72 0 107 -31.5t35 -103.5q-1 -135 -142 -135q-137 0 -137 135z" />
<glyph unicode="/" horiz-adv-x="636" d="M53 -248l328 1764h205l-328 -1764h-205z" />
<glyph unicode="0" horiz-adv-x="1167" d="M80 756q0 383 128 581.5t376 198.5t373.5 -197.5t125.5 -582.5q0 -383 -125.5 -579.5t-373.5 -196.5t-376 196.5t-128 579.5zM319 756q0 -299 63 -437.5t202 -138.5q137 0 199.5 137.5t62.5 438.5t-63.5 440t-198.5 139q-137 0 -201 -140t-64 -439z" />
<glyph unicode="1" horiz-adv-x="743" d="M20 1214l7 33l391 269h174v-1516h-240v1245h-6l-248 -143h-30z" />
<glyph unicode="2" horiz-adv-x="956" d="M72 0v231q0 90 17 165t57 141.5t104.5 127t157.5 121.5q63 43 107 83t70.5 80t39 81t12.5 90q0 109 -59.5 162t-188.5 53q-109 0 -262 -47l-25 193q100 29 189.5 41t167.5 12q418 0 418 -387q0 -147 -71 -261t-235 -229q-80 -59 -132 -106t-80.5 -90t-40 -86t-11.5 -94 v-78h563v-203h-798z" />
<glyph unicode="3" horiz-adv-x="905" d="M78 1503q125 33 256 33q455 0 454 -377q0 -150 -63 -244t-186 -127v-6q141 -31 215.5 -129t74.5 -254q0 -197 -129.5 -305t-365.5 -112q-59 0 -121.5 6t-128.5 22v183h12q41 -14 93.5 -21.5t109.5 -7.5q291 0 291 252q0 141 -76 208.5t-250 67.5h-51v172h49 q152 0 219.5 60.5t67.5 189.5q0 123 -56.5 180.5t-179.5 57.5q-41 0 -93 -7.5t-118 -21.5h-16z" />
<glyph unicode="4" horiz-adv-x="1064" d="M27 481v8l491 1047h12l222 -20l8 -11l-488 -975v-10h369l59 488h174v-488h150v-178h-150v-342h-237v342h-574z" />
<glyph unicode="5" horiz-adv-x="901" d="M84 6v195h51q106 -25 187 -25q139 0 208.5 69.5t69.5 203.5q0 76 -19.5 129t-62.5 85.5t-113.5 47t-173.5 14.5h-125l-8 8l54 783h612v-203h-426l-29 -414q143 -2 243.5 -28.5t165 -81t94.5 -138.5t30 -202q0 -225 -132 -349.5t-372 -124.5q-53 0 -114.5 7.5t-139.5 23.5 z" />
<glyph unicode="6" horiz-adv-x="1089" d="M80 676q0 420 158.5 641t463.5 221q113 0 248 -37l-22 -192q-66 16 -117 24t-100 8q-184 0 -280.5 -128t-117.5 -392q59 59 137 92t164 33q96 0 173 -31.5t131.5 -90t83 -141.5t28.5 -185q0 -119 -32.5 -215.5t-93 -164t-147 -104.5t-192.5 -37q-238 0 -361.5 177.5 t-123.5 521.5zM309 645q4 -242 65.5 -354.5t190.5 -112.5q111 0 172.5 82t61.5 232q0 135 -59.5 205.5t-174.5 70.5q-70 0 -139.5 -35t-116.5 -88z" />
<glyph unicode="7" horiz-adv-x="833" d="M39 1487l29 29h706l31 -136v-55l-422 -1325l-45 -31l-193 31v33l428 1280h-530z" />
<glyph unicode="8" horiz-adv-x="1069" d="M78 373q0 141 54 238.5t171 160.5q-86 53 -137 140t-51 229q0 182 113.5 287.5t306.5 105.5q195 0 306 -105.5t111 -287.5q0 -129 -41 -211t-145 -144q102 -51 162.5 -138t60.5 -240q0 -193 -121.5 -303.5t-332.5 -110.5q-213 0 -335 101.5t-122 277.5zM299 401 q0 -117 62.5 -182t173.5 -65t173 61t62 172q0 66 -18.5 114t-54 82.5t-88 60.5t-122.5 48l-10 2q-90 -51 -134 -119.5t-44 -173.5zM328 1126q0 -113 66.5 -172t191.5 -100q84 47 119.5 113.5t35.5 171.5q0 111 -53 170t-153 59q-98 0 -152.5 -62.5t-54.5 -179.5z" />
<glyph unicode="9" horiz-adv-x="1089" d="M59 1018q0 119 33 215t93.5 163.5t146.5 104.5t192 37q238 0 362 -177t124 -521q0 -420 -159 -641.5t-464 -221.5q-113 0 -248 37l23 193q66 -16 117 -24.5t100 -8.5q184 0 280.5 128t116.5 392q-59 -59 -137 -92t-164 -33q-96 0 -173 32t-131 90.5t-83 141t-29 185.5z M291 1024q0 -135 59 -205.5t174 -70.5q70 0 139.5 34.5t116.5 87.5q-4 242 -65.5 354.5t-190.5 112.5q-111 0 -172 -81.5t-61 -231.5z" />
<glyph unicode=":" horiz-adv-x="473" d="M98 125q0 72 33 103.5t105 31.5t106.5 -31.5t34.5 -103.5q0 -135 -141 -135q-137 0 -138 135zM98 983q0 72 33 103.5t105 31.5t106.5 -31.5t34.5 -103.5q0 -135 -141 -135q-137 0 -138 135z" />
<glyph unicode=";" d="M57 -297l90 551h238l-152 -571zM125 983q0 72 32.5 103.5t104.5 31.5t106.5 -31.5t34.5 -103.5q0 -135 -141 -135q-137 0 -137 135z" />
<glyph unicode="&#x3c;" horiz-adv-x="1050" d="M68 664v167l872 381v-192l-629 -275l627 -272v-190z" />
<glyph unicode="=" horiz-adv-x="1046" d="M109 410v180h829v-180h-829zM109 856v178h829v-178h-829z" />
<glyph unicode="&#x3e;" horiz-adv-x="1050" d="M111 1020v192l872 -381v-167l-870 -381v190l626 272z" />
<glyph unicode="?" horiz-adv-x="837" d="M55 1485q68 23 142.5 36t152.5 13q92 0 171 -22.5t137.5 -71.5t91 -126t32.5 -184q0 -96 -30.5 -167.5t-83 -121.5t-121 -82t-141.5 -50l-11 -263v-34h-155v32l-19 379q66 16 125.5 38t105.5 54.5t72.5 80.5t26.5 118q0 63 -19.5 107.5t-52.5 72t-77 40t-93 12.5 q-57 0 -121.5 -12.5t-115.5 -28.5zM182 125q0 66 37 100.5t103 34.5t103.5 -35t37.5 -100q0 -63 -37.5 -98t-103.5 -35t-103 34.5t-37 98.5z" />
<glyph unicode="@" horiz-adv-x="1626" d="M74 537q0 209 57 368.5t158.5 266t243 160.5t309.5 54q188 0 321 -54t216 -153.5t121 -238.5t38 -311q0 -119 -21.5 -216.5t-64.5 -167t-107.5 -107.5t-152.5 -38q-37 0 -71 7.5t-61.5 27t-47 55t-25.5 91.5h-8q-59 -92 -139 -130t-152 -38q-74 0 -126 30.5t-85 80.5 t-47 114.5t-14 134.5q0 117 32.5 215t93 171t146.5 113t195 40q59 0 135 -19.5t168 -56.5l-70 -426q-6 -37 -13 -77t-7 -75q0 -53 21.5 -89t80.5 -36q92 0 137 108t45 288q0 139 -28.5 251.5t-93 192.5t-167 124t-249.5 44q-135 0 -247 -45t-194 -134t-127 -220t-45 -305 q0 -195 49.5 -325t129 -209t180 -112.5t205.5 -33.5q86 0 183 21.5t193 53.5l52 -129q-104 -35 -214 -59.5t-214 -24.5q-133 0 -262.5 41t-230.5 136.5t-163.5 252t-62.5 388.5zM569 473q0 -41 7.5 -81t23.5 -71.5t44 -51t69 -19.5q31 0 68.5 12t74.5 45t66.5 88.5 t44.5 139.5l53 315q-37 14 -72 19t-65 5q-74 0 -131.5 -29.5t-98.5 -83.5t-62.5 -128t-21.5 -160z" />
<glyph unicode="A" horiz-adv-x="1193" d="M6 0v12l414 1504h354l414 -1504v-12h-223l-121 418h-496l-117 -418h-225zM395 612h404l-137 488l-56 223h-18l-58 -223z" />
<glyph unicode="B" horiz-adv-x="1171" d="M133 10v1497q68 8 122 13.5t100 8.5t87 5t82 2q279 0 409 -101.5t130 -318.5q0 -139 -58.5 -223t-168.5 -111v-8q129 -25 199.5 -120t70.5 -248q0 -213 -145.5 -319.5t-432.5 -106.5q-47 0 -100 2t-105.5 6t-101.5 10t-88 12zM354 180q12 -4 36 -6t52.5 -5t60 -4t60.5 -1 q297 4 297 254q0 137 -73.5 196.5t-249.5 59.5h-183v-494zM354 852h181q156 0 218 56.5t62 195.5q0 244 -266 244q-49 0 -95 -3.5t-100 -11.5v-481z" />
<glyph unicode="C" horiz-adv-x="1013" d="M76 756q0 205 37 352t113.5 241.5t193.5 138.5t276 44q119 0 260 -25v-194q-51 10 -110.5 15t-112.5 5q-113 0 -191.5 -27.5t-127.5 -94t-70.5 -178t-21.5 -277.5q0 -162 22.5 -271.5t71.5 -177t125.5 -96.5t185.5 -29q47 0 109.5 5.5t119.5 15.5v-189 q-47 -16 -112.5 -25t-143.5 -9q-319 2 -471.5 188t-152.5 588z" />
<glyph unicode="D" horiz-adv-x="1247" d="M133 -12v1519q117 14 199 21.5t153 7.5q182 0 312.5 -44t213.5 -139.5t121.5 -242.5t38.5 -354q0 -209 -40.5 -358.5t-129 -245t-227.5 -139.5t-336 -44q-66 0 -137.5 4t-167.5 15zM369 178q47 -4 81.5 -7t63.5 -3q111 0 188.5 31.5t127 101.5t73 181.5t23.5 273.5 t-21.5 272.5t-70 180t-126 100t-188.5 30.5q-88 0 -151 -14v-1147z" />
<glyph unicode="E" horiz-adv-x="1071" d="M133 0v1516h852v-203h-612v-449h547v-202h-547v-459h631v-203h-871z" />
<glyph unicode="F" horiz-adv-x="1009" d="M133 0v1516h821v-203h-581v-469h532v-203h-532v-641h-240z" />
<glyph unicode="G" horiz-adv-x="1167" d="M76 756q0 201 40 347t123 241.5t208.5 141.5t300.5 46q66 0 147.5 -9.5t163.5 -27.5v-195q-86 16 -157 24.5t-130 8.5q-125 0 -211 -29.5t-139 -98t-76.5 -179.5t-23.5 -270q0 -158 21.5 -267.5t69.5 -177t125.5 -98.5t188.5 -31q57 0 125 6v582h217v-758 q-121 -16 -206 -24t-163 -8q-324 2 -474 190t-150 586z" />
<glyph unicode="H" horiz-adv-x="1325" d="M133 0v1516h240v-639h579v639h238v-1516h-238v672h-579v-672h-240z" />
<glyph unicode="I" d="M133 0v1516h240v-1516h-240z" />
<glyph unicode="J" d="M-25 -326q47 106 79 192.5t50.5 167.5t25.5 165t7 188v1129h240v-1147q0 -102 -13.5 -195.5t-44 -185.5t-77.5 -187.5t-115 -199.5z" />
<glyph unicode="K" horiz-adv-x="1206" d="M133 0v1516h240v-642h159l371 642h268l-397 -682l-88 -56v-12l90 -51l436 -715h-268l-412 670h-159v-670h-240z" />
<glyph unicode="L" horiz-adv-x="888" d="M133 0v1516h240v-1313h491v-203h-731z" />
<glyph unicode="M" horiz-adv-x="1701" d="M133 0v1516h336l319 -920l56 -227h12l57 227l320 920h336v-1516h-226v1188h-12l-67 -234l-310 -880h-213l-307 880l-69 234h-11v-1188h-221z" />
<glyph unicode="N" horiz-adv-x="1361" d="M133 0v1516h209l573 -930l84 -168h15v1098h215v-1516h-209l-571 930l-87 170h-16v-1100h-213z" />
<glyph unicode="O" horiz-adv-x="1306" d="M76 756q0 395 142 587.5t435 192.5t435.5 -191.5t142.5 -588.5q0 -393 -142.5 -584.5t-435.5 -191.5t-435 191t-142 585zM319 756q0 -154 18.5 -263.5t58.5 -179t103.5 -101.5t153.5 -32t153.5 32t103.5 100.5t58.5 178t18.5 265.5t-18.5 265t-59.5 179t-104.5 102.5 t-151.5 32.5q-90 0 -152.5 -31.5t-103.5 -101t-59.5 -180.5t-18.5 -266z" />
<glyph unicode="P" horiz-adv-x="1138" d="M133 0v1505q90 16 177 24.5t173 8.5q315 0 461 -127t146 -403q0 -274 -145.5 -400.5t-461.5 -126.5h-55.5t-54.5 2v-483h-240zM373 688q33 -4 70.5 -7t72.5 -3q176 0 253 75.5t77 254.5q0 176 -75 252.5t-251 76.5q-35 0 -73.5 -3t-73.5 -9v-637z" />
<glyph unicode="Q" horiz-adv-x="1300" d="M72 756q0 395 142 587.5t435 192.5q295 0 436.5 -191.5t141.5 -588.5q0 -322 -119 -496t-360 -215v-18q94 -35 211.5 -53.5t293.5 -32.5l-127 -191q-293 63 -494.5 140t-325.5 190t-179 275.5t-55 400.5zM311 756q0 -158 18.5 -268.5t58.5 -180t104.5 -100.5t156.5 -31 q90 0 154.5 32t105.5 101.5t59.5 179t18.5 267.5t-18.5 269.5t-59.5 182t-104.5 102t-155.5 31.5t-156.5 -31.5t-104.5 -101t-58.5 -181.5t-18.5 -271z" />
<glyph unicode="R" horiz-adv-x="1163" d="M133 0v1505q86 16 173 24.5t177 8.5q315 0 461 -120t146 -384q0 -174 -62.5 -283.5t-198.5 -162.5l291 -588h-248l-254 543q-27 -2 -55 -3t-57 -1q-25 0 -68 1t-65 3v-543h-240zM373 737q35 -4 73.5 -6t69.5 -2q178 0 254 70.5t76 234.5t-75 233.5t-251 69.5 q-27 0 -66.5 -3t-80.5 -9v-588z" />
<glyph unicode="S" horiz-adv-x="1001" d="M63 49l11 203q33 -16 78 -29.5t96 -24t102 -16.5t94 -6q129 0 198 59.5t69 170.5q0 51 -18.5 88.5t-55.5 67.5t-89 55.5t-120 50.5q-78 29 -142.5 63.5t-109.5 84.5t-69.5 122t-24.5 176q0 98 32.5 176t93 133.5t147.5 85t196 29.5q82 0 165 -12.5t175 -36.5l-8 -197 q-86 23 -170 35t-144 12q-117 0 -182 -60t-65 -165q0 -51 19 -88t56 -66.5t91.5 -55t121.5 -52.5q80 -33 142.5 -71t106.5 -88t66.5 -118.5t22.5 -162.5q0 -102 -31.5 -183.5t-92 -137.5t-146.5 -87t-195 -31q-98 0 -208.5 20.5t-211.5 55.5z" />
<glyph unicode="T" horiz-adv-x="1030" d="M31 1307v209h968v-209h-366v-1307h-238v1307h-364z" />
<glyph unicode="U" horiz-adv-x="1325" d="M123 588v928h237v-916q0 -221 71 -318.5t231 -97.5q164 0 232.5 96.5t68.5 319.5v916h239v-928q0 -158 -29.5 -271.5t-94 -189.5t-167 -111.5t-249.5 -35.5t-250 36.5t-167.5 111.5t-93 189.5t-28.5 270.5z" />
<glyph unicode="V" horiz-adv-x="1204" d="M2 1516h236l292 -1006l64 -291h18l68 291l291 1006h229l-434 -1516h-326z" />
<glyph unicode="W" horiz-adv-x="1841" d="M18 1516h263l194 -990l37 -227h18l45 227l232 990h244l219 -990l39 -227h20l41 227l205 990h256l-365 -1516h-284l-217 928l-33 246h-14l-37 -246l-228 -928h-284z" />
<glyph unicode="X" horiz-adv-x="1208" d="M-4 0l455 772l-428 744h270l305 -545l12 -35h6l13 35l299 545h258l-432 -732l460 -784h-266l-338 582l-12 32h-6l-14 -32l-324 -582h-258z" />
<glyph unicode="Y" horiz-adv-x="1206" d="M-10 1516h268l299 -662l39 -111h16l37 111l301 662h262l-489 -1000v-516h-240v512z" />
<glyph unicode="Z" horiz-adv-x="1036" d="M53 0v211l637 1083v17h-614v205h882v-211l-636 -1086v-14h659v-205h-928z" />
<glyph unicode="[" horiz-adv-x="641" d="M137 -328v2106h457v-160h-270v-1786h270v-160h-457z" />
<glyph unicode="\" horiz-adv-x="628" d="M53 1516h195l327 -1762h-194z" />
<glyph unicode="]" horiz-adv-x="641" d="M45 -168h270v1786h-270v160h457v-2106h-457v160z" />
<glyph unicode="^" horiz-adv-x="794" d="M66 985l231 631h197l231 -631h-166l-158 473h-8l-160 -473h-167z" />
<glyph unicode="_" horiz-adv-x="1046" d="M76 -123h895v-176h-895v176z" />
<glyph unicode="`" d="M41 1645h242l141 -375l-166 -21z" />
<glyph unicode="a" horiz-adv-x="970" d="M49 297q0 313 389 340l193 14v66q0 66 -10.5 109.5t-34 69.5t-62.5 37t-96 11q-25 0 -60.5 -3t-74.5 -7t-77 -10t-66 -13l-17 176q84 16 171 25.5t161 9.5q209 0 303 -84t94 -264v-774h-192l-19 133h-16q-57 -57 -135 -100t-168 -43q-129 0 -206 83t-77 224zM283 317 q0 -72 33.5 -111.5t99.5 -39.5q27 0 56.5 10t57 24.5t54 32t47.5 31.5v238l-142 -13q-113 -10 -159.5 -51t-46.5 -121z" />
<glyph unicode="b" horiz-adv-x="1042" d="M111 47v1608h233v-660q47 61 120 95t159 34q352 0 352 -540q0 -127 -25.5 -236.5t-85 -189.5t-156 -127t-235.5 -51q-82 0 -173 17t-189 50zM344 166q73 -23 139 -23q131 0 191.5 95.5t60.5 320.5q0 215 -45 304t-147 89q-86 0 -142.5 -68.5t-56.5 -226.5v-491z" />
<glyph unicode="c" horiz-adv-x="819" d="M68 553q0 293 122.5 433t366.5 140q92 0 197 -30v-187q-49 12 -92.5 17.5t-81.5 5.5q-143 0 -207 -89t-64 -288t64.5 -291t206.5 -92q72 0 174 25v-187q-41 -14 -93.5 -22t-103.5 -8q-246 0 -367.5 139t-121.5 434z" />
<glyph unicode="d" horiz-adv-x="1044" d="M70 530q0 293 124.5 443.5t366.5 150.5q29 0 60.5 -3t78.5 -9v543h232v-1655h-211l-16 111h-7q-98 -129 -272 -129q-356 0 -356 548zM307 557q0 -215 47.5 -309t147.5 -94q84 0 141 68.5t57 226.5v489q-41 12 -74.5 17.5t-70.5 5.5q-129 0 -188.5 -92.5t-59.5 -311.5z " />
<glyph unicode="e" horiz-adv-x="962" d="M68 537q0 291 115.5 439t340.5 148q373 0 373 -499q0 -55 -2 -88t-6 -68h-584q10 -166 65.5 -235.5t172.5 -69.5q123 0 305 59l10 -178q-68 -29 -157 -46t-173 -17q-225 0 -342.5 142t-117.5 413zM305 629h383q-4 170 -44 243.5t-126 73.5q-98 0 -150.5 -76.5 t-62.5 -240.5z" />
<glyph unicode="f" horiz-adv-x="647" d="M29 909v197h151v68q0 133 23.5 224t79 147.5t147.5 84t229 35.5l13 -180q-78 -6 -128 -22.5t-80 -50.5t-41 -87t-11 -133v-86h213v-197h-213v-909h-234v909h-149z" />
<glyph unicode="g" horiz-adv-x="1044" d="M70 530q0 291 124.5 442.5t366.5 151.5q92 0 178 -13t195 -42v-928q0 -303 -117.5 -447.5t-363.5 -144.5q-143 0 -301 48l18 178q78 -23 141.5 -33t122.5 -10q143 0 207 82t66 270v51h-9q-98 -123 -266 -123q-184 0 -273 127t-89 391zM309 557q0 -203 46.5 -293 t146.5 -90q86 0 142 66.5t56 208.5v489q-41 12 -74.5 17.5t-68.5 5.5q-129 0 -188.5 -92.5t-59.5 -311.5z" />
<glyph unicode="h" horiz-adv-x="1036" d="M113 0v1655h233v-660q109 72 185.5 101.5t154.5 29.5q242 0 242 -292v-834h-232v760q0 86 -28.5 123t-87.5 37q-102 0 -234 -89v-831h-233z" />
<glyph unicode="i" horiz-adv-x="460" d="M94 1446q0 133 137 133t138 -133q-1 -135 -138 -135q-72 0 -104.5 31.5t-32.5 103.5zM115 0v1106h231v-1106h-231z" />
<glyph unicode="j" horiz-adv-x="460" d="M0 -393q57 127 86 285.5t29 336.5v877h233v-940q0 -74 -13 -156t-39 -162.5t-60.5 -157.5t-77.5 -141zM94 1446q0 133 137 133t138 -133q-1 -135 -138 -135q-72 0 -104.5 31.5t-32.5 103.5z" />
<glyph unicode="k" horiz-adv-x="987" d="M113 0v1655h233v-998h107l262 449h252l-322 -516l-39 -19v-6l41 -20l354 -545h-253l-295 481h-107v-481h-233z" />
<glyph unicode="l" horiz-adv-x="464" d="M117 0v1655h233v-1655h-233z" />
<glyph unicode="m" horiz-adv-x="1597" d="M113 0v1106h190l14 -119h9q111 78 188.5 108.5t159.5 30.5q164 0 217 -141h10q104 78 183 109.5t163 31.5q242 0 242 -292v-834h-227v760q0 86 -29 123t-92 37q-100 0 -226 -84v-836h-227v760q0 86 -29.5 123t-91.5 37q-100 0 -227 -84v-836h-227z" />
<glyph unicode="n" horiz-adv-x="1036" d="M113 0v1106h198l15 -119h8q57 39 104 65.5t88 43t80 23.5t80 7q242 0 242 -292v-834h-232v760q0 88 -29.5 124t-86.5 36q-53 0 -111.5 -24t-122.5 -65v-831h-233z" />
<glyph unicode="o" horiz-adv-x="1042" d="M68 553q0 283 114.5 428t337.5 145t338 -145t115 -428t-115 -428t-338 -145t-337.5 145t-114.5 428zM303 553q0 -109 11.5 -182.5t38 -119.5t67.5 -66.5t100 -20.5t101.5 20.5t68 66.5t37.5 119.5t12 182.5t-12 182.5t-37.5 119.5t-67.5 66.5t-102 20.5q-59 0 -100 -20.5 t-67.5 -66.5t-38 -119.5t-11.5 -182.5z" />
<glyph unicode="p" horiz-adv-x="1044" d="M113 -451v1557h213l10 -111h8q49 59 121 94t160 35q352 0 352 -540q0 -133 -27.5 -244t-88 -190.5t-155 -124.5t-225.5 -45q-29 0 -62.5 4t-72.5 10v-445h-233zM346 166q73 -23 139 -23q131 0 191.5 95.5t60.5 320.5q0 215 -45 304t-147 89q-86 0 -142.5 -68.5 t-56.5 -226.5v-491z" />
<glyph unicode="q" horiz-adv-x="1042" d="M70 530q0 295 124.5 444.5t378.5 149.5q86 0 174.5 -11t184.5 -38v-1526h-232v560q-100 -127 -274 -127q-180 0 -268 134t-88 414zM303 563q0 -221 47.5 -315t153.5 -94q86 0 140 69.5t54 225.5v491q-41 12 -73.5 16.5t-67.5 4.5q-137 0 -195.5 -90.5t-58.5 -307.5z" />
<glyph unicode="r" horiz-adv-x="700" d="M113 0v1106h198l15 -145h12q14 14 45 36.5t72 46t87 45t89 35.5h47v-229h-92q-72 -10 -138.5 -38t-101.5 -60v-797h-233z" />
<glyph unicode="s" horiz-adv-x="815" d="M72 29v178q66 -23 144.5 -37t150.5 -14q82 0 125 38.5t43 108.5q0 63 -36 101t-114 55q-49 10 -103.5 23.5t-99.5 47t-74.5 96t-29.5 167.5q0 160 92 247.5t258 87.5q63 0 131 -9t150 -27v-179q-88 20 -137.5 27.5t-96.5 7.5q-86 0 -133 -39t-47 -106q0 -78 44 -107.5 t110 -46.5q59 -14 114 -33.5t98.5 -55.5t70 -94t26.5 -149q0 -158 -101.5 -247.5t-281.5 -89.5q-70 0 -143.5 12t-159.5 37z" />
<glyph unicode="t" horiz-adv-x="716" d="M23 907v199h194l31 295l186 26v-321h250v-199h-248v-561q0 -94 36 -136t106 -42q23 0 50 3t54 11v-176q-41 -8 -81 -13t-81 -5q-158 0 -237.5 77.5t-79.5 227.5v614h-180z" />
<glyph unicode="u" horiz-adv-x="1034" d="M106 272v834h234v-764q0 -88 27.5 -123t95.5 -35q53 0 103 19.5t122 72.5v830h234v-1106h-197l-16 115h-9q-55 -37 -99 -63.5t-82 -42t-71.5 -22.5t-68.5 -7q-133 0 -203 73.5t-70 218.5z" />
<glyph unicode="v" horiz-adv-x="1005" d="M16 1092v14h240l213 -770l27 -129h14l27 129l213 770h239v-14l-346 -1092h-281z" />
<glyph unicode="w" horiz-adv-x="1437" d="M37 1098v8h217l125 -707l24 -143h19l29 143l153 707h232l153 -707l29 -143h18l27 143l125 707h213v-8l-232 -1098h-264l-160 705l-16 112h-18l-19 -112l-157 -705h-265z" />
<glyph unicode="x" horiz-adv-x="1003" d="M14 0v18l326 557l-309 517v14h248l188 -344l33 -70h12l31 70l184 344h248v-14l-309 -537l323 -537v-18h-246l-204 383l-33 70h-14l-31 -70l-201 -383h-246z" />
<glyph unicode="y" horiz-adv-x="1015" d="M12 1090v16h238l225 -729l25 -137h14l29 137l223 729h238v-16l-512 -1541l-234 50v12l129 391z" />
<glyph unicode="z" horiz-adv-x="849" d="M57 0v160l453 745v13h-436v188h700v-160l-450 -745v-13h471v-188h-738z" />
<glyph unicode="{" horiz-adv-x="673" d="M39 645v174q76 0 110.5 52.5t34.5 150.5v522q0 131 50.5 182.5t173.5 51.5q20 0 53 -1t66.5 -3t61 -3.5t36.5 -3.5v-149h-142q-59 0 -82.5 -22.5t-23.5 -79.5v-539q0 -92 -39 -158.5t-102 -87.5q63 -18 102 -83.5t39 -158.5v-542q0 -57 23.5 -80t82.5 -23h142v-149 q-8 -2 -36 -4t-61.5 -3t-66.5 -2t-53 -1q-123 0 -173.5 51t-50.5 184v522q0 98 -34.5 150.5t-110.5 52.5z" />
<glyph unicode="|" horiz-adv-x="495" d="M137 -451v2106h219v-2106h-219z" />
<glyph unicode="}" horiz-adv-x="673" d="M49 -156h144q59 0 82.5 22.5t23.5 80.5v542q0 92 38 158t103 84q-66 20 -103.5 87t-37.5 159v539q0 57 -23.5 79.5t-82.5 22.5h-144v149q8 2 36 3.5t61.5 3.5t67.5 3t54 1q123 0 172 -51.5t49 -182.5v-522q0 -98 35 -150.5t111 -52.5v-174q-76 0 -111 -52t-35 -151v-522 q0 -133 -49 -184t-172 -51q-20 0 -54 1t-67.5 2t-61.5 3t-36 4v149z" />
<glyph unicode="~" horiz-adv-x="1116" d="M86 567q49 70 89 115t75 71.5t68.5 38t70.5 11.5q51 0 93 -23.5t80 -52.5t75 -52.5t80 -23.5q47 0 92 39t76 109l145 -84q-23 -41 -52.5 -85t-67.5 -79t-82 -57.5t-93 -22.5q-55 0 -98 23.5t-82 53.5t-74 53.5t-73 23.5q-45 0 -87 -36t-96 -114z" />
<glyph unicode="&#xa1;" horiz-adv-x="462" d="M94 975q0 66 36.5 100.5t102.5 34.5q68 0 105 -35t37 -100q0 -61 -37 -97t-105 -36q-66 0 -102.5 34.5t-36.5 98.5zM106 -389l52 1032v25h147v-25l49 -1032v-21h-248v21z" />
<glyph unicode="&#xa2;" horiz-adv-x="847" d="M68 553q0 258 95 397.5t288 167.5v236h153v-230q35 -4 72 -11t78 -17v-187q-49 12 -92.5 17.5t-81.5 5.5q-143 0 -207 -89t-64 -288t64.5 -291t206.5 -92q72 0 174 25v-187q-68 -23 -150 -28v-226h-153v232q-193 29 -288 166t-95 399z" />
<glyph unicode="&#xa3;" horiz-adv-x="1120" d="M74 0v207h219v459h-219v184h219v237q0 225 96 334t311 109q72 0 158 -13.5t195 -41.5l-17 -191q-72 23 -152.5 34t-140.5 11q-117 0 -165 -55t-48 -193v-231h342v-184h-342v-463h494v-203h-950z" />
<glyph unicode="&#xa4;" horiz-adv-x="1138" d="M78 365l108 112l111 80q-39 88 -39 201t41 200l-113 80l-108 113l98 98l113 -110l67 -97q41 41 95.5 64.5t119.5 23.5q63 0 115.5 -23.5t93.5 -64.5l70 97l113 110l98 -98l-111 -113l-114 -82q41 -88 41 -198q0 -113 -41 -199l114 -82l111 -112l-98 -99l-113 111l-70 96 q-41 -43 -94 -66.5t-119 -23.5q-131 0 -213 88l-65 -94l-113 -111zM410 758q0 -113 43 -174.5t114 -61.5q72 0 114 60.5t42 175.5q0 117 -42 175t-114 58t-114.5 -59t-42.5 -174z" />
<glyph unicode="&#xa5;" horiz-adv-x="1304" d="M41 1516h268l299 -662l39 -111h17l36 111l301 662h263l-412 -840h248v-170h-326v-164h326v-172h-326v-170h-239v170h-332v172h332v164h-332v170h250z" />
<glyph unicode="&#xa6;" horiz-adv-x="481" d="M131 418h219v-869h-219v869zM131 786v869h219v-869h-219z" />
<glyph unicode="&#xa7;" horiz-adv-x="864" d="M92 29v178q66 -23 145.5 -37t149.5 -14q82 0 125 38.5t43 108.5q0 63 -36 101t-113 55q-49 10 -102.5 23.5t-99.5 47t-76 96t-30 167.5q0 125 60 206q-27 35 -43.5 86.5t-16.5 126.5q0 158 93.5 246t259.5 88q119 0 278 -37v-178q-88 20 -137 27.5t-94 7.5 q-86 0 -133.5 -39t-47.5 -106q0 -78 44.5 -108t107.5 -44q59 -16 114.5 -35.5t98.5 -55.5t69.5 -93.5t26.5 -149.5q0 -123 -63 -209q31 -37 47 -87t16 -122q0 -158 -101.5 -247.5t-281.5 -89.5q-68 0 -141.5 12t-161.5 37zM307 803q0 -39 9.5 -64.5t26.5 -43t40 -29 t49 -21.5q27 -10 52.5 -19.5t52.5 -17.5q29 45 28 113q0 59 -26.5 96t-85.5 57q-23 10 -47.5 17.5t-49.5 19.5q-49 -47 -49 -108z" />
<glyph unicode="&#xa8;" horiz-adv-x="880" d="M96 1395q0 121 125 121t125 -121t-125 -121t-125 121zM514 1395q0 121 125 121q123 0 123 -121t-123 -121q-125 0 -125 121z" />
<glyph unicode="&#xa9;" horiz-adv-x="1667" d="M74 758q0 174 54 317.5t153.5 246.5t240 159.5t312.5 56.5t312 -56.5t239.5 -159.5t153.5 -246.5t54 -317.5t-54 -317.5t-153.5 -247t-239.5 -160t-312 -56.5t-312.5 56.5t-240 160t-153.5 247t-54 317.5zM219 758q0 -145 43 -263t123 -202t194 -130t255 -46t255.5 46 t194.5 130t123 201.5t43 263.5q0 145 -43 264t-123 203t-194.5 130t-255.5 46t-255 -46t-194 -130t-123 -203t-43 -264zM483 752q0 211 99.5 316.5t281.5 105.5q47 0 94.5 -5.5t88.5 -15.5v-143q-92 18 -164 18q-119 0 -175.5 -66.5t-56.5 -207.5q0 -143 56.5 -209 t173.5 -66q33 0 75.5 5t92.5 14v-142q-39 -10 -87.5 -16t-97.5 -6q-182 0 -281.5 104.5t-99.5 313.5z" />
<glyph unicode="&#xaa;" horiz-adv-x="794" d="M66 938q0 106 67.5 168.5t200.5 73.5l170 12v39q0 45 -6 74.5t-21.5 47t-44.5 23.5t-72 6q-41 0 -97 -4t-124 -16l-14 139q76 12 141.5 19.5t120.5 7.5q162 0 233.5 -60.5t71.5 -193.5v-553h-162l-8 96h-8q-117 -104 -238 -104q-96 0 -153 61.5t-57 163.5zM252 954 q0 -106 94 -106q59 0 158 65v166l-92 -6q-90 -6 -125 -32.5t-35 -86.5z" />
<glyph unicode="&#xab;" horiz-adv-x="1030" d="M61 549v8l193 487h235l-192 -487v-8l192 -488h-235zM537 549v8l192 487h236l-193 -487v-8l193 -488h-236z" />
<glyph unicode="&#xac;" horiz-adv-x="1478" d="M90 690v193h1276v-662h-227v469h-1049z" />
<glyph unicode="&#xad;" horiz-adv-x="741" d="M102 483v181h537v-181h-537z" />
<glyph unicode="&#xae;" horiz-adv-x="1409" d="M78 915q0 137 46 253t129 199t197.5 129t254.5 46q139 0 254.5 -46t198.5 -129t129 -198.5t46 -253.5q0 -137 -46 -252.5t-129 -198.5t-198.5 -129t-254.5 -46t-254 46t-198 129t-129 198.5t-46 252.5zM199 915q0 -115 35.5 -208t102 -160.5t160 -104t208.5 -36.5 q113 0 207 36.5t159.5 104t102 161t36.5 207.5q0 113 -36.5 207.5t-102 162t-160 104t-206.5 36.5q-115 0 -208.5 -36.5t-160 -104t-102 -162t-35.5 -207.5zM479 594v666q104 12 195 12q154 0 225.5 -52.5t71.5 -162.5q0 -152 -135 -193v-6l155 -264h-127l-135 235l-133 2 v-237h-117zM596 930q10 -2 38 -2h44q92 0 132 30.5t40 96.5q0 61 -37 93t-127 32q-14 0 -42 -1t-48 -5v-244z" />
<glyph unicode="&#xaf;" horiz-adv-x="790" d="M96 1298v154h588v-154h-588z" />
<glyph unicode="&#xb0;" horiz-adv-x="806" d="M63 1147q0 84 25 155.5t70 124t108.5 81t139.5 28.5t137 -28.5t106 -81t69.5 -124t24.5 -155.5t-24.5 -155.5t-69.5 -123t-106 -80t-137 -28.5t-139.5 28.5t-108.5 80t-70 123t-25 155.5zM199 1147q0 -115 51.5 -183.5t155.5 -68.5q100 0 150 68.5t50 183.5t-50 184.5 t-150 69.5q-104 0 -155.5 -69.5t-51.5 -184.5z" />
<glyph unicode="&#xb1;" horiz-adv-x="1052" d="M106 147v177h840v-177h-840zM106 786v175h332v337h174v-337h334v-175h-334v-325h-174v325h-332z" />
<glyph unicode="&#xb2;" horiz-adv-x="751" d="M59 614v181q0 129 59.5 223t200.5 190q88 61 125 113.5t37 114.5q0 137 -170 137q-45 0 -96 -8.5t-111 -24.5l-22 164q78 23 147.5 33t128.5 10q328 0 328 -293q0 -111 -50 -191.5t-157 -156.5q-106 -78 -157.5 -143.5t-51.5 -133.5v-43h412v-172h-623z" />
<glyph unicode="&#xb3;" horiz-adv-x="708" d="M66 1722q53 12 102 19.5t100 7.5q348 0 348 -287q0 -100 -45 -168.5t-131 -99.5q102 -29 154.5 -100.5t52.5 -178.5q0 -147 -100.5 -230t-280.5 -83q-51 0 -98 5t-96 18v172h20q31 -10 70 -15.5t80 -5.5q203 0 202 156q0 90 -53 132t-176 42h-49v160h49q201 0 201 157 q0 152 -166 152q-31 0 -70 -5t-86 -16h-20z" />
<glyph unicode="&#xb4;" horiz-adv-x="489" d="M66 1266l143 379h240l-216 -396z" />
<glyph unicode="&#xb5;" horiz-adv-x="1091" d="M135 -451v1557h232v-780q6 -145 133 -146q47 0 98 20.5t119 67.5v838h233v-1106h-196l-17 115h-8q-55 -39 -98 -64.5t-81 -41t-72 -22.5t-70 -7q-10 0 -20.5 1t-20.5 1v-433h-232z" />
<glyph unicode="&#xb6;" horiz-adv-x="1044" d="M61 1034q0 137 28 231.5t78 152t120.5 83t158.5 25.5q41 0 82 -5t86 -16v-1505h-125v545q-12 -2 -24 -2h-25q-86 0 -156.5 25.5t-119.5 83t-76 151.5t-27 231zM731 0v1505h158v-1505h-158z" />
<glyph unicode="&#xb7;" horiz-adv-x="452" d="M88 758q0 72 34 103.5t103 31.5q68 0 102.5 -32t34.5 -103q0 -72 -34.5 -103.5t-102.5 -31.5q-70 0 -103.5 31.5t-33.5 103.5z" />
<glyph unicode="&#xb8;" horiz-adv-x="532" d="M51 -279q31 -10 65 -14t54 -4q51 0 76.5 25.5t25.5 72.5q0 49 -27.5 116t-74.5 136h158q55 -82 80.5 -148.5t25.5 -135.5q0 -104 -59 -162t-170 -58q-68 0 -154 23v149z" />
<glyph unicode="&#xb9;" horiz-adv-x="598" d="M23 1501l6 33l299 199h149v-1119h-207v889l-176 -94h-33z" />
<glyph unicode="&#xba;" horiz-adv-x="837" d="M70 1118q0 209 92 310.5t258 101.5t258 -101.5t92 -310.5t-92 -310t-258 -101t-258 101t-92 310zM256 1118q0 -80 9 -131t29.5 -82t51.5 -43t74 -12t73.5 12t50 43t30 82t10.5 131t-10.5 132.5t-30 83t-50 43t-73.5 12.5t-74 -12.5t-51.5 -43t-29.5 -83t-9 -132.5z" />
<glyph unicode="&#xbb;" horiz-adv-x="1030" d="M66 61l192 488v8l-192 487h235l193 -487v-8l-193 -488h-235zM541 61l192 488v8l-192 487h235l193 -487v-8l-193 -488h-235z" />
<glyph unicode="&#xbc;" horiz-adv-x="1830" d="M43 1296l6 33l299 199h150v-1118h-207v888l-176 -94h-33zM494 0l532 1516h193l-533 -1516h-192zM1024 369l348 741l21 14l170 -18l12 -25l-350 -680h254l57 351h131v-351h109v-153h-109v-248h-207v248h-405z" />
<glyph unicode="&#xbd;" horiz-adv-x="1875" d="M43 1296l6 33l299 199h150v-1118h-207v888l-176 -94h-33zM494 0l532 1516h193l-533 -1516h-192zM1167 -2v180q0 63 13.5 116.5t44 101.5t80 95.5t122.5 100.5q92 68 127 116t35 109q0 139 -168 139q-53 0 -112.5 -9t-96.5 -23l-22 163q166 43 276 43q328 0 328 -292 q0 -53 -10 -98.5t-35 -86.5t-64.5 -81t-97.5 -83q-111 -84 -160 -146t-49 -130v-43h412v-172h-623z" />
<glyph unicode="&#xbe;" horiz-adv-x="1873" d="M86 1518q53 12 102.5 19t100.5 7q348 0 348 -287q0 -100 -45 -168.5t-131 -99.5q102 -29 154.5 -100.5t52.5 -177.5q0 -147 -100.5 -230.5t-280.5 -83.5q-51 0 -98.5 5.5t-96.5 17.5v172h21q31 -10 69.5 -15.5t79.5 -5.5q203 0 203 156q0 90 -53.5 132t-175.5 42h-50v160 h50q201 0 200 158q0 152 -166 151q-31 0 -69.5 -5t-85.5 -15h-21zM573 0l533 1516h192l-532 -1516h-193zM1073 369l348 741l21 14l170 -18l12 -25l-350 -680h254l57 351h131v-351h109v-153h-109v-248h-207v248h-405z" />
<glyph unicode="&#xbf;" horiz-adv-x="825" d="M49 -20q0 96 31 166.5t83 121.5t120.5 83t142.5 50l10 263v34h156v-32l18 -379q-66 -16 -125 -38t-105 -54.5t-72.5 -80.5t-26.5 -118q0 -63 19 -107.5t52 -72t77 -40t93 -12.5q57 0 122 12.5t116 28.5l16 -180q-68 -23 -142.5 -36t-152.5 -13q-92 0 -171 22.5t-137 71.5 t-91 126t-33 184zM369 985q0 63 37.5 98t103.5 35t102.5 -34.5t36.5 -98.5q0 -66 -37 -100.5t-102 -34.5q-66 0 -103.5 35t-37.5 100z" />
<glyph unicode="&#xc0;" horiz-adv-x="1193" d="M6 0v12l414 1504h354l414 -1504v-12h-223l-121 418h-496l-117 -418h-225zM291 1946h241l146 -310l-174 -24zM395 612h404l-137 488l-56 223h-18l-58 -223z" />
<glyph unicode="&#xc1;" horiz-adv-x="1193" d="M6 0v12l414 1504h354l414 -1504v-12h-223l-121 418h-496l-117 -418h-225zM395 612h404l-137 488l-56 223h-18l-58 -223zM502 1626l145 320h242l-213 -334z" />
<glyph unicode="&#xc2;" horiz-adv-x="1193" d="M6 0v12l414 1504h354l414 -1504v-12h-223l-121 418h-496l-117 -418h-225zM299 1642v173l301 145l299 -145v-173l-299 148zM395 612h404l-137 488l-56 223h-18l-58 -223z" />
<glyph unicode="&#xc3;" horiz-adv-x="1193" d="M6 0v12l414 1504h354l414 -1504v-12h-223l-121 418h-496l-117 -418h-225zM258 1722q47 88 111.5 138.5t128.5 50.5q39 0 74.5 -13.5t70.5 -29t68.5 -28.5t70.5 -13q70 0 133 82l52 -43q-41 -94 -105.5 -143.5t-130.5 -49.5q-39 0 -73.5 12.5t-68.5 28t-69 28.5t-71 13 q-72 0 -144 -78zM395 612h404l-137 488l-56 223h-18l-58 -223z" />
<glyph unicode="&#xc4;" horiz-adv-x="1193" d="M6 0v12l414 1504h354l414 -1504v-12h-223l-121 418h-496l-117 -418h-225zM238 1786q0 70 33.5 100.5t103.5 30.5q68 0 102.5 -31t34.5 -100q0 -72 -34.5 -103.5t-102.5 -31.5q-70 0 -103.5 31.5t-33.5 103.5zM395 612h404l-137 488l-56 223h-18l-58 -223zM682 1786 q0 70 33 100.5t102 30.5q68 0 103.5 -31t35.5 -100q0 -72 -35.5 -103.5t-103.5 -31.5q-70 0 -102.5 31.5t-32.5 103.5z" />
<glyph unicode="&#xc5;" horiz-adv-x="1193" d="M6 0v12l414 1504h129q-80 16 -125 74.5t-45 140.5q0 96 58.5 159.5t158.5 63.5t158.5 -63.5t58.5 -159.5q0 -82 -46 -140.5t-124 -74.5h131l414 -1504v-12h-223l-121 418h-496l-117 -418h-225zM395 612h404l-137 488l-56 223h-18l-58 -223zM483 1731q0 -57 27 -89t86 -32 t86 31.5t27 89.5q0 125 -113 124q-59 0 -86 -32.5t-27 -91.5z" />
<glyph unicode="&#xc6;" horiz-adv-x="1613" d="M2 0v12l469 1504h1051v-203h-549l24 -449h486v-202h-475l26 -459h506v-203h-737l-17 412h-413l-127 -412h-244zM436 616h342l-28 709h-95z" />
<glyph unicode="&#xc7;" horiz-adv-x="1013" d="M76 756q0 205 37 352t113.5 241.5t193.5 138.5t276 44q119 0 260 -25v-194q-51 10 -110.5 15t-112.5 5q-113 0 -191.5 -27.5t-127.5 -94t-70.5 -178t-21.5 -277.5q0 -162 22.5 -271.5t71.5 -177t125.5 -96.5t185.5 -29q47 0 109.5 5.5t119.5 15.5v-189 q-45 -14 -107.5 -23t-135.5 -11q33 -55 47 -106.5t14 -104.5q0 -104 -59 -162t-170 -58q-68 0 -154 23v149q31 -10 64.5 -14t54.5 -4q51 0 76.5 25.5t25.5 72.5q0 39 -17 88.5t-46 102.5q-242 41 -357.5 227.5t-115.5 536.5z" />
<glyph unicode="&#xc8;" horiz-adv-x="1071" d="M133 0v1516h852v-203h-612v-449h547v-202h-547v-459h631v-203h-871zM254 1946h242l145 -310l-174 -24z" />
<glyph unicode="&#xc9;" horiz-adv-x="1071" d="M133 0v1516h852v-203h-612v-449h547v-202h-547v-459h631v-203h-871zM465 1626l145 320h242l-213 -334z" />
<glyph unicode="&#xca;" horiz-adv-x="1071" d="M133 0v1516h852v-203h-612v-449h547v-202h-547v-459h631v-203h-871zM262 1642v173l301 145l299 -145v-173l-299 148z" />
<glyph unicode="&#xcb;" horiz-adv-x="1071" d="M133 0v1516h852v-203h-612v-449h547v-202h-547v-459h631v-203h-871zM203 1786q0 70 33.5 100.5t103.5 30.5q68 0 102.5 -31t34.5 -100q0 -72 -34.5 -103.5t-102.5 -31.5q-70 0 -103.5 31.5t-33.5 103.5zM647 1786q0 70 33 100.5t102 30.5q68 0 104 -31t36 -100 q0 -72 -36 -103.5t-104 -31.5q-70 0 -102.5 31.5t-32.5 103.5z" />
<glyph unicode="&#xcc;" d="M-51 1946h241l146 -310l-174 -24zM133 0v1516h240v-1516h-240z" />
<glyph unicode="&#xcd;" d="M133 0v1516h240v-1516h-240zM160 1626l145 320h242l-213 -334z" />
<glyph unicode="&#xce;" d="M-45 1642v173l301 145l299 -145v-173l-299 148zM133 0v1516h240v-1516h-240z" />
<glyph unicode="&#xcf;" d="M-104 1786q0 70 33.5 100.5t103.5 30.5q68 0 102.5 -31t34.5 -100q0 -72 -34.5 -103.5t-102.5 -31.5q-70 0 -103.5 31.5t-33.5 103.5zM133 0v1516h240v-1516h-240zM340 1786q0 70 33 100.5t102 30.5q68 0 103.5 -31t35.5 -100q0 -72 -35.5 -103.5t-103.5 -31.5 q-70 0 -102.5 31.5t-32.5 103.5z" />
<glyph unicode="&#xd0;" horiz-adv-x="1284" d="M-2 666v186h172v655q117 14 199 21.5t153 7.5q182 0 312.5 -44t213 -139.5t121.5 -242.5t39 -354q0 -209 -41 -358.5t-129 -245t-227 -139.5t-336 -44q-66 0 -137.5 4t-167.5 15v678h-172zM406 178q47 -4 81.5 -7t63.5 -3q111 0 188.5 31.5t126.5 101.5t73 181.5 t24 273.5t-21.5 272.5t-70 180t-126 100t-188.5 30.5q-88 0 -151 -14v-473h237v-186h-237v-488z" />
<glyph unicode="&#xd1;" horiz-adv-x="1361" d="M133 0v1516h209l573 -930l84 -168h15v1098h215v-1516h-209l-571 930l-87 170h-16v-1100h-213zM336 1722q47 88 111.5 138.5t127.5 50.5q39 0 75 -13.5t71 -29t68.5 -28.5t70.5 -13q70 0 133 82l51 -43q-41 -94 -105.5 -143.5t-129.5 -49.5q-39 0 -74 12.5t-68.5 28 t-68.5 28.5t-72 13q-72 0 -143 -78z" />
<glyph unicode="&#xd2;" horiz-adv-x="1306" d="M76 756q0 395 142 587.5t435 192.5t435.5 -191.5t142.5 -588.5q0 -393 -142.5 -584.5t-435.5 -191.5t-435 191t-142 585zM319 756q0 -154 18.5 -263.5t58.5 -179t103.5 -101.5t153.5 -32t153.5 32t103.5 100.5t58.5 178t18.5 265.5t-18.5 265t-59.5 179t-104.5 102.5 t-151.5 32.5q-90 0 -152.5 -31.5t-103.5 -101t-59.5 -180.5t-18.5 -266zM346 1946h242l145 -310l-174 -24z" />
<glyph unicode="&#xd3;" horiz-adv-x="1306" d="M76 756q0 395 142 587.5t435 192.5t435.5 -191.5t142.5 -588.5q0 -393 -142.5 -584.5t-435.5 -191.5t-435 191t-142 585zM319 756q0 -154 18.5 -263.5t58.5 -179t103.5 -101.5t153.5 -32t153.5 32t103.5 100.5t58.5 178t18.5 265.5t-18.5 265t-59.5 179t-104.5 102.5 t-151.5 32.5q-90 0 -152.5 -31.5t-103.5 -101t-59.5 -180.5t-18.5 -266zM557 1626l145 320h242l-213 -334z" />
<glyph unicode="&#xd4;" horiz-adv-x="1306" d="M76 756q0 395 142 587.5t435 192.5t435.5 -191.5t142.5 -588.5q0 -393 -142.5 -584.5t-435.5 -191.5t-435 191t-142 585zM319 756q0 -154 18.5 -263.5t58.5 -179t103.5 -101.5t153.5 -32t153.5 32t103.5 100.5t58.5 178t18.5 265.5t-18.5 265t-59.5 179t-104.5 102.5 t-151.5 32.5q-90 0 -152.5 -31.5t-103.5 -101t-59.5 -180.5t-18.5 -266zM354 1642v173l301 145l299 -145v-173l-299 148z" />
<glyph unicode="&#xd5;" horiz-adv-x="1306" d="M76 756q0 395 142 587.5t435 192.5t435.5 -191.5t142.5 -588.5q0 -393 -142.5 -584.5t-435.5 -191.5t-435 191t-142 585zM313 1722q47 88 111.5 138.5t128.5 50.5q39 0 75 -13.5t70.5 -29t68.5 -28.5t71 -13q70 0 133 82l51 -43q-41 -94 -105.5 -143.5t-130.5 -49.5 q-39 0 -73.5 12.5t-68.5 28t-68.5 28.5t-71.5 13q-72 0 -144 -78zM319 756q0 -154 18.5 -263.5t58.5 -179t103.5 -101.5t153.5 -32t153.5 32t103.5 100.5t58.5 178t18.5 265.5t-18.5 265t-59.5 179t-104.5 102.5t-151.5 32.5q-90 0 -152.5 -31.5t-103.5 -101t-59.5 -180.5 t-18.5 -266z" />
<glyph unicode="&#xd6;" horiz-adv-x="1306" d="M76 756q0 395 142 587.5t435 192.5t435.5 -191.5t142.5 -588.5q0 -393 -142.5 -584.5t-435.5 -191.5t-435 191t-142 585zM293 1786q0 70 33.5 100.5t103.5 30.5q68 0 102.5 -31t34.5 -100q0 -72 -34.5 -103.5t-102.5 -31.5q-70 0 -103.5 31.5t-33.5 103.5zM319 756 q0 -154 18.5 -263.5t58.5 -179t103.5 -101.5t153.5 -32t153.5 32t103.5 100.5t58.5 178t18.5 265.5t-18.5 265t-59.5 179t-104.5 102.5t-151.5 32.5q-90 0 -152.5 -31.5t-103.5 -101t-59.5 -180.5t-18.5 -266zM737 1786q0 70 33 100.5t102 30.5q68 0 104 -31t36 -100 q0 -72 -36 -103.5t-104 -31.5q-70 0 -102.5 31.5t-32.5 103.5z" />
<glyph unicode="&#xd7;" horiz-adv-x="956" d="M80 483l274 275l-274 274l123 125l274 -274l275 274l125 -125l-275 -274l275 -275l-123 -123l-277 275l-274 -275z" />
<glyph unicode="&#xd8;" horiz-adv-x="1320" d="M25 0l165 229q-106 188 -106 527q0 395 142.5 587.5t432.5 192.5q238 0 379 -129l78 109h184l-167 -232q106 -188 106 -528q0 -393 -142.5 -584.5t-437.5 -191.5q-233 0 -372 126l-76 -106h-186zM328 756q0 -182 24 -301l551 766q-41 59 -100.5 86.5t-143.5 27.5 q-90 0 -152.5 -31.5t-102 -101t-58 -180t-18.5 -266.5zM420 289q41 -57 99 -83t140 -26q90 0 155 32t104.5 100.5t58 178t18.5 265.5q0 184 -26 299z" />
<glyph unicode="&#xd9;" horiz-adv-x="1325" d="M123 588v928h237v-916q0 -221 71 -318.5t231 -97.5q164 0 232.5 96.5t68.5 319.5v916h239v-928q0 -158 -29.5 -271.5t-94 -189.5t-167 -111.5t-249.5 -35.5t-250 36.5t-167.5 111.5t-93 189.5t-28.5 270.5zM346 1946h242l145 -310l-174 -24z" />
<glyph unicode="&#xda;" horiz-adv-x="1325" d="M123 588v928h237v-916q0 -221 71 -318.5t231 -97.5q164 0 232.5 96.5t68.5 319.5v916h239v-928q0 -158 -29.5 -271.5t-94 -189.5t-167 -111.5t-249.5 -35.5t-250 36.5t-167.5 111.5t-93 189.5t-28.5 270.5zM557 1626l145 320h242l-213 -334z" />
<glyph unicode="&#xdb;" horiz-adv-x="1325" d="M123 588v928h237v-916q0 -221 71 -318.5t231 -97.5q164 0 232.5 96.5t68.5 319.5v916h239v-928q0 -158 -29.5 -271.5t-94 -189.5t-167 -111.5t-249.5 -35.5t-250 36.5t-167.5 111.5t-93 189.5t-28.5 270.5zM352 1642v173l301 145l299 -145v-173l-299 148z" />
<glyph unicode="&#xdc;" horiz-adv-x="1325" d="M123 588v928h237v-916q0 -221 71 -318.5t231 -97.5q164 0 232.5 96.5t68.5 319.5v916h239v-928q0 -158 -29.5 -271.5t-94 -189.5t-167 -111.5t-249.5 -35.5t-250 36.5t-167.5 111.5t-93 189.5t-28.5 270.5zM295 1786q0 70 33.5 100.5t103.5 30.5q68 0 102.5 -31 t34.5 -100q0 -72 -34.5 -103.5t-102.5 -31.5q-70 0 -103.5 31.5t-33.5 103.5zM739 1786q0 70 33 100.5t102 30.5q68 0 104 -31t36 -100q0 -72 -36 -103.5t-104 -31.5q-70 0 -102.5 31.5t-32.5 103.5z" />
<glyph unicode="&#xdd;" horiz-adv-x="1206" d="M-10 1516h268l299 -662l39 -111h16l37 111l301 662h262l-489 -1000v-516h-240v512zM510 1626l145 320h242l-213 -334z" />
<glyph unicode="&#xde;" horiz-adv-x="1140" d="M133 0v1516h240v-236q29 2 55.5 3t54.5 1q315 0 461 -126t146 -404q0 -274 -145.5 -399.5t-461.5 -125.5h-110v-229h-240zM373 432q27 -4 72.5 -6t70.5 -2q178 0 254 75.5t76 254.5q0 176 -75 253.5t-251 77.5q-23 0 -70 -3t-77 -9v-641z" />
<glyph unicode="&#xdf;" horiz-adv-x="1202" d="M113 0v1204q0 240 110.5 348.5t351.5 108.5q242 0 353.5 -108.5t111.5 -348.5v-256h-159q-86 -4 -134.5 -42t-48.5 -103q0 -78 44 -108.5t110 -45.5q59 -14 114.5 -33.5t98.5 -55.5t68.5 -94t25.5 -149q0 -158 -101.5 -247.5t-279.5 -89.5q-70 0 -143.5 12t-159.5 37v178 q66 -23 144.5 -37t150.5 -14q80 0 123 38.5t43 108.5q0 63 -36 101t-114 55q-49 10 -102 24.5t-98 48t-75 95t-30 166.5q0 141 87 230t239 103v78q0 150 -52.5 211.5t-179.5 61.5t-178 -60.5t-51 -212.5v-1204h-233z" />
<glyph unicode="&#xe0;" horiz-adv-x="970" d="M49 297q0 313 389 340l193 14v66q0 66 -10.5 109.5t-34 69.5t-62.5 37t-96 11q-25 0 -60.5 -3t-74.5 -7t-77 -10t-66 -13l-17 176q84 16 171 25.5t161 9.5q209 0 303 -84t94 -264v-774h-192l-19 133h-16q-57 -57 -135 -100t-168 -43q-129 0 -206 83t-77 224zM195 1645 h241l142 -375l-166 -21zM283 317q0 -72 33.5 -111.5t99.5 -39.5q27 0 56.5 10t57 24.5t54 32t47.5 31.5v238l-142 -13q-113 -10 -159.5 -51t-46.5 -121z" />
<glyph unicode="&#xe1;" horiz-adv-x="970" d="M49 297q0 313 389 340l193 14v66q0 66 -10.5 109.5t-34 69.5t-62.5 37t-96 11q-25 0 -60.5 -3t-74.5 -7t-77 -10t-66 -13l-17 176q84 16 171 25.5t161 9.5q209 0 303 -84t94 -264v-774h-192l-19 133h-16q-57 -57 -135 -100t-168 -43q-129 0 -206 83t-77 224zM283 317 q0 -72 33.5 -111.5t99.5 -39.5q27 0 56.5 10t57 24.5t54 32t47.5 31.5v238l-142 -13q-113 -10 -159.5 -51t-46.5 -121zM410 1266l143 379h240l-215 -396z" />
<glyph unicode="&#xe2;" horiz-adv-x="970" d="M49 297q0 313 389 340l193 14v66q0 66 -10.5 109.5t-34 69.5t-62.5 37t-96 11q-25 0 -60.5 -3t-74.5 -7t-77 -10t-66 -13l-17 176q84 16 171 25.5t161 9.5q209 0 303 -84t94 -264v-774h-192l-19 133h-16q-57 -57 -135 -100t-168 -43q-129 0 -206 83t-77 224zM205 1276 v170l301 147l299 -147v-170l-301 145zM283 317q0 -72 33.5 -111.5t99.5 -39.5q27 0 56.5 10t57 24.5t54 32t47.5 31.5v238l-142 -13q-113 -10 -159.5 -51t-46.5 -121z" />
<glyph unicode="&#xe3;" horiz-adv-x="970" d="M49 297q0 313 389 340l193 14v66q0 66 -10.5 109.5t-34 69.5t-62.5 37t-96 11q-25 0 -60.5 -3t-74.5 -7t-77 -10t-66 -13l-17 176q84 16 171 25.5t161 9.5q209 0 303 -84t94 -264v-774h-192l-19 133h-16q-57 -57 -135 -100t-168 -43q-129 0 -206 83t-77 224zM147 1350 q47 82 112 127t128 45q39 0 75 -16.5t69.5 -36t67.5 -36t71 -16.5q70 0 123 86l63 -63q-41 -90 -105.5 -133t-129.5 -43q-39 0 -74 16t-69 34.5t-68.5 35t-71.5 16.5q-68 0 -131 -82zM283 317q0 -72 33.5 -111.5t99.5 -39.5q27 0 56.5 10t57 24.5t54 32t47.5 31.5v238 l-142 -13q-113 -10 -159.5 -51t-46.5 -121z" />
<glyph unicode="&#xe4;" horiz-adv-x="970" d="M49 297q0 313 389 340l193 14v66q0 66 -10.5 109.5t-34 69.5t-62.5 37t-96 11q-25 0 -60.5 -3t-74.5 -7t-77 -10t-66 -13l-17 176q84 16 171 25.5t161 9.5q209 0 303 -84t94 -264v-774h-192l-19 133h-16q-57 -57 -135 -100t-168 -43q-129 0 -206 83t-77 224zM160 1395 q0 121 125 121t125 -121t-125 -121t-125 121zM283 317q0 -72 33.5 -111.5t99.5 -39.5q27 0 56.5 10t57 24.5t54 32t47.5 31.5v238l-142 -13q-113 -10 -159.5 -51t-46.5 -121zM578 1395q0 121 124 121q123 0 123 -121t-123 -121q-125 0 -124 121z" />
<glyph unicode="&#xe5;" horiz-adv-x="970" d="M49 297q0 313 389 340l193 14v66q0 66 -10.5 109.5t-34 69.5t-62.5 37t-96 11q-25 0 -60.5 -3t-74.5 -7t-77 -10t-66 -13l-17 176q84 16 171 25.5t161 9.5q209 0 303 -84t94 -264v-774h-192l-19 133h-16q-57 -57 -135 -100t-168 -43q-129 0 -206 83t-77 224zM270 1456 q0 96 58.5 157.5t163.5 61.5q104 0 163.5 -61.5t59.5 -157.5t-59.5 -158.5t-163.5 -62.5t-163 62.5t-59 158.5zM283 317q0 -72 33.5 -111.5t99.5 -39.5q27 0 56.5 10t57 24.5t54 32t47.5 31.5v238l-142 -13q-113 -10 -159.5 -51t-46.5 -121zM387 1456q0 -53 28 -87t77 -34 q51 0 79.5 34t28.5 87q0 51 -28.5 85t-79.5 34t-78 -34t-27 -85z" />
<glyph unicode="&#xe6;" horiz-adv-x="1527" d="M49 297q0 309 389 340l193 14v97q0 109 -46 152.5t-157 43.5q-27 0 -63.5 -3t-75.5 -7t-76 -10t-63 -13l-17 176q94 16 179 25.5t153 9.5q223 0 285 -164h16q100 166 324 166q373 0 372 -499q0 -55 -2 -86t-8 -66h-586q4 -160 61.5 -234.5t180.5 -74.5q57 0 134 14.5 t171 44.5l10 -178q-70 -29 -158.5 -46t-170.5 -17q-238 0 -349 184l-14 2q-129 -94 -220 -136t-179 -42q-129 0 -206 83t-77 224zM283 317q0 -72 33.5 -111.5t99.5 -39.5q47 0 102 31.5t133 83.5q-4 14 -8 42.5t-7 60.5t-4 63.5t-1 54.5l-142 -13q-113 -10 -159.5 -51 t-46.5 -121zM866 625h385q-4 172 -43 246.5t-127 74.5q-203 0 -215 -321z" />
<glyph unicode="&#xe7;" horiz-adv-x="819" d="M66 553q0 293 122.5 433t366.5 140q92 0 197 -30v-187q-49 12 -92.5 17.5t-81.5 5.5q-143 0 -207 -89t-64 -288t64.5 -291t206.5 -92q72 0 174 25v-187q-39 -12 -87.5 -20t-95.5 -10q33 -55 47.5 -106.5t14.5 -104.5q0 -104 -59.5 -162t-170.5 -58q-68 0 -153 23v149 q31 -10 64.5 -14t54.5 -4q51 0 76.5 25.5t25.5 72.5q0 39 -17.5 90.5t-48.5 104.5q-170 39 -253.5 175t-83.5 382z" />
<glyph unicode="&#xe8;" horiz-adv-x="962" d="M68 537q0 291 115.5 439t340.5 148q373 0 373 -499q0 -55 -2 -88t-6 -68h-584q10 -166 65.5 -235.5t172.5 -69.5q123 0 305 59l10 -178q-68 -29 -157 -46t-173 -17q-225 0 -342.5 142t-117.5 413zM186 1645h242l141 -375l-166 -21zM305 629h383q-4 170 -44 243.5 t-126 73.5q-98 0 -150.5 -76.5t-62.5 -240.5z" />
<glyph unicode="&#xe9;" horiz-adv-x="962" d="M68 537q0 291 115.5 439t340.5 148q373 0 373 -499q0 -55 -2 -88t-6 -68h-584q10 -166 65.5 -235.5t172.5 -69.5q123 0 305 59l10 -178q-68 -29 -157 -46t-173 -17q-225 0 -342.5 142t-117.5 413zM305 629h383q-4 170 -44 243.5t-126 73.5q-98 0 -150.5 -76.5 t-62.5 -240.5zM416 1266l143 379h240l-215 -396z" />
<glyph unicode="&#xea;" horiz-adv-x="962" d="M68 537q0 291 115.5 439t340.5 148q373 0 373 -499q0 -55 -2 -88t-6 -68h-584q10 -166 65.5 -235.5t172.5 -69.5q123 0 305 59l10 -178q-68 -29 -157 -46t-173 -17q-225 0 -342.5 142t-117.5 413zM203 1276v170l301 147l299 -147v-170l-301 145zM305 629h383 q-4 170 -44 243.5t-126 73.5q-98 0 -150.5 -76.5t-62.5 -240.5z" />
<glyph unicode="&#xeb;" horiz-adv-x="962" d="M68 537q0 291 115.5 439t340.5 148q373 0 373 -499q0 -55 -2 -88t-6 -68h-584q10 -166 65.5 -235.5t172.5 -69.5q123 0 305 59l10 -178q-68 -29 -157 -46t-173 -17q-225 0 -342.5 142t-117.5 413zM162 1395q0 121 125 121t125 -121t-125 -121t-125 121zM305 629h383 q-4 170 -44 243.5t-126 73.5q-98 0 -150.5 -76.5t-62.5 -240.5zM580 1395q0 121 125 121q123 0 122 -121q1 -121 -122 -121q-125 0 -125 121z" />
<glyph unicode="&#xec;" horiz-adv-x="460" d="M-59 1645h241l142 -375l-166 -21zM115 0v1106h231v-1106h-231z" />
<glyph unicode="&#xed;" horiz-adv-x="460" d="M115 0v1106h231v-1106h-231zM154 1266l143 379h240l-215 -396z" />
<glyph unicode="&#xee;" horiz-adv-x="464" d="M-49 1276v170l301 147l299 -147v-170l-301 145zM117 0v1106h231v-1106h-231z" />
<glyph unicode="&#xef;" horiz-adv-x="464" d="M-94 1395q0 121 125 121t125 -121t-125 -121t-125 121zM117 0v1106h231v-1106h-231zM326 1395q0 121 123 121t122 -121q1 -121 -122 -121t-123 121z" />
<glyph unicode="&#xf0;" horiz-adv-x="1050" d="M68 553q0 283 114.5 428t337.5 145q109 0 176 -73q-39 123 -86 237l-231 -30v151l164 21q-63 123 -140 223h240q33 -47 62.5 -95.5t56.5 -99.5l239 33v-152l-172 -22q143 -352 144 -766q0 -283 -115 -428t-338 -145t-337.5 145t-114.5 428zM303 553q0 -109 11.5 -183.5 t38 -120.5t67.5 -65.5t100 -19.5t101.5 20.5t68 66.5t37.5 119.5t12 182.5q0 86 -8 157.5t-32.5 123t-67.5 80t-111 28.5q-59 0 -100 -20.5t-67.5 -66.5t-38 -119.5t-11.5 -182.5z" />
<glyph unicode="&#xf1;" horiz-adv-x="1036" d="M113 0v1106h198l15 -119h8q57 39 104 65.5t88 43t80 23.5t80 7q242 0 242 -292v-834h-232v760q0 88 -29.5 124t-86.5 36q-53 0 -111.5 -24t-122.5 -65v-831h-233zM184 1350q47 82 111.5 127t128.5 45q39 0 75 -16.5t69.5 -36t67.5 -36t71 -16.5q70 0 122 86l64 -63 q-41 -90 -105.5 -133t-130.5 -43q-39 0 -73.5 16t-68.5 34.5t-68.5 35t-71.5 16.5q-68 0 -131 -82z" />
<glyph unicode="&#xf2;" horiz-adv-x="1042" d="M68 553q0 283 114.5 428t337.5 145t338 -145t115 -428t-115 -428t-338 -145t-337.5 145t-114.5 428zM215 1645h242l141 -375l-166 -21zM303 553q0 -109 11.5 -182.5t38 -119.5t67.5 -66.5t100 -20.5t101.5 20.5t68 66.5t37.5 119.5t12 182.5t-12 182.5t-37.5 119.5 t-67.5 66.5t-102 20.5q-59 0 -100 -20.5t-67.5 -66.5t-38 -119.5t-11.5 -182.5z" />
<glyph unicode="&#xf3;" horiz-adv-x="1042" d="M68 553q0 283 114.5 428t337.5 145t338 -145t115 -428t-115 -428t-338 -145t-337.5 145t-114.5 428zM303 553q0 -109 11.5 -182.5t38 -119.5t67.5 -66.5t100 -20.5t101.5 20.5t68 66.5t37.5 119.5t12 182.5t-12 182.5t-37.5 119.5t-67.5 66.5t-102 20.5q-59 0 -100 -20.5 t-67.5 -66.5t-38 -119.5t-11.5 -182.5zM428 1266l143 379h240l-215 -396z" />
<glyph unicode="&#xf4;" horiz-adv-x="1042" d="M68 553q0 283 114.5 428t337.5 145t338 -145t115 -428t-115 -428t-338 -145t-337.5 145t-114.5 428zM225 1276v170l301 147l299 -147v-170l-301 145zM303 553q0 -109 11.5 -182.5t38 -119.5t67.5 -66.5t100 -20.5t101.5 20.5t68 66.5t37.5 119.5t12 182.5t-12 182.5 t-37.5 119.5t-67.5 66.5t-102 20.5q-59 0 -100 -20.5t-67.5 -66.5t-38 -119.5t-11.5 -182.5z" />
<glyph unicode="&#xf5;" horiz-adv-x="1042" d="M68 553q0 283 114.5 428t337.5 145t338 -145t115 -428t-115 -428t-338 -145t-337.5 145t-114.5 428zM166 1350q47 82 111.5 127t128.5 45q39 0 74.5 -16.5t69.5 -36t67.5 -36t70.5 -16.5q70 0 123 86l63 -63q-41 -90 -105 -133t-130 -43q-39 0 -74 16t-68.5 34.5 t-68.5 35t-72 16.5q-68 0 -131 -82zM303 553q0 -109 11.5 -182.5t38 -119.5t67.5 -66.5t100 -20.5t101.5 20.5t68 66.5t37.5 119.5t12 182.5t-12 182.5t-37.5 119.5t-67.5 66.5t-102 20.5q-59 0 -100 -20.5t-67.5 -66.5t-38 -119.5t-11.5 -182.5z" />
<glyph unicode="&#xf6;" horiz-adv-x="1042" d="M68 553q0 283 114.5 428t337.5 145t338 -145t115 -428t-115 -428t-338 -145t-337.5 145t-114.5 428zM180 1395q0 121 125 121t125 -121t-125 -121t-125 121zM303 553q0 -109 11.5 -182.5t38 -119.5t67.5 -66.5t100 -20.5t101.5 20.5t68 66.5t37.5 119.5t12 182.5 t-12 182.5t-37.5 119.5t-67.5 66.5t-102 20.5q-59 0 -100 -20.5t-67.5 -66.5t-38 -119.5t-11.5 -182.5zM598 1395q0 121 125 121q123 0 123 -121t-123 -121q-125 0 -125 121z" />
<glyph unicode="&#xf7;" horiz-adv-x="1034" d="M88 670v176h860v-176h-860zM403 406q0 59 33 88.5t86 29.5t86 -29.5t33 -88.5t-33 -90t-86 -31t-86 30.5t-33 90.5zM403 1102q0 59 33 90t86 31t86 -31t33 -90t-33 -89t-86 -30t-86 29.5t-33 89.5z" />
<glyph unicode="&#xf8;" horiz-adv-x="1052" d="M27 0l129 170q-82 139 -82 383q0 283 114.5 428t337.5 145q174 0 287 -94l55 74h154l-129 -168q86 -141 86 -385q0 -283 -114.5 -428t-338.5 -145q-178 0 -288 94l-58 -74h-153zM309 553q0 -49 2 -92t6 -78l369 483q-49 76 -160 76q-59 0 -101 -20.5t-67.5 -66.5 t-37 -119.5t-11.5 -182.5zM362 240q49 -76 164 -76q59 0 100.5 20.5t68 66.5t37.5 119.5t11 182.5q0 51 -3 94t-7 80z" />
<glyph unicode="&#xf9;" horiz-adv-x="1034" d="M106 272v834h234v-764q0 -88 27.5 -123t95.5 -35q53 0 103 19.5t122 72.5v830h234v-1106h-197l-16 115h-9q-55 -37 -99 -63.5t-82 -42t-71.5 -22.5t-68.5 -7q-133 0 -203 73.5t-70 218.5zM215 1645h242l141 -375l-166 -21z" />
<glyph unicode="&#xfa;" horiz-adv-x="1034" d="M106 272v834h234v-764q0 -88 27.5 -123t95.5 -35q53 0 103 19.5t122 72.5v830h234v-1106h-197l-16 115h-9q-55 -37 -99 -63.5t-82 -42t-71.5 -22.5t-68.5 -7q-133 0 -203 73.5t-70 218.5zM430 1266l143 379h240l-215 -396z" />
<glyph unicode="&#xfb;" horiz-adv-x="1034" d="M106 272v834h234v-764q0 -88 27.5 -123t95.5 -35q53 0 103 19.5t122 72.5v830h234v-1106h-197l-16 115h-9q-55 -37 -99 -63.5t-82 -42t-71.5 -22.5t-68.5 -7q-133 0 -203 73.5t-70 218.5zM227 1276v170l301 147l299 -147v-170l-301 145z" />
<glyph unicode="&#xfc;" horiz-adv-x="1034" d="M106 272v834h234v-764q0 -88 27.5 -123t95.5 -35q53 0 103 19.5t122 72.5v830h234v-1106h-197l-16 115h-9q-55 -37 -99 -63.5t-82 -42t-71.5 -22.5t-68.5 -7q-133 0 -203 73.5t-70 218.5zM180 1395q0 121 125 121t125 -121t-125 -121t-125 121zM598 1395q0 121 125 121 q123 0 123 -121t-123 -121q-125 0 -125 121z" />
<glyph unicode="&#xfd;" horiz-adv-x="1015" d="M12 1090v16h238l225 -729l25 -137h14l29 137l223 729h238v-16l-512 -1541l-234 50v12l129 391zM432 1266l143 379h240l-215 -396z" />
<glyph unicode="&#xfe;" horiz-adv-x="1044" d="M113 -451v2106h233v-654q55 61 128 92t151 31q352 0 352 -540q0 -299 -126 -451.5t-370 -152.5q-29 0 -62.5 4t-72.5 10v-445h-233zM346 166q73 -23 139 -23q131 0 191.5 95.5t60.5 320.5q0 215 -45 304t-147 89q-86 0 -142.5 -68.5t-56.5 -226.5v-491z" />
<glyph unicode="&#xff;" horiz-adv-x="1015" d="M12 1090v16h238l225 -729l25 -137h14l29 137l223 729h238v-16l-512 -1541l-234 50v12l129 391zM184 1395q0 121 125 121t125 -121t-125 -121t-125 121zM602 1395q0 121 125 121q123 0 123 -121t-123 -121q-125 0 -125 121z" />
<glyph unicode="&#x152;" horiz-adv-x="1738" d="M76 756q0 389 152.5 580.5t443.5 191.5q49 0 101 -4t93 -8h783v-203h-549v-445h506v-192h-506v-473h567v-203h-801q-41 -8 -93 -10t-101 -2q-293 0 -444.5 190.5t-151.5 577.5zM315 756q0 -154 19.5 -261.5t65.5 -175t118.5 -98.5t181.5 -31q35 0 79 2.5t83 10.5v1108 q-41 6 -85 9t-81 3q-104 0 -177 -31.5t-118 -100.5t-65.5 -176.5t-20.5 -258.5z" />
<glyph unicode="&#x153;" horiz-adv-x="1634" d="M68 553q0 283 114.5 428t337.5 145q121 0 203 -53t129 -158h14q49 102 132 155.5t200 53.5q373 0 373 -499q0 -55 -2 -86t-8 -66h-586q6 -162 64.5 -235.5t174.5 -73.5q123 0 308 59l10 -178q-70 -29 -159 -46t-171 -17q-119 0 -204 53t-134 151h-12q-100 -207 -332 -206 q-223 0 -337.5 145t-114.5 428zM303 553q0 -109 11.5 -182.5t38 -119.5t67.5 -66.5t100 -20.5t101.5 20.5t68 66.5t37.5 119.5t12 182.5t-12 182.5t-37.5 119.5t-67.5 66.5t-102 20.5q-59 0 -100 -20.5t-67.5 -66.5t-38 -119.5t-11.5 -182.5zM975 625h385q-4 172 -44 246.5 t-124 74.5q-199 0 -217 -321z" />
<glyph unicode="&#x178;" horiz-adv-x="1206" d="M-10 1516h268l299 -662l39 -111h16l37 111l301 662h262l-489 -1000v-516h-240v512zM248 1786q0 70 33.5 100.5t103.5 30.5q68 0 102.5 -31t34.5 -100q0 -72 -34.5 -103.5t-102.5 -31.5q-70 0 -103.5 31.5t-33.5 103.5zM692 1786q0 70 33 100.5t102 30.5q68 0 104 -31 t36 -100q0 -72 -36 -103.5t-104 -31.5q-70 0 -102.5 31.5t-32.5 103.5z" />
<glyph unicode="&#x2c6;" horiz-adv-x="751" d="M66 1276v170l301 147l299 -147v-170l-301 145z" />
<glyph unicode="&#x2dc;" horiz-adv-x="843" d="M51 1350q47 82 111.5 127t128.5 45q39 0 74.5 -16.5t69.5 -36t68 -36t70 -16.5q70 0 123 86l64 -63q-41 -90 -105.5 -133t-130.5 -43q-39 0 -73.5 16t-68.5 34.5t-68.5 35t-71.5 16.5q-68 0 -131 -82z" />
<glyph unicode="&#x2000;" horiz-adv-x="980" />
<glyph unicode="&#x2001;" horiz-adv-x="1960" />
<glyph unicode="&#x2002;" horiz-adv-x="980" />
<glyph unicode="&#x2003;" horiz-adv-x="1960" />
<glyph unicode="&#x2004;" horiz-adv-x="653" />
<glyph unicode="&#x2005;" horiz-adv-x="490" />
<glyph unicode="&#x2006;" horiz-adv-x="326" />
<glyph unicode="&#x2007;" horiz-adv-x="326" />
<glyph unicode="&#x2008;" horiz-adv-x="245" />
<glyph unicode="&#x2009;" horiz-adv-x="392" />
<glyph unicode="&#x200a;" horiz-adv-x="108" />
<glyph unicode="&#x2010;" horiz-adv-x="741" d="M102 483v181h537v-181h-537z" />
<glyph unicode="&#x2011;" horiz-adv-x="741" d="M102 483v181h537v-181h-537z" />
<glyph unicode="&#x2012;" horiz-adv-x="741" d="M102 483v181h537v-181h-537z" />
<glyph unicode="&#x2013;" horiz-adv-x="1064" d="M111 483v181h843v-181h-843z" />
<glyph unicode="&#x2014;" horiz-adv-x="1415" d="M111 483v181h1194v-181h-1194z" />
<glyph unicode="&#x2018;" horiz-adv-x="380" d="M78 1268q0 104 34.5 209.5t90.5 183.5l102 -16q-29 -72 -44 -153t-15 -155q0 -129 51 -262l-180 -20q-39 90 -39 213z" />
<glyph unicode="&#x2019;" horiz-adv-x="376" d="M76 1071q29 72 45 152t16 153q0 66 -13 130.5t-40 133.5l180 21q23 -47 31 -100.5t8 -112.5q0 -104 -33.5 -209.5t-89.5 -183.5z" />
<glyph unicode="&#x201a;" horiz-adv-x="393" d="M66 -276q29 72 45 151.5t16 153.5q0 66 -13.5 130t-39.5 134l180 20q23 -47 31 -100t8 -113q0 -104 -34 -209.5t-89 -183.5z" />
<glyph unicode="&#x201c;" horiz-adv-x="800" d="M78 1268q0 104 34.5 209.5t90.5 183.5l102 -16q-29 -72 -44 -153t-15 -155q0 -129 51 -262l-180 -20q-39 90 -39 213zM498 1268q0 104 34.5 209.5t90.5 183.5l102 -16q-29 -72 -44 -153t-15 -155q0 -129 51 -262l-180 -20q-39 90 -39 213z" />
<glyph unicode="&#x201d;" horiz-adv-x="794" d="M76 1071q29 72 45 152t16 153q0 66 -13 130.5t-40 133.5l180 21q23 -47 31 -100.5t8 -112.5q0 -104 -33.5 -209.5t-89.5 -183.5zM496 1071q29 72 45 152t16 153q0 66 -13.5 130.5t-39.5 133.5l180 21q23 -47 31 -100.5t8 -112.5q0 -104 -34 -209.5t-89 -183.5z" />
<glyph unicode="&#x201e;" horiz-adv-x="811" d="M66 -276q29 72 45 151.5t16 153.5q0 66 -13.5 130t-39.5 134l180 20q23 -47 31 -100t8 -113q0 -104 -34 -209.5t-89 -183.5zM483 -276q29 72 45.5 151.5t16.5 153.5q0 66 -13.5 130t-39.5 134l180 20q23 -47 31 -100t8 -113q0 -104 -34 -209.5t-89 -183.5z" />
<glyph unicode="&#x2022;" horiz-adv-x="630" d="M123 758q0 100 54 144t138 44q82 0 136.5 -44t54.5 -144t-54.5 -144.5t-136.5 -44.5q-84 0 -138 44t-54 145z" />
<glyph unicode="&#x2026;" horiz-adv-x="1409" d="M86 125q0 72 33 103.5t104 31.5q72 0 107 -31.5t35 -103.5q-1 -135 -142 -135q-137 0 -137 135zM573 125q0 72 33 103.5t105 31.5t106.5 -31.5t34.5 -103.5q0 -135 -141 -135q-137 0 -138 135zM1047 125q0 72 32.5 103.5t104.5 31.5t106.5 -31.5t34.5 -103.5 q0 -135 -141 -135q-137 0 -137 135z" />
<glyph unicode="&#x202f;" horiz-adv-x="392" />
<glyph unicode="&#x2039;" horiz-adv-x="555" d="M61 549v8l193 487h235l-192 -487v-8l192 -488h-235z" />
<glyph unicode="&#x203a;" horiz-adv-x="555" d="M66 61l192 488v8l-192 487h235l193 -487v-8l-193 -488h-235z" />
<glyph unicode="&#x205f;" horiz-adv-x="490" />
<glyph unicode="&#x20ac;" horiz-adv-x="1114" d="M66 512v143h147q-2 25 -2 49.5v51.5v52.5t2 49.5h-147v143h163q43 274 197 403.5t428 129.5q113 0 193 -25l-48 -188q-35 4 -61.5 6t-56.5 2q-92 0 -163 -17.5t-120 -56t-81 -101t-48 -153.5h436l-41 -143h-409q-2 -25 -2 -50.5v-51.5v-52.5t2 -48.5h385l-41 -143h-330 q33 -178 129 -254t281 -76q37 0 76.5 5.5t76.5 15.5v-201q-74 -23 -180 -22q-268 2 -423 132t-200 400h-163z" />
<glyph unicode="&#x2122;" horiz-adv-x="1683" d="M51 1374v142h602v-142h-219v-719h-162v719h-221zM750 655v861h208l199 -578l199 578h209v-861h-152v598l-186 -557h-140l-188 557v-598h-149z" />
<glyph unicode="&#x25fc;" horiz-adv-x="1105" d="M0 0v1106h1106v-1106h-1106z" />
</font>
</defs>
</svg>
