<?xml version="1.0" standalone="no"?>
<!DOCTYPE svg PUBLIC "-//W3C//DTD SVG 1.1//EN" "http://www.w3.org/Graphics/SVG/1.1/DTD/svg11.dtd" >
<svg xmlns="http://www.w3.org/2000/svg">
<metadata></metadata>
<defs>
<font id="encode_sans_compressedmedium" horiz-adv-x="1161" >
<font-face units-per-em="2048" ascent="1638" descent="-410" />
<missing-glyph horiz-adv-x="387" />
<glyph unicode="&#xfb01;" horiz-adv-x="1052" d="M31 944v162h151v74q0 131 21.5 219t72 143t134.5 83t208 38l9 -152q-76 -6 -125 -23.5t-79 -53t-41 -94t-11 -146.5v-88h209v-162h-209v-944h-191v944h-149zM719 1450q0 113 117 113t116 -113q1 -117 -116 -117t-117 117zM741 0v1106h189v-1106h-189z" />
<glyph unicode="&#xfb02;" horiz-adv-x="1054" d="M31 944v162h151v74q0 131 21.5 219t72 143t134.5 83t208 38l9 -152q-76 -6 -125 -23.5t-79 -53t-41 -94t-11 -146.5v-88h209v-162h-209v-944h-191v944h-149zM741 0v1655h191v-1655h-191z" />
<glyph unicode="&#xfb03;" horiz-adv-x="1630" d="M31 944v162h151v74q0 131 21.5 219t72 143t134.5 83t208 38l9 -152q-76 -6 -125 -23.5t-79 -53t-41 -94t-11 -146.5v-88h209v-162h-209v-944h-191v944h-149zM608 944v162h152v74q0 131 21.5 219t71.5 143t134 83t209 38l8 -152q-76 -6 -125 -23.5t-78.5 -53t-41 -94 t-11.5 -146.5v-88h209v-162h-209v-944h-190v944h-150zM1298 1450q0 113 117 113t117 -113q0 -117 -117 -117t-117 117zM1321 0v1106h188v-1106h-188z" />
<glyph unicode="&#xfb04;" horiz-adv-x="1632" d="M31 944v162h151v74q0 131 21.5 219t72 143t134.5 83t208 38l9 -152q-76 -6 -125 -23.5t-79 -53t-41 -94t-11 -146.5v-88h209v-162h-209v-944h-191v944h-149zM608 944v162h152v74q0 131 21.5 219t71.5 143t134 83t209 38l8 -152q-76 -6 -125 -23.5t-78.5 -53t-41 -94 t-11.5 -146.5v-88h209v-162h-209v-944h-190v944h-150zM1319 0v1655h190v-1655h-190z" />
<glyph horiz-adv-x="0" />
<glyph unicode="&#xd;" horiz-adv-x="561" />
<glyph horiz-adv-x="0" />
<glyph horiz-adv-x="0" />
<glyph unicode=" "  horiz-adv-x="387" />
<glyph unicode="&#x09;" horiz-adv-x="387" />
<glyph unicode="&#xa0;" horiz-adv-x="387" />
<glyph unicode="!" horiz-adv-x="464" d="M117 115q0 55 32.5 85.5t86.5 30.5q57 0 88.5 -31.5t31.5 -84.5t-31.5 -84t-88.5 -31q-53 0 -86 30.5t-33 84.5zM131 1495v21h201v-21l-39 -1067v-27h-121v27z" />
<glyph unicode="&#x22;" horiz-adv-x="677" d="M111 983v672h157v-8l-57 -664h-100zM434 983v672h158v-8l-57 -664h-101z" />
<glyph unicode="#" horiz-adv-x="997" d="M82 463v133h154l26 326h-180v131h190l39 463h142l-39 -463h198l39 463h144l-39 -463h159v-131h-170l-26 -326h194v-133h-204l-37 -463h-144l37 463h-198l-37 -463h-142l37 463h-143zM377 596h198l27 326h-199z" />
<glyph unicode="$" horiz-adv-x="989" d="M68 47l12 166q31 -14 76 -27.5t96 -22.5t102.5 -15.5t94.5 -6.5q137 0 210.5 64.5t73.5 187.5q0 55 -19.5 96t-56 75t-93 63.5t-130.5 58.5q-84 33 -147.5 69t-108.5 86t-67.5 117.5t-22.5 161.5q0 168 94 276.5t260 135.5v274h160v-268q63 -4 130 -15.5t138 -29.5 l-8 -164q-90 23 -169 34t-138 11q-127 0 -199.5 -68.5t-72.5 -185.5q0 -53 18 -92t55 -71.5t92.5 -60.5t129.5 -56q86 -35 151.5 -75t109.5 -91t65.5 -119t21.5 -156q0 -166 -84 -271t-232 -140v-279h-159v264q-92 4 -194.5 22.5t-188.5 51.5z" />
<glyph unicode="%" horiz-adv-x="1710" d="M66 1055q0 238 82.5 359.5t242.5 121.5t243 -122t83 -359q0 -236 -83 -356.5t-243 -120.5q-162 0 -243.5 120.5t-81.5 356.5zM215 1055q0 -342 176 -342q174 0 174 342q0 176 -43 260t-131 84q-176 0 -176 -344zM502 0l532 1516h162l-532 -1516h-162zM995 453 q0 236 83 357.5t245 121.5q160 0 243 -122t83 -357q0 -236 -83 -358t-243 -122q-162 0 -245 122t-83 358zM1145 453q0 -176 43 -259t135 -83q88 0 130 82.5t42 259.5q0 176 -43 260t-129 84q-178 0 -178 -344z" />
<glyph unicode="&#x26;" horiz-adv-x="1249" d="M82 422q0 141 59.5 240.5t175.5 150.5q-57 78 -81.5 159t-24.5 177q0 193 105.5 292t304.5 99q76 0 152.5 -17.5t168.5 -54.5v-10l-29 -145h-10q-147 68 -268 67q-238 0 -238 -256q0 -68 19.5 -127t62.5 -115.5t110.5 -114.5t162.5 -122l176 -119q4 39 7 83t3 91v140 l170 8v-148q0 -160 -27 -278l150 -100v-11l-72 -153h-12l-127 90q-133 -271 -463 -271q-221 0 -348 118t-127 327zM270 432q0 -137 81 -217t216 -80q231 0 316 209l-205 148q-162 115 -262 210q-145 -78 -146 -270z" />
<glyph unicode="'" horiz-adv-x="352" d="M111 983v672h157v-8l-57 -664h-100z" />
<glyph unicode="(" horiz-adv-x="575" d="M70 725q0 287 79.5 556t233.5 497h170v-9q-154 -225 -238 -491t-84 -553t84 -553t238 -491v-9h-170q-154 227 -233.5 496.5t-79.5 556.5z" />
<glyph unicode=")" horiz-adv-x="575" d="M25 -319q152 225 234.5 491t82.5 553t-83 553t-234 491v9h165q156 -227 235 -496.5t79 -556.5t-79 -556t-235 -497h-165v9z" />
<glyph unicode="*" horiz-adv-x="978" d="M70 1362l41 127l155 -51l193 -103l-37 219v162h135v-162l-39 -217l193 101l157 51l41 -127l-155 -51l-215 -31l155 -152l97 -133l-109 -77l-96 131l-99 200l-96 -200l-94 -131l-111 77l97 133l155 152l-215 31z" />
<glyph unicode="+" horiz-adv-x="989" d="M80 684v147h340v343h147v-343h342v-147h-342v-342h-147v342h-340z" />
<glyph unicode="," horiz-adv-x="423" d="M37 -297l92 518h195l-142 -538z" />
<glyph unicode="-" horiz-adv-x="708" d="M106 498v151h494v-151h-494z" />
<glyph unicode="." horiz-adv-x="428" d="M94 109q0 117 119 116q121 0 121 -116q0 -117 -121 -117q-119 0 -119 117z" />
<glyph unicode="/" horiz-adv-x="608" d="M57 -248l328 1764h170l-328 -1764h-170z" />
<glyph unicode="0" horiz-adv-x="1136" d="M86 756q0 385 123 582.5t358 197.5q238 0 359 -197.5t121 -582.5q0 -383 -121 -579.5t-359 -196.5q-236 0 -358.5 195.5t-122.5 580.5zM283 756q0 -315 68.5 -462t215.5 -147t217 147.5t70 461.5q0 313 -69.5 463.5t-217.5 150.5q-145 0 -214.5 -151.5t-69.5 -462.5z" />
<glyph unicode="1" horiz-adv-x="706" d="M27 1221l6 26l379 269h139v-1516h-197v1286h-6l-252 -160h-24z" />
<glyph unicode="2" horiz-adv-x="921" d="M76 0v215q0 92 17.5 168t56 144.5t102 131t154.5 125.5q66 47 111.5 89t73 84t40 86t12.5 96q0 229 -252 229q-53 0 -117.5 -11t-142.5 -36l-22 160q94 29 177 41t156 12q395 0 396 -375q0 -72 -16.5 -134t-52.5 -120.5t-92 -115t-138 -115.5q-80 -61 -132.5 -112.5 t-83 -99.5t-43 -98.5t-12.5 -111.5v-84h566v-168h-758z" />
<glyph unicode="3" horiz-adv-x="876" d="M82 1503q123 33 246 33q211 0 318.5 -96.5t107.5 -282.5q0 -147 -63.5 -240.5t-184.5 -125.5v-7q141 -33 215 -132t74 -259q0 -193 -124 -300t-347 -109q-55 0 -114.5 6t-119.5 20v152h12q41 -14 92.5 -21.5t104.5 -7.5q301 0 301 273q0 154 -83 227.5t-263 73.5h-43v147 h43q305 0 305 270q0 258 -248 258q-41 0 -90 -7t-110 -21h-19z" />
<glyph unicode="4" horiz-adv-x="1034" d="M33 465v8l495 1063h13l174 -20l8 -11l-487 -991v-8h407l53 520h142v-520h151v-152h-151v-354h-195v354h-573z" />
<glyph unicode="5" horiz-adv-x="868" d="M88 6v160h43q106 -25 184 -25q141 0 215 77t74 224q0 164 -85 232.5t-290 68.5h-116l-9 9l54 764h575v-168h-422l-32 -457q141 -2 240 -28.5t161.5 -80t91.5 -137.5t29 -203q0 -223 -124 -345t-349 -122q-102 0 -240 31z" />
<glyph unicode="6" horiz-adv-x="1056" d="M86 674q0 207 39 367.5t114.5 271t186.5 168t254 57.5q55 0 111.5 -8t121.5 -27l-16 -162q-63 18 -113.5 26.5t-99.5 8.5q-186 0 -287.5 -144.5t-120.5 -428.5q63 63 144.5 99t167.5 36q92 0 167.5 -30.5t128 -89t81 -141.5t28.5 -185q0 -117 -31.5 -212.5t-89 -163 t-139.5 -103.5t-182 -36q-229 0 -347 176.5t-118 520.5zM272 649q2 -262 71 -384t208 -122q117 0 185.5 92.5t68.5 251.5q0 147 -66.5 223t-189.5 76q-72 0 -147.5 -37.5t-129.5 -99.5z" />
<glyph unicode="7" horiz-adv-x="794" d="M43 1493l20 23h670l29 -109v-57l-428 -1352l-37 -27l-156 29v31l434 1317h-526z" />
<glyph unicode="8" horiz-adv-x="1040" d="M84 373q0 145 55.5 243.5t175.5 159.5q-92 55 -143 141.5t-51 227.5q0 180 106.5 284.5t292.5 104.5t293 -103.5t107 -285.5q0 -135 -44.5 -220t-150.5 -145q109 -53 170 -141t61 -240q0 -188 -116.5 -296.5t-319.5 -108.5q-100 0 -181 26.5t-137.5 75.5t-87 120 t-30.5 157zM264 393q0 -123 69.5 -192.5t186.5 -69.5t186.5 67.5t69.5 184.5q0 70 -17.5 120t-53 87t-90 64.5t-128.5 50.5l-24 6q-104 -53 -151.5 -127t-47.5 -191zM297 1135q0 -121 68.5 -186.5t203.5 -108.5q92 47 133 117.5t41 187.5q0 119 -57 183.5t-166 64.5 q-106 0 -164.5 -67.5t-58.5 -190.5z" />
<glyph unicode="9" horiz-adv-x="1056" d="M63 1024q0 117 32 212t89.5 162.5t139.5 103.5t182 36q229 0 347 -176t118 -520q0 -207 -39 -368t-115 -271.5t-186.5 -168t-253.5 -57.5q-55 0 -111.5 8.5t-122.5 26.5l17 162q63 -18 113.5 -26.5t99.5 -8.5q186 0 287.5 144.5t119.5 429.5q-63 -63 -144 -99t-167 -36 q-92 0 -168 30.5t-128 89t-81 141.5t-29 185zM252 1028q0 -147 66.5 -223t189.5 -76q72 0 147.5 38t128.5 99q-2 262 -70.5 384t-207.5 122q-117 0 -185.5 -92t-68.5 -252z" />
<glyph unicode=":" horiz-adv-x="446" d="M104 109q0 117 119 116q121 0 121 -116q0 -117 -121 -117q-119 0 -119 117zM104 999q0 117 119 117q121 0 121 -117q0 -116 -121 -116q-119 0 -119 116z" />
<glyph unicode=";" horiz-adv-x="485" d="M68 -297l92 518h194l-141 -538zM135 999q0 117 119 117q121 0 121 -117q0 -116 -121 -116q-119 0 -119 116z" />
<glyph unicode="&#x3c;" horiz-adv-x="1028" d="M74 680v139l839 369v-162l-634 -278l632 -277v-162z" />
<glyph unicode="=" horiz-adv-x="1034" d="M113 430v152h809v-152h-809zM113 872v150h809v-150h-809z" />
<glyph unicode="&#x3e;" horiz-adv-x="1028" d="M115 1026v162l839 -369v-139l-835 -371v162l631 277z" />
<glyph unicode="?" horiz-adv-x="825" d="M55 1483q66 23 139.5 38t151.5 15q86 0 163 -22.5t134 -70.5t91 -125t34 -185q0 -100 -34 -173t-88 -123.5t-123.5 -81t-141.5 -48.5l-4 -285v-37h-135v37l-15 383q63 16 127 37.5t114 57.5t81 89t31 131q0 72 -21.5 121t-58.5 80t-85 44t-100 13q-59 0 -123.5 -12 t-117.5 -31zM195 111q0 53 30.5 83.5t87.5 30.5q55 0 87 -30.5t32 -83.5q0 -55 -32 -86t-87 -31q-57 0 -87.5 30.5t-30.5 86.5z" />
<glyph unicode="@" horiz-adv-x="1609" d="M78 537q0 209 56 367.5t155.5 266t239 161.5t305.5 54q186 0 316 -54t212 -153.5t119 -238.5t37 -311q0 -119 -20.5 -216.5t-62.5 -166t-104.5 -106.5t-146.5 -38q-37 0 -71 7.5t-61.5 28t-47 56t-25.5 93.5h-8q-29 -47 -66 -80t-75.5 -53.5t-77.5 -29.5t-72 -9 q-74 0 -125 30.5t-82 80.5t-45 115t-14 132q0 117 31.5 215t92 170t145.5 113t191 41q115 0 293 -72l-71 -428q-6 -39 -12.5 -80t-6.5 -80q0 -55 22.5 -94t88.5 -39q98 0 146 110.5t48 299.5q0 143 -29.5 260t-95 198.5t-170 127t-253.5 45.5q-137 0 -251 -46.5t-196 -137.5 t-128 -226t-46 -313q0 -199 50 -332t131 -214t183.5 -116t206.5 -35q86 0 182.5 20.5t188.5 53.5l43 -113q-98 -35 -205 -58.5t-209 -23.5q-131 0 -258 41t-226 136.5t-160.5 252t-61.5 388.5zM545 473q0 -43 7 -86t24.5 -77t47 -55.5t74.5 -21.5q31 0 72 13.5t80 47.5 t71.5 91t47.5 147l55 334q-41 12 -78 19.5t-72 7.5q-78 0 -138 -32t-103 -88t-65.5 -133t-22.5 -167z" />
<glyph unicode="A" d="M10 0v12l428 1504h283l430 -1504v-12h-184l-131 442h-514l-129 -442h-183zM360 602h437l-150 524l-59 224h-17l-59 -224z" />
<glyph unicode="B" horiz-adv-x="1153" d="M143 10v1497q66 8 118 13.5t97 8.5t84 5t80 2q266 0 390 -100.5t124 -313.5q0 -141 -59 -228t-170 -114v-8q129 -23 201.5 -119t72.5 -252q0 -211 -137 -316t-409 -105q-47 0 -100.5 2t-106 6t-100.5 10t-85 12zM324 150q12 -4 38.5 -7.5t60.5 -5.5t69.5 -4t68.5 -2 q319 4 320 281q0 150 -81 213t-274 63h-202v-538zM324 840h200q86 0 145.5 14t96.5 46t53.5 84t16.5 128q0 268 -297 268q-55 0 -105.5 -3t-109.5 -13v-524z" />
<glyph unicode="C" horiz-adv-x="1007" d="M82 756q0 207 37 354t112.5 240.5t192.5 137.5t278 44q55 0 116 -5t128 -18v-161q-45 10 -103.5 14t-111.5 4q-123 0 -208 -30.5t-138 -101.5t-77.5 -187.5t-24.5 -290.5q0 -168 24.5 -284t78.5 -188.5t138 -104.5t201 -32q41 0 103.5 4.5t117.5 14.5v-158 q-47 -12 -105 -20t-134 -8q-162 2 -280 48t-194.5 140t-113.5 240.5t-37 347.5z" />
<glyph unicode="D" horiz-adv-x="1220" d="M143 -14v1519q109 16 188 23.5t148 7.5q346 0 504 -186.5t158 -593.5q0 -209 -41 -357.5t-128 -245t-223.5 -141.5t-326.5 -45q-61 0 -128 4t-151 15zM334 143q47 -4 80.5 -7t64.5 -3q240 0 349.5 145.5t109.5 477.5q0 168 -24.5 285.5t-77 191.5t-135.5 107.5t-199 33.5 q-47 0 -87 -4t-81 -12v-1215z" />
<glyph unicode="E" horiz-adv-x="1050" d="M143 0v1516h820v-168h-627v-498h559v-168h-559v-514h645v-168h-838z" />
<glyph unicode="F" horiz-adv-x="987" d="M143 0v1516h787v-168h-594v-514h549v-168h-549v-666h-193z" />
<glyph unicode="G" horiz-adv-x="1150" d="M82 756q0 203 39 350t118.5 241.5t204.5 139.5t297 45q59 0 140.5 -9.5t158.5 -25.5v-162q-82 16 -151.5 24.5t-128.5 8.5q-133 0 -223.5 -32.5t-147.5 -104.5t-81.5 -189.5t-24.5 -285.5q0 -166 24.5 -282t77.5 -188.5t137 -105.5t203 -33q29 0 65.5 2.5t77.5 6.5v614 h179v-760q-111 -16 -187.5 -23t-152.5 -7q-326 2 -475.5 189t-149.5 587z" />
<glyph unicode="H" horiz-adv-x="1300" d="M143 0v1516h193v-658h629v658h192v-1516h-192v688h-629v-688h-193z" />
<glyph unicode="I" horiz-adv-x="479" d="M143 0v1516h193v-1516h-193z" />
<glyph unicode="J" horiz-adv-x="479" d="M-20 -326q49 109 81.5 194t52 165t26.5 163t7 185v1135h193v-1147q0 -98 -13.5 -191.5t-42 -184.5t-72.5 -185.5t-108 -196.5z" />
<glyph unicode="K" horiz-adv-x="1177" d="M143 0v1516h193v-660h166l413 660h222l-430 -685l-74 -53v-10l78 -51l467 -717h-220l-452 686h-170v-686h-193z" />
<glyph unicode="L" horiz-adv-x="862" d="M143 0v1516h193v-1348h502v-168h-695z" />
<glyph unicode="M" horiz-adv-x="1662" d="M143 0v1516h269l354 -992l57 -217h15l59 217l354 992h269v-1516h-185v1227h-10l-70 -223l-335 -932h-181l-336 932l-69 223h-10v-1227h-181z" />
<glyph unicode="N" horiz-adv-x="1349" d="M143 0v1516h174l613 -1006l86 -168h14v1174h176v-1516h-176l-610 1001l-88 177l-15 -2v-1176h-174z" />
<glyph unicode="O" horiz-adv-x="1280" d="M82 756q0 395 137 587.5t420 192.5t421 -192.5t138 -587.5q0 -776 -559 -776q-557 0 -557 776zM281 756q0 -162 20.5 -278t63.5 -189.5t110.5 -107.5t163.5 -34t164.5 34t111.5 107.5t63.5 189.5t20.5 278q0 324 -86 469t-274 145q-190 0 -274 -144.5t-84 -469.5z" />
<glyph unicode="P" horiz-adv-x="1107" d="M143 0v1505q86 16 169 24.5t163 8.5q301 0 439.5 -125t138.5 -399q0 -272 -140.5 -397t-445.5 -125q-35 0 -66.5 1t-64.5 3v-496h-193zM336 664q39 -4 81 -7.5t79 -3.5q190 0 274 84t84 277q0 190 -81 274t-267 84q-37 0 -82 -4t-88 -10v-694z" />
<glyph unicode="Q" horiz-adv-x="1273" d="M78 756q0 397 137 588.5t420 191.5q285 0 422 -192.5t137 -587.5q0 -670 -487 -727v-17q90 -33 210.5 -52t294.5 -34l-94 -159q-287 57 -485.5 127.5t-321.5 181t-178 273.5t-55 407zM274 756q0 -166 20.5 -282t63.5 -189.5t112 -107.5t165 -34q190 0 276 144.5t86 468.5 q0 164 -20.5 281.5t-64.5 192.5t-112.5 109.5t-164.5 34.5t-165 -34.5t-112 -108.5t-63.5 -191.5t-20.5 -283.5z" />
<glyph unicode="R" horiz-adv-x="1132" d="M143 0v1505q82 16 165 24.5t167 8.5q301 0 439.5 -119t138.5 -379q0 -176 -64.5 -285.5t-202.5 -160.5l293 -594h-205l-260 555q-61 -6 -131 -6q-31 0 -73.5 1t-73.5 5v-555h-193zM336 719q43 -6 84 -9t76 -3q193 0 275.5 77.5t82.5 255.5t-81 255t-267 77q-31 0 -76 -4 t-94 -10v-639z" />
<glyph unicode="S" horiz-adv-x="983" d="M66 47l12 166q31 -14 76 -27.5t96 -22.5t102 -15.5t94 -6.5q137 0 211 64.5t74 187.5q0 55 -19.5 96t-56.5 75t-93 63.5t-130 58.5q-84 33 -147.5 69t-108.5 86t-67.5 117.5t-22.5 161.5q0 96 32 174t91 132.5t143 84t189 29.5q78 0 157.5 -12t169.5 -35l-8 -164 q-90 23 -169 34t-138 11q-127 0 -199.5 -68.5t-72.5 -185.5q0 -53 18 -92t55 -71.5t92.5 -60.5t128.5 -56q86 -35 152 -75t110 -91t65.5 -119t21.5 -156q0 -98 -31 -177t-89.5 -134t-141.5 -85t-187 -30q-94 0 -205.5 19.5t-203.5 54.5z" />
<glyph unicode="T" horiz-adv-x="999" d="M29 1343v173h942v-173h-375v-1343h-195v1343h-372z" />
<glyph unicode="U" horiz-adv-x="1308" d="M131 590v926h193v-918q0 -238 77.5 -343t251.5 -105q176 0 253 104t77 344v918h195v-926q0 -158 -29 -273.5t-91.5 -190.5t-163 -110.5t-241.5 -35.5t-240.5 35.5t-162 111.5t-91 190.5t-28.5 272.5z" />
<glyph unicode="V" horiz-adv-x="1177" d="M6 1516h193l315 -1051l68 -281h16l68 281l315 1051h188l-448 -1516h-264z" />
<glyph unicode="W" horiz-adv-x="1810" d="M25 1516h211l215 -1024l45 -242h14l53 242l248 1024h205l231 -1024l47 -242h17l49 242l227 1024h211l-375 -1516h-235l-236 997l-34 240h-15l-41 -240l-250 -997h-235z" />
<glyph unicode="X" horiz-adv-x="1173" d="M4 0l459 770l-438 746h221l332 -576l14 -35h4l16 35l326 576h211l-440 -740l462 -776h-217l-356 604l-16 33h-4l-15 -33l-346 -604h-213z" />
<glyph unicode="Y" horiz-adv-x="1153" d="M-4 1516h215l317 -699l41 -112h15l43 112l317 699h213l-483 -1002v-514h-193v510z" />
<glyph unicode="Z" horiz-adv-x="1003" d="M55 0v166l652 1167v13h-633v170h854v-166l-652 -1170v-12h672v-168h-893z" />
<glyph unicode="[" horiz-adv-x="616" d="M143 -328v2106h424v-138h-268v-1830h268v-138h-424z" />
<glyph unicode="\" horiz-adv-x="600" d="M57 1516h158l328 -1762h-158z" />
<glyph unicode="]" horiz-adv-x="616" d="M49 -190h268v1830h-268v138h424v-2106h-424v138z" />
<glyph unicode="^" horiz-adv-x="763" d="M72 985l231 631h154l231 -631h-137l-166 494h-8l-168 -494h-137z" />
<glyph unicode="_" horiz-adv-x="1024" d="M80 -123h864v-147h-864v147z" />
<glyph unicode="`" horiz-adv-x="481" d="M51 1642h197l145 -372l-135 -21z" />
<glyph unicode="a" horiz-adv-x="940" d="M53 289q0 307 387 336l197 14v92q0 135 -48 188.5t-167 53.5q-25 0 -59.5 -3t-71.5 -7.5t-74 -10.5t-65 -14l-17 149q80 16 164 25.5t154 9.5q193 0 282.5 -84t89.5 -262v-776h-157l-19 133h-12q-61 -55 -140 -99t-171 -44q-125 0 -199 81t-74 218zM246 305 q0 -82 37.5 -124t109.5 -42q31 0 63.5 12.5t65.5 30t62.5 36t52.5 32.5v262l-156 -14q-127 -12 -181 -56.5t-54 -136.5z" />
<glyph unicode="b" horiz-adv-x="1015" d="M119 41v1614h190v-660q47 61 120 95t159 34q352 0 352 -542q0 -123 -24.5 -231.5t-82 -189.5t-150.5 -129t-230 -52q-76 0 -159 16t-175 45zM309 141q84 -22 152 -22q147 0 215.5 104.5t68.5 337.5q0 221 -52 319.5t-165 98.5q-90 0 -154.5 -65.5t-64.5 -196.5v-576z" />
<glyph unicode="c" horiz-adv-x="800" d="M74 553q0 573 469 573q41 0 87 -6t101 -22v-156q-49 12 -91 17.5t-83 5.5q-150 0 -218.5 -97.5t-68.5 -314.5q0 -213 70 -313.5t217 -100.5q70 0 174 25v-156q-41 -12 -91 -20t-97 -8q-236 0 -352.5 140t-116.5 433z" />
<glyph unicode="d" horiz-adv-x="1017" d="M74 537q0 287 121.5 437t357.5 150q35 0 68.5 -3t87.5 -11v545h188v-1655h-170l-16 111h-6q-99 -129 -273 -129q-358 0 -358 555zM270 555q0 -221 53 -324.5t164 -103.5q45 0 85 16.5t71 49t48.5 82t17.5 114.5v574q-49 12 -86 17t-76 5q-141 0 -209 -102.5t-68 -327.5z " />
<glyph unicode="e" horiz-adv-x="937" d="M74 535q0 291 110.5 440t327.5 149q356 0 356 -487q0 -53 -2 -87t-6 -69h-594q10 -182 71.5 -264t190.5 -82q61 0 133 14.5t156 47.5l10 -152q-66 -29 -148.5 -46t-160.5 -17q-217 0 -330.5 142t-113.5 411zM268 621h426q-4 190 -47 272t-139 82q-221 0 -240 -354z" />
<glyph unicode="f" horiz-adv-x="604" d="M31 944v162h151v74q0 131 21.5 219t72 143t134.5 83t208 38l9 -152q-76 -6 -125 -23.5t-79 -53t-41 -94t-11 -146.5v-88h209v-162h-209v-944h-191v944h-149z" />
<glyph unicode="g" horiz-adv-x="1017" d="M76 537q0 285 121.5 436t355.5 151q88 0 168 -11t178 -40v-938q0 -303 -111 -444.5t-342 -141.5q-139 0 -284 48l14 151q74 -25 135.5 -36t120.5 -11q74 0 126 21.5t86 67.5t50.5 118t18.5 174v47h-8q-96 -125 -267 -125q-362 0 -362 533zM272 555q0 -211 52 -312.5 t163 -101.5q45 0 85 16.5t71 48.5t48.5 78t17.5 105v574q-51 12 -87 17t-73 5q-141 0 -209 -102.5t-68 -327.5z" />
<glyph unicode="h" horiz-adv-x="1009" d="M121 0v1655h190v-664q106 72 186.5 103.5t157.5 31.5q123 0 180.5 -69.5t57.5 -220.5v-836h-188v780q0 94 -31 135t-96 41q-117 0 -267 -100v-856h-190z" />
<glyph unicode="i" horiz-adv-x="434" d="M100 1450q0 113 117 113t117 -113q0 -117 -117 -117t-117 117zM123 0v1106h188v-1106h-188z" />
<glyph unicode="j" horiz-adv-x="432" d="M-6 -399q66 131 97.5 288.5t31.5 337.5v879h190v-934q0 -78 -13 -160t-37.5 -162.5t-59.5 -157.5t-78 -143zM100 1450q0 113 117 113q119 0 119 -113q0 -117 -119 -117q-117 0 -117 117z" />
<glyph unicode="k" horiz-adv-x="948" d="M121 0v1655h190v-1014h123l283 465h205l-328 -518l-37 -19v-4l39 -20l360 -545h-206l-318 496h-121v-496h-190z" />
<glyph unicode="l" horiz-adv-x="438" d="M125 0v1655h190v-1655h-190z" />
<glyph unicode="m" horiz-adv-x="1572" d="M121 0v1106h155l13 -119h6q106 74 188 106.5t160 32.5q88 0 140.5 -33.5t76.5 -107.5h10q100 76 183.5 108.5t165.5 32.5q123 0 180 -69.5t57 -220.5v-836h-186v780q0 94 -31 135t-98 41q-115 0 -260 -98v-858h-185v780q0 94 -31.5 135t-99.5 41q-121 0 -258 -98v-858 h-186z" />
<glyph unicode="n" horiz-adv-x="1009" d="M121 0v1106h162l12 -119h8q111 74 190.5 106.5t161.5 32.5q123 0 180.5 -69.5t57.5 -220.5v-836h-188v780q0 96 -32 136t-95 40q-59 0 -127 -26.5t-140 -73.5v-856h-190z" />
<glyph unicode="o" horiz-adv-x="1019" d="M74 553q0 283 110.5 428t325.5 145t325.5 -145t110.5 -428t-110.5 -427t-325.5 -144t-325.5 145t-110.5 426zM266 553q0 -225 57.5 -321.5t186.5 -96.5t186.5 96.5t57.5 321.5t-58.5 322.5t-185.5 97.5q-129 0 -186.5 -97.5t-57.5 -322.5z" />
<glyph unicode="p" horiz-adv-x="1017" d="M121 -451v1557h172l10 -111h8q49 59 121 94t158 35q352 0 352 -542q0 -127 -25.5 -236.5t-84 -191.5t-150.5 -128t-223 -46q-33 0 -70 4t-78 12v-447h-190zM311 141q84 -22 152 -22q147 0 216 104.5t69 337.5q0 221 -52.5 319.5t-165.5 98.5q-90 0 -154.5 -65.5 t-64.5 -196.5v-576z" />
<glyph unicode="q" horiz-adv-x="1015" d="M74 537q0 289 122.5 438t364.5 149q86 0 167 -10t169 -37v-1528h-188v560q-104 -127 -277 -127q-182 0 -270 136t-88 419zM266 561q0 -229 54 -332.5t167 -103.5q92 0 156 66.5t64 197.5v576q-53 12 -87 16t-71 4q-147 0 -215 -100.5t-68 -323.5z" />
<glyph unicode="r" horiz-adv-x="669" d="M121 0v1106h162l12 -139h12q16 16 48 37.5t73 44t87 42t91 33.5h41v-192h-76q-80 -12 -149.5 -40t-110.5 -63v-829h-190z" />
<glyph unicode="s" horiz-adv-x="786" d="M74 25v149q66 -23 140.5 -35t143.5 -12q86 0 134.5 45t48.5 125q0 74 -38 117t-124 65q-49 10 -101.5 24.5t-95.5 48.5t-71.5 93.5t-28.5 159.5q0 154 89 239.5t249 85.5q57 0 117.5 -9t142.5 -27v-150q-84 20 -132 27.5t-93 7.5q-92 0 -143.5 -44t-51.5 -122 q0 -47 13.5 -76.5t37 -48t55 -31t66.5 -20.5q61 -16 114.5 -39t92.5 -58.5t61.5 -91t22.5 -139.5q0 -154 -95 -243t-261 -89q-66 0 -134.5 12.5t-158.5 35.5z" />
<glyph unicode="t" horiz-adv-x="696" d="M25 940v166h198l27 285l151 24v-309h267v-166h-267v-612q0 -98 40 -142.5t116 -44.5q23 0 51.5 3t53.5 12v-150q-82 -16 -150 -16q-299 0 -299 299v651h-188z" />
<glyph unicode="u" horiz-adv-x="1007" d="M113 270v836h190v-784q0 -98 29.5 -135t105.5 -37q61 0 118.5 23.5t139.5 82.5v850h191v-1106h-162l-14 117h-9q-109 -76 -180 -106.5t-143 -30.5q-266 0 -266 290z" />
<glyph unicode="v" horiz-adv-x="972" d="M20 1094v12h197l236 -815l26 -117h17l26 117l236 815h194v-12l-348 -1094h-235z" />
<glyph unicode="w" horiz-adv-x="1402" d="M39 1098v8h180l143 -735l27 -152h19l30 152l170 735h191l170 -735l35 -152h14l29 152l143 735h176v-8l-242 -1098h-217l-178 741l-18 113h-17l-18 -113l-178 -741h-215z" />
<glyph unicode="x" horiz-adv-x="972" d="M16 0v16l338 557l-317 521v12h201l211 -365l34 -67h13l32 67l209 365h201v-12l-320 -537l336 -541v-16h-200l-230 401l-35 68h-12l-33 -68l-225 -401h-203z" />
<glyph unicode="y" horiz-adv-x="980" d="M18 1092v14h193l248 -774l24 -129h13l28 129l246 774h193v-14l-514 -1543l-191 39v13l135 401z" />
<glyph unicode="z" horiz-adv-x="831" d="M59 0v129l473 809v10h-456v158h676v-129l-473 -809v-10h493v-158h-713z" />
<glyph unicode="{" horiz-adv-x="675" d="M39 662v143q78 0 114.5 54t36.5 157v534q0 129 48.5 178.5t171.5 49.5q20 0 53 -1t65.5 -3t59 -3.5t35.5 -3.5v-127h-162q-61 0 -86 -23.5t-25 -82.5v-555q0 -92 -35.5 -157.5t-95.5 -88.5q59 -23 95 -88t36 -156v-557q0 -61 24.5 -84.5t86.5 -23.5h162v-127 q-8 -2 -35 -4t-59.5 -3t-65.5 -2t-53 -1q-123 0 -171.5 49t-48.5 180v537q0 100 -36.5 154.5t-114.5 54.5z" />
<glyph unicode="|" horiz-adv-x="466" d="M143 -451v2106h181v-2106h-181z" />
<glyph unicode="}" horiz-adv-x="675" d="M53 -176h162q63 0 87 23.5t24 84.5v557q0 90 36.5 156t96.5 88q-59 23 -96 88.5t-37 157.5v555q0 59 -23.5 82.5t-87.5 23.5h-162v127q8 2 35 3.5t59.5 3.5t65.5 3t53 1q61 0 103.5 -11.5t68 -38t36.5 -70.5t11 -108v-534q0 -102 38 -156.5t114 -54.5v-143 q-76 0 -114 -54.5t-38 -154.5v-537q0 -66 -11 -110t-36.5 -70.5t-67.5 -37.5t-104 -11q-20 0 -53 1t-65.5 2t-59.5 3t-35 4v127z" />
<glyph unicode="~" horiz-adv-x="1081" d="M96 573q47 63 84 105.5t70 67t64.5 35t68.5 10.5q49 0 89 -24t75 -52.5t70.5 -52t76.5 -23.5q47 0 92 39t74 104l125 -67q-20 -41 -49 -82t-63.5 -73t-76.5 -52.5t-87 -20.5q-53 0 -95.5 24t-78 53.5t-68.5 53t-70 23.5q-45 0 -88 -35t-96 -112z" />
<glyph unicode="&#xa1;" horiz-adv-x="436" d="M102 991q0 53 33 84t86 31q57 0 89 -31t32 -84t-31.5 -85t-89.5 -32q-53 0 -86 31t-33 86zM117 -389l41 1067v27h121v-27l38 -1067v-21h-200v21z" />
<glyph unicode="&#xa2;" horiz-adv-x="831" d="M74 553q0 512 375 565v236h131v-230q70 -4 151 -26v-156q-49 12 -91 17.5t-83 5.5q-150 0 -218.5 -97.5t-68.5 -314.5q0 -213 70 -313.5t217 -100.5q70 0 174 25v-156q-35 -10 -74 -16t-77 -10v-226h-131v230q-188 27 -281.5 166t-93.5 401z" />
<glyph unicode="&#xa3;" horiz-adv-x="1085" d="M78 0v170h219v508h-219v156h219v251q0 227 90 335t295 108q70 0 149.5 -13.5t182.5 -41.5l-19 -158q-72 23 -147.5 35t-132.5 12q-123 0 -174.5 -63.5t-51.5 -217.5v-247h345v-156h-345v-510h496v-168h-907z" />
<glyph unicode="&#xa4;" horiz-adv-x="1116" d="M84 375l109 112l110 76q-35 86 -35 195t35 194l-110 78l-109 111l90 90l113 -109l63 -92q39 47 92.5 73.5t118.5 26.5q63 0 114.5 -26.5t88.5 -73.5l65 92l115 109l86 -90l-108 -111l-113 -80q35 -86 35 -192q0 -111 -35 -193l113 -78l108 -112l-86 -90l-115 108l-65 92 q-37 -49 -89 -75.5t-118 -26.5t-118 26.5t-91 73.5l-61 -90l-113 -108zM399 758q0 -121 43 -185.5t115 -64.5t114 63.5t42 186.5t-42 185.5t-114 62.5t-115 -62.5t-43 -185.5z" />
<glyph unicode="&#xa5;" horiz-adv-x="1245" d="M43 1516h215l317 -699l41 -112h15l43 112l317 699h213l-418 -867h256v-143h-321v-174h321v-142h-321v-190h-193v190h-323v142h323v174h-323v143h256z" />
<glyph unicode="&#xa6;" horiz-adv-x="448" d="M133 418h180v-869h-180v869zM133 786v869h180v-869h-180z" />
<glyph unicode="&#xa7;" horiz-adv-x="837" d="M96 25v149q66 -23 141.5 -35t141.5 -12q88 0 136 45t48 125q0 74 -39 117t-125 65q-47 10 -99 24.5t-95 48.5t-72 93.5t-29 159.5q0 123 60 205q-29 35 -44.5 85t-15.5 126q0 150 89.5 235.5t248.5 85.5q57 0 119 -8t141 -27v-149q-86 20 -133 26.5t-92 6.5 q-92 0 -143 -44t-51 -120q0 -47 13 -77t36.5 -48.5t54.5 -30.5t66 -20q61 -16 115.5 -39t93 -58.5t61 -92t22.5 -140.5q0 -61 -16 -112.5t-45 -92.5q61 -74 61 -207q0 -154 -96 -243t-262 -89q-63 0 -132 12.5t-159 35.5zM276 813q0 -47 12.5 -76.5t33 -49t47 -32 t57.5 -22.5t58.5 -21.5t54.5 -23.5q33 53 32 123q0 72 -31.5 114.5t-103.5 65.5q-29 8 -55.5 16t-54.5 23q-49 -47 -50 -117z" />
<glyph unicode="&#xa8;" horiz-adv-x="839" d="M102 1386q0 100 107 101q106 0 106 -101q0 -55 -26.5 -79.5t-79.5 -24.5t-80 24.5t-27 79.5zM500 1386q0 100 104 101q106 0 107 -101q0 -55 -28 -79.5t-79 -24.5q-53 0 -78.5 24.5t-25.5 79.5z" />
<glyph unicode="&#xa9;" horiz-adv-x="1679" d="M80 758q0 174 54 318.5t153.5 246.5t240 158.5t312.5 56.5t311 -56.5t239.5 -158.5t154.5 -246.5t54 -318.5q0 -176 -54 -319.5t-154.5 -246t-239.5 -159t-311 -56.5t-312.5 56.5t-240 159t-153.5 246t-54 319.5zM205 758q0 -150 44 -271.5t127 -207.5t201 -133.5 t263 -47.5t263 47.5t200.5 133.5t128 207.5t45.5 271.5t-45.5 271.5t-128 208.5t-200.5 134t-263 47t-263 -47t-201 -134t-127 -209t-44 -271zM492 750q0 213 100 318.5t278 105.5q47 0 92.5 -5.5t86.5 -15.5v-123q-43 8 -85 13.5t-79 5.5q-250 0 -250 -297 q0 -152 64.5 -221.5t183.5 -69.5q74 0 170 18v-123q-85 -22 -183 -22q-178 0 -278 103.5t-100 312.5z" />
<glyph unicode="&#xaa;" horiz-adv-x="774" d="M72 932q0 104 66.5 167.5t201.5 74.5l168 12v55q0 94 -31 128t-125 34q-37 0 -88 -5t-119 -16l-14 121q150 25 248 25q154 0 220.5 -60.5t66.5 -193.5v-553h-134l-8 96h-8q-129 -104 -240 -104q-92 0 -148 60.5t-56 158.5zM225 944q1 -115 107 -115q35 0 76 17.5 t100 56.5v182l-90 -6q-109 -10 -151 -38.5t-42 -96.5z" />
<glyph unicode="&#xab;" horiz-adv-x="972" d="M68 549v8l192 487h193l-193 -487v-8l193 -488h-193zM516 549v8l193 487h192l-192 -487v-8l192 -488h-192z" />
<glyph unicode="&#xac;" horiz-adv-x="1460" d="M98 717v160h1245v-648h-186v488h-1059z" />
<glyph unicode="&#xad;" horiz-adv-x="708" d="M106 498v151h494v-151h-494z" />
<glyph unicode="&#xae;" horiz-adv-x="1417" d="M82 913q0 137 46 253t129 199t197.5 130t254.5 47q137 0 253.5 -47t199.5 -130t130 -198.5t47 -253.5q0 -137 -47 -251.5t-130 -197.5t-199.5 -130t-253.5 -47q-139 0 -254 47t-198 130t-129 197.5t-46 251.5zM190 913q0 -115 38 -211t105.5 -165.5t163 -107.5t212.5 -38 t212 38t164.5 107.5t107.5 166t38 210.5q0 117 -38 213.5t-107.5 165t-165 107.5t-211.5 39q-117 0 -212.5 -39t-163 -107.5t-105.5 -165t-38 -213.5zM481 586v678q53 6 102.5 10t92.5 4q305 0 305 -219q0 -156 -143 -197v-6l163 -270h-114l-150 245l-149 3v-248h-107z M588 924q14 -2 41.5 -2h50.5q193 0 192 135q0 68 -43 100.5t-143 32.5q-18 0 -46 -1t-52 -5v-260z" />
<glyph unicode="&#xaf;" horiz-adv-x="759" d="M98 1309v131h557v-131h-557z" />
<glyph unicode="&#xb0;" horiz-adv-x="794" d="M72 1147q0 84 23.5 155.5t66.5 124t103.5 81t133.5 28.5q72 0 132.5 -28.5t103.5 -81t66.5 -124t23.5 -155.5t-23.5 -155.5t-66.5 -123t-103.5 -80t-132.5 -28.5q-74 0 -134 28.5t-103 80t-66.5 123t-23.5 155.5zM186 1147q0 -121 54.5 -194.5t158.5 -73.5t155.5 73.5 t51.5 194.5t-51 195.5t-156 74.5q-104 0 -158.5 -74.5t-54.5 -195.5z" />
<glyph unicode="&#xb1;" horiz-adv-x="1044" d="M115 170v147h815v-147h-815zM115 803v145h331v344h148v-344h336v-145h-336v-336h-148v336h-331z" />
<glyph unicode="&#xb2;" horiz-adv-x="724" d="M63 614v168q0 131 58.5 228.5t195.5 193.5q92 66 129 122t37 122q0 152 -174 151q-78 0 -200 -34l-21 139q72 23 137.5 33t120.5 10q307 0 307 -283q0 -109 -50 -188.5t-157 -161.5q-109 -84 -158.5 -154.5t-49.5 -150.5v-49h413v-146h-588z" />
<glyph unicode="&#xb3;" horiz-adv-x="686" d="M68 1722q53 12 100 19.5t94 7.5q162 0 244 -72.5t82 -214.5q0 -98 -47 -167.5t-133 -98.5q209 -61 208 -287q0 -145 -94 -226t-264 -81q-47 0 -91 6t-91 17v143h20q31 -8 69 -13t75 -5q211 0 211 174q0 100 -58.5 148t-185.5 48h-43v137h45q104 0 157.5 45.5t53.5 131.5 q0 168 -172 168q-66 0 -148 -21h-20z" />
<glyph unicode="&#xb4;" horiz-adv-x="464" d="M74 1264l145 378h195l-205 -393z" />
<glyph unicode="&#xb5;" horiz-adv-x="1058" d="M141 -451v1557h189v-803q6 -156 143 -156q53 0 112.5 23t137.5 76v860h190v-1106h-161l-15 117h-8q-53 -39 -97 -64.5t-82 -42t-73 -23.5t-71 -7q-43 0 -76 6v-437h-189z" />
<glyph unicode="&#xb6;" horiz-adv-x="1011" d="M66 1034q0 137 26.5 231.5t75.5 152t117.5 83t152.5 25.5q41 0 77 -5t77 -16v-1505h-113v545q-10 -2 -24.5 -2h-26.5q-84 0 -150.5 25.5t-113.5 83t-72.5 151.5t-25.5 231zM711 0v1505h139v-1505h-139z" />
<glyph unicode="&#xb7;" horiz-adv-x="430" d="M98 758q0 61 29 87.5t86 26.5q119 0 119 -114q0 -115 -119 -115q-57 0 -86 26.5t-29 88.5z" />
<glyph unicode="&#xb8;" horiz-adv-x="530" d="M51 -299q29 -10 61.5 -15t57.5 -5q115 0 115 112q0 51 -24.5 116.5t-70.5 131.5h136q49 -76 72.5 -141.5t23.5 -130.5q0 -104 -58 -162t-167 -58q-68 0 -146 23v129z" />
<glyph unicode="&#xb9;" horiz-adv-x="569" d="M27 1507l6 27l289 199h120v-1119h-170v922l-180 -106h-26z" />
<glyph unicode="&#xba;" horiz-adv-x="823" d="M76 1118q0 209 89 310.5t249 101.5t247 -101.5t87 -310.5t-87 -310t-247 -101t-249 101t-89 310zM231 1118q0 -84 11.5 -139t35 -89t57.5 -47.5t79 -13.5q43 0 75.5 13.5t56 47.5t36 89t12.5 139t-12.5 139.5t-36 89t-56 48t-75.5 14.5q-45 0 -79 -14.5t-57.5 -48 t-35 -89t-11.5 -139.5z" />
<glyph unicode="&#xbb;" horiz-adv-x="972" d="M72 61l192 488v8l-192 487h192l193 -487v-8l-193 -488h-192zM520 61l193 488v8l-193 487h193l192 -487v-8l-192 -488h-193z" />
<glyph unicode="&#xbc;" horiz-adv-x="1730" d="M43 1303l6 26l289 199h121v-1118h-170v921l-180 -106h-27zM463 0l532 1516h160l-532 -1516h-160zM954 356l355 760l20 10l137 -18l7 -21l-349 -698h283l47 377h111v-377h110v-131h-110v-258h-170v258h-408z" />
<glyph unicode="&#xbd;" horiz-adv-x="1787" d="M43 1303l6 26l289 199h121v-1118h-170v921l-180 -106h-27zM463 0l532 1516h160l-532 -1516h-160zM1112 -2v168q0 63 13.5 117.5t43 103.5t77.5 98.5t120 102.5q47 37 79 67.5t51.5 58t27.5 55.5t8 60q0 154 -170 154q-51 0 -108.5 -9t-96.5 -26l-20 139q154 43 258 43 q154 0 230.5 -71.5t76.5 -210.5q0 -53 -10.5 -96t-34 -84t-63.5 -82t-99 -88q-115 -90 -162 -158t-47 -147v-50h414v-145h-588z" />
<glyph unicode="&#xbe;" horiz-adv-x="1812" d="M88 1518q53 12 100.5 19t94.5 7q162 0 243.5 -72.5t81.5 -214.5q0 -98 -47 -167.5t-133 -98.5q209 -61 209 -286q0 -145 -94 -226.5t-264 -81.5q-47 0 -91.5 6.5t-91.5 16.5v143h21q31 -8 68.5 -13t74.5 -5q211 0 211 174q0 100 -58.5 148t-185.5 48h-43v138h45 q104 0 157.5 45t53.5 131q0 168 -172 168q-66 0 -147 -21h-21zM555 0l532 1516h160l-532 -1516h-160zM1040 356l355 760l20 10l137 -18l7 -21l-349 -698h283l47 377h111v-377h110v-131h-110v-258h-170v258h-408z" />
<glyph unicode="&#xbf;" horiz-adv-x="811" d="M51 -20q0 100 34 172.5t88 123t124 81t141 49.5l4 284v37h136v-37l14 -383q-63 -16 -127 -37.5t-114 -57.5t-80.5 -89t-30.5 -131q0 -72 21.5 -121t58 -80t85 -44t99.5 -13q59 0 123.5 12t117.5 31l19 -148q-66 -23 -139.5 -38t-151.5 -15q-86 0 -163 22.5t-134 70.5 t-91 125t-34 186zM387 1001q0 55 32 86t87 31q57 0 88 -30.5t31 -86.5q0 -53 -31 -83.5t-88 -30.5q-55 0 -87 30.5t-32 83.5z" />
<glyph unicode="&#xc0;" d="M10 0v12l428 1504h283l430 -1504v-12h-184l-131 442h-514l-129 -442h-183zM297 1923h199l149 -287l-145 -26zM360 602h437l-150 524l-59 224h-17l-59 -224z" />
<glyph unicode="&#xc1;" d="M10 0v12l428 1504h283l430 -1504v-12h-184l-131 442h-514l-129 -442h-183zM360 602h437l-150 524l-59 224h-17l-59 -224zM500 1622l147 301h199l-203 -313z" />
<glyph unicode="&#xc2;" d="M10 0v12l428 1504h283l430 -1504v-12h-184l-131 442h-514l-129 -442h-183zM295 1651v149l287 148l286 -148v-149l-286 147zM360 602h437l-150 524l-59 224h-17l-59 -224z" />
<glyph unicode="&#xc3;" d="M10 0v12l428 1504h283l430 -1504v-12h-184l-131 442h-514l-129 -442h-183zM256 1729q41 74 101.5 118.5t119.5 44.5q39 0 74 -13t66.5 -28.5t64.5 -29t68 -13.5q68 0 127 80l51 -43q-35 -80 -94.5 -125t-120.5 -45q-39 0 -73 13.5t-65.5 29t-64.5 28.5t-70 13 q-72 0 -137 -78zM360 602h437l-150 524l-59 224h-17l-59 -224z" />
<glyph unicode="&#xc4;" d="M10 0v12l428 1504h283l430 -1504v-12h-184l-131 442h-514l-129 -442h-183zM254 1769q0 115 117 115q119 0 118 -115q0 -61 -30.5 -87.5t-87.5 -26.5q-117 0 -117 114zM360 602h437l-150 524l-59 224h-17l-59 -224zM672 1769q0 115 114 115q119 0 119 -115 q0 -61 -31 -87.5t-88 -26.5q-115 0 -114 114z" />
<glyph unicode="&#xc5;" d="M10 0v12l428 1504h45q-53 25 -82.5 77t-29.5 117q0 92 55 154.5t154 62.5q98 0 153 -62.5t55 -154.5q0 -66 -29.5 -118t-82.5 -76h45l430 -1504v-12h-184l-131 442h-514l-129 -442h-183zM360 602h437l-150 524l-59 224h-17l-59 -224zM467 1710q0 -57 27 -91t86 -34 q57 0 84.5 34t27.5 91q0 59 -26.5 93t-85.5 34t-86 -34t-27 -93z" />
<glyph unicode="&#xc6;" horiz-adv-x="1579" d="M6 0v12l479 1504h1000v-168h-570l25 -498h498v-168h-488l27 -514h526v-168h-715l-18 438h-428l-139 -438h-197zM395 608h369l-31 748h-98z" />
<glyph unicode="&#xc7;" horiz-adv-x="1007" d="M82 756q0 207 37 354t112.5 240.5t192.5 137.5t278 44q55 0 116 -5t128 -18v-161q-45 10 -103.5 14t-111.5 4q-123 0 -208 -30.5t-138 -101.5t-77.5 -187.5t-24.5 -290.5q0 -168 24.5 -284t78.5 -188.5t138 -104.5t201 -32q41 0 103.5 4.5t117.5 14.5v-158 q-47 -12 -105.5 -20t-131.5 -8q29 -55 44 -106.5t15 -104.5q0 -104 -58 -162t-167 -58q-68 0 -146 23v129q29 -10 62 -15t57 -5q115 0 115 112q0 86 -64 197q-250 39 -367.5 224t-117.5 542z" />
<glyph unicode="&#xc8;" horiz-adv-x="1050" d="M143 0v1516h820v-168h-627v-498h559v-168h-559v-514h645v-168h-838zM270 1923h199l149 -287l-145 -26z" />
<glyph unicode="&#xc9;" horiz-adv-x="1050" d="M143 0v1516h820v-168h-627v-498h559v-168h-559v-514h645v-168h-838zM473 1622l148 301h198l-203 -313z" />
<glyph unicode="&#xca;" horiz-adv-x="1050" d="M143 0v1516h820v-168h-627v-498h559v-168h-559v-514h645v-168h-838zM266 1651v149l287 148l287 -148v-149l-287 147z" />
<glyph unicode="&#xcb;" horiz-adv-x="1050" d="M143 0v1516h820v-168h-627v-498h559v-168h-559v-514h645v-168h-838zM227 1769q0 115 117 115q119 0 119 -115q0 -61 -31 -87.5t-88 -26.5q-117 0 -117 114zM645 1769q0 115 115 115q119 0 119 -115q0 -61 -31 -87.5t-88 -26.5q-115 0 -115 114z" />
<glyph unicode="&#xcc;" horiz-adv-x="479" d="M-39 1923h199l149 -287l-145 -26zM143 0v1516h193v-1516h-193z" />
<glyph unicode="&#xcd;" horiz-adv-x="479" d="M143 0v1516h193v-1516h-193zM164 1622l147 301h199l-203 -313z" />
<glyph unicode="&#xce;" horiz-adv-x="479" d="M-45 1651v149l287 148l286 -148v-149l-286 147zM143 0v1516h193v-1516h-193z" />
<glyph unicode="&#xcf;" horiz-adv-x="479" d="M-82 1769q0 115 117 115q119 0 119 -115q0 -61 -31 -87.5t-88 -26.5q-117 0 -117 114zM143 0v1516h193v-1516h-193zM336 1769q0 115 115 115q119 0 118 -115q0 -61 -30.5 -87.5t-87.5 -26.5q-115 0 -115 114z" />
<glyph unicode="&#xd0;" horiz-adv-x="1253" d="M-2 680v156h176v669q109 16 187.5 23.5t148.5 7.5q346 0 503.5 -186.5t157.5 -593.5q0 -209 -40.5 -357.5t-128 -245t-223.5 -141.5t-326 -45q-61 0 -128 4t-151 15v694h-176zM365 143q47 -4 80.5 -7t64.5 -3q240 0 349.5 145.5t109.5 477.5q0 168 -24.5 285.5t-77 191.5 t-135.5 107.5t-200 33.5q-47 0 -86.5 -4t-80.5 -12v-522h264v-156h-264v-537z" />
<glyph unicode="&#xd1;" horiz-adv-x="1349" d="M143 0v1516h174l613 -1006l86 -168h14v1174h176v-1516h-176l-610 1001l-88 177l-15 -2v-1176h-174zM348 1729q41 74 101.5 118.5t119.5 44.5q39 0 74 -13t66.5 -28.5t64.5 -29t68 -13.5q68 0 127 80l51 -43q-35 -80 -94.5 -125t-120.5 -45q-39 0 -73 13.5t-65.5 29 t-64.5 28.5t-70 13q-72 0 -137 -78z" />
<glyph unicode="&#xd2;" horiz-adv-x="1280" d="M82 756q0 395 137 587.5t420 192.5t421 -192.5t138 -587.5q0 -776 -559 -776q-557 0 -557 776zM281 756q0 -162 20.5 -278t63.5 -189.5t110.5 -107.5t163.5 -34t164.5 34t111.5 107.5t63.5 189.5t20.5 278q0 324 -86 469t-274 145q-190 0 -274 -144.5t-84 -469.5z M356 1923h199l150 -287l-146 -26z" />
<glyph unicode="&#xd3;" horiz-adv-x="1280" d="M82 756q0 395 137 587.5t420 192.5t421 -192.5t138 -587.5q0 -776 -559 -776q-557 0 -557 776zM281 756q0 -162 20.5 -278t63.5 -189.5t110.5 -107.5t163.5 -34t164.5 34t111.5 107.5t63.5 189.5t20.5 278q0 324 -86 469t-274 145q-190 0 -274 -144.5t-84 -469.5z M559 1622l148 301h198l-203 -313z" />
<glyph unicode="&#xd4;" horiz-adv-x="1280" d="M82 756q0 395 137 587.5t420 192.5t421 -192.5t138 -587.5q0 -776 -559 -776q-557 0 -557 776zM281 756q0 -162 20.5 -278t63.5 -189.5t110.5 -107.5t163.5 -34t164.5 34t111.5 107.5t63.5 189.5t20.5 278q0 324 -86 469t-274 145q-190 0 -274 -144.5t-84 -469.5z M354 1651v149l287 148l287 -148v-149l-287 147z" />
<glyph unicode="&#xd5;" horiz-adv-x="1280" d="M82 756q0 395 137 587.5t420 192.5t421 -192.5t138 -587.5q0 -776 -559 -776q-557 0 -557 776zM281 756q0 -162 20.5 -278t63.5 -189.5t110.5 -107.5t163.5 -34t164.5 34t111.5 107.5t63.5 189.5t20.5 278q0 324 -86 469t-274 145q-190 0 -274 -144.5t-84 -469.5z M315 1729q41 74 101.5 118.5t120.5 44.5q39 0 73.5 -13t66.5 -28.5t64.5 -29t67.5 -13.5q68 0 127 80l51 -43q-35 -80 -94 -125t-121 -45q-39 0 -72.5 13.5t-65.5 29t-64.5 28.5t-69.5 13q-72 0 -138 -78z" />
<glyph unicode="&#xd6;" horiz-adv-x="1280" d="M82 756q0 395 137 587.5t420 192.5t421 -192.5t138 -587.5q0 -776 -559 -776q-557 0 -557 776zM281 756q0 -162 20.5 -278t63.5 -189.5t110.5 -107.5t163.5 -34t164.5 34t111.5 107.5t63.5 189.5t20.5 278q0 324 -86 469t-274 145q-190 0 -274 -144.5t-84 -469.5z M313 1769q0 115 117 115q119 0 119 -115q0 -61 -31 -87.5t-88 -26.5q-117 0 -117 114zM731 1769q0 115 115 115q119 0 119 -115q0 -61 -31 -87.5t-88 -26.5q-115 0 -115 114z" />
<glyph unicode="&#xd7;" horiz-adv-x="933" d="M88 485l272 275l-272 272l105 107l272 -275l274 275l107 -107l-275 -274l275 -273l-105 -104l-274 272l-274 -272z" />
<glyph unicode="&#xd8;" horiz-adv-x="1296" d="M31 0l164 229q-102 186 -103 527q0 395 137.5 587.5t417.5 192.5q238 0 377 -141l86 121h158l-164 -232q102 -193 102 -528q0 -393 -137 -584.5t-422 -191.5q-240 0 -373 139l-84 -119h-159zM291 756q0 -106 8 -191.5t27 -150.5l587 825q-88 131 -266 131 q-188 0 -272 -144t-84 -470zM385 272q84 -125 262 -125q96 0 165 34t112 107.5t63.5 189.5t20.5 278q0 205 -35 344z" />
<glyph unicode="&#xd9;" horiz-adv-x="1308" d="M131 590v926h193v-918q0 -238 77.5 -343t251.5 -105q176 0 253 104t77 344v918h195v-926q0 -158 -29 -273.5t-91.5 -190.5t-163 -110.5t-241.5 -35.5t-240.5 35.5t-162 111.5t-91 190.5t-28.5 272.5zM367 1923h198l150 -287l-146 -26z" />
<glyph unicode="&#xda;" horiz-adv-x="1308" d="M131 590v926h193v-918q0 -238 77.5 -343t251.5 -105q176 0 253 104t77 344v918h195v-926q0 -158 -29 -273.5t-91.5 -190.5t-163 -110.5t-241.5 -35.5t-240.5 35.5t-162 111.5t-91 190.5t-28.5 272.5zM569 1622l148 301h198l-202 -313z" />
<glyph unicode="&#xdb;" horiz-adv-x="1308" d="M131 590v926h193v-918q0 -238 77.5 -343t251.5 -105q176 0 253 104t77 344v918h195v-926q0 -158 -29 -273.5t-91.5 -190.5t-163 -110.5t-241.5 -35.5t-240.5 35.5t-162 111.5t-91 190.5t-28.5 272.5zM360 1651v149l287 148l287 -148v-149l-287 147z" />
<glyph unicode="&#xdc;" horiz-adv-x="1308" d="M131 590v926h193v-918q0 -238 77.5 -343t251.5 -105q176 0 253 104t77 344v918h195v-926q0 -158 -29 -273.5t-91.5 -190.5t-163 -110.5t-241.5 -35.5t-240.5 35.5t-162 111.5t-91 190.5t-28.5 272.5zM324 1769q0 115 116 115q119 0 119 -115q0 -61 -31 -87.5t-88 -26.5 q-117 0 -116 114zM741 1769q0 115 115 115q119 0 119 -115q0 -61 -31 -87.5t-88 -26.5q-115 0 -115 114z" />
<glyph unicode="&#xdd;" horiz-adv-x="1153" d="M-4 1516h215l317 -699l41 -112h15l43 112l317 699h213l-483 -1002v-514h-193v510zM502 1622l147 301h199l-203 -313z" />
<glyph unicode="&#xde;" horiz-adv-x="1110" d="M143 0v1516h193v-240q70 6 139 6q301 0 439.5 -125t138.5 -401q0 -272 -140.5 -397.5t-445.5 -125.5h-66.5t-64.5 5v-238h-193zM336 406q35 -4 83 -6.5t77 -2.5q190 0 274 84t84 275q0 190 -81 275t-267 85q-31 0 -80 -3t-90 -11v-696z" />
<glyph unicode="&#xdf;" horiz-adv-x="1142" d="M121 0v1221q0 229 103.5 334.5t328.5 105.5q223 0 327.5 -105.5t104.5 -334.5v-242h-141q-98 0 -155.5 -44t-57.5 -122q0 -47 14 -76.5t38 -48t54.5 -31t65.5 -20.5q61 -16 115.5 -39t93.5 -58.5t61.5 -91t22.5 -139.5q0 -154 -96.5 -243t-262.5 -89q-63 0 -131.5 12.5 t-159.5 35.5v149q66 -23 142 -35t141 -12q88 0 136 45t48 125q0 74 -38.5 117t-124.5 65q-49 10 -101.5 24.5t-95.5 48.5t-71.5 93.5t-28.5 159.5q0 145 93 233t249 92v91q0 158 -54.5 222t-187.5 64t-187.5 -64.5t-54.5 -221.5v-1221h-190z" />
<glyph unicode="&#xe0;" horiz-adv-x="940" d="M53 289q0 307 387 336l197 14v92q0 135 -48 188.5t-167 53.5q-25 0 -59.5 -3t-71.5 -7.5t-74 -10.5t-65 -14l-17 149q80 16 164 25.5t154 9.5q193 0 282.5 -84t89.5 -262v-776h-157l-19 133h-12q-61 -55 -140 -99t-171 -44q-125 0 -199 81t-74 218zM211 1642h197 l145 -372l-135 -21zM246 305q0 -82 37.5 -124t109.5 -42q31 0 63.5 12.5t65.5 30t62.5 36t52.5 32.5v262l-156 -14q-127 -12 -181 -56.5t-54 -136.5z" />
<glyph unicode="&#xe1;" horiz-adv-x="940" d="M53 289q0 307 387 336l197 14v92q0 135 -48 188.5t-167 53.5q-25 0 -59.5 -3t-71.5 -7.5t-74 -10.5t-65 -14l-17 149q80 16 164 25.5t154 9.5q193 0 282.5 -84t89.5 -262v-776h-157l-19 133h-12q-61 -55 -140 -99t-171 -44q-125 0 -199 81t-74 218zM246 305 q0 -82 37.5 -124t109.5 -42q31 0 63.5 12.5t65.5 30t62.5 36t52.5 32.5v262l-156 -14q-127 -12 -181 -56.5t-54 -136.5zM412 1264l145 378h195l-205 -393z" />
<glyph unicode="&#xe2;" horiz-adv-x="940" d="M53 289q0 307 387 336l197 14v92q0 135 -48 188.5t-167 53.5q-25 0 -59.5 -3t-71.5 -7.5t-74 -10.5t-65 -14l-17 149q80 16 164 25.5t154 9.5q193 0 282.5 -84t89.5 -262v-776h-157l-19 133h-12q-61 -55 -140 -99t-171 -44q-125 0 -199 81t-74 218zM203 1286v148l286 147 l285 -147v-148l-287 146zM246 305q0 -82 37.5 -124t109.5 -42q31 0 63.5 12.5t65.5 30t62.5 36t52.5 32.5v262l-156 -14q-127 -12 -181 -56.5t-54 -136.5z" />
<glyph unicode="&#xe3;" horiz-adv-x="940" d="M53 289q0 307 387 336l197 14v92q0 135 -48 188.5t-167 53.5q-25 0 -59.5 -3t-71.5 -7.5t-74 -10.5t-65 -14l-17 149q80 16 164 25.5t154 9.5q193 0 282.5 -84t89.5 -262v-776h-157l-19 133h-12q-61 -55 -140 -99t-171 -44q-125 0 -199 81t-74 218zM150 1350 q41 70 101 111.5t120 41.5q39 0 72.5 -15t66.5 -34.5t64.5 -35t68.5 -15.5q68 0 117 84l61 -55q-35 -78 -95 -119t-120 -41q-39 0 -72.5 15.5t-65.5 33.5t-64.5 33.5t-69.5 15.5q-35 0 -68 -21.5t-61 -58.5zM246 305q0 -82 37.5 -124t109.5 -42q31 0 63.5 12.5t65.5 30 t62.5 36t52.5 32.5v262l-156 -14q-127 -12 -181 -56.5t-54 -136.5z" />
<glyph unicode="&#xe4;" horiz-adv-x="940" d="M53 289q0 307 387 336l197 14v92q0 135 -48 188.5t-167 53.5q-25 0 -59.5 -3t-71.5 -7.5t-74 -10.5t-65 -14l-17 149q80 16 164 25.5t154 9.5q193 0 282.5 -84t89.5 -262v-776h-157l-19 133h-12q-61 -55 -140 -99t-171 -44q-125 0 -199 81t-74 218zM174 1386 q0 100 107 101q106 0 106 -101q0 -55 -26.5 -79.5t-79.5 -24.5t-80 24.5t-27 79.5zM246 305q0 -82 37.5 -124t109.5 -42q31 0 63.5 12.5t65.5 30t62.5 36t52.5 32.5v262l-156 -14q-127 -12 -181 -56.5t-54 -136.5zM571 1386q0 100 105 101q106 0 106 -101q0 -55 -27.5 -79.5 t-78.5 -24.5q-53 0 -79 24.5t-26 79.5z" />
<glyph unicode="&#xe5;" horiz-adv-x="940" d="M53 289q0 307 387 336l197 14v92q0 135 -48 188.5t-167 53.5q-25 0 -59.5 -3t-71.5 -7.5t-74 -10.5t-65 -14l-17 149q80 16 164 25.5t154 9.5q193 0 282.5 -84t89.5 -262v-776h-157l-19 133h-12q-61 -55 -140 -99t-171 -44q-125 0 -199 81t-74 218zM246 305 q0 -82 37.5 -124t109.5 -42q31 0 63.5 12.5t65.5 30t62.5 36t52.5 32.5v262l-156 -14q-127 -12 -181 -56.5t-54 -136.5zM266 1460q0 92 55.5 153.5t155.5 61.5t156.5 -61.5t56.5 -153.5t-57.5 -154.5t-155.5 -62.5t-154.5 62.5t-56.5 154.5zM371 1460q0 -55 27.5 -90 t78.5 -35q53 0 82 36t29 89t-29 88t-82 35t-79.5 -35t-26.5 -88z" />
<glyph unicode="&#xe6;" horiz-adv-x="1501" d="M53 289q0 307 387 336l197 14v117q-4 117 -52 167t-163 50q-27 0 -61.5 -3t-72.5 -7.5t-74 -10.5t-62 -14l-17 149q90 16 171 25.5t147 9.5q117 0 186.5 -44t97.5 -136h15q102 182 323 182q356 0 357 -487q0 -53 -2.5 -85t-8.5 -67h-594q4 -176 69 -264t196 -88 q59 0 130.5 14.5t157.5 49.5l11 -152q-66 -29 -149 -46t-161 -17q-236 0 -342 186l-14 2q-68 -49 -122 -83t-101 -55.5t-90 -31.5t-86 -10q-125 0 -199 81t-74 218zM246 305q0 -82 37.5 -124t109.5 -42q55 0 116.5 37t152.5 96q-6 18 -11.5 48t-8.5 63t-4 66.5t-1 62.5 l-156 -14q-127 -10 -181 -55.5t-54 -137.5zM827 616h430q-6 190 -50 274.5t-138 84.5q-111 0 -172 -91t-70 -268z" />
<glyph unicode="&#xe7;" horiz-adv-x="800" d="M72 553q0 573 469 573q41 0 87 -6t101 -22v-156q-49 12 -91 17.5t-83 5.5q-150 0 -218.5 -97.5t-68.5 -314.5q0 -213 70 -313.5t217 -100.5q70 0 174 25v-156q-39 -10 -84 -18t-88 -10q29 -55 44 -106.5t15 -104.5q0 -104 -58 -162t-167 -58q-68 0 -145 23v129 q29 -10 61.5 -15t57.5 -5q115 0 114 112q0 41 -17.5 93.5t-45.5 105.5q-174 35 -259 172t-85 389z" />
<glyph unicode="&#xe8;" horiz-adv-x="937" d="M74 535q0 291 110.5 440t327.5 149q356 0 356 -487q0 -53 -2 -87t-6 -69h-594q10 -182 71.5 -264t190.5 -82q61 0 133 14.5t156 47.5l10 -152q-66 -29 -148.5 -46t-160.5 -17q-217 0 -330.5 142t-113.5 411zM203 1642h196l146 -372l-135 -21zM268 621h426q-4 190 -47 272 t-139 82q-221 0 -240 -354z" />
<glyph unicode="&#xe9;" horiz-adv-x="937" d="M74 535q0 291 110.5 440t327.5 149q356 0 356 -487q0 -53 -2 -87t-6 -69h-594q10 -182 71.5 -264t190.5 -82q61 0 133 14.5t156 47.5l10 -152q-66 -29 -148.5 -46t-160.5 -17q-217 0 -330.5 142t-113.5 411zM268 621h426q-4 190 -47 272t-139 82q-221 0 -240 -354z M422 1264l145 378h195l-205 -393z" />
<glyph unicode="&#xea;" horiz-adv-x="937" d="M74 535q0 291 110.5 440t327.5 149q356 0 356 -487q0 -53 -2 -87t-6 -69h-594q10 -182 71.5 -264t190.5 -82q61 0 133 14.5t156 47.5l10 -152q-66 -29 -148.5 -46t-160.5 -17q-217 0 -330.5 142t-113.5 411zM203 1286v148l286 147l285 -147v-148l-287 146zM268 621h426 q-4 190 -47 272t-139 82q-221 0 -240 -354z" />
<glyph unicode="&#xeb;" horiz-adv-x="937" d="M74 535q0 291 110.5 440t327.5 149q356 0 356 -487q0 -53 -2 -87t-6 -69h-594q10 -182 71.5 -264t190.5 -82q61 0 133 14.5t156 47.5l10 -152q-66 -29 -148.5 -46t-160.5 -17q-217 0 -330.5 142t-113.5 411zM180 1386q0 100 107 101q106 0 106 -101q0 -55 -26.5 -79.5 t-79.5 -24.5t-80 24.5t-27 79.5zM268 621h426q-4 190 -47 272t-139 82q-221 0 -240 -354zM578 1386q0 100 104 101q106 0 106 -101q0 -55 -27.5 -79.5t-78.5 -24.5q-53 0 -78.5 24.5t-25.5 79.5z" />
<glyph unicode="&#xec;" horiz-adv-x="434" d="M-45 1642h197l145 -372l-135 -21zM123 0v1106h188v-1106h-188z" />
<glyph unicode="&#xed;" horiz-adv-x="434" d="M123 0v1106h188v-1106h-188zM156 1264l145 378h195l-205 -393z" />
<glyph unicode="&#xee;" horiz-adv-x="438" d="M-55 1286v148l286 147l287 -147v-148l-287 146zM125 0v1106h188v-1106h-188z" />
<glyph unicode="&#xef;" horiz-adv-x="438" d="M-80 1386q0 100 107 101q106 0 106 -101q0 -55 -26.5 -79.5t-79.5 -24.5t-80 24.5t-27 79.5zM125 0v1106h188v-1106h-188zM315 1386q0 100 107 101q104 0 104 -101q0 -55 -26.5 -79.5t-77.5 -24.5q-53 0 -80 24.5t-27 79.5z" />
<glyph unicode="&#xf0;" horiz-adv-x="1028" d="M74 553q0 283 110.5 428t325.5 145q119 0 195 -88q-37 135 -93 262l-221 -30v131l166 22q-57 121 -133 232h194q33 -49 63 -100.5t56 -104.5l230 33v-131l-174 -25q74 -182 113.5 -378.5t39.5 -395.5q0 -283 -110.5 -427t-325.5 -144t-325.5 145t-110.5 426zM266 553 q0 -225 57.5 -321.5t186.5 -96.5t186.5 96.5t57.5 321.5q0 84 -9.5 161t-36 134t-74.5 91t-124 34q-129 0 -186.5 -97.5t-57.5 -322.5z" />
<glyph unicode="&#xf1;" horiz-adv-x="1009" d="M121 0v1106h162l12 -119h8q111 74 190.5 106.5t161.5 32.5q123 0 180.5 -69.5t57.5 -220.5v-836h-188v780q0 96 -32 136t-95 40q-59 0 -127 -26.5t-140 -73.5v-856h-190zM184 1350q41 70 101.5 111.5t120.5 41.5q39 0 72.5 -15t66.5 -34.5t64.5 -35t68.5 -15.5 q68 0 117 84l61 -55q-35 -78 -95.5 -119t-119.5 -41q-39 0 -72.5 15.5t-65.5 33.5t-64.5 33.5t-69.5 15.5q-35 0 -68 -21.5t-61 -58.5z" />
<glyph unicode="&#xf2;" horiz-adv-x="1019" d="M74 553q0 283 110.5 428t325.5 145t325.5 -145t110.5 -428t-110.5 -427t-325.5 -144t-325.5 145t-110.5 426zM229 1642h197l145 -372l-135 -21zM266 553q0 -225 57.5 -321.5t186.5 -96.5t186.5 96.5t57.5 321.5t-58.5 322.5t-185.5 97.5q-129 0 -186.5 -97.5 t-57.5 -322.5z" />
<glyph unicode="&#xf3;" horiz-adv-x="1019" d="M74 553q0 283 110.5 428t325.5 145t325.5 -145t110.5 -428t-110.5 -427t-325.5 -144t-325.5 145t-110.5 426zM266 553q0 -225 57.5 -321.5t186.5 -96.5t186.5 96.5t57.5 321.5t-58.5 322.5t-185.5 97.5q-129 0 -186.5 -97.5t-57.5 -322.5zM428 1264l145 378h195 l-205 -393z" />
<glyph unicode="&#xf4;" horiz-adv-x="1019" d="M74 553q0 283 110.5 428t325.5 145t325.5 -145t110.5 -428t-110.5 -427t-325.5 -144t-325.5 145t-110.5 426zM221 1286v148l287 147l285 -147v-148l-287 146zM266 553q0 -225 57.5 -321.5t186.5 -96.5t186.5 96.5t57.5 321.5t-58.5 322.5t-185.5 97.5 q-129 0 -186.5 -97.5t-57.5 -322.5z" />
<glyph unicode="&#xf5;" horiz-adv-x="1019" d="M74 553q0 283 110.5 428t325.5 145t325.5 -145t110.5 -428t-110.5 -427t-325.5 -144t-325.5 145t-110.5 426zM166 1350q41 70 101.5 111.5t119.5 41.5q39 0 73 -15t66.5 -34.5t64.5 -35t68 -15.5q68 0 117 84l62 -55q-35 -78 -95.5 -119t-119.5 -41q-39 0 -73 15.5 t-65.5 33.5t-64.5 33.5t-70 15.5q-35 0 -67.5 -21.5t-61.5 -58.5zM266 553q0 -225 57.5 -321.5t186.5 -96.5t186.5 96.5t57.5 321.5t-58.5 322.5t-185.5 97.5q-129 0 -186.5 -97.5t-57.5 -322.5z" />
<glyph unicode="&#xf6;" horiz-adv-x="1019" d="M74 553q0 283 110.5 428t325.5 145t325.5 -145t110.5 -428t-110.5 -427t-325.5 -144t-325.5 145t-110.5 426zM193 1386q0 100 106 101q106 0 107 -101q0 -55 -27 -79.5t-80 -24.5t-79.5 24.5t-26.5 79.5zM266 553q0 -225 57.5 -321.5t186.5 -96.5t186.5 96.5t57.5 321.5 t-58.5 322.5t-185.5 97.5q-129 0 -186.5 -97.5t-57.5 -322.5zM590 1386q0 100 104 101q106 0 107 -101q0 -55 -28 -79.5t-79 -24.5q-53 0 -78.5 24.5t-25.5 79.5z" />
<glyph unicode="&#xf7;" horiz-adv-x="1026" d="M98 684v147h832v-147h-832zM414 418q0 51 28.5 77.5t75.5 26.5t76 -26.5t29 -77.5q0 -53 -29 -80t-76 -27t-75.5 27t-28.5 80zM414 1087q0 53 28.5 80t75.5 27t76 -27.5t29 -79.5q0 -51 -29 -77.5t-76 -26.5t-75.5 26.5t-28.5 77.5z" />
<glyph unicode="&#xf8;" horiz-adv-x="1028" d="M39 0l123 168q-82 139 -82 385q0 283 109.5 428t324.5 145q170 0 281 -98l57 78h133l-121 -164q86 -141 86 -389q0 -283 -110.5 -427t-325.5 -144q-176 0 -281 98l-59 -80h-135zM270 553q0 -127 19 -213l403 549q-59 84 -178 84q-129 0 -186.5 -97.5t-57.5 -322.5z M336 219q57 -84 178 -84q129 0 186.5 96.5t57.5 321.5q0 127 -19 217z" />
<glyph unicode="&#xf9;" horiz-adv-x="1007" d="M113 270v836h190v-784q0 -98 29.5 -135t105.5 -37q61 0 118.5 23.5t139.5 82.5v850h191v-1106h-162l-14 117h-9q-109 -76 -180 -106.5t-143 -30.5q-266 0 -266 290zM231 1642h197l145 -372l-135 -21z" />
<glyph unicode="&#xfa;" horiz-adv-x="1007" d="M113 270v836h190v-784q0 -98 29.5 -135t105.5 -37q61 0 118.5 23.5t139.5 82.5v850h191v-1106h-162l-14 117h-9q-109 -76 -180 -106.5t-143 -30.5q-266 0 -266 290zM432 1264l146 378h194l-205 -393z" />
<glyph unicode="&#xfb;" horiz-adv-x="1007" d="M113 270v836h190v-784q0 -98 29.5 -135t105.5 -37q61 0 118.5 23.5t139.5 82.5v850h191v-1106h-162l-14 117h-9q-109 -76 -180 -106.5t-143 -30.5q-266 0 -266 290zM223 1286v148l287 147l285 -147v-148l-287 146z" />
<glyph unicode="&#xfc;" horiz-adv-x="1007" d="M113 270v836h190v-784q0 -98 29.5 -135t105.5 -37q61 0 118.5 23.5t139.5 82.5v850h191v-1106h-162l-14 117h-9q-109 -76 -180 -106.5t-143 -30.5q-266 0 -266 290zM195 1386q0 100 106 101q106 0 107 -101q0 -55 -27 -79.5t-80 -24.5t-79.5 24.5t-26.5 79.5zM592 1386 q0 100 104 101q106 0 107 -101q0 -55 -28 -79.5t-79 -24.5q-53 0 -78.5 24.5t-25.5 79.5z" />
<glyph unicode="&#xfd;" horiz-adv-x="980" d="M18 1092v14h193l248 -774l24 -129h13l28 129l246 774h193v-14l-514 -1543l-191 39v13l135 401zM432 1264l146 378h194l-205 -393z" />
<glyph unicode="&#xfe;" horiz-adv-x="1017" d="M121 -451v2106h190v-654q53 61 127 92t152 31q352 0 352 -542q0 -295 -123 -448.5t-360 -153.5q-33 0 -70 4t-78 12v-447h-190zM311 141q84 -22 152 -22q147 0 216 104.5t69 337.5q0 221 -52.5 319.5t-165.5 98.5q-90 0 -154.5 -65.5t-64.5 -196.5v-576z" />
<glyph unicode="&#xff;" horiz-adv-x="980" d="M18 1092v14h193l248 -774l24 -129h13l28 129l246 774h193v-14l-514 -1543l-191 39v13l135 401zM197 1386q0 100 106 101q106 0 107 -101q0 -55 -27 -79.5t-80 -24.5t-79.5 24.5t-26.5 79.5zM594 1386q0 100 104 101q106 0 107 -101q0 -55 -28 -79.5t-79 -24.5 q-53 0 -78.5 24.5t-25.5 79.5z" />
<glyph unicode="&#x152;" horiz-adv-x="1681" d="M82 756q0 387 145.5 578.5t425.5 191.5q45 0 97.5 -3t89.5 -7h745v-168h-557v-496h508v-160h-508v-524h576v-168h-764q-37 -6 -89.5 -8t-97.5 -2q-283 0 -427 190.5t-144 575.5zM276 756q0 -160 21.5 -273.5t69 -186.5t123 -105.5t184.5 -32.5q35 0 80 2t80 8v1178 q-37 6 -82 9t-80 3q-106 0 -181 -34t-123.5 -107.5t-70 -187.5t-21.5 -273z" />
<glyph unicode="&#x153;" horiz-adv-x="1619" d="M74 553q0 283 110.5 428t325.5 145q246 0 336 -241h12q47 117 130 178t206 61q356 0 356 -487q0 -53 -2 -85t-6 -67h-594q8 -352 260 -352q127 0 291 64l10 -152q-66 -29 -148.5 -46t-160.5 -17q-125 0 -211 60t-133 175h-10q-92 -236 -336 -235q-215 0 -325.5 145 t-110.5 426zM266 553q0 -225 57.5 -321.5t186.5 -96.5t186.5 96.5t57.5 321.5t-58.5 322.5t-185.5 97.5q-129 0 -186.5 -97.5t-57.5 -322.5zM948 616h428q-6 190 -49 274.5t-137 84.5q-223 0 -242 -359z" />
<glyph unicode="&#x178;" horiz-adv-x="1153" d="M-4 1516h215l317 -699l41 -112h15l43 112l317 699h213l-483 -1002v-514h-193v510zM256 1769q0 115 117 115q119 0 119 -115q0 -61 -31 -87.5t-88 -26.5q-117 0 -117 114zM674 1769q0 115 114 115q119 0 119 -115q0 -61 -31 -87.5t-88 -26.5q-115 0 -114 114z" />
<glyph unicode="&#x2c6;" horiz-adv-x="729" d="M68 1286v148l286 147l285 -147v-148l-287 146z" />
<glyph unicode="&#x2dc;" horiz-adv-x="831" d="M61 1350q41 70 101.5 111.5t120.5 41.5q39 0 72.5 -15t66.5 -34.5t64.5 -35t68.5 -15.5q68 0 117 84l61 -55q-35 -78 -95 -119t-120 -41q-39 0 -72.5 15.5t-65.5 33.5t-64.5 33.5t-69.5 15.5q-35 0 -68 -21.5t-61 -58.5z" />
<glyph unicode="&#x2000;" horiz-adv-x="974" />
<glyph unicode="&#x2001;" horiz-adv-x="1948" />
<glyph unicode="&#x2002;" horiz-adv-x="974" />
<glyph unicode="&#x2003;" horiz-adv-x="1948" />
<glyph unicode="&#x2004;" horiz-adv-x="649" />
<glyph unicode="&#x2005;" horiz-adv-x="487" />
<glyph unicode="&#x2006;" horiz-adv-x="324" />
<glyph unicode="&#x2007;" horiz-adv-x="324" />
<glyph unicode="&#x2008;" horiz-adv-x="243" />
<glyph unicode="&#x2009;" horiz-adv-x="389" />
<glyph unicode="&#x200a;" horiz-adv-x="108" />
<glyph unicode="&#x2010;" horiz-adv-x="708" d="M106 498v151h494v-151h-494z" />
<glyph unicode="&#x2011;" horiz-adv-x="708" d="M106 498v151h494v-151h-494z" />
<glyph unicode="&#x2012;" horiz-adv-x="708" d="M106 498v151h494v-151h-494z" />
<glyph unicode="&#x2013;" horiz-adv-x="1038" d="M119 498v151h801v-151h-801z" />
<glyph unicode="&#x2014;" horiz-adv-x="1388" d="M119 498v151h1151v-151h-1151z" />
<glyph unicode="&#x2018;" horiz-adv-x="366" d="M86 1276q0 102 32 205.5t83 179.5l88 -16q-29 -74 -45.5 -158t-16.5 -160q0 -121 45 -244l-149 -20q-20 47 -28.5 98t-8.5 115z" />
<glyph unicode="&#x2019;" horiz-adv-x="364" d="M82 1079q29 74 45 157t16 161q0 59 -11 118.5t-36 124.5l152 21q37 -92 37 -213q0 -102 -32 -206.5t-85 -178.5z" />
<glyph unicode="&#x201a;" horiz-adv-x="376" d="M68 -268q29 74 45 156.5t16 160.5q0 59 -11.5 118.5t-35.5 125.5l151 20q37 -92 37 -213q0 -102 -31.5 -206.5t-84.5 -178.5z" />
<glyph unicode="&#x201c;" horiz-adv-x="774" d="M86 1276q0 102 32 205.5t83 179.5l88 -16q-29 -74 -45.5 -158t-16.5 -160q0 -121 45 -244l-149 -20q-20 47 -28.5 98t-8.5 115zM494 1276q0 102 31.5 205.5t82.5 179.5l88 -16q-29 -74 -45 -158t-16 -160q0 -121 45 -244l-150 -20q-20 47 -28 98t-8 115z" />
<glyph unicode="&#x201d;" horiz-adv-x="770" d="M82 1079q29 74 45 157t16 161q0 59 -11 118.5t-36 124.5l152 21q37 -92 37 -213q0 -102 -32 -206.5t-85 -178.5zM489 1079q29 74 45.5 157t16.5 161q0 59 -11.5 118.5t-35.5 124.5l151 21q37 -92 37 -213q0 -102 -31.5 -206.5t-85.5 -178.5z" />
<glyph unicode="&#x201e;" horiz-adv-x="782" d="M68 -268q29 74 45 156.5t16 160.5q0 59 -11.5 118.5t-35.5 125.5l151 20q37 -92 37 -213q0 -102 -31.5 -206.5t-84.5 -178.5zM475 -268q29 74 45.5 156.5t16.5 160.5q0 59 -11.5 118.5t-36.5 125.5l152 20q37 -92 37 -213q0 -102 -32 -206.5t-85 -178.5z" />
<glyph unicode="&#x2022;" horiz-adv-x="606" d="M131 758q0 92 50 130t122 38t121 -38t49 -130t-49 -130t-121 -38t-122 38t-50 130z" />
<glyph unicode="&#x2026;" horiz-adv-x="1325" d="M94 109q0 117 119 116q121 0 121 -116q0 -117 -121 -117q-119 0 -119 117zM551 109q0 117 119 116q121 0 121 -116q0 -117 -121 -117q-119 0 -119 117zM991 109q0 117 119 116q121 0 121 -116q0 -117 -121 -117q-119 0 -119 117z" />
<glyph unicode="&#x202f;" horiz-adv-x="389" />
<glyph unicode="&#x2039;" horiz-adv-x="524" d="M68 549v8l192 487h193l-193 -487v-8l193 -488h-193z" />
<glyph unicode="&#x203a;" horiz-adv-x="524" d="M72 61l192 488v8l-192 487h192l193 -487v-8l-193 -488h-192z" />
<glyph unicode="&#x205f;" horiz-adv-x="487" />
<glyph unicode="&#x20ac;" horiz-adv-x="1081" d="M72 522v125h147q-2 27 -2 53.5v55.5v55.5t2 54.5h-147v125h159q41 283 188.5 413t420.5 130q53 0 93 -4t77 -14l-43 -158q-29 4 -52.5 5t-52.5 1q-98 0 -173 -19.5t-128 -64.5t-86 -115.5t-47 -173.5h440l-41 -125h-411q-2 -27 -2 -54.5v-55.5v-56.5t2 -52.5h387 l-41 -125h-334q31 -201 132.5 -288t295.5 -87q63 0 135 17v-166q-61 -18 -151 -18q-268 4 -418 134t-191 408h-159z" />
<glyph unicode="&#x2122;" horiz-adv-x="1636" d="M53 1395v121h578v-121h-221v-740h-136v740h-221zM729 655v861h172l219 -617l219 617h174v-861h-131v619l-200 -580h-121l-203 578v-617h-129z" />
<glyph unicode="&#x25fc;" horiz-adv-x="1105" d="M0 0v1106h1106v-1106h-1106z" />
</font>
</defs>
</svg>
