<?xml version="1.0" standalone="no"?>
<!DOCTYPE svg PUBLIC "-//W3C//DTD SVG 1.1//EN" "http://www.w3.org/Graphics/SVG/1.1/DTD/svg11.dtd" >
<svg xmlns="http://www.w3.org/2000/svg">
<metadata></metadata>
<defs>
<font id="encode_sans_compressedthin" horiz-adv-x="927" >
<font-face units-per-em="2048" ascent="1638" descent="-410" />
<missing-glyph horiz-adv-x="417" />
<glyph unicode="&#xfb01;" horiz-adv-x="870" d="M33 1042v64h155v92q0 123 14.5 206t51.5 135t97.5 79t152.5 37v-64q-74 -10 -122 -30.5t-75.5 -64.5t-38 -115.5t-10.5 -182.5v-92h199v-64h-199v-1042h-70v1042h-155zM633 1460q0 61 59 62q29 0 45.5 -16.5t16.5 -45.5t-16.5 -44t-45.5 -15q-59 0 -59 59zM657 0v1106h70 v-1106h-70z" />
<glyph unicode="&#xfb02;" horiz-adv-x="874" d="M33 1042v64h155v92q0 123 14.5 206t51.5 135t97.5 79t152.5 37v-64q-74 -10 -122 -30.5t-75.5 -64.5t-38 -115.5t-10.5 -182.5v-92h199v-64h-199v-1042h-70v1042h-155zM657 0v1655h70v-1655h-70z" />
<glyph unicode="&#xfb03;" horiz-adv-x="1355" d="M33 1042v64h155v92q0 123 14.5 206t51.5 135t97.5 79t152.5 37v-64q-74 -10 -122 -30.5t-75.5 -64.5t-38 -115.5t-10.5 -182.5v-92h199v-64h-199v-1042h-70v1042h-155zM518 1042v64h156v92q0 123 14 206t51 135t97.5 79t152.5 37v-64q-74 -10 -122 -30.5t-75.5 -64.5 t-38 -115.5t-10.5 -182.5v-92h199v-64h-199v-1042h-69v1042h-156zM1118 1460q0 61 60 62q29 0 45 -16.5t16 -45.5t-16 -44t-45 -15q-59 0 -60 59zM1143 0v1106h69v-1106h-69z" />
<glyph unicode="&#xfb04;" horiz-adv-x="1359" d="M33 1042v64h155v92q0 123 14.5 206t51.5 135t97.5 79t152.5 37v-64q-74 -10 -122 -30.5t-75.5 -64.5t-38 -115.5t-10.5 -182.5v-92h199v-64h-199v-1042h-70v1042h-155zM518 1042v64h156v92q0 123 14 206t51 135t97.5 79t152.5 37v-64q-74 -10 -122 -30.5t-75.5 -64.5 t-38 -115.5t-10.5 -182.5v-92h199v-64h-199v-1042h-69v1042h-156zM1143 0v1655h69v-1655h-69z" />
<glyph horiz-adv-x="0" />
<glyph unicode="&#xd;" horiz-adv-x="579" />
<glyph horiz-adv-x="0" />
<glyph horiz-adv-x="0" />
<glyph unicode=" "  horiz-adv-x="417" />
<glyph unicode="&#x09;" horiz-adv-x="417" />
<glyph unicode="&#xa0;" horiz-adv-x="417" />
<glyph unicode="!" horiz-adv-x="391" d="M143 72q0 61 60 61q29 0 45 -16.5t16 -44.5q0 -29 -16 -44.5t-45 -15.5q-59 0 -60 60zM160 1495v21h69v-21l-10 -1165v-29h-49v29z" />
<glyph unicode="&#x22;" horiz-adv-x="559" d="M129 983v672h70v-8l-35 -664h-35zM379 983v672h70v-8l-35 -664h-35z" />
<glyph unicode="#" horiz-adv-x="946" d="M92 504v69h166l31 369h-197v70h203l41 504h70l-41 -504h231l41 504h70l-41 -504h188v-70h-195l-28 -369h221v-69h-227l-41 -504h-72l41 504h-229l-41 -504h-72l41 504h-160zM330 573h229l31 369h-232z" />
<glyph unicode="$" d="M74 39l16 65q27 -12 71 -23t94 -20.5t101.5 -14.5t94.5 -5q160 0 247.5 84t87.5 237q0 61 -18 113.5t-59 97.5t-104.5 85t-153.5 79q-96 41 -164 83t-109 88t-59.5 101.5t-18.5 123.5q0 174 99.5 282.5t265.5 124.5v283h63v-281q66 -2 133.5 -11t149.5 -26l-16 -69 q-94 20 -162 28.5t-121 8.5q-78 0 -140.5 -25t-107.5 -69t-69.5 -107.5t-24.5 -138.5q0 -57 15.5 -102.5t52 -84.5t96 -73.5t145.5 -69.5q104 -43 177 -88t117 -97.5t63.5 -114t19.5 -141.5q0 -160 -83 -260t-232 -122v-287h-64v278h-26q-43 0 -95.5 5.5t-104.5 14.5 t-98.5 21.5t-78.5 26.5z" />
<glyph unicode="%" horiz-adv-x="1523" d="M76 1063q0 233 72.5 353t213.5 120t213 -120t72 -353q0 -236 -72 -354.5t-213 -118.5q-287 0 -286 473zM143 1063q0 -404 219 -404q215 0 216 404q0 199 -55.5 301t-160.5 102q-106 0 -162.5 -102t-56.5 -301zM451 0l532 1516h72l-533 -1516h-71zM879 444 q0 233 72.5 353.5t213.5 120.5t213 -120t72 -354q0 -236 -72 -354.5t-213 -118.5q-287 0 -286 473zM946 444q0 -403 219 -403q215 0 215 403q0 199 -55 301.5t-160 102.5q-106 0 -162.5 -102.5t-56.5 -301.5z" />
<glyph unicode="&#x26;" horiz-adv-x="1167" d="M94 422q0 281 217 399q-41 70 -57 145.5t-16 174.5q0 199 88 300t262 101q63 0 131.5 -19.5t154.5 -60.5v-12l-22 -49h-10q-78 39 -137.5 55.5t-116.5 16.5q-281 0 -281 -332q0 -88 20.5 -163t64.5 -142.5t117 -133t177 -135.5l234 -159q29 127 28 292v134h70v-134 q0 -98 -9.5 -181t-25.5 -154l139 -95v-12l-30 -43h-13l-116 78q-107 -318 -443 -318q-201 0 -313.5 118t-112.5 329zM164 422q0 -176 95 -276.5t261 -100.5q289 0 381 289l-256 176q-104 70 -176 131t-119 123q-186 -104 -186 -342z" />
<glyph unicode="'" horiz-adv-x="309" d="M129 983v672h70v-8l-35 -664h-35z" />
<glyph unicode="(" horiz-adv-x="507" d="M86 725q0 289 80 558t233 495h66v-9q-150 -221 -227.5 -486t-77.5 -558t77.5 -558t227.5 -486v-9h-66q-154 225 -233.5 494.5t-79.5 558.5z" />
<glyph unicode=")" horiz-adv-x="507" d="M43 -319q150 221 227.5 486t77.5 558t-77.5 558t-227.5 486v9h66q154 -225 233.5 -494.5t79.5 -558.5t-80 -558t-233 -495h-66v9z" />
<glyph unicode="*" horiz-adv-x="958" d="M86 1403l20 65l166 -51l191 -82l-19 209v172h70v-172l-18 -209l190 82l166 51l20 -65l-163 -51l-203 -47l137 -158l100 -141l-55 -39l-100 139l-109 182l-108 -182l-101 -139l-55 39l100 141l138 158l-203 47z" />
<glyph unicode="+" horiz-adv-x="942" d="M98 723v70h338v358h70v-358h338v-70h-338v-358h-70v358h-338z" />
<glyph unicode="," horiz-adv-x="350" d="M47 -297l96 420h78l-115 -440z" />
<glyph unicode="-" horiz-adv-x="618" d="M123 539v69h373v-69h-373z" />
<glyph unicode="." horiz-adv-x="368" d="M121 61q0 66 63 66q29 0 47.5 -18.5t18.5 -47.5t-18.5 -46t-47.5 -17q-63 0 -63 63z" />
<glyph unicode="/" horiz-adv-x="534" d="M68 -248l327 1764h72l-328 -1764h-71z" />
<glyph unicode="0" horiz-adv-x="1048" d="M104 756q0 387 105.5 583.5t314.5 196.5t314.5 -196.5t105.5 -583.5q0 -385 -105.5 -580.5t-314.5 -195.5t-314.5 194.5t-105.5 581.5zM174 756q0 -707 350 -707q174 0 262 178.5t88 528.5t-89 530t-261 180t-261 -180t-89 -530z" />
<glyph unicode="1" horiz-adv-x="604" d="M45 1239v8l348 269h39v-1516h-70v1403h-6l-264 -209h-10z" />
<glyph unicode="2" horiz-adv-x="829" d="M86 0v172q0 92 17.5 172t55.5 151.5t98 140.5t146 138q70 57 119 108.5t80 100.5t44 99.5t13 107.5q0 133 -68.5 203.5t-197.5 70.5q-47 0 -106.5 -11t-145.5 -40l-18 68q152 53 270 53q166 0 251 -87t85 -257q0 -66 -14.5 -123t-47 -112.5t-87 -112t-131.5 -121.5 q-82 -70 -137.5 -132.5t-90.5 -127t-50 -135t-15 -154.5v-102h575v-70h-645z" />
<glyph unicode="3" horiz-adv-x="794" d="M92 1503q119 33 215 33q164 0 256 -100.5t92 -280.5q0 -141 -62.5 -235.5t-176.5 -126.5v-5q281 -70 280 -411q0 -184 -104.5 -287.5t-290.5 -103.5q-47 0 -98 6t-99 20v64h17q80 -25 180 -25q152 0 239 86t87 240q0 184 -101.5 280.5t-296.5 96.5h-24v69h26 q164 0 259.5 89t95.5 243q0 152 -73 231.5t-210 79.5q-74 0 -172 -24h-20z" />
<glyph unicode="4" horiz-adv-x="944" d="M45 424v8l510 1104h14l45 -20v-11l-481 -1034v-12h531v51l20 573h49v-624h156v-66h-156v-393h-69v393h-580z" />
<glyph unicode="5" horiz-adv-x="776" d="M98 4v64h21q106 -25 178 -25q154 0 235.5 99.5t81.5 285.5q0 197 -91 282t-298 85h-98l-8 8l51 713h475v-70h-409l-43 -582q135 -2 230 -26.5t153.5 -75.5t85 -133t26.5 -201q0 -217 -101.5 -336t-289.5 -119q-94 0 -199 31z" />
<glyph unicode="6" horiz-adv-x="966" d="M102 664q0 207 35 369.5t100.5 275t160 172t214.5 59.5q90 0 195 -33v-73q-55 20 -100 28t-95 8q-96 0 -174 -49t-134 -141t-90 -224t-40 -300q76 72 165 113.5t169 41.5q176 0 277.5 -115.5t101.5 -320.5q0 -113 -28 -205t-77 -157.5t-118.5 -101.5t-153.5 -36 q-408 0 -408 689zM172 664q0 -315 83 -467t255 -152q70 0 126 30.5t96 87t62.5 136.5t22.5 176q0 174 -82 270.5t-227 96.5q-82 0 -172 -46t-164 -124v-8z" />
<glyph unicode="7" horiz-adv-x="684" d="M53 1507v9h570l18 -37v-60l-446 -1423l-17 -14l-49 18v23l453 1423h-519z" />
<glyph unicode="8" horiz-adv-x="960" d="M100 373q0 156 59.5 256t188.5 159q-111 57 -161 145.5t-50 223.5q0 180 90 278.5t254 98.5t253 -98.5t89 -278.5q0 -154 -52 -248t-163 -145q135 -59 193.5 -151.5t58.5 -239.5q0 -86 -26.5 -157t-76.5 -120t-120 -75.5t-156 -26.5q-174 0 -277.5 102.5t-103.5 276.5z M170 373q0 -139 86 -224.5t225 -85.5t224.5 84t85.5 226q0 76 -15.5 133t-50.5 100t-93.5 74t-144.5 55l-65 21q-72 -31 -120 -67t-76.5 -81t-42 -102t-13.5 -133zM207 1157q0 -72 16.5 -127t52 -97t93 -75t139.5 -57l6 -2q129 49 184.5 131t55.5 227q0 147 -72 227t-201 80 t-201.5 -81t-72.5 -226z" />
<glyph unicode="9" horiz-adv-x="966" d="M80 1040q0 113 27.5 205t76.5 157.5t119 101.5t154 36q408 0 407 -688q0 -207 -34.5 -370t-100 -275.5t-160 -172t-215.5 -59.5q-90 0 -194 33v74q55 -20 100 -28.5t94 -8.5q96 0 174 49t134.5 141.5t90 224.5t40.5 300q-76 -72 -165 -114t-169 -42q-176 0 -277.5 116 t-101.5 320zM150 1040q0 -174 82 -270t227 -96q82 0 172 46t164 124v8q0 315 -83 466.5t-255 151.5q-70 0 -126.5 -30.5t-96 -87t-62 -136t-22.5 -176.5z" />
<glyph unicode=":" horiz-adv-x="374" d="M123 61q0 66 63 66q29 0 47.5 -18.5t18.5 -47.5t-18.5 -46t-47.5 -17q-63 0 -63 63zM123 1044q0 66 63 66q29 0 47.5 -18.5t18.5 -47.5t-18.5 -46t-47.5 -17q-63 0 -63 63z" />
<glyph unicode=";" horiz-adv-x="432" d="M96 -297l97 420h77l-114 -440zM164 1044q0 66 63 66q29 0 47.5 -18.5t18.5 -47.5t-18.5 -46t-47.5 -17q-63 0 -63 63z" />
<glyph unicode="&#x3c;" horiz-adv-x="964" d="M90 721v61l750 336v-78l-656 -288l650 -289v-78z" />
<glyph unicode="=" horiz-adv-x="1001" d="M129 483v70h745v-70h-745zM129 915v70h745v-70h-745z" />
<glyph unicode="&#x3e;" horiz-adv-x="964" d="M125 1040v78l749 -336v-61l-743 -336v78l647 289z" />
<glyph unicode="?" horiz-adv-x="788" d="M55 1479q61 27 134 44t147 17q68 0 137.5 -19.5t124.5 -65.5t90 -123t35 -193q0 -115 -40 -191t-100.5 -125t-131 -78.5t-134.5 -48.5l2 -342v-41h-69v41l-2 400q59 16 130 39.5t132 66.5t102 109.5t41 169.5q0 94 -28.5 158.5t-74.5 102.5t-103.5 54t-112.5 16 q-63 0 -127 -15t-125 -38zM227 63q0 61 60 62q29 0 45 -16.5t16 -45.5t-16 -44t-45 -15q-59 0 -60 59z" />
<glyph unicode="@" horiz-adv-x="1566" d="M94 537q0 209 52.5 367.5t147.5 266t225 161.5t288 54q178 0 302 -54t202 -153.5t112.5 -238.5t34.5 -311q0 -117 -18.5 -213.5t-55 -165t-94 -105t-133.5 -36.5q-37 0 -69.5 7t-59.5 28.5t-45 58.5t-25 96h-10q-31 -49 -69.5 -83t-79.5 -55.5t-79 -30.5t-67 -9 q-72 0 -119 30.5t-75.5 81t-39.5 114t-11 126.5q0 115 30.5 214t89 172t141.5 114t185 41q111 0 258 -62l-70 -436q-8 -43 -14 -89t-6 -87q0 -68 27.5 -115t107.5 -47q117 0 174.5 123t57.5 328q0 156 -32 282.5t-100.5 217t-179 139.5t-270.5 49q-141 0 -259 -50 t-204 -148.5t-133 -245t-47 -336.5q0 -213 51 -355.5t135 -229.5t190.5 -124t217.5 -37q92 0 181 18.5t171 47.5l25 -66q-86 -29 -182.5 -49.5t-194.5 -20.5q-123 0 -243 40t-213 135.5t-150.5 252t-57.5 388.5zM477 473q0 -51 8.5 -102.5t29 -91t54 -64.5t84.5 -25 q35 0 83 14.5t96.5 53.5t87 103.5t55.5 166.5l61 379q-47 16 -94 26.5t-88 10.5q-88 0 -157.5 -36t-119 -99.5t-75 -149.5t-25.5 -186z" />
<glyph unicode="A" horiz-adv-x="1062" d="M20 0v12l469 1504h84l469 -1504v-12h-67l-160 510h-567l-160 -510h-68zM268 580h525l-193 620l-68 230h-4l-65 -230z" />
<glyph unicode="B" horiz-adv-x="1101" d="M166 10v1499q68 8 117 13.5t88 8.5t72.5 4t70.5 1q229 0 339 -98.5t110 -302.5q0 -150 -64.5 -242t-183.5 -115v-8q137 -18 217 -118.5t80 -260.5q0 -411 -459 -411q-45 0 -99.5 2t-108.5 7t-101 10t-78 11zM236 63q16 -4 53 -8t83 -7t94 -5t87 -2q385 2 385 350 q0 180 -101.5 261t-332.5 81h-268v-670zM236 803h266q106 0 180 17.5t120 57.5t66.5 102t20.5 155q0 172 -91 253.5t-284 81.5q-76 0 -140.5 -4t-137.5 -14v-649z" />
<glyph unicode="C" horiz-adv-x="987" d="M100 756q0 211 34 358.5t108.5 240.5t192.5 135t286 42q41 0 91 -3t106 -11v-70q-29 6 -81.5 10t-107.5 4q-152 0 -257 -38t-172 -122.5t-96.5 -219t-29.5 -326.5q0 -369 130 -538t415 -169q12 0 35.5 1t51.5 3t57.5 4t54.5 6v-67q-47 -10 -87 -13t-106 -3 q-166 2 -284.5 47t-193.5 139t-111 240.5t-36 349.5z" />
<glyph unicode="D" horiz-adv-x="1148" d="M166 -23v1522q90 18 161.5 27.5t133.5 9.5q299 0 444.5 -192.5t145.5 -587.5q0 -410 -164 -601.5t-514 -191.5q-53 0 -103.5 3t-103.5 11zM236 45q41 -4 76.5 -7t66.5 -3q598 0 598 721q0 365 -128 537.5t-398 172.5q-53 0 -106.5 -5t-108.5 -15v-1401z" />
<glyph unicode="E" horiz-adv-x="997" d="M166 0v1516h733v-70h-663v-641h595v-70h-595v-665h682v-70h-752z" />
<glyph unicode="F" d="M166 0v1516h692v-70h-622v-641h589v-70h-589v-735h-70z" />
<glyph unicode="G" horiz-adv-x="1107" d="M100 756q0 211 34 358.5t108.5 240.5t192.5 135t286 42q23 0 54.5 -2t68.5 -6t74.5 -9.5t72.5 -11.5v-69q-68 14 -136.5 21t-125.5 7q-152 0 -257 -38t-172 -122.5t-96.5 -219t-29.5 -326.5q0 -369 130 -538t415 -169q29 0 83 4t113 10v707h70v-766q-80 -14 -137 -19 t-123 -5q-166 2 -284.5 47t-193.5 139t-111 240.5t-36 349.5z" />
<glyph unicode="H" horiz-adv-x="1230" d="M166 0v1516h70v-709h759v709h70v-1516h-70v737h-759v-737h-70z" />
<glyph unicode="I" horiz-adv-x="401" d="M166 0v1516h70v-1516h-70z" />
<glyph unicode="J" horiz-adv-x="401" d="M-4 -326q53 113 87 198t53.5 162t26.5 155.5t7 179.5v1147h70v-1147q0 -190 -47.5 -365.5t-147.5 -361.5z" />
<glyph unicode="K" horiz-adv-x="1095" d="M166 0v1516h70v-711h182l536 711h88l-518 -687l-49 -51v-8l53 -47l555 -723h-84l-565 735h-198v-735h-70z" />
<glyph unicode="L" horiz-adv-x="790" d="M166 0v1516h70v-1446h530v-70h-600z" />
<glyph unicode="M" horiz-adv-x="1552" d="M166 0v1516h82l459 -1192l65 -181h8l66 181l459 1192h81v-1516h-69v1343l-8 3l-72 -199l-416 -1084h-90l-416 1084l-71 199l-8 -3v-1343h-70z" />
<glyph unicode="N" horiz-adv-x="1310" d="M166 0v1516h82l723 -1221l96 -174l8 2v1393h70v-1516h-84l-715 1208l-102 185l-8 -2v-1391h-70z" />
<glyph unicode="O" horiz-adv-x="1200" d="M100 756q0 395 123 587.5t377 192.5q500 0 500 -780q0 -776 -500 -776t-500 776zM170 756q0 -369 102.5 -538t327.5 -169q223 0 326.5 170t103.5 537q0 362 -105.5 536t-324.5 174q-223 0 -326.5 -171t-103.5 -539z" />
<glyph unicode="P" horiz-adv-x="1019" d="M166 0v1505q82 16 151.5 25.5t135.5 9.5q256 0 376.5 -123t120.5 -387q0 -268 -127 -391t-403 -123q-41 0 -87 2t-97 8v-526h-70zM236 600q53 -6 105 -10t101 -4q225 0 332 107.5t107 336.5q0 227 -101.5 333.5t-314.5 106.5q-49 0 -106.5 -6t-122.5 -16v-848z" />
<glyph unicode="Q" horiz-adv-x="1196" d="M96 756q0 395 123 587.5t377 192.5q500 0 500 -780q0 -776 -500 -776v-9q72 -29 205 -50t293 -40l4 -71q-268 39 -458.5 93t-311.5 156.5t-176.5 268.5t-55.5 428zM166 756q0 -369 102.5 -538t327.5 -169q223 0 326.5 170t103.5 537q0 362 -105.5 536t-324.5 174 q-223 0 -326.5 -171t-103.5 -539z" />
<glyph unicode="R" horiz-adv-x="1048" d="M166 0v1505q80 16 150.5 25.5t136.5 9.5q258 0 377.5 -115.5t119.5 -363.5q0 -186 -67.5 -297t-214.5 -156l293 -608h-76l-285 592q-41 -8 -85 -11t-95 -3q-47 0 -92 3t-92 7v-588h-70zM236 662q59 -8 110 -11.5t96 -3.5q227 0 333 99.5t106 314.5q0 211 -100.5 310 t-315.5 99q-45 0 -101.5 -6t-127.5 -16v-786z" />
<glyph unicode="S" d="M72 39l16 65q27 -12 71 -23t94 -20.5t101.5 -14.5t94.5 -5q160 0 247.5 84t87.5 237q0 61 -18 113.5t-59 97.5t-104.5 85t-153.5 79q-96 41 -164 83t-109 88t-59.5 101.5t-18.5 123.5q0 92 30 167.5t84 129t130 83t168 29.5q70 0 141.5 -9t157.5 -28l-16 -69 q-94 20 -162 28.5t-121 8.5q-78 0 -140.5 -25t-107.5 -69t-69.5 -107.5t-24.5 -138.5q0 -57 15.5 -102.5t52 -84.5t96 -73.5t145.5 -69.5q104 -43 177 -88t117 -97.5t63.5 -114t19.5 -141.5q0 -184 -107.5 -287.5t-297.5 -103.5q-43 0 -95.5 5.5t-104.5 14.5t-98.5 21.5 t-78.5 26.5z" />
<glyph unicode="T" horiz-adv-x="915" d="M25 1446v70h864v-70h-397v-1446h-70v1446h-397z" />
<glyph unicode="U" horiz-adv-x="1265" d="M154 598v918h69v-922q0 -285 98.5 -415t311.5 -130t311 130t98 415v922h70v-918q0 -164 -27.5 -280.5t-86 -191.5t-148.5 -110.5t-217 -35.5t-217 35.5t-148.5 110.5t-86 191.5t-27.5 280.5z" />
<glyph unicode="V" horiz-adv-x="1097" d="M16 1516h72l381 -1178l76 -248h8l76 248l381 1178h71l-489 -1516h-86z" />
<glyph unicode="W" horiz-adv-x="1722" d="M39 1516h74l272 -1135l66 -293h8l71 293l297 1135h88l273 -1135l65 -293h9l71 293l297 1135h70l-397 -1516h-97l-286 1190l-48 219h-8l-53 -219l-311 -1190h-97z" />
<glyph unicode="X" horiz-adv-x="1081" d="M31 0l465 762l-463 754h82l403 -656l23 -47h4l22 47l400 656h82l-463 -762l465 -754h-84l-404 655l-22 47h-4l-23 -47l-399 -655h-84z" />
<glyph unicode="Y" horiz-adv-x="1009" d="M8 1516h74l364 -795l56 -141h4l55 141l365 795h73l-458 -1004v-512h-70v504z" />
<glyph unicode="Z" horiz-adv-x="913" d="M61 0v45l689 1393v8h-680v70h774v-43l-690 -1397v-8h698v-68h-791z" />
<glyph unicode="[" horiz-adv-x="550" d="M158 -328v2106h334v-70h-265v-1966h265v-70h-334z" />
<glyph unicode="\" horiz-adv-x="518" d="M68 1516h55l328 -1762h-56z" />
<glyph unicode="]" horiz-adv-x="550" d="M59 -258h265v1966h-265v70h334v-2106h-334v70z" />
<glyph unicode="^" horiz-adv-x="675" d="M90 985l232 631h32l232 -631h-56l-188 547h-8l-191 -547h-53z" />
<glyph unicode="_" horiz-adv-x="962" d="M90 -123h782v-67h-782v67z" />
<glyph unicode="`" horiz-adv-x="417" d="M80 1634h74l151 -364l-47 -21z" />
<glyph unicode="a" horiz-adv-x="851" d="M70 260q0 299 379 330l200 16v172q0 143 -59.5 210t-188.5 67q-51 0 -116.5 -10.5t-128.5 -26.5l-13 69q72 16 145.5 25.5t127.5 9.5q303 0 303 -344v-778h-60l-12 133h-8q-35 -25 -73 -50.5t-79 -46t-85 -33.5t-89 -13q-117 0 -180 70.5t-63 199.5zM143 266 q1 -205 187 -205q43 0 88 17.5t87 41t80 49.5t64 42v328l-188 -15q-172 -12 -245 -73.5t-73 -184.5z" />
<glyph unicode="b" horiz-adv-x="937" d="M139 20v1635h70v-660q49 59 124 94t161 35q176 0 265 -139t89 -414q0 -113 -22.5 -218t-75 -187t-139.5 -133t-218 -53q-115 0 -254 40zM209 72q59 -10 107 -16.5t85 -6.5q182 0 277.5 133t95.5 389q0 238 -71.5 361t-213.5 123q-49 0 -99 -15.5t-90 -41t-65.5 -56.5 t-25.5 -61v-809z" />
<glyph unicode="c" horiz-adv-x="745" d="M92 553q0 285 101.5 429t302.5 144q31 0 69.5 -5t104.5 -17v-70q-51 12 -92 17.5t-82 5.5q-170 0 -250 -122t-80 -384q0 -256 81 -379t249 -123q57 0 174 25v-70q-41 -10 -89 -17t-85 -7q-205 0 -304.5 140t-99.5 433z" />
<glyph unicode="d" horiz-adv-x="940" d="M90 555q0 268 114.5 418.5t321.5 150.5q47 0 92.5 -5t110.5 -15v551h70v-1655h-60l-10 111h-6q-98 -129 -272 -129q-184 0 -272.5 140t-88.5 433zM164 553q0 -240 73.5 -371t208.5 -131q49 0 99.5 15.5t91.5 41t66.5 56.5t25.5 61v807q-72 12 -115 17.5t-88 5.5 q-174 0 -268 -130t-94 -372z" />
<glyph unicode="e" horiz-adv-x="868" d="M90 528q0 291 99.5 443.5t287.5 152.5q150 0 229.5 -116.5t79.5 -337.5q0 -49 -2 -81t-6 -65h-614q4 -227 88 -350t237 -123q66 0 121.5 15.5t120.5 50.5l10 -72q-115 -63 -252 -63q-190 0 -294.5 143t-104.5 403zM164 594h549q0 129 -14.5 217t-44 142.5t-74 78 t-103.5 23.5q-141 0 -222 -120t-91 -341z" />
<glyph unicode="f" horiz-adv-x="483" d="M33 1042v64h155v92q0 123 14.5 206t51.5 135t97.5 79t152.5 37v-64q-74 -10 -122 -30.5t-75.5 -64.5t-38 -115.5t-10.5 -182.5v-92h199v-64h-199v-1042h-70v1042h-155z" />
<glyph unicode="g" horiz-adv-x="937" d="M90 555q0 268 114.5 418.5t321.5 150.5q80 0 141.5 -9t131.5 -32v-964q0 -301 -87 -435.5t-286 -134.5q-129 0 -240 48l9 71q61 -27 115.5 -38t115.5 -11q80 0 136 25.5t93 80t55.5 140.5t20.5 207v39h-8q-98 -129 -272 -129q-184 0 -272.5 140t-88.5 433zM164 553 q0 -240 73.5 -371t208.5 -131q49 0 99.5 15.5t91.5 41t66.5 56.5t25.5 61v807q-74 12 -117 17.5t-86 5.5q-174 0 -268 -130t-94 -372z" />
<glyph unicode="h" horiz-adv-x="929" d="M141 0v1655h70v-668h8q90 66 180 102.5t168 36.5q63 0 107.5 -14t71 -48t38 -89t11.5 -137v-838h-70v838q0 119 -36 169t-122 50q-160 0 -356 -137v-920h-70z" />
<glyph unicode="i" horiz-adv-x="356" d="M119 1460q0 61 59 62q29 0 45.5 -16.5t16.5 -45.5t-16.5 -44t-45.5 -15q-59 0 -59 59zM143 0v1106h70v-1106h-70z" />
<glyph unicode="j" horiz-adv-x="352" d="M-20 -412q84 139 123.5 292t39.5 345v881h70v-916q0 -172 -47 -335.5t-137 -305.5zM119 1460q0 61 59 62q29 0 45.5 -16.5t16.5 -45.5t-16.5 -44t-45.5 -15q-59 0 -59 59z" />
<glyph unicode="k" horiz-adv-x="839" d="M141 0v1655h70v-1055h166l342 506h80l-350 -518l-25 -21v-4l27 -22l380 -541h-79l-379 535h-162v-535h-70z" />
<glyph unicode="l" horiz-adv-x="364" d="M147 0v1655h70v-1655h-70z" />
<glyph unicode="m" horiz-adv-x="1501" d="M141 0v1106h58l8 -119h6q90 66 180 102.5t168 36.5q96 0 145.5 -32.5t67.5 -110.5h8q92 70 184.5 106.5t172.5 36.5q63 0 107 -14t70.5 -48t38 -89t11.5 -137v-838h-70v838q0 119 -35.5 169t-121.5 50q-78 0 -167 -34t-184 -99v-924h-69v838q0 119 -36 169t-122 50 q-164 0 -350 -133v-924h-70z" />
<glyph unicode="n" horiz-adv-x="929" d="M141 0v1106h62l8 -119h8q90 66 180 102.5t168 36.5q63 0 107.5 -14t71 -48t38 -89t11.5 -137v-838h-70v838q0 119 -36 169t-122 50q-160 0 -356 -137v-920h-70z" />
<glyph unicode="o" horiz-adv-x="958" d="M90 553q0 281 99.5 427t289.5 146q193 0 291 -146t98 -427t-98 -425t-291 -144t-291 144t-98 425zM164 553q0 -500 315 -500t316 500q0 504 -316 504q-315 0 -315 -504z" />
<glyph unicode="p" horiz-adv-x="940" d="M141 -451v1557h62l8 -111h8q49 59 120 94t157 35q176 0 265 -139t89 -414q0 -111 -22.5 -216t-75 -189t-139.5 -135t-218 -51q-84 0 -184 22v-453h-70zM211 72q59 -10 107 -16.5t85 -6.5q182 0 277.5 133t95.5 389q0 238 -71.5 361t-212.5 123q-49 0 -99.5 -15.5 t-90.5 -41t-65.5 -56.5t-25.5 -61v-809z" />
<glyph unicode="q" horiz-adv-x="937" d="M90 555q0 268 114.5 418.5t321.5 150.5q82 0 143.5 -9t129.5 -32v-1534h-68v562q-111 -129 -280 -129q-184 0 -272.5 140t-88.5 433zM164 553q0 -240 73.5 -371t208.5 -131q49 0 99.5 15.5t91.5 41t66.5 56.5t25.5 61v807q-80 14 -122 18.5t-81 4.5q-174 0 -268 -130 t-94 -372z" />
<glyph unicode="r" horiz-adv-x="583" d="M141 0v1106h62l8 -119h8q49 39 132 75t186 62h22v-86h-27q-209 -37 -321 -118v-920h-70z" />
<glyph unicode="s" horiz-adv-x="706" d="M80 14v76q66 -20 129 -31.5t113 -11.5q115 0 174 62.5t59 173.5q0 98 -45 157.5t-150 89.5q-47 14 -95 32t-87 50.5t-62.5 87t-23.5 142.5q0 133 82 212t219 79q23 0 42.5 -1.5t43 -5.5t51 -10t68.5 -14v-74q-119 33 -203 33q-109 0 -168 -56.5t-59 -162.5 q0 -63 16.5 -102.5t45 -65t67.5 -42t86 -30.5q137 -45 193.5 -116.5t56.5 -202.5q0 -145 -83 -226.5t-210 -81.5q-51 0 -107.5 8.5t-152.5 30.5z" />
<glyph unicode="t" horiz-adv-x="638" d="M27 1036v70h215l10 256l57 16v-272h312v-70h-312v-760q0 -104 48.5 -159.5t140.5 -55.5q23 0 56.5 4.5t55.5 10.5v-70q-72 -14 -121 -14q-250 0 -249 284v760h-213z" />
<glyph unicode="u" d="M133 268v838h70v-838q0 -219 178 -219q76 0 156.5 36t179.5 108v913h69v-1106h-61l-8 119h-8q-98 -72 -178 -105.5t-150 -33.5q-135 0 -191.5 65.5t-56.5 222.5z" />
<glyph unicode="v" horiz-adv-x="882" d="M33 1100v6h69l306 -936l30 -96h8l31 96l305 936h70v-6l-356 -1100h-109z" />
<glyph unicode="w" horiz-adv-x="1310" d="M45 1098v8h68l200 -821l37 -179h8l45 179l220 821h65l219 -821l45 -179h9l36 179l201 821h68v-8l-271 -1098h-77l-230 860l-29 113h-8l-28 -113l-230 -860h-78z" />
<glyph unicode="x" horiz-adv-x="884" d="M25 0v8l374 563l-350 525v10h76l276 -414l41 -65h4l41 65l273 414h76v-10l-351 -531l375 -557v-8h-80l-297 449l-41 61h-4l-39 -61l-295 -449h-79z" />
<glyph unicode="y" horiz-adv-x="880" d="M33 1100v6h69l308 -897l30 -113h4l31 113l305 897h70v-6l-522 -1551l-68 15v8l148 432z" />
<glyph unicode="z" horiz-adv-x="774" d="M61 0v43l533 989v8h-512v66h610v-41l-536 -991v-8h557v-66h-652z" />
<glyph unicode="{" horiz-adv-x="684" d="M41 711v53q78 0 123 61.5t45 169.5v574q0 61 9 101t33.5 64.5t65.5 34t103 9.5q20 0 52 -1t62.5 -3t55 -3.5t31.5 -3.5v-59h-220q-72 0 -97 -24.5t-25 -94.5v-604q0 -90 -30 -155.5t-79 -92.5q49 -27 79 -93t30 -155v-604q0 -70 25.5 -94t96.5 -24h220v-60q-6 -2 -31 -4 t-55.5 -3t-62.5 -2t-52 -1q-61 0 -102.5 9t-66 33.5t-33.5 64.5t-9 102v573q0 109 -45 170.5t-123 61.5z" />
<glyph unicode="|" horiz-adv-x="385" d="M158 -451v2106h69v-2106h-69z" />
<glyph unicode="}" horiz-adv-x="681" d="M63 -233h220q72 0 97.5 24.5t25.5 93.5v604q0 88 29.5 155t78.5 93q-49 27 -78.5 92.5t-29.5 155.5v604q0 70 -26 94.5t-97 24.5h-220v59q6 2 31 3.5t55.5 3.5t62.5 3t52 1q61 0 102.5 -9.5t66 -34t33.5 -64.5t9 -101v-574q0 -109 45 -170t123 -61v-53q-78 0 -123 -61.5 t-45 -170.5v-573q0 -61 -9 -101.5t-33.5 -65t-65.5 -33.5t-103 -9q-20 0 -52 1t-62.5 2t-55 3t-31.5 4v60z" />
<glyph unicode="~" horiz-adv-x="983" d="M127 594q76 94 127 130t113 36q43 0 76.5 -23.5t62.5 -53.5t59.5 -53.5t67.5 -23.5q47 0 93 39t65 94l65 -24q-14 -37 -37.5 -70t-54.5 -57.5t-64.5 -37.5t-66.5 -13q-49 0 -86 23.5t-67.5 53t-57.5 53t-55 23.5q-43 0 -85 -31.5t-102 -109.5z" />
<glyph unicode="&#xa1;" horiz-adv-x="362" d="M129 1034q0 60 59 60q29 0 45.5 -15.5t16.5 -44.5t-16.5 -45t-45.5 -16q-59 0 -59 61zM145 -389l11 1165v29h49v-29l10 -1165v-21h-70v21z" />
<glyph unicode="&#xa2;" horiz-adv-x="782" d="M94 553q0 262 86 405.5t260 163.5v232h70v-228q29 -2 65.5 -7t96.5 -15v-70q-51 12 -92 17.5t-82 5.5q-170 0 -250 -122t-80 -384q0 -256 81 -379t249 -123q57 0 174 25v-70q-39 -10 -83 -16t-79 -8v-224h-70v228q-176 18 -261 157.5t-85 411.5z" />
<glyph unicode="&#xa3;" horiz-adv-x="987" d="M88 0v70h219v645h-219v69h219v297q0 227 74 335t250 108q115 0 272 -60l-20 -65q-147 55 -250 55q-139 0 -197.5 -86t-58.5 -287v-297h346v-69h-346v-645h497v-70h-786z" />
<glyph unicode="&#xa4;" horiz-adv-x="1054" d="M104 397l107 117l108 68q-23 80 -22 176q0 96 22 176l-108 67l-107 117l62 62l117 -107l55 -90q31 70 81 108.5t113 38.5q59 0 106.5 -38.5t76.5 -106.5l55 88l117 107l61 -62l-106 -117l-111 -67q23 -80 23 -176t-23 -176l111 -68l106 -117l-61 -61l-117 106l-55 90 q-29 -72 -78 -110.5t-111 -38.5q-63 0 -111 38t-79 109l-53 -88l-117 -106zM369 758q0 -137 43 -214t114 -77q72 0 114 75.5t42 215.5q0 145 -43 217t-113 72q-72 0 -114.5 -74t-42.5 -215z" />
<glyph unicode="&#xa5;" horiz-adv-x="1081" d="M45 1516h74l364 -795l56 -141h4l55 141l365 795h73l-432 -945h279v-65h-305v-199h305v-65h-305v-242h-70v242h-301v65h301v197l-2 2h-299v65h270z" />
<glyph unicode="&#xa6;" horiz-adv-x="356" d="M143 416h70v-867h-70v867zM143 788v867h70v-867h-70z" />
<glyph unicode="&#xa7;" horiz-adv-x="759" d="M106 14v70q66 -18 129.5 -28.5t120.5 -10.5q106 0 168 63.5t62 174.5q0 100 -47 159.5t-152 89.5q-47 14 -95 31t-87 49.5t-62.5 87t-23.5 142.5q0 117 63 192q-29 33 -46 82t-17 125q0 133 82 212t219 79q23 0 42 -1t42.5 -5t51.5 -10.5t69 -14.5v-69q-76 18 -118 24 t-83 6q-109 0 -172.5 -59.5t-63.5 -161.5q0 -66 18.5 -105.5t49.5 -65.5t71 -41t83 -30q68 -23 114.5 -51t76.5 -65t42 -86t12 -115q0 -57 -15 -105.5t-44 -89.5q59 -74 59 -204q0 -68 -21.5 -124.5t-60 -97.5t-91 -63.5t-115.5 -22.5q-51 0 -107.5 8.5t-153.5 30.5z M188 842q0 -66 18.5 -106t49.5 -65.5t71 -41t83 -29.5q84 -28 137 -65q39 61 39 147q0 100 -47 159.5t-152 90.5q-39 10 -76 22.5t-71 32.5q-51 -57 -52 -145z" />
<glyph unicode="&#xa8;" horiz-adv-x="727" d="M121 1358q0 29 16.5 42t40.5 13q23 0 39 -13.5t16 -41.5q0 -29 -16 -42t-39 -13q-25 0 -41 13t-16 42zM453 1358q0 29 16 42t41 13q23 0 39 -13.5t16 -41.5q0 -29 -16 -42t-39 -13q-25 0 -41 13t-16 42z" />
<glyph unicode="&#xa9;" horiz-adv-x="1712" d="M94 758q0 176 55.5 319.5t154.5 245.5t239.5 158.5t312.5 56.5t312.5 -56.5t239.5 -158.5t154.5 -245.5t55.5 -319.5t-55.5 -319.5t-154.5 -246t-239.5 -159t-312.5 -56.5t-312.5 56.5t-239.5 159t-154.5 246t-55.5 319.5zM164 758q0 -160 50 -291t140 -224t218 -144.5 t284 -51.5t284 51.5t218 144.5t140 224t50 291t-50 291t-140 224t-218 144t-284 51t-284 -51t-218 -144t-140 -224t-50 -291zM514 748q0 213 103.5 318t271.5 105q43 0 86 -5t84 -13v-72q-37 8 -80 13.5t-86 5.5q-139 0 -222 -87t-83 -265q0 -88 22.5 -153t62.5 -108 t96 -63.5t122 -20.5q43 0 87 6.5t85 14.5v-68q-84 -22 -174 -22q-168 0 -271.5 102.5t-103.5 311.5z" />
<glyph unicode="&#xaa;" horiz-adv-x="720" d="M90 913q0 98 67.5 162t198.5 80l168 19v96q0 98 -42 142t-152 44q-23 0 -61 -3t-111 -17l-11 69q76 12 128.5 17.5t82.5 5.5q123 0 179.5 -60.5t56.5 -193.5v-553h-55l-7 96h-8q-86 -55 -141.5 -79.5t-106.5 -24.5q-86 0 -136 55t-50 145zM152 922q0 -144 133 -144 q47 0 99 20.5t140 73.5v232l-90 -4q-160 -14 -221 -53t-61 -125z" />
<glyph unicode="&#xab;" horiz-adv-x="806" d="M82 549v8l192 487h74l-192 -487v-8l192 -488h-74zM453 549v8l192 487h74l-193 -487v-8l193 -488h-74z" />
<glyph unicode="&#xac;" horiz-adv-x="1409" d="M121 788v70h1155v-606h-70v536h-1085z" />
<glyph unicode="&#xad;" horiz-adv-x="618" d="M123 539v69h373v-69h-373z" />
<glyph unicode="&#xae;" horiz-adv-x="1443" d="M92 911q0 135 47 251t131 201t200 132t251 47t250.5 -47t200.5 -132t132.5 -200.5t47.5 -251.5q0 -135 -47.5 -250.5t-132.5 -199.5t-200.5 -131t-250.5 -47t-251 47t-200 131t-131 199.5t-47 250.5zM162 911q0 -121 42 -223t116.5 -177t177 -117t223.5 -42t224.5 42 t178 117t116.5 177.5t42 222.5q0 121 -42 224.5t-116.5 178.5t-178 117t-224.5 42t-223.5 -42t-177 -117t-116.5 -178.5t-42 -224.5zM489 565v709q55 8 102.5 12t86.5 4q168 0 247 -54t79 -171q0 -80 -41 -133t-119 -76l-2 -8l190 -283h-86l-182 273l-205 4v-277h-70z M559 911q23 -2 58.5 -3t70.5 -1q121 0 183.5 39t62.5 119q0 84 -58.5 120t-189.5 36q-29 0 -57.5 -3.5t-69.5 -7.5v-299z" />
<glyph unicode="&#xaf;" horiz-adv-x="677" d="M104 1337v70h469v-70h-469z" />
<glyph unicode="&#xb0;" horiz-adv-x="759" d="M92 1147q0 84 20.5 155.5t59.5 124t91 81t118 28.5q63 0 116.5 -28.5t91.5 -81t58.5 -124t20.5 -155.5t-20.5 -155.5t-58.5 -123t-91.5 -80t-116.5 -28.5q-66 0 -118 28.5t-91 80t-59.5 123t-20.5 155.5zM154 1147q0 -141 58 -229.5t169 -88.5t168 88.5t57 229.5t-57 230 t-168 89q-55 0 -97 -23.5t-72 -66.5t-44 -101t-14 -128z" />
<glyph unicode="&#xb1;" horiz-adv-x="1015" d="M135 231v70h746v-70h-746zM135 846v69h338v359h70v-359h338v-69h-338v-359h-70v359h-338z" />
<glyph unicode="&#xb2;" horiz-adv-x="647" d="M76 614v136q0 135 55 238.5t178 205.5q98 80 140.5 147.5t42.5 145.5q0 92 -47.5 141t-137.5 49q-33 0 -77 -9t-111 -32l-19 68q63 23 113.5 33t93.5 10q254 0 254 -260q0 -49 -11 -91t-36 -83t-64.5 -83t-95.5 -89q-113 -96 -161 -185.5t-48 -205.5v-66h418v-70h-487z " />
<glyph unicode="&#xb3;" horiz-adv-x="618" d="M76 1722q49 12 91 19.5t77 7.5q123 0 192.5 -76t69.5 -211q0 -98 -50 -166.5t-141 -97.5q219 -61 220 -301q0 -137 -79 -215t-218 -78q-72 0 -152 23v61h23q61 -16 129 -16q106 0 166.5 60.5t60.5 164.5q0 129 -71.5 196.5t-207.5 67.5h-26v70h28q115 0 181.5 62.5 t66.5 168.5q0 104 -50 160.5t-146 56.5q-53 0 -123 -18h-23z" />
<glyph unicode="&#xb4;" horiz-adv-x="401" d="M94 1262l154 372h74l-179 -385z" />
<glyph unicode="&#xb5;" horiz-adv-x="968" d="M154 -451v1557h69v-838q0 -219 178 -219q76 0 154 33t182 104v920h70v-1106h-62l-8 119h-8q-98 -72 -178 -105.5t-150 -33.5q-123 0 -178 53v-484h-69z" />
<glyph unicode="&#xb6;" horiz-adv-x="913" d="M76 1034q0 137 24.5 231.5t69.5 152t108.5 83t139.5 25.5q35 0 56.5 -5t55.5 -16v-1505h-79v545q-6 -2 -25.5 -2h-30.5q-72 0 -131 25.5t-101 83t-64.5 151.5t-22.5 231zM653 0v1505h88v-1505h-88z" />
<glyph unicode="&#xb7;" horiz-adv-x="366" d="M123 758q0 33 17.5 47t41.5 14q25 0 43.5 -15.5t18.5 -45.5q0 -31 -18.5 -46.5t-43.5 -15.5t-42 14.5t-17 47.5z" />
<glyph unicode="&#xb8;" horiz-adv-x="526" d="M51 -356q57 -25 121 -25q143 0 143 154q0 53 -19.5 116.5t-51.5 118.5h75q33 -59 49.5 -122.5t16.5 -112.5q0 -224 -213 -224q-31 0 -61.5 5.5t-59.5 15.5v74z" />
<glyph unicode="&#xb9;" horiz-adv-x="487" d="M43 1520v14l260 199h41v-1119h-70v1012l-184 -145h-14z" />
<glyph unicode="&#xba;" horiz-adv-x="782" d="M94 1118q0 209 80 310.5t219 101.5q137 0 215 -101.5t78 -310.5t-78 -310t-215 -101q-139 0 -219 101t-80 310zM160 1118q0 -98 18.5 -164.5t50 -107.5t74.5 -58.5t90 -17.5q45 0 87 17.5t74 58.5t51.5 107.5t19.5 164.5t-19.5 165t-51.5 109t-74 59t-87 17 q-47 0 -90 -17t-74.5 -59t-50 -108.5t-18.5 -165.5z" />
<glyph unicode="&#xbb;" horiz-adv-x="806" d="M88 61l193 488v8l-193 487h74l192 -487v-8l-192 -488h-74zM459 61l192 488v8l-192 487h73l193 -487v-8l-193 -488h-73z" />
<glyph unicode="&#xbc;" horiz-adv-x="1452" d="M49 1315v14l260 199h41v-1118h-69v1011l-185 -145h-14zM373 0l532 1516h72l-533 -1516h-71zM764 326l373 809h18l41 -19v-16l-348 -748h364l17 453h53v-453h113v-65h-113v-287h-70v287h-413z" />
<glyph unicode="&#xbd;" horiz-adv-x="1538" d="M49 1315v14l260 199h41v-1118h-69v1011l-185 -145h-14zM373 0l532 1516h72l-533 -1516h-71zM956 -2v135q0 66 12.5 122t40 108.5t71.5 104.5t110 110q53 45 89 81.5t56.5 69.5t28.5 65.5t8 71.5q0 92 -46 143.5t-132 51.5q-45 0 -99.5 -11.5t-95.5 -29.5l-18 67 q125 43 209 43q123 0 187.5 -66.5t64.5 -193.5q0 -49 -9.5 -88t-32 -76.5t-62.5 -80.5t-103 -101q-61 -55 -101 -101t-63.5 -91t-34 -93.5t-10.5 -105.5v-65h418v-70h-488z" />
<glyph unicode="&#xbe;" horiz-adv-x="1636" d="M96 1518q49 12 91 19t77 7q123 0 192.5 -75.5t69.5 -211.5q0 -98 -50 -166.5t-140 -97.5q219 -61 219 -301q0 -137 -79 -215t-218 -78q-72 0 -152 23v61h23q61 -16 129 -16q106 0 166.5 60.5t60.5 164.5q0 129 -71.5 196.5t-206.5 67.5h-27v70h29q115 0 181.5 62.5 t66.5 168.5q0 104 -50.5 161t-146.5 57q-53 0 -123 -19h-22zM504 0l532 1516h72l-533 -1516h-71zM950 326l373 809h18l41 -19v-16l-348 -748h365l16 453h53v-453h113v-65h-113v-287h-69v287h-414z" />
<glyph unicode="&#xbf;" horiz-adv-x="772" d="M57 -20q0 113 40 189.5t100.5 125.5t131 78.5t134.5 48.5l-2 342v41h69v-41l2 -399q-59 -16 -129.5 -40t-132 -67t-102.5 -110.5t-41 -167.5q0 -96 28.5 -160t74.5 -101.5t103.5 -54t112.5 -16.5q63 0 127 15t125 38l27 -61q-61 -27 -134 -44.5t-147 -17.5 q-68 0 -137 18.5t-124.5 64.5t-90.5 124t-35 195zM432 1055q0 29 16.5 44t45.5 15q59 0 59 -59q0 -61 -59 -62q-29 0 -45.5 16.5t-16.5 45.5z" />
<glyph unicode="&#xc0;" horiz-adv-x="1062" d="M20 0v12l469 1504h84l469 -1504v-12h-67l-160 510h-567l-160 -510h-68zM268 580h525l-193 620l-68 230h-4l-65 -230zM315 1864h78l162 -230l-66 -28z" />
<glyph unicode="&#xc1;" horiz-adv-x="1062" d="M20 0v12l469 1504h84l469 -1504v-12h-67l-160 510h-567l-160 -510h-68zM268 580h525l-193 620l-68 230h-4l-65 -230zM492 1612l161 252h78l-174 -258z" />
<glyph unicode="&#xc2;" horiz-adv-x="1062" d="M20 0v12l469 1504h84l469 -1504v-12h-67l-160 510h-567l-160 -510h-68zM268 580h525l-193 620l-68 230h-4l-65 -230zM283 1677v84l247 148l248 -148v-84l-248 148z" />
<glyph unicode="&#xc3;" horiz-adv-x="1062" d="M20 0v12l469 1504h84l469 -1504v-12h-67l-160 510h-567l-160 -510h-68zM242 1741q29 35 77 67.5t95 32.5q39 0 69.5 -13t58 -30.5t55.5 -31t60 -13.5q33 0 60.5 22.5t44.5 59.5l57 -41q-20 -47 -67 -79t-95 -32q-39 0 -69.5 13.5t-58 31t-55.5 31t-60 13.5q-35 0 -68 -25 t-55 -55zM268 580h525l-193 620l-68 230h-4l-65 -230z" />
<glyph unicode="&#xc4;" horiz-adv-x="1062" d="M20 0v12l469 1504h84l469 -1504v-12h-67l-160 510h-567l-160 -510h-68zM268 580h525l-193 620l-68 230h-4l-65 -230zM301 1726q0 33 17.5 47.5t41.5 14.5q25 0 43.5 -15.5t18.5 -46.5t-18.5 -45t-43.5 -14t-42 14.5t-17 44.5zM641 1726q0 33 18.5 47.5t42.5 14.5 q23 0 42.5 -15.5t19.5 -46.5t-19.5 -45t-42.5 -14q-25 0 -43 14.5t-18 44.5z" />
<glyph unicode="&#xc5;" horiz-adv-x="1062" d="M20 0v12l451 1442q-59 20 -90 73.5t-31 123.5q0 86 45 145t135 59t136.5 -59t46.5 -145q0 -70 -31 -122t-90 -73l450 -1444v-12h-67l-160 510h-567l-160 -510h-68zM268 580h525l-193 620l-68 230h-4l-65 -230zM420 1651q0 -57 28.5 -96t81.5 -39t83 38.5t30 96.5 q0 57 -28.5 96t-84.5 39q-55 0 -82.5 -39t-27.5 -96z" />
<glyph unicode="&#xc6;" horiz-adv-x="1478" d="M16 0v12l510 1504h852v-70h-622l28 -641h527v-70h-525l31 -665h580v-70h-649l-21 510h-469l-174 -510h-68zM281 580h442l-35 864h-113z" />
<glyph unicode="&#xc7;" horiz-adv-x="987" d="M100 756q0 211 34 358.5t108.5 240.5t192.5 135t286 42q41 0 91 -3t106 -11v-70q-29 6 -81.5 10t-107.5 4q-152 0 -257 -38t-172 -122.5t-96.5 -219t-29.5 -326.5q0 -369 130 -538t415 -169q12 0 35.5 1t51.5 3t57.5 4t54.5 6v-67q-47 -10 -87 -13t-106 -3q-8 0 -14 1 t-13 1q51 -115 52 -209q0 -224 -213 -224q-31 0 -62 5.5t-59 15.5v74q57 -25 121 -25q143 0 143 154q0 49 -16.5 105t-42.5 108q-274 29 -397.5 213t-123.5 557z" />
<glyph unicode="&#xc8;" horiz-adv-x="997" d="M166 0v1516h733v-70h-663v-641h595v-70h-595v-665h682v-70h-752zM311 1864h78l162 -230l-66 -28z" />
<glyph unicode="&#xc9;" horiz-adv-x="997" d="M166 0v1516h733v-70h-663v-641h595v-70h-595v-665h682v-70h-752zM487 1612l162 252h78l-174 -258z" />
<glyph unicode="&#xca;" horiz-adv-x="997" d="M166 0v1516h733v-70h-663v-641h595v-70h-595v-665h682v-70h-752zM279 1677v84l247 148l248 -148v-84l-248 148z" />
<glyph unicode="&#xcb;" horiz-adv-x="997" d="M166 0v1516h733v-70h-663v-641h595v-70h-595v-665h682v-70h-752zM297 1726q0 33 17.5 47.5t41.5 14.5q25 0 43.5 -15.5t18.5 -46.5t-18.5 -45t-43.5 -14t-42 14.5t-17 44.5zM637 1726q0 33 18.5 47.5t42.5 14.5q23 0 42.5 -15.5t19.5 -46.5t-19.5 -45t-42.5 -14 q-25 0 -43 14.5t-18 44.5z" />
<glyph unicode="&#xcc;" horiz-adv-x="401" d="M-8 1864h78l161 -230l-65 -28zM166 0v1516h70v-1516h-70z" />
<glyph unicode="&#xcd;" horiz-adv-x="401" d="M166 0v1516h70v-1516h-70zM168 1612l162 252h78l-175 -258z" />
<glyph unicode="&#xce;" horiz-adv-x="401" d="M-41 1677v84l248 148l248 -148v-84l-248 148zM166 0v1516h70v-1516h-70z" />
<glyph unicode="&#xcf;" horiz-adv-x="401" d="M-23 1726q0 33 17.5 47.5t42.5 14.5t43 -15.5t18 -46.5t-18 -45t-43 -14t-42.5 14.5t-17.5 44.5zM166 0v1516h70v-1516h-70zM317 1726q0 33 18.5 47.5t43.5 14.5q23 0 42 -15.5t19 -46.5t-19 -45t-42 -14q-25 0 -43.5 14.5t-18.5 44.5z" />
<glyph unicode="&#xd0;" horiz-adv-x="1167" d="M0 719v69h184v711q90 18 162 27.5t133 9.5q299 0 444.5 -192.5t145.5 -587.5q0 -410 -164 -601.5t-514 -191.5q-53 0 -103 3t-104 11v742h-184zM254 45q41 -4 76.5 -7t66.5 -3q598 0 598 721q0 365 -128 537.5t-398 172.5q-53 0 -106.5 -5t-108.5 -15v-658h334v-69h-334 v-674z" />
<glyph unicode="&#xd1;" horiz-adv-x="1310" d="M166 0v1516h82l723 -1221l96 -174l8 2v1393h70v-1516h-84l-715 1208l-102 185l-8 -2v-1391h-70zM381 1741q29 35 77 67.5t95 32.5q39 0 69.5 -13t58.5 -30.5t55.5 -31t60.5 -13.5t60.5 22.5t43.5 59.5l57 -41q-20 -47 -67 -79t-94 -32q-39 0 -70 13.5t-58.5 31t-55 31 t-60.5 13.5q-35 0 -67.5 -25t-55.5 -55z" />
<glyph unicode="&#xd2;" horiz-adv-x="1200" d="M100 756q0 395 123 587.5t377 192.5q500 0 500 -780q0 -776 -500 -776t-500 776zM170 756q0 -369 102.5 -538t327.5 -169q223 0 326.5 170t103.5 537q0 362 -105.5 536t-324.5 174q-223 0 -326.5 -171t-103.5 -539zM385 1864h78l162 -230l-66 -28z" />
<glyph unicode="&#xd3;" horiz-adv-x="1200" d="M100 756q0 395 123 587.5t377 192.5q500 0 500 -780q0 -776 -500 -776t-500 776zM170 756q0 -369 102.5 -538t327.5 -169q223 0 326.5 170t103.5 537q0 362 -105.5 536t-324.5 174q-223 0 -326.5 -171t-103.5 -539zM561 1612l162 252h78l-174 -258z" />
<glyph unicode="&#xd4;" horiz-adv-x="1200" d="M100 756q0 395 123 587.5t377 192.5q500 0 500 -780q0 -776 -500 -776t-500 776zM170 756q0 -369 102.5 -538t327.5 -169q223 0 326.5 170t103.5 537q0 362 -105.5 536t-324.5 174q-223 0 -326.5 -171t-103.5 -539zM352 1677v84l248 148l248 -148v-84l-248 148z" />
<glyph unicode="&#xd5;" horiz-adv-x="1200" d="M100 756q0 395 123 587.5t377 192.5q500 0 500 -780q0 -776 -500 -776t-500 776zM170 756q0 -369 102.5 -538t327.5 -169q223 0 326.5 170t103.5 537q0 362 -105.5 536t-324.5 174q-223 0 -326.5 -171t-103.5 -539zM311 1741q29 35 77 67.5t95 32.5q39 0 70 -13 t58.5 -30.5t55 -31t60.5 -13.5t60.5 22.5t43.5 59.5l58 -41q-20 -47 -67.5 -79t-94.5 -32q-39 0 -69.5 13.5t-58.5 31t-55.5 31t-60.5 13.5q-35 0 -67.5 -25t-55.5 -55z" />
<glyph unicode="&#xd6;" horiz-adv-x="1200" d="M100 756q0 395 123 587.5t377 192.5q500 0 500 -780q0 -776 -500 -776t-500 776zM170 756q0 -369 102.5 -538t327.5 -169q223 0 326.5 170t103.5 537q0 362 -105.5 536t-324.5 174q-223 0 -326.5 -171t-103.5 -539zM371 1726q0 33 17.5 47.5t41.5 14.5q25 0 43.5 -15.5 t18.5 -46.5t-18.5 -45t-43.5 -14t-42 14.5t-17 44.5zM711 1726q0 33 18.5 47.5t42.5 14.5q23 0 42.5 -15.5t19.5 -46.5t-19.5 -45t-42.5 -14q-25 0 -43 14.5t-18 44.5z" />
<glyph unicode="&#xd7;" horiz-adv-x="872" d="M115 487l272 273l-272 272l49 49l272 -272l273 272l49 -49l-273 -272l273 -273l-49 -49l-273 273l-272 -273z" />
<glyph unicode="&#xd8;" horiz-adv-x="1226" d="M51 0l156 225q-92 190 -92 531q0 395 122.5 587.5t376.5 192.5q244 0 369 -186l115 166h80l-158 -230q94 -195 94 -530q0 -776 -500 -776q-246 0 -370 182l-111 -162h-82zM184 756q0 -152 16.5 -266.5t51.5 -200.5l688 999q-104 178 -326 178q-223 0 -326.5 -170.5 t-103.5 -539.5zM285 221q102 -172 329 -172q223 0 326.5 170t103.5 537q0 291 -71 465z" />
<glyph unicode="&#xd9;" horiz-adv-x="1265" d="M154 598v918h69v-922q0 -285 98.5 -415t311.5 -130t311 130t98 415v922h70v-918q0 -164 -27.5 -280.5t-86 -191.5t-148.5 -110.5t-217 -35.5t-217 35.5t-148.5 110.5t-86 191.5t-27.5 280.5zM418 1864h78l161 -230l-65 -28z" />
<glyph unicode="&#xda;" horiz-adv-x="1265" d="M154 598v918h69v-922q0 -285 98.5 -415t311.5 -130t311 130t98 415v922h70v-918q0 -164 -27.5 -280.5t-86 -191.5t-148.5 -110.5t-217 -35.5t-217 35.5t-148.5 110.5t-86 191.5t-27.5 280.5zM594 1612l162 252h78l-175 -258z" />
<glyph unicode="&#xdb;" horiz-adv-x="1265" d="M154 598v918h69v-922q0 -285 98.5 -415t311.5 -130t311 130t98 415v922h70v-918q0 -164 -27.5 -280.5t-86 -191.5t-148.5 -110.5t-217 -35.5t-217 35.5t-148.5 110.5t-86 191.5t-27.5 280.5zM385 1677v84l248 148l248 -148v-84l-248 148z" />
<glyph unicode="&#xdc;" horiz-adv-x="1265" d="M154 598v918h69v-922q0 -285 98.5 -415t311.5 -130t311 130t98 415v922h70v-918q0 -164 -27.5 -280.5t-86 -191.5t-148.5 -110.5t-217 -35.5t-217 35.5t-148.5 110.5t-86 191.5t-27.5 280.5zM403 1726q0 33 17.5 47.5t42.5 14.5t43 -15.5t18 -46.5t-18 -45t-43 -14 t-42.5 14.5t-17.5 44.5zM743 1726q0 33 18.5 47.5t43.5 14.5q23 0 42 -15.5t19 -46.5t-19 -45t-42 -14q-25 0 -43.5 14.5t-18.5 44.5z" />
<glyph unicode="&#xdd;" horiz-adv-x="1009" d="M8 1516h74l364 -795l56 -141h4l55 141l365 795h73l-458 -1004v-512h-70v504zM473 1612l162 252h78l-174 -258z" />
<glyph unicode="&#xde;" horiz-adv-x="1026" d="M166 0v1516h70v-265q59 10 112 16.5t105 6.5q256 0 376.5 -123t120.5 -387q0 -268 -127 -391t-403 -123q-41 0 -87 2t-97 8v-260h-70zM236 334q53 -6 105 -10.5t101 -4.5q225 0 332 108t107 337q0 227 -101.5 333.5t-314.5 106.5q-49 0 -106.5 -6t-122.5 -16v-848z" />
<glyph unicode="&#xdf;" horiz-adv-x="980" d="M141 0v1268q0 203 83 298t261 95q176 0 260 -95.5t84 -297.5v-205h-145q-109 0 -172 -59.5t-63 -161.5q0 -66 18 -106t49 -65.5t71 -41t83 -29.5q68 -23 114.5 -51.5t76.5 -65.5t42 -86t12 -114q0 -68 -21.5 -124.5t-60 -97.5t-91 -63.5t-115.5 -22.5q-49 0 -106.5 8.5 t-153.5 30.5v70q66 -18 130 -28.5t119 -10.5q106 0 168 63.5t62 174.5q0 100 -47 159.5t-152 89.5q-47 14 -95 31t-87 49.5t-62.5 87t-23.5 142.5q0 133 82 212t219 79h80v135q0 176 -62.5 249.5t-212.5 73.5q-76 0 -128 -17.5t-84.5 -55t-47 -100t-14.5 -150.5v-1268h-70z " />
<glyph unicode="&#xe0;" horiz-adv-x="851" d="M70 260q0 299 379 330l200 16v172q0 143 -59.5 210t-188.5 67q-51 0 -116.5 -10.5t-128.5 -26.5l-13 69q72 16 145.5 25.5t127.5 9.5q303 0 303 -344v-778h-60l-12 133h-8q-35 -25 -73 -50.5t-79 -46t-85 -33.5t-89 -13q-117 0 -180 70.5t-63 199.5zM143 266 q1 -205 187 -205q43 0 88 17.5t87 41t80 49.5t64 42v328l-188 -15q-172 -12 -245 -73.5t-73 -184.5zM254 1634h74l151 -364l-47 -21z" />
<glyph unicode="&#xe1;" horiz-adv-x="851" d="M70 260q0 299 379 330l200 16v172q0 143 -59.5 210t-188.5 67q-51 0 -116.5 -10.5t-128.5 -26.5l-13 69q72 16 145.5 25.5t127.5 9.5q303 0 303 -344v-778h-60l-12 133h-8q-35 -25 -73 -50.5t-79 -46t-85 -33.5t-89 -13q-117 0 -180 70.5t-63 199.5zM143 266 q1 -205 187 -205q43 0 88 17.5t87 41t80 49.5t64 42v328l-188 -15q-172 -12 -245 -73.5t-73 -184.5zM414 1262l153 372h74l-178 -385z" />
<glyph unicode="&#xe2;" horiz-adv-x="851" d="M70 260q0 299 379 330l200 16v172q0 143 -59.5 210t-188.5 67q-51 0 -116.5 -10.5t-128.5 -26.5l-13 69q72 16 145.5 25.5t127.5 9.5q303 0 303 -344v-778h-60l-12 133h-8q-35 -25 -73 -50.5t-79 -46t-85 -33.5t-89 -13q-117 0 -180 70.5t-63 199.5zM143 266 q1 -205 187 -205q43 0 88 17.5t87 41t80 49.5t64 42v328l-188 -15q-172 -12 -245 -73.5t-73 -184.5zM188 1313v84l248 147l248 -147v-84l-248 147z" />
<glyph unicode="&#xe3;" horiz-adv-x="851" d="M70 260q0 299 379 330l200 16v172q0 143 -59.5 210t-188.5 67q-51 0 -116.5 -10.5t-128.5 -26.5l-13 69q72 16 145.5 25.5t127.5 9.5q303 0 303 -344v-778h-60l-12 133h-8q-35 -25 -73 -50.5t-79 -46t-85 -33.5t-89 -13q-117 0 -180 70.5t-63 199.5zM143 266 q1 -205 187 -205q43 0 88 17.5t87 41t80 49.5t64 42v328l-188 -15q-172 -12 -245 -73.5t-73 -184.5zM143 1352q29 35 77 67.5t95 32.5q39 0 70 -13.5t58.5 -30.5t55 -30.5t60.5 -13.5t60.5 22.5t44.5 59.5l57 -41q-20 -47 -67.5 -79t-94.5 -32q-39 0 -69.5 13.5t-58.5 31 t-55.5 30.5t-60.5 13q-35 0 -67.5 -24.5t-54.5 -54.5z" />
<glyph unicode="&#xe4;" horiz-adv-x="851" d="M70 260q0 299 379 330l200 16v172q0 143 -59.5 210t-188.5 67q-51 0 -116.5 -10.5t-128.5 -26.5l-13 69q72 16 145.5 25.5t127.5 9.5q303 0 303 -344v-778h-60l-12 133h-8q-35 -25 -73 -50.5t-79 -46t-85 -33.5t-89 -13q-117 0 -180 70.5t-63 199.5zM143 266 q1 -205 187 -205q43 0 88 17.5t87 41t80 49.5t64 42v328l-188 -15q-172 -12 -245 -73.5t-73 -184.5zM215 1358q0 29 16.5 42t40.5 13q23 0 39.5 -13.5t16.5 -41.5q0 -29 -16.5 -42t-39.5 -13q-25 0 -41 13t-16 42zM547 1358q0 29 16.5 42t40.5 13q23 0 39 -13.5t16 -41.5 q0 -29 -16 -42t-39 -13q-25 0 -41 13t-16 42z" />
<glyph unicode="&#xe5;" horiz-adv-x="851" d="M70 260q0 299 379 330l200 16v172q0 143 -59.5 210t-188.5 67q-51 0 -116.5 -10.5t-128.5 -26.5l-13 69q72 16 145.5 25.5t127.5 9.5q303 0 303 -344v-778h-60l-12 133h-8q-35 -25 -73 -50.5t-79 -46t-85 -33.5t-89 -13q-117 0 -180 70.5t-63 199.5zM143 266 q1 -205 187 -205q43 0 88 17.5t87 41t80 49.5t64 42v328l-188 -15q-172 -12 -245 -73.5t-73 -184.5zM258 1470q0 86 45 145.5t135 59.5t136.5 -59.5t46.5 -145.5t-47.5 -145t-135.5 -59t-134 59t-46 145zM328 1470q0 -57 28.5 -96t81.5 -39t83 39t30 96t-28.5 96.5 t-84.5 39.5q-55 0 -82.5 -39t-27.5 -97z" />
<glyph unicode="&#xe6;" horiz-adv-x="1427" d="M70 260q0 299 379 330l200 16v172q0 143 -59.5 210t-188.5 67q-51 0 -116.5 -10.5t-128.5 -26.5l-13 69q72 16 145.5 25.5t127.5 9.5q244 0 289 -229h8q94 231 323 231q150 0 230 -116.5t80 -337.5q0 -49 -2.5 -81t-6.5 -65h-618q4 -227 90 -350t240 -123q66 0 121 15.5 t120 50.5l10 -72q-114 -63 -251 -63q-113 0 -197 51t-131 143l-8 2q-80 -53 -137.5 -89t-101.5 -58.5t-82 -31.5t-79 -9q-117 0 -180 70.5t-63 199.5zM143 266q1 -205 187 -205q74 0 154.5 50.5t207.5 134.5q-43 117 -43 293l-188 -15q-172 -14 -245 -74.5t-73 -183.5z M719 594h551q-6 244 -61.5 352.5t-172.5 108.5q-141 0 -224 -120t-93 -341z" />
<glyph unicode="&#xe7;" horiz-adv-x="743" d="M90 553q0 285 101.5 429t302.5 144q31 0 69.5 -5t104.5 -17v-70q-51 12 -92 17.5t-82 5.5q-170 0 -250 -122t-80 -384q0 -256 81 -379t249 -123q57 0 174 25v-70q-35 -8 -72 -14t-70 -8q51 -115 52 -209q0 -224 -213 -224q-31 0 -62 5.5t-59 15.5v74q57 -25 121 -25 q143 0 143 154q0 47 -15.5 102t-41.5 107q-360 27 -361 571z" />
<glyph unicode="&#xe8;" horiz-adv-x="868" d="M90 528q0 291 99.5 443.5t287.5 152.5q150 0 229.5 -116.5t79.5 -337.5q0 -49 -2 -81t-6 -65h-614q4 -227 88 -350t237 -123q66 0 121.5 15.5t120.5 50.5l10 -72q-115 -63 -252 -63q-190 0 -294.5 143t-104.5 403zM164 594h549q0 129 -14.5 217t-44 142.5t-74 78 t-103.5 23.5q-141 0 -222 -120t-91 -341zM248 1634h74l151 -364l-47 -21z" />
<glyph unicode="&#xe9;" horiz-adv-x="868" d="M90 528q0 291 99.5 443.5t287.5 152.5q150 0 229.5 -116.5t79.5 -337.5q0 -49 -2 -81t-6 -65h-614q4 -227 88 -350t237 -123q66 0 121.5 15.5t120.5 50.5l10 -72q-115 -63 -252 -63q-190 0 -294.5 143t-104.5 403zM164 594h549q0 129 -14.5 217t-44 142.5t-74 78 t-103.5 23.5q-141 0 -222 -120t-91 -341zM436 1262l154 372h74l-179 -385z" />
<glyph unicode="&#xea;" horiz-adv-x="868" d="M90 528q0 291 99.5 443.5t287.5 152.5q150 0 229.5 -116.5t79.5 -337.5q0 -49 -2 -81t-6 -65h-614q4 -227 88 -350t237 -123q66 0 121.5 15.5t120.5 50.5l10 -72q-115 -63 -252 -63q-190 0 -294.5 143t-104.5 403zM164 594h549q0 129 -14.5 217t-44 142.5t-74 78 t-103.5 23.5q-141 0 -222 -120t-91 -341zM197 1313v84l247 147l248 -147v-84l-248 147z" />
<glyph unicode="&#xeb;" horiz-adv-x="868" d="M90 528q0 291 99.5 443.5t287.5 152.5q150 0 229.5 -116.5t79.5 -337.5q0 -49 -2 -81t-6 -65h-614q4 -227 88 -350t237 -123q66 0 121.5 15.5t120.5 50.5l10 -72q-115 -63 -252 -63q-190 0 -294.5 143t-104.5 403zM164 594h549q0 129 -14.5 217t-44 142.5t-74 78 t-103.5 23.5q-141 0 -222 -120t-91 -341zM229 1358q0 29 16.5 42t41.5 13q23 0 39 -13.5t16 -41.5q0 -29 -16 -42t-39 -13q-25 0 -41.5 13t-16.5 42zM561 1358q0 29 16.5 42t40.5 13q23 0 39.5 -13.5t16.5 -41.5q0 -29 -16.5 -42t-39.5 -13q-25 0 -41 13t-16 42z" />
<glyph unicode="&#xec;" horiz-adv-x="356" d="M-4 1634h74l151 -364l-47 -21zM143 0v1106h70v-1106h-70z" />
<glyph unicode="&#xed;" horiz-adv-x="356" d="M143 0v1106h70v-1106h-70zM156 1262l153 372h74l-178 -385z" />
<glyph unicode="&#xee;" horiz-adv-x="360" d="M-68 1313v84l248 147l248 -147v-84l-248 147zM145 0v1106h70v-1106h-70z" />
<glyph unicode="&#xef;" horiz-adv-x="360" d="M-41 1358q0 29 16.5 42t40.5 13q23 0 39.5 -13.5t16.5 -41.5q0 -29 -16.5 -42t-39.5 -13q-25 0 -41 13t-16 42zM145 0v1106h70v-1106h-70zM291 1358q0 29 16.5 42t40.5 13q23 0 39 -13.5t16 -41.5q0 -29 -16 -42t-39 -13q-25 0 -41 13t-16 42z" />
<glyph unicode="&#xf0;" horiz-adv-x="960" d="M90 553q0 281 99.5 427t289.5 146q154 0 252 -129q-43 168 -108 338l-195 -35v72l168 31q-29 66 -58.5 129t-62.5 123h74q33 -55 62.5 -114.5t56.5 -125.5l200 39v-72l-172 -32q39 -100 71 -205t54.5 -207t34.5 -200.5t12 -184.5q0 -281 -98 -425t-291 -144t-291 144 t-98 425zM164 553q0 -500 315 -500t316 500q0 80 -11.5 169t-45 162.5t-96 123t-163.5 49.5q-315 0 -315 -504z" />
<glyph unicode="&#xf1;" horiz-adv-x="929" d="M141 0v1106h62l8 -119h8q90 66 180 102.5t168 36.5q63 0 107.5 -14t71 -48t38 -89t11.5 -137v-838h-70v838q0 119 -36 169t-122 50q-160 0 -356 -137v-920h-70zM182 1352q29 35 77 67.5t95 32.5q39 0 70 -13.5t58.5 -30.5t55 -30.5t60.5 -13.5t60.5 22.5t43.5 59.5 l58 -41q-20 -47 -67.5 -79t-94.5 -32q-39 0 -69.5 13.5t-58.5 31t-55.5 30.5t-60.5 13q-35 0 -67.5 -24.5t-55.5 -54.5z" />
<glyph unicode="&#xf2;" horiz-adv-x="958" d="M90 553q0 281 99.5 427t289.5 146q193 0 291 -146t98 -427t-98 -425t-291 -144t-291 144t-98 425zM164 553q0 -500 315 -500t316 500q0 504 -316 504q-315 0 -315 -504zM268 1634h74l152 -364l-48 -21z" />
<glyph unicode="&#xf3;" horiz-adv-x="958" d="M90 553q0 281 99.5 427t289.5 146q193 0 291 -146t98 -427t-98 -425t-291 -144t-291 144t-98 425zM164 553q0 -500 315 -500t316 500q0 504 -316 504q-315 0 -315 -504zM428 1262l154 372h73l-178 -385z" />
<glyph unicode="&#xf4;" horiz-adv-x="958" d="M90 553q0 281 99.5 427t289.5 146q193 0 291 -146t98 -427t-98 -425t-291 -144t-291 144t-98 425zM164 553q0 -500 315 -500t316 500q0 504 -316 504q-315 0 -315 -504zM203 1313v84l248 147l247 -147v-84l-247 147z" />
<glyph unicode="&#xf5;" horiz-adv-x="958" d="M90 553q0 281 99.5 427t289.5 146q193 0 291 -146t98 -427t-98 -425t-291 -144t-291 144t-98 425zM158 1352q29 35 77 67.5t95 32.5q39 0 69.5 -13.5t58 -30.5t55.5 -30.5t60 -13.5q33 0 61 22.5t44 59.5l57 -41q-20 -47 -67 -79t-95 -32q-39 0 -69.5 13.5t-58 31 t-55.5 30.5t-60 13q-35 0 -68 -24.5t-55 -54.5zM164 553q0 -500 315 -500t316 500q0 504 -316 504q-315 0 -315 -504z" />
<glyph unicode="&#xf6;" horiz-adv-x="958" d="M90 553q0 281 99.5 427t289.5 146q193 0 291 -146t98 -427t-98 -425t-291 -144t-291 144t-98 425zM164 553q0 -500 315 -500t316 500q0 504 -316 504q-315 0 -315 -504zM229 1358q0 29 16.5 42t41.5 13q23 0 39 -13.5t16 -41.5q0 -29 -16 -42t-39 -13q-25 0 -41.5 13 t-16.5 42zM561 1358q0 29 16.5 42t40.5 13q23 0 39.5 -13.5t16.5 -41.5q0 -29 -16.5 -42t-39.5 -13q-25 0 -41 13t-16 42z" />
<glyph unicode="&#xf7;" horiz-adv-x="999" d="M127 723v70h745v-70h-745zM442 451q0 66 64 65q29 0 47 -18.5t18 -46.5q0 -29 -18 -46.5t-47 -17.5q-63 0 -64 64zM442 1047q0 66 64 65q29 0 47 -18.5t18 -46.5q0 -29 -18 -46.5t-47 -17.5q-63 0 -64 64z" />
<glyph unicode="&#xf8;" horiz-adv-x="962" d="M72 0l102 156q-82 145 -82 397q0 281 99.5 427t289.5 146q166 0 262 -112l62 92h80l-101 -152q41 -72 63.5 -172t22.5 -229q0 -281 -98 -425t-291 -144q-170 0 -264 112l-63 -96h-82zM166 553q0 -207 55 -330l481 727q-82 106 -221 107q-315 0 -315 -504zM258 158 q80 -105 223 -105q315 0 316 500q0 213 -58 334z" />
<glyph unicode="&#xf9;" d="M133 268v838h70v-838q0 -219 178 -219q76 0 156.5 36t179.5 108v913h69v-1106h-61l-8 119h-8q-98 -72 -178 -105.5t-150 -33.5q-135 0 -191.5 65.5t-56.5 222.5zM272 1634h74l152 -364l-47 -21z" />
<glyph unicode="&#xfa;" d="M133 268v838h70v-838q0 -219 178 -219q76 0 156.5 36t179.5 108v913h69v-1106h-61l-8 119h-8q-98 -72 -178 -105.5t-150 -33.5q-135 0 -191.5 65.5t-56.5 222.5zM432 1262l154 372h73l-178 -385z" />
<glyph unicode="&#xfb;" d="M133 268v838h70v-838q0 -219 178 -219q76 0 156.5 36t179.5 108v913h69v-1106h-61l-8 119h-8q-98 -72 -178 -105.5t-150 -33.5q-135 0 -191.5 65.5t-56.5 222.5zM207 1313v84l248 147l247 -147v-84l-247 147z" />
<glyph unicode="&#xfc;" d="M133 268v838h70v-838q0 -219 178 -219q76 0 156.5 36t179.5 108v913h69v-1106h-61l-8 119h-8q-98 -72 -178 -105.5t-150 -33.5q-135 0 -191.5 65.5t-56.5 222.5zM233 1358q0 29 16.5 42t41.5 13q23 0 39 -13.5t16 -41.5q0 -29 -16 -42t-39 -13q-25 0 -41.5 13t-16.5 42z M565 1358q0 29 16.5 42t41.5 13q23 0 39 -13.5t16 -41.5q0 -29 -16 -42t-39 -13q-25 0 -41.5 13t-16.5 42z" />
<glyph unicode="&#xfd;" horiz-adv-x="880" d="M33 1100v6h69l308 -897l30 -113h4l31 113l305 897h70v-6l-522 -1551l-68 15v8l148 432zM432 1262l154 372h73l-178 -385z" />
<glyph unicode="&#xfe;" horiz-adv-x="940" d="M141 -451v2106h70v-658q53 59 127 93t158 34q176 0 265 -139t89 -414q0 -287 -118 -439t-337 -152q-84 0 -184 22v-453h-70zM211 72q59 -10 106 -16.5t86 -6.5q182 0 277.5 133t95.5 389q0 238 -71.5 361t-212.5 123q-49 0 -99.5 -15.5t-90.5 -41t-65.5 -56.5t-25.5 -61 v-809z" />
<glyph unicode="&#xff;" horiz-adv-x="880" d="M33 1100v6h69l308 -897l30 -113h4l31 113l305 897h70v-6l-522 -1551l-68 15v8l148 432zM233 1358q0 29 16.5 42t41.5 13q23 0 39 -13.5t16 -41.5q0 -29 -16 -42t-39 -13q-25 0 -41.5 13t-16.5 42zM565 1358q0 29 16.5 42t41.5 13q23 0 39 -13.5t16 -41.5q0 -29 -16 -42 t-39 -13q-25 0 -41.5 13t-16.5 42z" />
<glyph unicode="&#x152;" horiz-adv-x="1513" d="M102 756q0 764 500 764h39t46.5 -1t45 -2t35.5 -1h643v-70h-582v-641h514v-70h-514v-665h601v-70h-662q-14 0 -35.5 -1t-45 -2t-46.5 -1h-39q-500 0 -500 760zM172 756q0 -360 102.5 -525t327.5 -165q31 0 80 1t78 3v1374q-29 4 -77 5t-81 1q-223 0 -326.5 -168 t-103.5 -526z" />
<glyph unicode="&#x153;" horiz-adv-x="1574" d="M90 553q0 281 99.5 427t289.5 146q141 0 228.5 -84t121.5 -245h9q39 160 125 243.5t221 83.5q150 0 229.5 -116.5t79.5 -337.5q0 -49 -2 -81t-6 -65h-615q4 -227 88 -350t238 -123q66 0 121 15.5t121 50.5l10 -72q-115 -63 -252 -63q-141 0 -231.5 82.5t-128.5 236.5h-9 q-74 -317 -348 -317q-193 0 -291 144t-98 425zM164 553q0 -500 315 -500t316 500q0 504 -316 504q-315 0 -315 -504zM870 594h547q-6 244 -61.5 352.5t-171.5 108.5q-141 0 -222 -120t-92 -341z" />
<glyph unicode="&#x178;" horiz-adv-x="1009" d="M8 1516h74l364 -795l56 -141h4l55 141l365 795h73l-458 -1004v-512h-70v504zM283 1726q0 33 17 47.5t42 14.5t43 -15.5t18 -46.5t-18 -45t-43 -14t-42 14.5t-17 44.5zM623 1726q0 33 18 47.5t43 14.5q23 0 42 -15.5t19 -46.5t-19 -45t-42 -14q-25 0 -43 14.5t-18 44.5z " />
<glyph unicode="&#x2c6;" horiz-adv-x="665" d="M70 1313v84l247 147l248 -147v-84l-248 147z" />
<glyph unicode="&#x2dc;" horiz-adv-x="798" d="M84 1352q29 35 77 67.5t95 32.5q39 0 69.5 -13.5t58.5 -30.5t55.5 -30.5t60.5 -13.5t60.5 22.5t43.5 59.5l58 -41q-20 -47 -67.5 -79t-94.5 -32q-39 0 -70 13.5t-58.5 31t-55 30.5t-60.5 13q-35 0 -67.5 -24.5t-55.5 -54.5z" />
<glyph unicode="&#x2000;" horiz-adv-x="954" />
<glyph unicode="&#x2001;" horiz-adv-x="1909" />
<glyph unicode="&#x2002;" horiz-adv-x="954" />
<glyph unicode="&#x2003;" horiz-adv-x="1909" />
<glyph unicode="&#x2004;" horiz-adv-x="636" />
<glyph unicode="&#x2005;" horiz-adv-x="477" />
<glyph unicode="&#x2006;" horiz-adv-x="318" />
<glyph unicode="&#x2007;" horiz-adv-x="318" />
<glyph unicode="&#x2008;" horiz-adv-x="238" />
<glyph unicode="&#x2009;" horiz-adv-x="381" />
<glyph unicode="&#x200a;" horiz-adv-x="106" />
<glyph unicode="&#x2010;" horiz-adv-x="618" d="M123 539v69h373v-69h-373z" />
<glyph unicode="&#x2011;" horiz-adv-x="618" d="M123 539v69h373v-69h-373z" />
<glyph unicode="&#x2012;" horiz-adv-x="618" d="M123 539v69h373v-69h-373z" />
<glyph unicode="&#x2013;" horiz-adv-x="962" d="M141 539v69h680v-69h-680z" />
<glyph unicode="&#x2014;" horiz-adv-x="1312" d="M141 539v69h1030v-69h-1030z" />
<glyph unicode="&#x2018;" horiz-adv-x="327" d="M106 1296q0 94 26 194.5t67 170.5l41 -16q-31 -80 -49.5 -173.5t-18.5 -175.5q0 -90 33 -190l-70 -21q-29 84 -29 211z" />
<glyph unicode="&#x2019;" horiz-adv-x="327" d="M94 1102q31 80 49.5 173t18.5 175q0 90 -33 190l70 21q29 -84 28 -211q0 -94 -25.5 -194.5t-66.5 -170.5z" />
<glyph unicode="&#x201a;" horiz-adv-x="333" d="M68 -246q31 80 49 173t18 175q0 90 -33 191l70 20q29 -84 29 -211q0 -94 -25.5 -194.5t-66.5 -169.5z" />
<glyph unicode="&#x201c;" horiz-adv-x="702" d="M106 1296q0 94 26 194.5t67 170.5l41 -16q-31 -80 -49.5 -173.5t-18.5 -175.5q0 -90 33 -190l-70 -21q-29 84 -29 211zM481 1296q0 94 25.5 194.5t66.5 170.5l41 -16q-31 -80 -49 -173.5t-18 -175.5q0 -90 33 -190l-70 -21q-29 84 -29 211z" />
<glyph unicode="&#x201d;" horiz-adv-x="702" d="M94 1102q31 80 49.5 173t18.5 175q0 90 -33 190l70 21q29 -84 28 -211q0 -94 -25.5 -194.5t-66.5 -170.5zM469 1102q31 80 49.5 173t18.5 175q0 90 -33 190l69 21q29 -84 29 -211q0 -94 -25.5 -194.5t-66.5 -170.5z" />
<glyph unicode="&#x201e;" horiz-adv-x="708" d="M68 -246q31 80 49 173t18 175q0 90 -33 191l70 20q29 -84 29 -211q0 -94 -25.5 -194.5t-66.5 -169.5zM442 -246q31 80 49.5 173t18.5 175q0 90 -33 191l70 20q29 -84 28 -211q0 -94 -25.5 -194.5t-66.5 -169.5z" />
<glyph unicode="&#x2022;" horiz-adv-x="540" d="M158 758q0 35 10 57.5t25.5 34.5t36 17t40.5 5t40 -5t36 -17t26.5 -34.5t10.5 -57.5t-10.5 -57.5t-26.5 -35t-36 -17.5t-40 -5t-40.5 5t-36 17.5t-25.5 35t-10 57.5z" />
<glyph unicode="&#x2026;" horiz-adv-x="1087" d="M121 61q0 66 63 66q29 0 47.5 -18.5t18.5 -47.5t-18.5 -46t-47.5 -17q-63 0 -63 63zM489 61q0 66 64 66q29 0 47 -18.5t18 -47.5t-18 -46t-47 -17q-63 0 -64 63zM840 61q0 66 63 66q29 0 47.5 -18.5t18.5 -47.5t-18.5 -46t-47.5 -17q-63 0 -63 63z" />
<glyph unicode="&#x202f;" horiz-adv-x="381" />
<glyph unicode="&#x2039;" horiz-adv-x="436" d="M82 549v8l192 487h74l-192 -487v-8l192 -488h-74z" />
<glyph unicode="&#x203a;" horiz-adv-x="436" d="M88 61l193 488v8l-193 487h74l192 -487v-8l-192 -488h-74z" />
<glyph unicode="&#x205f;" horiz-adv-x="477" />
<glyph unicode="&#x20ac;" horiz-adv-x="983" d="M84 551v70h149q-4 33 -4 66.5v68.5t1 69.5t3 67.5h-149v70h154q14 154 54 261t108.5 175.5t167 100.5t231.5 32q37 0 58.5 -1t49.5 -3l-30 -70q-12 2 -27.5 3t-42.5 1q-117 0 -203 -27.5t-146.5 -88t-95 -154.5t-49.5 -229h447l-41 -70h-412q-4 -33 -4 -66.5v-70.5v-70 t4 -65h387l-41 -70h-340q29 -262 145.5 -382t338.5 -120q10 0 31.5 1t48.5 3v-71q-14 -2 -30 -2h-44q-260 4 -396.5 139t-166.5 432h-156z" />
<glyph unicode="&#x2122;" horiz-adv-x="1505" d="M59 1446v70h504v-70h-217v-791h-70v791h-217zM670 655v861h71l277 -725l278 725h72v-861h-70v676l-243 -641h-72l-244 639v-674h-69z" />
<glyph unicode="&#x25fc;" horiz-adv-x="1105" d="M0 0v1106h1106v-1106h-1106z" />
</font>
</defs>
</svg>
